<svg xmlns="http://www.w3.org/2000/svg" width="25" height="29.092" viewBox="0 0 25 29.092"><defs><style>.a{fill:#228b57;}</style></defs><g transform="translate(-91 -16.607)"><rect className="a" width="29.092" height="25" rx="4" transform="translate(116 16.607) rotate(90)"/><g transform="translate(93 20.607)"><ellipse cx="1.401" cy="1.428" rx="1.401" ry="1.428" transform="translate(5.685 18.1)"/><ellipse cx="1.401" cy="1.428" rx="1.401" ry="1.428" transform="translate(16.093 18.1)"/><path d="M3.627,12.6a.732.732,0,0,0-.714-.6H0v1.485H2.316l2.8,14.249a.732.732,0,0,0,.714.6H18.934V26.846H6.423L5.84,23.877H18.934a.731.731,0,0,0,.711-.581L21.3,15.711H19.806L18.35,22.392H5.549Z" transform="translate(0 -12)"/><path d="M73.709,17.5,71.1,14.841v6.066H69.641V14.841L67.03,17.5,66,16.454,70.369,12l4.369,4.454Z" transform="translate(-57.989 -12)"/></g></g></svg>