<svg xmlns="http://www.w3.org/2000/svg" width="25" height="29.092" viewBox="0 0 25 29.092"><defs><style>.a{fill:#ac63ff;}</style></defs><g transform="translate(-66 -16.607)"><rect className="a" width="29.092" height="25" rx="4" transform="translate(91 16.607) rotate(90)"/><g transform="translate(69 18.607)"><path d="M90.109,0a.84.84,0,0,0-.829.85V20.285a.829.829,0,1,0,1.658,0V11.418h10.186a.84.84,0,0,0,.829-.85V.85a.84.84,0,0,0-.829-.85h-10.9l-.06,0Zm3.269,1.7H95.7V3.506h2.322V1.7H100.3V3.506H98.021V5.886H100.3V8.267H98.021V9.717H95.7V8.267H93.378v1.45H91.057V8.267h2.322V5.886H91.057V3.505h2.322Zm0,1.805V5.886H95.7V3.505H93.378ZM95.7,5.886V8.267h2.322V5.886Z" transform="translate(-83.002 0)"/><path d="M42.665,147.441c-2.51.364-4.265,1.234-4.265,2.515,0,1.725,2.933,3.123,7.107,3.123s7.107-1.4,7.107-3.123c0-1.281-1.755-2.151-4.265-2.514l-.348.607c1.892.269,3.191.835,3.191,1.491,0,.92-2.545,1.666-5.685,1.666s-5.685-.746-5.685-1.666c0-.654,1.291-1.219,3.188-1.489Z" transform="translate(-38.4 -128.785)"/></g></g></svg>