<svg xmlns="http://www.w3.org/2000/svg" width="25" height="29.276" viewBox="0 0 25 29.276"><defs><style>.a{fill:#b7b7b7;}</style></defs><g transform="translate(-16 -16.056)"><rect className="a" width="29.276" height="25" rx="4" transform="translate(41 16.056) rotate(90)"/><g transform="translate(19.44 19.064)"><path d="M54.72,40.357H68.814V36.48H54.72Zm1.007-2.907H67.807v1.938H55.727Z" transform="translate(-52.707 -34.542)"/><path d="M58.667,24.32H44.573a1.975,1.975,0,0,0-2.013,1.938V45.641a1.975,1.975,0,0,0,2.013,1.938H58.667a1.975,1.975,0,0,0,2.013-1.938V26.258A1.975,1.975,0,0,0,58.667,24.32Zm1.007,21.321a.991.991,0,0,1-1.007.969H44.573a.991.991,0,0,1-1.007-.969V26.258a.991.991,0,0,1,1.007-.969H58.667a.991.991,0,0,1,1.007.969Z" transform="translate(-42.56 -24.32)"/><path d="M55.727,75.867V72.96H54.72v3.877h4.027v-.969h-3.02Z" transform="translate(-52.707 -65.207)"/><path d="M55.727,106.267V103.36H54.72v3.877h4.027v-.969h-3.02Z" transform="translate(-52.707 -90.761)"/><path d="M55.727,136.667V133.76H54.72v3.877h4.027v-.969h-3.02Z" transform="translate(-52.707 -116.315)"/><path d="M86.127,75.867V72.96H85.12v3.877h4.027v-.969h-3.02Z" transform="translate(-78.073 -65.207)"/><path d="M116.527,75.867V72.96H115.52v3.877h4.027v-.969h-3.02Z" transform="translate(-103.439 -65.207)"/><path d="M86.127,106.267V103.36H85.12v3.877h4.027v-.969h-3.02Z" transform="translate(-78.073 -90.761)"/><path d="M86.127,136.667V133.76H85.12v3.877h4.027v-.969h-3.02Z" transform="translate(-78.073 -116.315)"/><path d="M116.527,111.113V103.36H115.52v8.722h4.027v-.969h-3.02Z" transform="translate(-103.439 -90.761)"/></g></g></svg>