<svg width="514" height="402" viewBox="0 0 514 402" fill="none" xmlns="http://www.w3.org/2000/svg">
<path d="M399.341 396.12H6.17651L122.855 217.698H506.485L399.341 396.12Z" fill="#EE3C23" stroke="#211E1F" stroke-width="1.73"/>
<path d="M399.341 290.792H6.17651L122.855 112.37H506.485L399.341 290.792Z" fill="#EE3C23" stroke="#211E1F" stroke-width="1.73"/>
<path d="M399.341 183.648H6.17676L122.855 5.22571H506.485L399.341 183.648Z" fill="#EE3C23" stroke="#211E1F" stroke-width="1.73"/>
<path d="M205.186 92.2594V99.3669H207.036V94H231.223V99.3669H233.072V92.2594H230.715L220.09 68.4348H218.168L207.507 92.2594H205.186ZM219.111 70.6468L228.648 92.2594H209.502L219.111 70.6468ZM238.281 94H240.167V84.5354H247.02C252.351 84.5354 256.92 81.8157 256.92 76.4489V76.3763C256.92 71.4809 253.076 68.6161 247.492 68.6161H238.281V94ZM240.167 82.7948V70.3567H247.347C251.879 70.3567 255.034 72.46 255.034 76.4851V76.5576C255.034 80.3652 251.843 82.7948 247.129 82.7948H240.167ZM267.375 94L282.642 68.6161H280.502L271.69 83.5926L261.754 68.6161H259.542L270.675 85.1882L265.272 94H267.375ZM287.505 94H289.39V81.8157H294.467L306.071 94H308.682L296.063 80.8366L308.174 68.6161H305.636L294.395 80.0751H289.39V68.6161H287.505V94Z" fill="black"/>
</svg>
