<svg xmlns="http://www.w3.org/2000/svg" width="93.95" height="145.997" viewBox="0 0 93.95 145.997"><defs><style>.a{fill-rule:evenodd;}</style></defs><g transform="translate(-11.268 -14.839)"><g transform="translate(11.268 14.839)"><path class="a" d="M117.728,14.875c-2.768.992-10.259,3.647-16.011,5.673-2.16.761-4.381,1.553-4.934,1.76s-2.276.822-3.827,1.366-6.626,2.337-11.278,3.984c-23.918,8.469-27.954,9.909-28.326,10.1-.343.181-.373.5-.373,4v3.8l-.949.495A11.564,11.564,0,0,0,47.99,50l-.751,1.311v3.464c0,2.952.054,3.571.366,4.188.356.7.356.759-.031,1.988A18.981,18.981,0,0,0,47.556,69a2.01,2.01,0,0,1,0,2.1c-.333.874-.4,1.543-.4,4.145,0,2.658.057,3.234.4,4.022l.4.919-.418,1.1c-.374.982-.412,1.458-.361,4.465.049,2.9.11,3.441.432,3.911.368.535.367.568-.051,1.683-.356.951-.433,1.639-.467,4.205-.038,2.829,0,3.15.427,4.107.317.7.4,1.119.273,1.287a7.092,7.092,0,0,0-.7,2.761c0,.359,0,1.143,0,1.742-.022,3.081.025,3.576.429,4.473.281.624.353,1,.22,1.161-.469.556-.773,2.84-.727,5.473.04,2.263.114,2.828.463,3.521l.415.825-.4,1.033c-.336.863-.406,1.551-.427,4.2-.022,2.792.023,3.272.383,4.049l.408.882-.445,1.334c-.388,1.163-.439,1.707-.4,4.265.033,2.307.114,3.074.385,3.6.432.848.43.969-.05,2.368-.339.99-.385,1.586-.329,4.3.058,2.808.114,3.247.522,4.037a12.56,12.56,0,0,0,5.538,5.005A25.348,25.348,0,0,0,60.8,158.1c.849,0,1.067.166,1.144.869.072.654.079.666.429.8.439.165,1.078-.422,1.078-.991a2.123,2.123,0,0,0-.864-1.754,7.369,7.369,0,0,0-2.122-.511c-4.857-.6-9.838-3.094-11.132-5.577-.682-1.308-.471-1.458.653-.466a16.057,16.057,0,0,0,5.6,3.009c2.158.717,5.634,1.35,6.308,1.149a2.2,2.2,0,0,0,1.477-1.653c.133-.713.42-1.066.72-.884.283.172.172,1.854-.164,2.492a2.889,2.889,0,0,0,.25,2.765c.968,1.068,2.494,1.08,7.073.058.434-.1.453-.047.453,1.2,0,.874.084,1.329.259,1.394a20.933,20.933,0,0,0,3.474-.982c8.077-2.713,22.509-7.153,27.382-8.426,8.77-2.288,13.98-3.452,19.435-4.338A87.492,87.492,0,0,1,136.1,144.9c3.787-.095,4.693-.17,4.783-.4.061-.156.088-25,.06-55.207-.044-48.57-.084-54.945-.352-55.111a10.292,10.292,0,0,0-2.467-.191l-2.165,0V28.734c0-4.737-.033-5.265-.339-5.38-.282-.107-1.022.1-3.236.885-.189.067-.252-.317-.252-1.521,0-1.228-.069-1.637-.293-1.722a5.163,5.163,0,0,0-1.746.4,15.5,15.5,0,0,1-1.62.513,3.961,3.961,0,0,1-.167-1.59c0-1.122-.078-1.619-.262-1.689a4.855,4.855,0,0,0-1.617.4c-1.99.737-1.949.76-1.949-1.071a4.444,4.444,0,0,0-.188-1.686,4.362,4.362,0,0,0-1.534.384,12.668,12.668,0,0,1-1.524.5c-.1,0-.178-.572-.178-1.27,0-1.492-.124-1.9-.576-1.889A24.443,24.443,0,0,0,117.728,14.875ZM120,16.317l-.06,1.334-5.437,1.925c-2.991,1.059-6.3,2.238-7.351,2.62-1.758.639-9.744,3.466-24.671,8.735-3.212,1.134-10.327,3.656-15.81,5.6l-9.969,3.542-.1,10.2-.1,10.2-1.077-.373a6.676,6.676,0,0,1-1.361-.6c-.239-.195-.275-1.884-.232-10.636l.052-10.4L55.094,38c.665-.255,3.7-1.345,6.747-2.423s8.71-3.086,12.587-4.462,8.272-2.933,9.768-3.46,4.849-1.714,7.452-2.638,8.176-2.9,12.386-4.385c7.808-2.759,9.054-3.2,13.293-4.741,1.329-.482,2.489-.884,2.577-.893S120.036,15.583,120,16.317Zm3.625,2.377-.059,1.336-2.619.939c-1.44.517-4.249,1.515-6.243,2.219s-6.163,2.18-9.264,3.28-7.361,2.608-9.466,3.351-6.591,2.331-9.969,3.528-8.363,2.962-11.077,3.921-7.064,2.507-9.667,3.438L60.532,42.4l-.052,9.452L60.427,61.3l-.451-.019a11.3,11.3,0,0,1-1.458-.249l-1.007-.23V40.68l2.115-.76c1.163-.418,3.293-1.175,4.733-1.683,6.777-2.391,17.668-6.252,28.5-10.1,3.268-1.162,6.8-2.407,7.854-2.767s3.681-1.29,5.841-2.068,4.924-1.761,6.142-2.185,4.073-1.436,6.344-2.25,4.245-1.486,4.39-1.493C123.622,17.361,123.673,17.7,123.628,18.694Zm3.828,2.423-.061,1.245L120.75,24.71c-3.655,1.292-9.637,3.411-13.293,4.711S99.135,32.374,97.085,33.1s-5.991,2.12-8.76,3.1c-7.95,2.823-14.08,5-16.917,6-1.44.507-3.635,1.284-4.878,1.726l-2.26.8-.1,9.229c-.053,5.076-.1,9.652-.1,10.17s0,2.766,0,5V74.17c0,6.237,0,9.279-.014,10.145-.006.571.009,2.821.035,5a27.816,27.816,0,0,1-.173,4.676,2.009,2.009,0,0,0,.057,1.484c.341.947.355,7.745.018,8.153a3.039,3.039,0,0,0,.021,2.262c.346.34.33,7.808-.017,7.922-.324.106-.312,2.049.015,2.37.369.362.312,7.225-.065,7.874a2.24,2.24,0,0,0-.022,2.138c.39.744.328,7.3-.08,8.506a1.587,1.587,0,0,0,0,1.484c.443,1,.533,7.3.118,8.164a2.588,2.588,0,0,0-.005,2.423c.238.334.3.879.252,2.367-.05,1.657-.108,1.943-.41,2s-.352-.11-.353-1.383c0-1.715-.416-2.561-1.508-3.073-.661-.309-.706-.391-.706-1.271s.041-.955.654-1.173c1.235-.44,1.453-.979,1.518-3.752.067-2.858-.177-3.528-1.454-3.981-.7-.249-.719-.282-.719-1.305,0-.889.057-1.049.373-1.049.477,0,1.385-.823,1.643-1.49a12.411,12.411,0,0,0,.2-2.63c0-2.435-.3-3.171-1.508-3.738-.657-.308-.706-.395-.706-1.248s.049-.94.706-1.247c1.238-.58,1.507-1.285,1.508-3.942,0-2.314,0-2.321-.626-3.02a2.985,2.985,0,0,0-1.108-.82c-.431-.106-.48-.226-.472-1.137.009-1,.028-1.027.856-1.426,1.186-.573,1.344-1,1.346-3.649,0-2.62-.292-3.374-1.511-3.875-.662-.272-.7-.34-.7-1.238s.043-.967.654-1.2c1.216-.472,1.452-1.028,1.527-3.6.083-2.859-.167-3.606-1.368-4.1-.8-.329-.809-.348-.811-1.372,0-.82.066-1.04.319-1.04A2.528,2.528,0,0,0,63.245,92a9.417,9.417,0,0,0,.178-2.959c-.065-2.16-.113-2.41-.545-2.861a3.681,3.681,0,0,0-1.057-.733c-.527-.215-.584-.328-.579-1.154,0-.866.047-.935.768-1.261,1.152-.521,1.443-1.3,1.443-3.889,0-1.893-.053-2.219-.455-2.814a3.229,3.229,0,0,0-1.1-.97c-.589-.27-.648-.378-.647-1.188,0-.828.058-.925.821-1.386,1.212-.732,1.385-1.209,1.385-3.821,0-2.018-.049-2.329-.457-2.93a2.292,2.292,0,0,0-1.108-.862c-.622-.181-.65-.233-.648-1.188s.028-1.01.8-1.372a2.591,2.591,0,0,0,1.417-2.662c0-.822-.07-1.018-.4-1.122-.867-.271-1.185.042-1.249,1.232-.036.674-.16,1.145-.314,1.195-.2.065-.243-1.782-.2-9.082l.052-9.165,2.92-1.046,4.531-1.623c.886-.317,3.424-1.217,5.639-2,5.274-1.863,10.688-3.782,13.695-4.853,1.329-.474,4.093-1.452,6.143-2.173s4.813-1.7,6.143-2.177,7.492-2.656,13.7-4.845,11.685-4.142,12.184-4.342a1.924,1.924,0,0,1,1.068-.22A3.53,3.53,0,0,1,127.456,21.117Zm3.866,2.167a2.278,2.278,0,0,1-.252,1.34c-.138.1-2.291.911-4.783,1.793s-10.6,3.751-18.025,6.374-13.947,4.94-14.5,5.149c-.927.349-13.358,4.755-18.528,6.568-5.74,2.012-6.865,2.424-7.1,2.6-.193.145-.252,1.821-.252,7.188v7l-.453.092c-.249.051-.884.147-1.41.214l-.957.122v-16.4l1.158-.407c.637-.224,4.421-1.566,8.408-2.982s13.458-4.772,21.046-7.457,16.56-5.863,19.938-7.062,7.774-2.756,9.768-3.459,4.078-1.442,4.632-1.641a3.169,3.169,0,0,1,1.158-.272A3.046,3.046,0,0,1,131.323,23.284Zm3.625,5.833v4.831l-.957.111c-.526.061-1.727.164-2.669.229-9.192.634-24.952,4.047-40.279,8.723-3.288,1-15.159,4.905-17.622,5.793l-1.611.581-.053,5.543c-.06,6.242.125,5.617-1.8,6.072a3.132,3.132,0,0,1-1.158.144c-.059-.057-.106-3.071-.106-6.7,0-6.217.021-6.6.373-6.788.442-.232,5.228-1.965,9.9-3.582,1.828-.633,4.728-1.658,6.445-2.277s5.206-1.863,7.754-2.765c15.291-5.411,30.691-10.874,38.265-13.574,1.772-.632,3.29-1.155,3.374-1.162A38.537,38.537,0,0,1,134.948,29.117Zm4.716,5.78c.289.109.318,5.1.318,54.605v54.485l-4.581.122a98.529,98.529,0,0,0-18.882,2.333c-5.52,1.1-15.443,3.643-22.053,5.653-6.049,1.839-20.549,6.468-21.712,6.932-.4.157-.238-1.924.162-2.128.166-.085,1.025-.494,1.908-.908a12.717,12.717,0,0,0,4.807-3.834,3.692,3.692,0,0,1,1.341-1.277,4.044,4.044,0,0,0,.957-.418c.431-.274.453-.411.453-2.833,0-1.906-.069-2.6-.274-2.768s-.736-.035-2.266.588a19.922,19.922,0,0,0-2.26,1.03c-.193.156-.239.546-.164,1.376l.105,1.16-1.233.892a12.72,12.72,0,0,1-3.581,1.86,7.276,7.276,0,0,1-.2-2.481c0-2.186.042-2.495.352-2.6.194-.065,1.1-.463,2.005-.886a12.323,12.323,0,0,0,4.841-3.868,3,3,0,0,1,1.663-1.434l.906-.325.056-2.72c.047-2.295.008-2.739-.252-2.837a8.73,8.73,0,0,0-2.423.719c-2.32.917-2.224.795-2.122,2.688.026.477-.134.758-.735,1.29a20.974,20.974,0,0,1-4.172,2.357,12.741,12.741,0,0,1-.12-2.458v-2.457l2.292-1.108a11.358,11.358,0,0,0,3.539-2.33,10.926,10.926,0,0,0,1.628-1.955,1.519,1.519,0,0,1,.942-.868,4.046,4.046,0,0,0,1.015-.425c.433-.275.453-.407.453-2.934,0-1.952-.067-2.672-.255-2.743a9.852,9.852,0,0,0-2.366.748l-2.112.842-.061,1.258a2.833,2.833,0,0,1-.4,1.631,14.042,14.042,0,0,1-4.459,2.5c-.138,0-.213-.866-.213-2.458v-2.457l.957-.347c2.48-.9,5.412-3.067,6.406-4.735a2.667,2.667,0,0,1,1.5-1.25c.665-.272,1.006-.529,1.014-.767a28.677,28.677,0,0,0-.219-5.094,15.888,15.888,0,0,0-4.374,1.524,2.468,2.468,0,0,0-.252,1.422c0,1.2-.022,1.247-.8,1.865a18.226,18.226,0,0,1-3.778,2.089l-.453.14v-5l.755-.306a14.279,14.279,0,0,0,6.665-4.84,2.708,2.708,0,0,1,1.5-1.241l.923-.347.062-2.414c.068-2.659.031-3.038-.31-3.163a19.493,19.493,0,0,0-4.31,1.634A2.507,2.507,0,0,0,77.55,107c0,1.063-.051,1.185-.755,1.824a8.972,8.972,0,0,1-2.718,1.71c-1.586.759-1.562.789-1.562-1.989V106.1l1.158-.434c2.535-.949,5.874-3.493,6.485-4.942a2.539,2.539,0,0,1,1.272-1.013l1.053-.5.056-2.378c.042-1.776-.014-2.474-.22-2.751-.268-.36-.323-.355-1.768.181-.82.3-1.831.72-2.247.924-.755.371-.755.371-.755,1.64s-.01,1.278-.856,1.947a12.526,12.526,0,0,1-3.487,1.923c-.159,0-.29.095-.29.209s-.091.155-.2.087a8.684,8.684,0,0,1-.2-2.595V95.924l.608-.208a14.412,14.412,0,0,0,6.852-4.9,2.516,2.516,0,0,1,1.43-1.214,2.058,2.058,0,0,0,.99-.607,20.721,20.721,0,0,0,.067-5.009c-.176-.451-.673-.391-2.44.295-2.43.943-2.472.984-2.472,2.356,0,1.065-.06,1.23-.654,1.79A21.948,21.948,0,0,1,72.62,90.8a14.587,14.587,0,0,1-.1-2.457V85.884l2.27-1.1a12.546,12.546,0,0,0,5.26-4.227A2.951,2.951,0,0,1,81.576,79.3l1.008-.426V76.347c0-3.3.046-3.26-2.661-2.171a11.8,11.8,0,0,0-2.22,1.057,4.15,4.15,0,0,0-.151,1.325c0,.946-.081,1.172-.557,1.6A14.919,14.919,0,0,1,72.717,80.5a6.465,6.465,0,0,1-.2-2.444V75.616l.856-.351a15.782,15.782,0,0,0,3.172-1.6A11.77,11.77,0,0,0,80.415,69.8a1.78,1.78,0,0,1,.943-.577,3.09,3.09,0,0,0,1.035-.512,9.883,9.883,0,0,0,.148-2.786c-.067-3.024,0-2.964-2.423-2.052-2.549.958-2.568.976-2.568,2.443,0,1.041-.075,1.315-.453,1.657a13.389,13.389,0,0,1-4.28,2.288c-.126.028-.2-.874-.2-2.4V65.413l1-.388c2.61-1.008,6.222-3.789,6.653-5.123a2.313,2.313,0,0,1,1.223-.893l1.088-.473V55.985c0-2-.064-2.6-.294-2.792s-.7-.078-2.366.594a11.8,11.8,0,0,0-2.22,1.057,4.613,4.613,0,0,0-.151,1.411c0,1.116-.045,1.221-.7,1.735a16.27,16.27,0,0,1-3.988,2.122c-.332,0-.352-.331-.3-5.066l.054-5.069,1.913-.678c4.166-1.477,14.189-4.712,19.252-6.214,16.136-4.786,30.09-7.613,40.361-8.175A40.364,40.364,0,0,1,139.664,34.9ZM52.9,48.943a2.3,2.3,0,0,1-.869.657A10.5,10.5,0,0,0,49.8,51.158c-.923.755-1.045.614-.454-.525a10.168,10.168,0,0,1,2.845-2.874l.69-.466.064.692A2.925,2.925,0,0,1,52.9,48.943Zm.078,4.329v2.46l-1.125.633c-1.329.748-1.734.646-2.432-.609-.432-.776-.432-.79-.057-1.552.565-1.15,2.768-3.3,3.464-3.374A9.945,9.945,0,0,1,52.979,53.271Zm28.957,2.715c-.048,1.853-.114,2.241-.412,2.425s-.437.117-.824-.358c-.315-.389-.578-.537-.8-.452-.468.177-.419-.044.212-.954a3.117,3.117,0,0,0,.583-1.654c.037-.878.29-1.2.942-1.209C81.961,53.781,81.989,53.98,81.937,55.987Zm-2.717-.87c-.21.56-.7,1.237-.888,1.237-.335,0-.187-1.163.174-1.37C79.057,54.669,79.366,54.727,79.22,55.117ZM52.979,58.242c0,.632-.038.68-.392.494-.6-.317-.691-.6-.283-.9C52.869,57.411,52.979,57.478,52.979,58.242Zm26.182.063c0,.466-.477,1.424-.678,1.358-.38-.124-.387-.74-.014-1.146S79.161,58.018,79.161,58.3Zm-1.4,1.632c.268.492-.165,1.035-1.608,2.017a16.031,16.031,0,0,1-3.44,1.726c-.109,0-.195-.379-.19-.841L72.531,62l2.459-1.213c1.353-.667,2.479-1.224,2.5-1.237S77.637,59.708,77.761,59.936ZM52.979,61.828v.724l-.453-.375c-.249-.206-.5-.406-.553-.443-.121-.082.613-.629.844-.629C52.906,61.1,52.979,61.431,52.979,61.828Zm2.517-.148c1,.346,1.007.351,1.069,1.3s.062.948-.5.811a10.757,10.757,0,0,1-1.422-.524c-.806-.361-.863-.439-.863-1.173C53.785,61.175,53.93,61.141,55.5,61.681Zm3.424.936c1.561.254,1.511.215,1.511,1.153a1.961,1.961,0,0,1-.152.968,5.587,5.587,0,0,1-1.51-.207l-1.358-.3v-.837c0-.939.137-1.168.594-.994A6.047,6.047,0,0,0,58.921,62.617Zm12.789.519c0,.732-.073.872-.554,1.068-.727.3-2.261.511-2.281.318-.009-.083-.053-.329-.1-.547-.189-.884.072-1.235,1.07-1.439C71.648,62.166,71.709,62.186,71.709,63.135Zm-20.356.03a3.463,3.463,0,0,0,.931.6c.648.3.7.388.7,1.255v.931l-1.254.655-1.254.655-.553-.655a2.648,2.648,0,0,1-.558-.886.339.339,0,0,0-.19-.3c-.273-.1.28-1.513.807-2.064S51,62.752,51.353,63.165Zm16.53.732c0,.636-.087.974-.252.982-.138.008-.516.048-.838.089-.954.122-1.36-.21-1.288-1.056.056-.668.121-.738.767-.828C67.922,62.853,67.883,62.833,67.883,63.9Zm14.1,2.242c0,2.12-.027,2.271-.42,2.394a.863.863,0,0,1-.869-.284,1.527,1.527,0,0,0-.788-.415c-.429,0-.426-.11.02-.761.694-1.014.9-1.592.786-2.17-.095-.467-.031-.621.325-.79C81.949,63.679,81.981,63.747,81.981,66.139ZM55.3,65.125l1.2.457L56.56,68.1l.056,2.518-.56-.13a10.419,10.419,0,0,1-1.416-.505l-.856-.375V67.27c0-1.938.075-2.6.293-2.6C54.091,64.668,54.642,64.874,55.3,65.125Zm23.71.562c-.611,1.023-.859,1.106-.859.286,0-.568.1-.76.453-.892C79.282,64.83,79.411,65.021,79.013,65.687Zm-7.3,2.439c0,2.151-.045,2.49-.352,2.644a6.4,6.4,0,0,1-2.441.523,17.62,17.62,0,0,1,.005-4.96,15.071,15.071,0,0,1,2.537-.652C71.647,65.663,71.709,66.272,71.709,68.125ZM59.122,66.131l1.208.25.056,2.509.056,2.508h-.494a9.348,9.348,0,0,1-1.517-.232l-1.022-.232V68.4c0-1.906.063-2.536.252-2.527C57.8,65.876,58.457,65.994,59.122,66.131Zm7.581.343,1.192-.027-.056,2.52-.056,2.52-.906.148c-.5.082-1.11.2-1.359.257L65.063,72V69.114c0-2.067.063-2.847.224-2.75A4.8,4.8,0,0,0,66.7,66.474ZM61.8,69.024c-.04,1.577-.132,2.268-.309,2.326s-.252-.478-.252-2.277a12.663,12.663,0,0,1,.138-2.494C61.725,66.233,61.85,66.956,61.8,69.024Zm-8.818-.693c0,.76-.129.835-.717.411-.386-.279-.386-.286.012-.681C52.847,67.492,52.979,67.543,52.979,68.33Zm26.034.693c-.329.822-.78,1.046-.9.445-.061-.309.734-1.215,1.08-1.231C79.269,68.234,79.188,68.588,79.014,69.023Zm-1.283,1.229c.257.405.22.487-.505,1.1a17.474,17.474,0,0,1-4.379,2.417c-.257,0-.332-.192-.332-.845v-.845l1.184-.462a22.525,22.525,0,0,0,2.366-1.129,13.207,13.207,0,0,1,1.284-.672C77.407,69.818,77.578,70.012,77.731,70.252Zm-24.751,1.74c0,.7-.2.748-.716.186-.322-.349-.333-.434-.082-.591C52.721,71.252,52.979,71.384,52.979,71.992ZM56.6,73.212v.94l-.856-.3c-1.861-.642-1.964-.719-1.964-1.484a2.006,2.006,0,0,1,.112-.821,4.192,4.192,0,0,1,1.41.3l1.3.415Zm15.065.11c-.058.886-.1.942-.766,1.1-.388.092-1,.242-1.354.333-.622.158-.655.138-.776-.5-.186-.975-.064-1.136,1.138-1.5C71.68,72.222,71.741,72.241,71.67,73.322ZM59.122,72.85l1.208.247v1.765l-.906-.064a5.714,5.714,0,0,1-1.46-.3c-.481-.2-.554-.344-.554-1.074C57.41,72.481,57.374,72.493,59.122,72.85Zm-7.937.445a6.345,6.345,0,0,0,1.023.666c.585.307.677.463.724,1.221.053.862.046.873-1.073,1.512a8.16,8.16,0,0,1-1.277.643c-.232,0-.965-.826-1.3-1.467-.329-.625-.194-1.065.72-2.343C50.446,72.9,50.69,72.855,51.185,73.3Zm16.658.825-.061.94H65.567v-.783c0-.856.281-1.037,1.673-1.078l.666-.02Zm14.137,2.232c0,1.932-.041,2.18-.389,2.364-.561.295-.7.259-.922-.24a.952.952,0,0,0-.652-.509c-.474-.066-.6-.322-.251-.531a4.013,4.013,0,0,0,.92-2.391c-.094-.367,0-.524.437-.75a1.2,1.2,0,0,1,.707-.194A9.159,9.159,0,0,1,81.981,76.352ZM54.7,75.126a4.262,4.262,0,0,0,1.047.4l.856.239v5.117l-1.158-.424a9.355,9.355,0,0,1-1.41-.611c-.177-.132-.252-.89-.252-2.539,0-2.132.034-2.351.363-2.351A1,1,0,0,1,54.7,75.126Zm24.46.25c0,.306-.659,1.367-.849,1.367-.263,0-.176-1.345.094-1.453C78.845,75.116,79.161,75.152,79.161,75.377ZM59.682,76.449l.761.116-.056,2.514-.056,2.514-.7-.062a11.108,11.108,0,0,1-1.46-.255l-.755-.193V78.649a15.8,15.8,0,0,1,.112-2.544,1.367,1.367,0,0,1,.755.059C58.631,76.257,59.263,76.385,59.682,76.449Zm12.028,1.945v2.443l-.755.233a7.641,7.641,0,0,1-1.425.279l-.67.046-.01-2.433a21.653,21.653,0,0,1,.066-2.5,16.538,16.538,0,0,1,2.442-.489C71.675,75.954,71.709,76.191,71.709,78.394Zm-3.827.769c0,2.848.179,2.579-1.863,2.809l-.957.108V76.644h2.819Zm-6.143.054c0,1.7-.069,2.365-.252,2.425s-.252-.507-.252-2.425.059-2.488.252-2.425S61.74,77.52,61.74,79.218Zm-8.761-.693c0,.621-.335.779-.763.359-.184-.181-.163-.317.092-.594C52.782,77.776,52.979,77.845,52.979,78.525Zm26.182.217c0,.306-.659,1.367-.849,1.367-.287,0-.164-.853.175-1.222C78.862,78.48,79.161,78.416,79.161,78.742Zm-1.429,1.608c.261.411.216.493-.694,1.28a19.174,19.174,0,0,1-4.4,2.438c-.071,0-.128-.4-.128-.9,0-.676.087-.927.352-1.018a27.267,27.267,0,0,0,3.854-1.872C77.329,79.812,77.393,79.816,77.732,80.349ZM52.979,82.088c0,.667-.149.729-.717.3-.387-.294-.387-.3,0-.594C52.831,81.359,52.979,81.421,52.979,82.088Zm1.712-.2a.663.663,0,0,0,.506.2,2.723,2.723,0,0,1,.894.23c.438.2.513.359.513,1.11,0,.82-.032.873-.464.766a12.221,12.221,0,0,1-1.41-.526c-.9-.39-.945-.452-.945-1.194,0-.643.07-.783.391-.783A.677.677,0,0,1,54.691,81.89Zm17.018,1.558v.964l-.856.213c-1.956.486-1.909.491-2.022-.212-.145-.9.3-1.527,1.12-1.552a5.636,5.636,0,0,0,1.707-.356A4.328,4.328,0,0,1,71.709,83.448ZM60.079,83.2c.266.076.352.312.352.966a1.857,1.857,0,0,1-.151.946,6.261,6.261,0,0,1-1.51-.214l-1.359-.294V82.834l1.158.133A14.857,14.857,0,0,1,60.079,83.2Zm-8.227.717c1.077.619,1.12.675,1.124,1.481,0,.788-.046.862-.852,1.26a7.459,7.459,0,0,0-1.2.724c-.439.379-.769.143-1.487-1.06l-.5-.844.443-.854c.411-.792.9-1.329,1.224-1.344A7.93,7.93,0,0,1,51.852,83.919Zm16.031.346v.99H66.8c-1.192,0-1.528-.233-1.4-.978.1-.608.114-.62.917-.807C67.79,83.127,67.883,83.174,67.883,84.265Zm14.1,2.273v2.273l-.517.128a.646.646,0,0,1-.817-.293,1.012,1.012,0,0,0-.691-.421c-.5,0-.5,0,.22-1.331a2.566,2.566,0,0,0,.491-1.662c-.127-.568.253-.948.962-.96C81.944,84.266,81.981,84.5,81.981,86.538ZM56.56,88.564l.056,2.6L55.251,90.6l-1.365-.566L53.828,87.8a17.753,17.753,0,0,1,.041-2.477c.074-.191.4-.145,1.366.2l1.269.446ZM79.16,85.5a2.944,2.944,0,0,1-.452.94l-.451.693-.068-.684c-.048-.482.038-.76.289-.94C78.928,85.188,79.161,85.185,79.16,85.5Zm-7.451,3.08v2.536l-1.357.319c-1.023.241-1.4.262-1.517.087a20.3,20.3,0,0,1,.081-4.778,10.473,10.473,0,0,1,2.441-.675C71.675,86.049,71.709,86.29,71.709,88.582ZM58.618,86.425c.388.1.954.232,1.259.3l.554.122v2.471c0,2.809.139,2.644-1.88,2.245l-1.141-.225V88.791C57.41,86.025,57.367,86.109,58.618,86.425Zm9.264,3v2.557l-.655,0a7.956,7.956,0,0,0-1.41.177l-.755.172v-5.6l1.41.066,1.41.066Zm-6.086.046c-.04,1.528-.132,2.206-.308,2.264-.193.063-.252-.509-.252-2.433,0-2.236.034-2.487.308-2.264C61.795,87.245,61.843,87.709,61.8,89.475Zm-8.817-.756c0,.759-.129.834-.714.414-.381-.274-.381-.287-.007-.693C52.8,87.854,52.979,87.924,52.979,88.719Zm25.886.877c-.369.7-.712.794-.712.194,0-.422.855-1.278.969-.97A1.7,1.7,0,0,1,78.866,89.6Zm-1.17.991c.214.338.129.485-.724,1.237a14.973,14.973,0,0,1-4.224,2.338c-.142,0-.233-.347-.233-.89,0-.49.092-.89.205-.89a25.082,25.082,0,0,0,3.923-1.859C77.18,90.115,77.405,90.129,77.7,90.587Zm-24.717,1.6c0,.621-.335.779-.763.359-.184-.181-.163-.317.092-.594C52.782,91.434,52.979,91.5,52.979,92.183Zm2.669.17.957.306v1.9l-1.057-.411c-.581-.226-1.216-.459-1.41-.518-.253-.076-.352-.313-.352-.841,0-.846.151-1.069.594-.876C54.551,91.986,55.122,92.186,55.648,92.353Zm16.061,1.3c0,.814-.047.891-.66,1.09a7.125,7.125,0,0,1-1.46.262c-.773.047-.8.026-.865-.619-.082-.845.089-1.005,1.41-1.32C71.733,92.685,71.709,92.676,71.709,93.652Zm-11.886-.288c.439.115.516.258.569,1.07l.062.939-.767-.133c-2.334-.4-2.17-.3-2.238-1.347l-.062-.946.964.142C58.882,93.167,59.544,93.291,59.823,93.364Zm-8.5.375c.3.2.8.516,1.1.7.464.276.554.466.554,1.166,0,.826-.018.847-1.285,1.518-1.449.769-1.524.747-2.34-.681-.407-.713-.411-.771-.086-1.46.366-.777,1.058-1.608,1.338-1.608A2.36,2.36,0,0,1,51.326,93.739Zm16.557.7c0,.61-.1.9-.319.99a4.118,4.118,0,0,1-2.1-.028,3.65,3.65,0,0,0-.119-.576c-.188-.689.55-1.255,1.633-1.255h.906Zm14.1,2.3c0,1.932-.041,2.18-.389,2.364-.552.29-.819.255-.819-.109,0-.173-.272-.415-.6-.538-.715-.266-.727-.327-.2-.983a1.794,1.794,0,0,0,.4-.807.556.556,0,0,1,.22-.437c.128-.078.169-.4.1-.765-.106-.557-.055-.656.435-.835a1.444,1.444,0,0,1,.707-.126A8.991,8.991,0,0,1,81.981,96.741Zm-25.728-.715c.312.092.352.395.352,2.609v2.5l-.591-.116a7.562,7.562,0,0,1-1.36-.471l-.768-.356-.057-2.263a18.407,18.407,0,0,1,.039-2.51c.073-.188.327-.159,1.064.125C55.464,95.754,56.058,95.969,56.252,96.026Zm22.8-.032a2.487,2.487,0,0,1-.517.836c-.377.386-.382.382-.382-.33,0-.687.176-.9.769-.936C79.105,95.553,79.146,95.688,79.053,95.994Zm-7.343,2.823v2.453l-.755.209c-.415.115-1.1.265-1.517.333l-.761.123.057-2.549.057-2.55,1.171-.227a6.017,6.017,0,0,0,1.287-.341C71.587,95.932,71.709,96.605,71.709,98.817ZM59.984,96.858c.453.085.458.121.4,2.6l-.056,2.518-.806-.061a8.009,8.009,0,0,1-1.46-.263l-.655-.2V99.03a16.52,16.52,0,0,1,.105-2.529,2.735,2.735,0,0,1,1.057.084C59.1,96.688,59.731,96.811,59.984,96.858Zm1.854,2.584c0,2.034-.093,2.639-.421,2.639a20.246,20.246,0,0,1-.042-5.018C61.683,96.759,61.835,97.538,61.838,99.442Zm6.045.088c0,2.875.163,2.628-1.863,2.811l-.957.086v-5.4l1.41-.023,1.41-.024Zm-14.9-.518c0,.795-.181.865-.721.279-.374-.407-.374-.419.007-.693C52.85,98.179,52.979,98.253,52.979,99.013Zm26.08.247c-.08.19-.189.5-.243.679a.738.738,0,0,1-.38.438c-.4.152-.365-.65.051-1.1S79.249,98.806,79.059,99.26Zm-1.393,1.523c.1.389-.022.61-.617,1.124a14.105,14.105,0,0,1-3.426,2.132c-.527.229-.992.417-1.033.417a2.578,2.578,0,0,1-.075-.867v-.866l2.021-.953a14.367,14.367,0,0,0,2.24-1.211C77.12,100.151,77.531,100.254,77.666,100.784Zm-24.686,1.594c0,.764-.133.838-.717.4-.382-.288-.38-.3.113-.689a4.723,4.723,0,0,1,.554-.4A2.381,2.381,0,0,1,52.979,102.378Zm2.517.081c1,.346,1.007.351,1.069,1.3l.062.948-.566-.135a9.464,9.464,0,0,1-1.422-.537c-.791-.372-.856-.46-.856-1.176C53.785,101.954,53.934,101.92,55.5,102.459Zm16.213,1.375v.961l-1.348.327a3.227,3.227,0,0,1-1.524.154,1.673,1.673,0,0,1-.112-.935c.064-.759.069-.764,1.373-1.1.72-.186,1.377-.345,1.46-.353S71.709,103.3,71.709,103.834Zm-12.764-.461,1.032.208c.388.077.453.217.453.966a1.9,1.9,0,0,1-.151.956,6.276,6.276,0,0,1-1.51-.215l-1.359-.294v-.985c0-.938.023-.98.478-.869C58.151,103.2,58.627,103.309,58.946,103.373Zm-7.094.935c1.072.616,1.12.678,1.124,1.466,0,.8-.024.839-1.255,1.52l-1.259.7L50,107.563a4.3,4.3,0,0,1-.785-1.089c-.3-.626-.295-.7.144-1.487C50.243,103.4,50.262,103.394,51.852,104.308Zm16.031.326v.969l-.755.07c-1.582.147-2.033-.184-1.751-1.287.129-.5.4-.6,1.953-.689C67.862,103.666,67.883,103.7,67.883,104.634Zm14.028,2.215a7.552,7.552,0,0,1-.176,2.309c-.32.382-.771.3-1.281-.246-.3-.322-.583-.448-.806-.364-.249.094-.142-.222.4-1.173s.707-1.434.611-1.812c-.105-.414-.041-.545.344-.7a1.554,1.554,0,0,1,.676-.133A5.755,5.755,0,0,1,81.911,106.848Zm-26.263-.836.957.307v5.109l-.464-.115a12.1,12.1,0,0,1-1.41-.526l-.945-.411v-2.333a12.18,12.18,0,0,1,.141-2.471.468.468,0,0,1,.453,0C54.551,105.645,55.122,105.844,55.648,106.012Zm23.4.077a4.688,4.688,0,0,1-.467.935l-.323.489-.066-.678c-.046-.476.04-.756.29-.935C79.006,105.521,79.206,105.588,79.045,106.09Zm-7.38,2.87-.056,2.524-1.309.322a5.36,5.36,0,0,1-1.46.236,14.939,14.939,0,0,1,.1-4.95,12.609,12.609,0,0,1,2.524-.633C71.663,106.441,71.709,107,71.665,108.96Zm-11.888-1.9.655.2v2.459c0,2.8.138,2.631-1.88,2.234l-1.141-.226V106.6l.856.13A13.242,13.242,0,0,1,59.777,107.058Zm8.062,2.7-.056,2.5-1.36.218-1.359.218v-5.563l1.416.066,1.416.065Zm-6.041-.022c-.04,1.631-.131,2.335-.308,2.392s-.252-.484-.252-2.309c0-2.016.048-2.392.309-2.392S61.845,107.769,61.8,109.735Zm-8.817-.627c0,.759-.129.834-.714.414-.381-.274-.381-.287-.007-.693C52.8,108.243,52.979,108.313,52.979,109.108Zm26.182.007a8.019,8.019,0,0,1-.887,1.675c-.291,0-.213-.874.115-1.284C78.751,109.055,79.161,108.847,79.161,109.116Zm-1.41,2.171c0,.3-1.03,1.25-1.959,1.805a18.052,18.052,0,0,1-3.1,1.46c-.1,0-.176-.381-.176-.847v-.847l1.359-.574a19.909,19.909,0,0,0,2.366-1.21c.9-.568,1.034-.6,1.259-.323A1.116,1.116,0,0,1,77.751,111.287Zm-24.772,1.286c0,.654-.387.792-.811.29-.212-.25-.19-.352.126-.588C52.856,111.858,52.979,111.912,52.979,112.573Zm2.323.06,1.2.456.062.947c.06.908.043.94-.4.806a13.8,13.8,0,0,1-1.371-.561c-.842-.391-.911-.48-.968-1.262-.034-.462.015-.841.108-.841A10.6,10.6,0,0,1,55.3,112.633ZM71.67,114.1l-.061.937-1.193.259c-1.483.322-1.728.235-1.728-.618,0-.814.227-1.02,1.41-1.276C71.735,113.05,71.739,113.052,71.67,114.1Zm-11.692-.319c.379.138.453.312.453,1.068v.9l-1.057-.134c-1.808-.229-1.964-.337-1.964-1.367v-.9l1.057.134A9.478,9.478,0,0,1,59.978,113.783Zm-8.129.7c1.071.684,1.13.764,1.129,1.534,0,.8-.025.825-1.317,1.5l-1.315.687-.489-.588a2.294,2.294,0,0,1-.5-.835.238.238,0,0,0-.209-.248c-.3,0-.245-.528.124-1.247.352-.685,1.067-1.524,1.3-1.524A8.151,8.151,0,0,1,51.849,114.481Zm16.034.247c0,1.085-.146,1.21-1.419,1.21-.825,0-1.2-.363-1.2-1.163,0-.508.287-.677,1.41-.835.5-.07.974-.139,1.057-.153S67.883,114.2,67.883,114.728ZM81.791,115a17.07,17.07,0,0,1-.276,4.545c-.413.258-.711.171-.846-.247a.92.92,0,0,0-.7-.517l-.573-.113.566-.919c.736-1.193.9-1.762.615-2.1-.184-.217-.114-.337.336-.577C81.611,114.695,81.776,114.681,81.791,115Zm-26.365,1.164,1.179.423v2.447c0,2.9-.023,2.917-2.417,1.672-.393-.2-.564-4.964-.178-4.964A9,9,0,0,1,55.426,116.162Zm23.734-.075a3.623,3.623,0,0,1-.452.841l-.451.693-.067-.672c-.04-.406.039-.739.2-.839C78.724,115.9,79.161,115.889,79.16,116.086Zm-7.451,2.993v2.548l-.957.269a7.321,7.321,0,0,1-1.46.274c-.5,0-.5,0-.562-2.076-.08-2.853-.08-2.853,1.313-3.157.994-.216,1.264-.281,1.616-.39C71.687,116.538,71.709,117.678,71.709,119.079Zm-12.336-1.908,1.057.191v2.443a11.316,11.316,0,0,1-.151,2.521,6.4,6.4,0,0,1-1.46-.136l-1.309-.215-.057-2.364c-.064-2.653,0-2.991.512-2.778A10.087,10.087,0,0,0,59.374,117.171Zm8.509,2.717v2.545l-1.057.132c-.581.073-1.216.176-1.41.23-.323.09-.352-.128-.352-2.651V117.4l1.41-.025,1.41-.026ZM61.74,120c0,1.7-.069,2.366-.252,2.425s-.252-.507-.252-2.425.059-2.488.252-2.425S61.74,118.3,61.74,120Zm-8.761-.594c0,.8-.066.833-.643.3-.353-.323-.381-.44-.168-.692C52.619,118.478,52.979,118.651,52.979,119.4Zm25.885.55c-.373.877-.632,1.054-.772.529-.07-.264.067-.573.4-.9C79.139,118.947,79.246,119.054,78.865,119.952Zm-1.315.919a1.648,1.648,0,0,0,.112.468c.165.424-1.1,1.5-2.885,2.465-2,1.079-2.262,1.084-2.262.051v-.794l1.717-.779a16.459,16.459,0,0,0,2.242-1.186C77.024,120.669,77.55,120.56,77.55,120.87ZM52.91,123.4c-.168.165-.938-.333-.938-.606,0-.143.2-.35.453-.46.409-.181.459-.143.518.385A1.411,1.411,0,0,1,52.91,123.4Zm2.285-.629a2.444,2.444,0,0,0,.957.29c.41.006.453.1.453,1.019,0,.957-.025,1.005-.464.9a12.233,12.233,0,0,1-1.41-.525c-.9-.39-.945-.452-.945-1.194,0-.681.058-.781.453-.776A2.46,2.46,0,0,1,55.195,122.767ZM71.67,124.2l-.061.939-1.3.344c-1.5.4-1.7.28-1.506-.835.146-.826.15-.829.735-.9a4.563,4.563,0,0,0,.963-.258C71.556,123.065,71.737,123.175,71.67,124.2Zm-11.692-.233c.4.083.453.216.453,1.093,0,.858-.05.985-.352.9-.194-.054-.874-.208-1.511-.342l-1.158-.244v-.826a2.57,2.57,0,0,1,.108-.933A7.579,7.579,0,0,1,59.978,123.967Zm-8.126.729c1.073.617,1.12.678,1.124,1.467,0,.807-.023.839-1.255,1.511s-1.269.678-1.662.326a4.806,4.806,0,0,1-.783-1.058c-.329-.6-.346-.778-.123-1.305.346-.821.975-1.583,1.307-1.583A5.786,5.786,0,0,1,51.852,124.7Zm15.992.293-.061.936-.881.146c-1.12.186-1.637-.07-1.637-.813,0-.828.484-1.1,2.075-1.178C67.891,124.054,67.9,124.076,67.843,124.989Zm13.936,2.337c0,2.186-.019,2.29-.453,2.451-.367.136-.5.078-.711-.3a.876.876,0,0,0-.621-.471c-.618,0-.616-.2.014-1.192a2.357,2.357,0,0,0,.527-1.655c-.065-.548,0-.732.329-.888C81.743,124.847,81.779,124.928,81.779,127.326ZM55.3,126.292l1.2.457.056,2.512a9.757,9.757,0,0,1-.108,2.512,10.821,10.821,0,0,1-1.365-.457l-1.2-.457-.057-2.253c-.051-2.006.007-2.772.21-2.772C54.073,125.835,54.642,126.041,55.3,126.292Zm23.747.186c-.288.93-1.161,1.452-.994.593a5.838,5.838,0,0,0,.083-.578c.013-.2.33-.359.885-.437C79.114,126.044,79.126,126.234,79.05,126.478Zm-7.341,2.88v2.534l-1.36.312a5.45,5.45,0,0,1-1.46.222,17.911,17.911,0,0,1-.03-4.638c.161-.412.4-.561,1.174-.719C71.847,126.7,71.709,126.511,71.709,129.359Zm-12.587-2.072,1.208.246.057,2.544.057,2.545-.963-.113a8.171,8.171,0,0,1-1.517-.32l-.554-.207V129.5c0-1.856.063-2.478.252-2.471C57.8,127.037,58.457,127.151,59.122,127.287Zm8.761,2.854v2.622h-.475a14.149,14.149,0,0,0-1.41.126l-.935.126v-2.666a23.641,23.641,0,0,1,.085-2.749,6.8,6.8,0,0,1,1.41-.083h1.325Zm-6.157-2.213c.368.361.452,3.271.12,4.13-.423,1.093-.609.493-.609-1.967a17.9,17.9,0,0,1,.086-2.474A1.371,1.371,0,0,1,61.726,127.928Zm-8.746,1.583c0,.55-.074.693-.331.644a.664.664,0,0,1-.489-1.038C52.622,128.57,52.979,128.742,52.979,129.512Zm26.181.035c0,.35-.829,1.443-1.009,1.334-.313-.19-.234-.529.239-1.025C78.827,129.4,79.162,129.265,79.16,129.547Zm-1.54,1.782c.1.456-.014.659-.689,1.249a16.536,16.536,0,0,1-3.963,2.257c-.423.125-.453.074-.453-.749V133.2l1.259-.527a20.953,20.953,0,0,0,2.366-1.206,9.285,9.285,0,0,1,1.235-.683C77.446,130.786,77.556,131.029,77.62,131.329Zm-24.641,1.727c0,.663-.019.68-.5.463-.588-.263-.651-.651-.151-.938C52.888,132.259,52.979,132.326,52.979,133.056Zm2.238-.1c1.17.347,1.387.568,1.387,1.418,0,.806,0,.809-.646.683-1.251-.246-2.068-.771-2.138-1.374-.094-.809.1-1.191.52-1.022C54.533,132.742,54.928,132.875,55.217,132.96Zm16.492,1.47c0,.814-.047.891-.66,1.09a7.123,7.123,0,0,1-1.46.262c-.862.053-.843.093-.717-1.569.01-.127.494-.317,1.075-.422C71.754,133.468,71.709,133.452,71.709,134.43Zm-12.124-.344.866.119-.06.912-.06.912-.8-.049a7.064,7.064,0,0,1-1.46-.263c-.617-.2-.66-.273-.66-1.114v-.9l.655.132C58.425,133.907,59.109,134.021,59.585,134.086Zm-8.217.5c.388.24.886.532,1.108.648.309.161.4.413.4,1.078,0,.8-.061.9-.806,1.335-1.729,1-1.711,1-2.239.353a2.268,2.268,0,0,1-.479-.81.788.788,0,0,0-.3-.466c-.261-.213-.257-.317.031-.866.48-.912,1.116-1.712,1.361-1.711A3.211,3.211,0,0,1,51.368,134.588Zm16.515.538v.978l-.94.138c-1.116.165-1.553-.048-1.643-.8-.085-.7.1-.867,1.188-1.077C67.926,134.087,67.883,134.064,67.883,135.127Zm13.9,2.282c0,2.126-.028,2.284-.437,2.5-.379.2-.489.16-.823-.29a1.239,1.239,0,0,0-.771-.52c-.414,0-.519-.292-.178-.5a3.783,3.783,0,0,0,.932-2.461c-.1-.494-.04-.6.429-.772a5.409,5.409,0,0,1,.7-.212A8.483,8.483,0,0,1,81.779,137.409ZM55.7,136.586l.806.3.057,2.519.057,2.518-.652-.128a6.861,6.861,0,0,1-1.366-.471l-.714-.343-.057-2.448-.057-2.448.56.1A10.6,10.6,0,0,1,55.7,136.586Zm23.261-.065c0,.337-.734,1.394-.873,1.257a1.132,1.132,0,0,1,.108-1.213C78.485,136.278,78.96,136.251,78.96,136.52Zm-7.211,2.944.062,2.544-1.4.323c-1.1.252-1.435.269-1.558.079a16.924,16.924,0,0,1,.017-4.671,7.548,7.548,0,0,1,2.678-.8A11.439,11.439,0,0,1,71.748,139.464ZM60.085,137.64c.323.093.353.349.3,2.611l-.056,2.509-.6-.055a11.46,11.46,0,0,1-1.46-.274l-.856-.218v-4.943l1.158.134A15.141,15.141,0,0,1,60.085,137.64Zm7.8,2.679c0,1.893-.064,2.543-.252,2.553a17.994,17.994,0,0,0-2.115.285l-.453.105v-5.452l1.41-.015,1.41-.015Zm-6.143.065c0,1.7-.069,2.365-.252,2.425s-.252-.507-.252-2.425.059-2.488.252-2.425S61.74,138.687,61.74,140.385Zm-8.828.034c-.153.15-.939-.4-.939-.664,0-.131.2-.379.453-.552.444-.306.455-.3.517.4A2,2,0,0,1,52.912,140.418Zm25.749.256c-.178.337-.41.561-.516.5-.328-.2-.214-.739.26-1.237C78.984,139.328,79.136,139.772,78.661,140.675Zm-1.032.851c.161.251.1.445-.288.85a15.832,15.832,0,0,1-4.374,2.672c-.433.168-.453.132-.453-.79,0-.959.007-.969.856-1.261a18.069,18.069,0,0,0,2.266-1.087C77.154,141.059,77.31,141.029,77.629,141.526Zm-24.65,1.734v.8l-.5-.324c-.594-.383-.632-.634-.151-.993C52.878,142.326,52.979,142.407,52.979,143.26Zm2.517-.023,1.007.347.062,1.072c.05.86.012,1.024-.191.825a.906.906,0,0,0-.526-.247,4.917,4.917,0,0,1-1.168-.4c-.8-.357-.9-.473-.9-1.055C53.785,142.736,53.921,142.693,55.5,143.237Zm16.211,1.354v.94l-1.358.322a5.743,5.743,0,0,1-1.509.236,2.351,2.351,0,0,1-.151-1.076c0-.545.073-.946.161-.892a3.74,3.74,0,0,0,1.259-.164C71.756,143.563,71.71,143.544,71.708,144.591Zm-11.73-.235c.387.08.453.221.453.969a1.933,1.933,0,0,1-.151.962,5.362,5.362,0,0,1-1.46-.236c-1.26-.31-1.311-.347-1.374-.985C57.323,143.8,57.318,143.805,59.978,144.357Zm-7.653,1.024c.635.314.655.36.655,1.579,0,.927.078,1.286.3,1.369a9.229,9.229,0,0,0,2.975-.818c.319-.127.352.014.352,1.47,0,1.107.079,1.641.252,1.705a5.315,5.315,0,0,0,1.662-.415c.775-.279,1.5-.525,1.611-.546s.226.651.26,1.616l.059,1.653-1.047-.142a16.689,16.689,0,0,1-9.018-4.147c-1.7-1.744-1.785-2.459-.449-3.914l.5-.542.619.4C51.392,144.876,51.965,145.2,52.325,145.381Zm15.558.032v.97l-.913.072c-1.409.11-1.742-.084-1.667-.97.054-.646.142-.759.667-.869a8.915,8.915,0,0,1,1.259-.15C67.881,144.443,67.883,144.446,67.883,145.413Zm13.852,2.324c-.054,2.194-.079,2.311-.516,2.47-.382.138-.492.084-.65-.324-.183-.473-.392-.58-.976-.5-.311.042-.322.077.444-1.357a2.53,2.53,0,0,0,.456-1.641c-.094-.464-.032-.6.333-.749C81.781,145.258,81.8,145.29,81.735,147.736ZM54.8,146.5l.663.274-.646.327a1.348,1.348,0,0,1-.841.21.791.791,0,0,1-.061-.953C54.09,146.188,54.031,146.178,54.8,146.5Zm24.214.27c-.21.56-.7,1.237-.888,1.237-.3,0-.2-.942.138-1.272C78.706,146.3,79.184,146.327,79.019,146.769Zm-7.393,5.344a9.378,9.378,0,0,1-1.4.438c-1.3.343-1.3.343-1.418-.072a20.517,20.517,0,0,1-.116-2.643c0-2.176.007-2.226.45-2.23a8.572,8.572,0,0,0,1.46-.261l1.007-.256.057,2.465A17.924,17.924,0,0,1,71.626,152.113Zm-12.5-4.437c.964.2,1.208.323,1.208.623,0,.276-.319.5-1.2.833-1.693.645-1.719.635-1.719-.632C57.41,147.279,57.341,147.312,59.122,147.676Zm8.761,2.847v2.629l-.957,0a7.507,7.507,0,0,0-1.41.122l-.453.119v-5.49l1.409-.006,1.409-.005ZM61.8,150.15c.049,1.525.009,1.814-.252,1.814s-.31-.322-.31-1.9c0-1.429.062-1.876.252-1.814C61.66,148.308,61.759,148.916,61.8,150.15Zm17.053.182c-.408.96-.649,1.193-.811.78a1.146,1.146,0,0,1,.346-.913C79.036,149.391,79.228,149.445,78.851,150.332Zm-1.231,1.281a.953.953,0,0,1-.329.913,13.725,13.725,0,0,1-3.764,2.407l-1.034.4.061-.908c.06-.883.088-.919,1.068-1.33.554-.233,1.6-.759,2.316-1.169a12.55,12.55,0,0,1,1.437-.75C77.446,151.174,77.555,151.371,77.62,151.613Zm-5.911,3.081c0,.942,0,.947-.856,1.194a8.888,8.888,0,0,1-1.46.29c-.59.042-.6.023-.588-.841l.016-.885,1.293-.327c.711-.179,1.361-.337,1.444-.352S71.709,154.172,71.709,154.693Zm-3.827.834v.94l-1.025.134c-1.186.155-1.593-.065-1.593-.858,0-.442.141-.58.856-.839a5.264,5.264,0,0,1,1.309-.314C67.836,154.588,67.883,154.684,67.883,155.527Z" transform="translate(-47 -14)"/></g></g></svg>