<svg width="448" height="236" viewBox="0 0 448 236" fill="none" xmlns="http://www.w3.org/2000/svg">
<path d="M47.1327 129.784L415.035 149.47L433.884 211.974L430.032 232.113L7.79795 216.455L6.47952 197.889L38.4006 134.834C40.0534 131.569 43.4784 129.588 47.1327 129.784Z" fill="#3C60A6"/>
<path d="M433.884 211.974L415.035 149.47L47.1327 129.784C43.4784 129.588 40.0534 131.569 38.4006 134.834L6.47952 197.889M433.884 211.974L430.032 232.113L7.79795 216.455L6.47952 197.889M433.884 211.974L6.47952 197.889M75.1734 149.779L72.9097 157.518M69.4773 169.819L67.2383 177.097" stroke="#211E1F" stroke-width="1.73" stroke-linecap="round"/>
<path d="M444.558 134.264L427.305 188.826L201.785 134.763L43.3675 114.184L44.2866 97.0067L20.0912 91.2065L31.7447 41.4313L36.5761 20.7948C38.4071 12.9745 46.1499 8.04924 54.009 9.70568L413.182 85.4071C418.806 86.5924 423.557 90.3284 426.036 95.5139L444.558 134.264Z" fill="#3C60A6"/>
<path d="M444.558 134.264L427.305 188.826L201.785 134.763M444.558 134.264L426.036 95.5139C423.557 90.3284 418.806 86.5924 413.182 85.4071L54.009 9.70568C46.1499 8.04924 38.4071 12.9745 36.5761 20.7948L31.7447 41.4313M444.558 134.264L31.7447 41.4313M31.7447 41.4313L20.0912 91.2065L44.2866 97.0067M44.2866 97.0067L43.3675 114.184L201.785 134.763M44.2866 97.0067L201.785 134.763" stroke="#211E1F" stroke-width="1.73"/>
<circle cx="412.606" cy="152.437" r="9.2927" transform="rotate(3.06296 412.606 152.437)" fill="#211E1F" stroke="#3C60A6" stroke-width="1.73"/>
<path d="M107.306 94.0845L105.644 100.995L107.442 101.427L108.697 96.2094L132.213 101.866L130.958 107.084L132.756 107.516L134.419 100.606L132.127 100.055L127.368 74.4061L125.5 73.9566L109.562 94.6273L107.306 94.0845ZM125.899 76.3278L130.117 99.5714L111.502 95.0937L125.899 76.3278ZM148.5 106.231C155.975 108.029 162.388 103.231 164.016 96.4616L164.033 96.391C165.653 89.6569 162.185 82.5197 154.711 80.7218C147.236 78.9239 140.823 83.7219 139.195 90.4912L139.178 90.5618C137.558 97.2959 141.026 104.433 148.5 106.231ZM148.969 104.591C142.87 103.124 139.632 97.0487 141.099 90.9492L141.116 90.8787C142.583 84.7792 148.142 80.8948 154.242 82.3619C160.341 83.8291 163.579 89.9041 162.112 96.0036L162.095 96.0741C160.628 102.174 155.069 106.058 148.969 104.591ZM163.669 107.642L162.007 114.552L163.805 114.985L165.06 109.767L188.577 115.423L187.321 120.641L189.12 121.074L190.782 114.163L188.49 113.612L183.731 87.9634L181.863 87.5139L165.926 108.185L163.669 107.642ZM182.262 89.8851L186.48 113.129L167.865 108.651L182.262 89.8851ZM192.807 116.441L194.711 116.899L199.511 110.743L214.072 114.246L215.548 121.911L217.557 122.394L212.042 94.7732L210.28 94.3492L192.807 116.441ZM200.685 109.273L210.642 96.5623L213.695 112.402L200.685 109.273ZM226.445 124.532L228.278 124.973L233.808 101.985L242.41 104.054L242.817 102.362L223.779 97.7826L223.372 99.475L231.974 101.544L226.445 124.532ZM242.265 128.337L244.098 128.778L246.947 116.932L251.883 118.119L260.316 132.679L262.855 133.29L253.664 117.54L268.298 108.491L265.83 107.897L252.22 116.41L247.355 115.239L250.034 104.098L248.201 103.657L242.265 128.337ZM277.065 137.155C284.539 138.953 290.952 134.155 292.58 127.386L292.597 127.315C294.217 120.581 290.75 113.444 283.275 111.646C275.801 109.848 269.388 114.646 267.759 121.415L267.742 121.486C266.123 128.22 269.59 135.357 277.065 137.155ZM277.534 135.515C271.434 134.048 268.196 127.973 269.663 121.873L269.68 121.803C271.147 115.703 276.706 111.819 282.806 113.286C288.905 114.753 292.144 120.828 290.676 126.928L290.659 126.998C289.192 133.098 283.633 136.982 277.534 135.515ZM295.839 141.224L306.557 143.802C311.881 145.082 316.034 143.321 317.026 139.196L317.043 139.126C317.857 135.741 315.664 133.386 312.889 131.898C315.102 131.535 317.678 130.439 318.492 127.054L318.509 126.984C318.874 125.468 318.659 124.036 317.856 122.724C316.811 121.018 314.785 119.673 311.965 118.994L301.775 116.544L295.839 141.224ZM316.581 126.781C315.793 130.06 312.681 131.214 309.014 130.332L300.869 128.373L303.202 118.677L311.522 120.678C315.506 121.637 317.251 123.996 316.598 126.711L316.581 126.781ZM315.158 138.747C314.411 141.849 311.265 143.144 307.035 142.126L298.079 139.972L300.462 130.065L308.818 132.075C313.719 133.254 315.912 135.609 315.175 138.676L315.158 138.747ZM332.292 150.439C339.766 152.237 346.179 147.439 347.807 140.67L347.824 140.599C349.444 133.865 345.976 126.728 338.502 124.93C331.027 123.132 324.615 127.93 322.986 134.699L322.969 134.77C321.35 141.504 324.817 148.641 332.292 150.439ZM332.761 148.799C326.661 147.332 323.423 141.257 324.89 135.157L324.907 135.087C326.374 128.987 331.933 125.103 338.033 126.57C344.132 128.037 347.371 134.112 345.903 140.212L345.886 140.282C344.419 146.382 338.86 150.266 332.761 148.799Z" fill="#211E1F"/>
</svg>
