<svg xmlns="http://www.w3.org/2000/svg" width="233.922" height="70" viewBox="0 0 233.922 70"><defs><style>.a{fill:#f3f4f5;}.b,.c{stroke:none;}.c{fill:#eaeaeb;}</style></defs><g class="a"><path class="b" d="M 223.6135406494141 69.49906158447266 L 0.5000091791152954 69.49906158447266 L 0.5000091791152954 43.71458435058594 C 0.6906504034996033 43.62466812133789 0.8657850027084351 43.50522613525391 1.023479819297791 43.35732269287109 L 10.80777359008789 34.23450088500977 C 11.19677352905273 33.87111663818359 11.41080284118652 33.38520431518555 11.41083240509033 32.86594009399414 C 11.41083240509033 32.34667587280273 11.19680309295654 31.8607349395752 10.80815601348877 31.49761772155762 L 1.022362112998962 22.37347030639648 C 0.8647878766059875 22.22567176818848 0.6899557709693909 22.10633659362793 0.5000091791152954 22.01673889160156 L 0.5000091791152954 0.5 L 223.6135406494141 0.5 L 223.6135406494141 23.13197135925293 L 223.6135406494141 23.3493824005127 L 223.7725677490234 23.49767684936523 L 233.1363372802734 32.22867584228516 C 233.3204498291016 32.40041351318359 233.4219512939453 32.62647247314453 233.4220428466797 32.86517715454102 C 233.4221496582031 33.10429382324219 233.3205413818359 33.33097076416016 233.1359558105469 33.50344085693359 L 223.7725677490234 42.23323440551758 L 223.6135406494141 42.38150024414062 L 223.6135406494141 42.59894180297852 L 223.6135406494141 69.49906158447266 Z"/><path class="c" d="M 223.1135406494141 68.99906158447266 L 223.1135406494141 42.16405868530273 L 232.7946014404297 33.13808822631836 C 232.8999786376953 33.03961944580078 232.9221038818359 32.93544006347656 232.9220428466797 32.86538314819336 C 232.9220123291016 32.79564666748047 232.8999786376953 32.69197082519531 232.7953338623047 32.59435272216797 L 223.1135406494141 23.56682395935059 L 223.1135406494141 1 L 1.000009179115295 1 L 1.000009179115295 21.7233829498291 C 1.128200173377991 21.80606269836426 1.249480962753296 21.90096282958984 1.363332748413086 22.00776481628418 L 11.14947986602783 31.13226509094238 C 11.6404504776001 31.59097099304199 11.91083240509033 32.2066764831543 11.91083240509033 32.86597061157227 C 11.91080284118652 33.52523422241211 11.64042091369629 34.14091110229492 11.14874458312988 34.60020446777344 L 1.365538597106934 43.72200012207031 C 1.250944137573242 43.82949066162109 1.128945469856262 43.92489624023438 1.000009179115295 44.00797271728516 L 1.000009179115295 68.99906158447266 L 223.1135406494141 68.99906158447266 M 224.1135406494141 70 L 224.1135406494141 69.99906158447266 L 9.191176104650367e-06 69.99906158447266 L 9.191176104650367e-06 43.3641471862793 C 0.2563621401786804 43.30023574829102 0.4858327209949493 43.17608642578125 0.6813915371894836 42.99264526367188 L 10.46680355072021 33.86879348754883 C 11.05883312225342 33.31573486328125 11.05883312225342 32.41608810424805 10.46680355072021 31.86297035217285 L 0.6813915371894836 22.73917579650879 C 0.4858327209949493 22.55573463439941 0.2563621401786804 22.4306468963623 9.191176104650367e-06 22.36764717102051 L 9.191176104650367e-06 0 L 224.1135406494141 0 L 224.1135406494141 23.13197135925293 L 233.4773101806641 31.86297035217285 C 234.0702972412109 32.41608810424805 234.0702972412109 33.31473541259766 233.4773101806641 33.86879348754883 L 224.1135406494141 42.59894180297852 L 224.1135406494141 70 Z"/></g></svg>