<svg xmlns="http://www.w3.org/2000/svg" width="53" height="46" viewBox="0 0 53 46"><defs><style>.a{fill:#F2F0E7;stroke:#707070;}.b{stroke:none;}.c{fill:none;}</style></defs><g class="a"><path class="b" d="M0,0H41A12,12,0,0,1,53,12V34A12,12,0,0,1,41,46H0a0,0,0,0,1,0,0V0A0,0,0,0,1,0,0Z"/><path class="c" d="M.5.5H41A11.5,11.5,0,0,1,52.5,12V34A11.5,11.5,0,0,1,41,45.5H.5a0,0,0,0,1,0,0V.5A0,0,0,0,1,.5.5Z"/></g><g transform="translate(11.44 10.079)"><path d="M30.121.4H0V-.5H30.121Z" transform="translate(0 12.97)"/><path d="M25.843,1H0V0H25.843Z" transform="translate(15.56 0) rotate(90)"/></g></svg>