<svg xmlns="http://www.w3.org/2000/svg" width="645.746" height="180" viewBox="0 0 645.746 180"><defs><style>.a{fill:none;}.b,.c{stroke:none;}.c{fill:#707070;}</style></defs><g class="a"><path class="b" d="M11.705,0H634.041a11.855,11.855,0,0,1,11.705,12V168a11.855,11.855,0,0,1-11.705,12H11.705A11.855,11.855,0,0,1,0,168V12A11.855,11.855,0,0,1,11.705,0Z"/><path class="c" d="M 11.70538330078125 1 C 8.8505859375 1 6.16534423828125 2.141082763671875 4.14422607421875 4.212997436523438 C 2.11663818359375 6.291671752929688 1 9.057083129882812 1 12 L 1 168 C 1 170.9429168701172 2.11663818359375 173.7083282470703 4.14422607421875 175.7870025634766 C 6.16534423828125 177.8589172363281 8.8505859375 179 11.70538330078125 179 L 634.0408935546875 179 C 639.94384765625 179 644.7461547851562 174.0654144287109 644.7461547851562 168 L 644.7461547851562 12 C 644.7461547851562 5.934585571289062 639.94384765625 1 634.0408935546875 1 L 11.70538330078125 1 M 11.70538330078125 0 L 634.0408935546875 0 C 640.5054931640625 0 645.7461547851562 5.372589111328125 645.7461547851562 12 L 645.7461547851562 168 C 645.7461547851562 174.6274108886719 640.5054931640625 180 634.0408935546875 180 L 11.70538330078125 180 C 5.24066162109375 180 0 174.6274108886719 0 168 L 0 12 C 0 5.372589111328125 5.24066162109375 0 11.70538330078125 0 Z"/></g></svg>