<svg xmlns="http://www.w3.org/2000/svg" width="15.709" height="18.126" viewBox="0 0 15.709 18.126"><g transform="translate(-26.65 -15.99)"><path d="M62.859,24.449a4.229,4.229,0,1,0-4.229-4.229A4.229,4.229,0,0,0,62.859,24.449Zm0-7.25a3.021,3.021,0,1,1-3.021,3.021A3.021,3.021,0,0,1,62.859,17.2Z" transform="translate(-28.355 0)"/><path d="M42.039,104.532a10.368,10.368,0,0,0-15.063,0,1.208,1.208,0,0,0-.326.828v3.178a1.208,1.208,0,0,0,1.208,1.208H41.151a1.208,1.208,0,0,0,1.208-1.208v-3.178A1.208,1.208,0,0,0,42.039,104.532Zm-.888,4.006H27.858v-3.184a9.166,9.166,0,0,1,13.292,0Z" transform="translate(0 -75.63)"/></g></svg>