<svg xmlns="http://www.w3.org/2000/svg" width="32.259" height="24.194" viewBox="0 0 32.259 24.194"><path d="M13.61,24h1.434V44.533H13.61Zm-3.581,0h2.148V44.533H10.029ZM8.6,24h.716V44.533H8.6V24ZM3.581,24H4.3V44.533H3.581V24Zm1.434,0H7.162V44.533H5.016V24ZM25.1,24h2.148V44.533H25.1V24Zm-4.3,0h2.148V44.533H20.8Zm2.865,0h.718V44.533h-.718ZM20.8,46h7.879v2.2H20.8ZM0,24H2.148V48.194H0ZM17.215,46h2.15v2.2h-2.15ZM27.961,24h.716V44.533h-.716Zm2.15,0h2.148V48.194H30.111ZM18.649,24h1.432V44.533H18.649V24ZM3.581,46H5.729v2.2H3.582V46Zm3.581,0h8.6v2.2h-8.6ZM16.5,24h.716V44.533H16.5Z" transform="translate(0 -24)"/></svg>