<svg xmlns="http://www.w3.org/2000/svg" width="32.259" height="25.654" viewBox="0 0 32.259 25.654"><g transform="translate(0 -2.931)"><path d="M13.61,24h1.434V45.772H13.61Zm-3.581,0h2.148V45.772H10.029ZM8.6,24h.716V45.772H8.6V24ZM3.581,24H4.3V45.772H3.581V24Zm1.434,0H7.162V45.772H5.016V24ZM25.1,24h2.148V45.772H25.1V24Zm-4.3,0h2.148V45.772H20.8Zm2.865,0h.718V45.772h-.718ZM20.8,47.324h7.879v2.329H20.8ZM0,24H2.148V49.654H0ZM17.215,47.324h2.15v2.329h-2.15ZM27.961,24h.716V45.772h-.716Zm2.15,0h2.148V49.654H30.111ZM18.649,24h1.432V45.772H18.649V24ZM3.581,47.324H5.729v2.329H3.582V47.324Zm3.581,0h8.6v2.329h-8.6ZM16.5,24h.716V45.772H16.5Z" transform="translate(0 -21.069)"/></g></svg>