<svg xmlns="http://www.w3.org/2000/svg" width="39.133" height="30.437" viewBox="0 0 39.133 30.437"><defs><style>.a{fill:rgba(0,0,0,0.8);}</style></defs><path class="a" d="M0,59.175a3.262,3.262,0,0,0,3.261,3.261H35.872a3.262,3.262,0,0,0,3.261-3.261V47.218H0Zm13.044-4.62a.818.818,0,0,1,.815-.815H23.1a.818.818,0,0,1,.815.815v2.718a.818.818,0,0,1-.815.815h-9.24a.818.818,0,0,1-.815-.815Zm-8.7,0a.818.818,0,0,1,.815-.815h4.892a.818.818,0,0,1,.815.815v2.718a.818.818,0,0,1-.815.815H5.163a.818.818,0,0,1-.815-.815ZM39.133,35.261v3.261H0V35.261A3.262,3.262,0,0,1,3.261,32H35.872A3.262,3.262,0,0,1,39.133,35.261Z" transform="translate(0 -32)"/></svg>