<svg xmlns="http://www.w3.org/2000/svg" width="85" height="55" viewBox="0 0 85 55"><defs><style>.a{fill:#ffc107;}.b{fill:#292f33;}.c{fill:#f4f7f9;}.d{fill:#8899a6;}</style></defs><path class="a" d="M9.444,26.65C4.228,26.65,0,30.438,0,35.112V73.188c0,4.673,4.228,8.462,9.444,8.462H75.556c5.216,0,9.444-3.788,9.444-8.462V35.112s0-8.462-9.444-8.462Z" transform="translate(0 -26.65)"/><path class="b" d="M0,53.3H85V63.877H0Z" transform="translate(0 -42.723)"/><path class="c" d="M21.32,101.27H87.431v12.692H21.32Z" transform="translate(-11.876 -71.655)"/><path class="d" d="M59.706,115.062c-4.021,0-5.527-2.56-5.83-3.81a10.152,10.152,0,0,0-4.262,1.616,12.8,12.8,0,0,1-6.436,2.194c-2.826,0-4.543-1.428-4.722-4.231-.007-.118.09-.4.05-.4-4.387,0-7.56,3.725-7.591,3.763a2.41,2.41,0,0,1-1.544.842,2.565,2.565,0,0,1-1.755-.387,1.976,1.976,0,0,1-.508-2.957A16.065,16.065,0,0,1,38.456,106.6c4.573,0,4.836,2.909,4.906,3.994l.017.231a9.417,9.417,0,0,0,3.707-1.529c2.269-1.29,5.083-2.9,8.854-2.035a3.2,3.2,0,0,1,2.5,2.826,2.738,2.738,0,0,0,.116.478,3.941,3.941,0,0,0,1.362.275c1.936.159,4.063-.59,6.316-1.381a22.164,22.164,0,0,1,7.345-1.667c8,0,11.255,3.459,11.6,3.852a1.971,1.971,0,0,1-.4,2.969,2.55,2.55,0,0,1-3.314-.363c-.056-.057-2.2-2.23-7.879-2.23a18.244,18.244,0,0,0-5.622,1.373,28.106,28.106,0,0,1-8.254,1.669Z" transform="translate(-14.845 -74.869)"/></svg>