<svg xmlns="http://www.w3.org/2000/svg" width="33" height="32.999" viewBox="0 0 33 32.999"><path d="M27.069,39H19.942a.372.372,0,0,0-.4.371c0,1.484,1.981,2.226,3.961,2.226s3.959-.742,3.959-2.226a.371.371,0,0,0-.4-.371" transform="translate(-6.863 -12.601)"/><path d="M24.243,36.616c1.839,0,2.759-1.3,1.839-1.3H22.4c-.92,0,0,1.3,1.839,1.3" transform="translate(-7.6 -11.515)"/><path d="M20.705,11.263a75.2,75.2,0,0,0,10.171-.586c-2.686-5.129.921-10.756-2.54-8.671a14.853,14.853,0,0,1-7.631,2.16,14.847,14.847,0,0,1-7.631-2.16c-3.461-2.085.146,3.541-2.539,8.671a75.187,75.187,0,0,0,10.171.586" transform="translate(-4.206 -1.561)"/><path d="M34.56,20.227c0-.683-.243-.329-5.024-3.1l-.012-.013a86.067,86.067,0,0,1-11.465.988,86.041,86.041,0,0,1-11.464-.988l-.012.013C1.8,19.9,1.56,19.543,1.56,20.227c0,.216.074,1.427,3.311,2.406a6.594,6.594,0,0,0,2.176,7.974l-.391.668-.563-.321L3.434,35.481c-.247-.075-.427-.091-.476-.008l-.146.248c-.236.4,2.973,2.226,3.21,1.823l.145-.246c.049-.084-.056-.23-.246-.4l2.523-4.3c1.112,2.577,3.287,4.419,7.109,6.109a6.96,6.96,0,0,0,2.649.444,6.951,6.951,0,0,0,2.649-.444c4.881-2.16,7.183-4.677,7.838-8.62,1.173-.2,2.382-.948,2.382-3.16,0-2.007-.8-2.617-1.488-2.774q-.021-.546-.053-1.091c4.932-1.014,5.029-2.584,5.029-2.832M6.05,22.942c.753.173,1.636.333,2.662.471a2.276,2.276,0,0,0-1.1,1.961A2.974,2.974,0,0,1,9.634,23.74a2.219,2.219,0,0,0-.492,1.383,2.3,2.3,0,0,0,4.6,0,2.219,2.219,0,0,0-.15-.784,3.1,3.1,0,0,1,1.172,1.538,2.734,2.734,0,0,0-.843-2.03c.8.034,1.657.058,2.567.071A5.381,5.381,0,0,1,15.913,28a5.62,5.62,0,0,1-7.608,2.005A5.432,5.432,0,0,1,6.05,22.942m1.965,9.1.136-.232c.043.131.09.261.139.389l-.275-.157m21.957-5.123c0,1.389-.557,2.048-1.8,2.134l-.448.031-.058.438c-.51,3.808-2.546,6.1-7.261,8.19a5.947,5.947,0,0,1-2.2.349,5.936,5.936,0,0,1-2.2-.349c-3.778-1.671-5.8-3.472-6.739-6.044a6.816,6.816,0,0,0,7.69-3.076,6.539,6.539,0,0,0,.761-4.67l.341,0c1.379,0,2.634-.025,3.792-.069A2.438,2.438,0,0,0,20.4,26.113a2.674,2.674,0,0,1,1.01-1.324,1.892,1.892,0,0,0-.13.676,1.98,1.98,0,0,0,3.96,0,1.91,1.91,0,0,0-.424-1.191,2.56,2.56,0,0,1,1.743,1.407,2.129,2.129,0,0,0-1.6-2q1.066-.087,2.127-.219c.024.3.048.614.073.956a12.819,12.819,0,0,1-.081,2.08l-.152,1.04.949-.482a2.512,2.512,0,0,0,.98-.927,3.427,3.427,0,0,0,.3-.939h0c.541,0,.816.585.816,1.738" transform="translate(-1.56 -6.148)"/></svg>