<svg xmlns="http://www.w3.org/2000/svg" width="34.216" height="34.216" viewBox="0 0 34.216 34.216"><defs><style>.a{fill:none;stroke:#000;fill-rule:evenodd;}</style></defs><g transform="translate(0.727 0.727)"><g transform="translate(0 0)"><path class="a" d="M14.081.951,11.613,3.417a1.066,1.066,0,0,1-.751.312H6.979a3.249,3.249,0,0,0-3.25,3.25v3.883a1.07,1.07,0,0,1-.312.753L.949,14.081a3.25,3.25,0,0,0,0,4.595l2.468,2.468a1.066,1.066,0,0,1,.312.751v3.883a3.249,3.249,0,0,0,3.25,3.25h3.883a1.07,1.07,0,0,1,.753.312l2.466,2.468a3.25,3.25,0,0,0,4.595,0l2.468-2.468a1.066,1.066,0,0,1,.751-.312h3.883a3.249,3.249,0,0,0,3.25-3.25V21.9a1.07,1.07,0,0,1,.312-.753l2.468-2.466a3.25,3.25,0,0,0,0-4.595L29.34,11.613a1.066,1.066,0,0,1-.312-.751V6.979a3.249,3.249,0,0,0-3.25-3.25H21.9a1.066,1.066,0,0,1-.753-.312L18.676.949a3.25,3.25,0,0,0-4.595,0ZM10.146,21.065l10.92-10.92,1.546,1.546-10.92,10.92Zm.773-10.146V13.1H13.1V10.919Zm8.736,10.92h2.184V19.654H19.654Z" transform="translate(0.002 0.002)"/></g></g></svg>