<svg xmlns="http://www.w3.org/2000/svg" width="33" height="33" viewBox="0 0 33 33"><path d="M90.724,0A1.324,1.324,0,0,0,89.28,1.155v26.4a1.48,1.48,0,0,0,2.887,0V15.51H109.9a1.324,1.324,0,0,0,1.444-1.155V1.155A1.324,1.324,0,0,0,109.9,0H90.93q-.052,0-.1,0Zm5.692,2.31h4.042V4.762H104.5V2.31h3.96V4.762H104.5V8h3.96V11.23H104.5V13.2h-4.043V11.23H96.416V13.2H92.374V11.23h4.042V8H92.374V4.762h4.042Zm0,2.452V8h4.042V4.762H96.416ZM100.459,8V11.23H104.5V8Z" transform="translate(-78.349 0)"/><path d="M45.827,147.441c-4.37.494-7.427,1.676-7.427,3.416,0,2.343,5.107,4.243,12.375,4.243s12.375-1.9,12.375-4.243c0-1.74-3.057-2.921-7.426-3.415l-.606.825c3.294.365,5.557,1.134,5.557,2.025,0,1.25-4.432,2.263-9.9,2.263s-9.9-1.013-9.9-2.263c0-.888,2.248-1.656,5.552-2.023Z" transform="translate(-38.4 -122.099)"/></svg>