<svg xmlns="http://www.w3.org/2000/svg" width="35.649" height="33.999" viewBox="0 0 35.649 33.999"><defs><style>.a{fill:none;stroke:#000;}</style></defs><g transform="translate(0.5 0.5)"><g transform="translate(0 0)"><path class="a" d="M14.06,4.16H9.11A4.95,4.95,0,0,0,4.16,9.11v4.95H8.628A4.125,4.125,0,0,1,14.06,8.628ZM4.16,16.535V23.96a4.95,4.95,0,0,0,4.95,4.95h4.95V18.284l-2.838,2.838a1.237,1.237,0,0,1-1.749-1.749l2.838-2.838ZM16.535,28.909H19.01v-.825a4.125,4.125,0,0,1,4.125-4.125h13.2a4.127,4.127,0,0,1,.825.082V16.535H18.284l2.838,2.838a1.237,1.237,0,1,1-1.749,1.749l-2.838-2.838ZM37.159,14.06H21.966a4.125,4.125,0,0,0-5.432-5.432V4.16H32.209a4.95,4.95,0,0,1,4.95,4.95Zm-18.975,0h-1.65V12.41a1.65,1.65,0,1,1,1.65,1.65Zm-4.125,0H12.41A1.65,1.65,0,1,1,14.06,12.4Zm6.6,14.025a2.475,2.475,0,0,1,2.475-2.475h13.2a2.475,2.475,0,0,1,2.475,2.475v6.6a2.475,2.475,0,0,1-2.475,2.475h-13.2a2.475,2.475,0,0,1-2.475-2.475Zm16.5.825a1.65,1.65,0,0,1-1.65-1.65h-1.65a3.3,3.3,0,0,0,3.3,3.3Zm0,3.3a3.3,3.3,0,0,0-3.3,3.3h1.65a1.65,1.65,0,0,1,1.65-1.65Zm-13.2-4.95a1.65,1.65,0,0,1-1.65,1.65v1.65a3.3,3.3,0,0,0,3.3-3.3Zm1.65,8.25a3.3,3.3,0,0,0-3.3-3.3v1.65a1.65,1.65,0,0,1,1.65,1.65Zm7.012-4.125a2.887,2.887,0,1,0-2.887,2.887,2.887,2.887,0,0,0,2.887-2.887Z" transform="translate(-4.16 -4.16)"/></g></g></svg>