<svg xmlns="http://www.w3.org/2000/svg" width="32.689" height="29.797" viewBox="0 0 32.689 29.797"><defs><style>.a{fill:none;stroke:#000;stroke-width:0.7px;}</style></defs><g transform="translate(23.222 0.027) rotate(60)"><path class="a" d="M.33,9.44v7.582a9.4,9.4,0,0,0,2.262,6.237,8.59,8.59,0,0,0,5.686,3.118,8.881,8.881,0,0,0,7.215-2.2,8.654,8.654,0,0,0,3.057-6.787V14.76a2.611,2.611,0,0,0-2.568-2.568v5.2a6.286,6.286,0,0,1-2.14,4.83,6.422,6.422,0,0,1-5.075,1.712,6.849,6.849,0,0,1-4.188-2.415A6.771,6.771,0,0,1,2.9,17.022V12.07A2.537,2.537,0,0,0,2.134,10.2,2.467,2.467,0,0,0,.33,9.44Zm14.308,5.2V10.724A1.135,1.135,0,0,0,13.354,9.44a1.135,1.135,0,0,0-1.284,1.284v3.913q0,1.345,1.284,1.345T14.638,14.638Zm-3.913-1.284V9.44A1.135,1.135,0,0,0,9.44,8.156,1.135,1.135,0,0,0,8.156,9.44v3.913A1.135,1.135,0,0,0,9.44,14.638,1.135,1.135,0,0,0,10.724,13.354ZM6.811,1.614A1.135,1.135,0,0,0,5.527.33,1.135,1.135,0,0,0,4.243,1.614v11.74H6.811Z"/></g></svg>