<svg xmlns="http://www.w3.org/2000/svg" width="122.814" height="43.863" viewBox="0 0 122.814 43.863"><defs><style>.a{fill:#ed1c24;fill-rule:evenodd;}</style></defs><g transform="translate(0 -977.361)"><g transform="translate(0 977.361)"><path class="a" d="M14.588-84.463h2.583c.941,0,1.415.465,1.415,1.515v3.72h5.06v-3.72c0-1.05.467-1.515,1.529-1.515h2.47v2.445H26.591l-.12.12v10.471H23.646v-5.235h-5.06v5.235H15.762V-81.9a.117.117,0,0,0-.12-.12H14.588v-2.445Z" transform="translate(39.174 91.904)"/><path class="a" d="M44.741-84.86l.064.007v2.685l-.064-.014a3.827,3.827,0,0,0-3.765,3.96,3.96,3.96,0,0,0,3.765,4.185l.064-.014v2.685l-.064.007a6.813,6.813,0,0,1-6.822-6.863,6.694,6.694,0,0,1,6.822-6.638Z" transform="translate(29.488 92.069)"/><path class="a" d="M49.693-84.848,51-84.722a6.637,6.637,0,0,1,5.449,6.5A6.816,6.816,0,0,1,51-71.5l-1.309.134v-2.685l1.437-.31a4.224,4.224,0,0,0,2.385-3.861,3.953,3.953,0,0,0-2.385-3.65l-1.437-.3Z" transform="translate(24.6 92.064)"/><path class="a" d="M62.254-84.463h5.825v2.445H66.253v2.678h1.826v2.325H66.253v2.91c0,.12,0,.12.12.12h1.706v2.558H64.845c-.941,0-1.408-.465-1.408-1.515v-9.075H62.254Z" transform="translate(19.385 91.904)"/><path class="a" d="M72.214-84.463h.057c2.59,0,4.119,1.4,4.119,3.495a3.615,3.615,0,0,1-1.175,2.678,3.142,3.142,0,0,1,1.762,2.9c0,2.445-1.883,3.96-4.586,3.96h-.177v-2.558h.29A1.42,1.42,0,0,0,74.04-75.5,1.42,1.42,0,0,0,72.5-77.015h-.29V-79.34h.057a1.26,1.26,0,0,0,1.3-1.4,1.17,1.17,0,0,0-1.3-1.282h-.057Z" transform="translate(15.25 91.904)"/><path class="a" d="M86.274-84.463h1.408v3.727a2.221,2.221,0,0,0-.234.93l-.941,2.678h1.175v2.438H85.807l-.828,2.1a1.46,1.46,0,0,1-1.642,1.163H81.568v-2.558h.587c.241,0,.241,0,.354-.12l3.765-10.358Z" transform="translate(11.366 91.904)"/><path class="a" d="M92.024-84.463h1.415L97.2-74.1c.113.12.113.12.347.12h.474v2.558H96.376a1.468,1.468,0,0,1-1.649-1.282l-.821-1.98H92.024v-2.438H93.2l-.934-2.678a2.118,2.118,0,0,0-.241-.93Z" transform="translate(7.026 91.904)"/><path class="a" d="M14.588-55.812H24.821A1.36,1.36,0,0,1,26.35-54.3v8.843c0,.113,0,.113.12.113h.941v2.565h-2.47c-1.062,0-1.529-.465-1.529-1.515v-8.956a.117.117,0,0,0-.12-.12H18.586v10.59H15.762v-10.59H14.588Z" transform="translate(39.174 80.009)"/><path class="a" d="M44.422-56.21l.057.007v2.685l-.057-.014a3.823,3.823,0,0,0-3.765,3.96,3.955,3.955,0,0,0,3.765,4.185l.057-.014v2.685l-.057.007a6.723,6.723,0,0,1-6.709-6.863A6.6,6.6,0,0,1,44.422-56.21Z" transform="translate(29.573 80.174)"/><path class="a" d="M49.282-56.2l1.352.127a6.553,6.553,0,0,1,5.414,6.5,6.731,6.731,0,0,1-5.414,6.722l-1.352.134V-45.4l1.493-.31a4.148,4.148,0,0,0,2.335-3.861,3.878,3.878,0,0,0-2.335-3.65l-1.493-.3Z" transform="translate(24.77 80.169)"/><path class="a" d="M61.855-55.812h2.59c.941,0,1.408.465,1.408,1.515v8.843c0,.113,0,.113.12.113h3.411V-55.812h2.824v10.471H75.62c.12,0,.12,0,.12-.113V-54.3c0-1.05.467-1.515,1.408-1.515h2.59v2.445H78.678a.117.117,0,0,0-.12.12v8.956c0,1.05-.467,1.515-1.408,1.515H64.559c-1.055,0-1.529-.465-1.529-1.515v-8.956s0-.12-.113-.12H61.855v-2.445Z" transform="translate(19.551 80.009)"/><path class="a" d="M95.327-55.812h8.825c1.062,0,1.415.465,1.415,1.4V-52.2h-2.59v-1.043c0-.12,0-.12-.12-.12h-1.642v10.59H98.385v-10.59H96.743c-.12,0-.12,0-.12.12V-52.2h-2.59v-2.213C94.032-55.347,94.386-55.812,95.327-55.812Z" transform="translate(6.192 80.009)"/><path class="a" d="M116.648-55.812h1.408v3.727a2.119,2.119,0,0,0-.234.93l-.941,2.678h1.175v2.438h-1.883l-.821,1.98a1.464,1.464,0,0,1-1.649,1.282h-1.762v-2.565h.587c.241,0,.241,0,.354-.113Z" transform="translate(-1.244 80.009)"/><path class="a" d="M122.4-55.812h1.408l3.772,10.358c.113.113.113.113.354.113h.467v2.565H126.75a1.468,1.468,0,0,1-1.649-1.282l-.821-1.98H122.4v-2.438h1.175l-.941-2.678a2.119,2.119,0,0,0-.234-.93Z" transform="translate(-5.585 80.009)"/><path class="a" d="M-16.572-74.988c.134-.042.311.042.488.275l8,7.793a.992.992,0,0,1,0,1.515l-8,7.913c-.177.233-.354.289-.488.218s-.219-.275-.219-.571V-74.481C-16.791-74.77-16.706-74.946-16.572-74.988Z" transform="translate(52.202 87.975)"/><path class="a" d="M-46.178-97.186h.566l.545.225,8.231,8.145c.354.465.234.817-.354.817H-40.6a1.046,1.046,0,0,0-1.054,1.05V-80.9a1.086,1.086,0,0,1-1.182,1.05h-5.994a1.052,1.052,0,0,1-1.062-1.05v-6.046A1.047,1.047,0,0,0-50.955-88H-54.6c-.587,0-.708-.352-.354-.817l8.238-8.145Z" transform="translate(68.128 97.186)"/><path class="a" d="M-68.284-75.3c.149.07.241.275.241.571V-57.75c0,.3-.092.472-.241.528a.659.659,0,0,1-.587-.176l-8.118-8.145a.992.992,0,0,1,0-1.515l8.118-8.026C-68.631-75.316-68.426-75.373-68.284-75.3Z" transform="translate(77.34 88.112)"/><path class="a" d="M-48.7-52.427h5.994a1.086,1.086,0,0,1,1.182,1.05v6.4a1.076,1.076,0,0,0,1.055,1.163h3.178c.587,0,.821.345.354.7l-8,8.026a1.186,1.186,0,0,1-.828.352,1.17,1.17,0,0,1-.821-.352l-8-8.026c-.474-.352-.241-.7.347-.7h3.411a1.077,1.077,0,0,0,1.062-1.163v-6.4A1.052,1.052,0,0,1-48.7-52.427Z" transform="translate(67.996 78.603)"/></g></g></svg>