<svg xmlns="http://www.w3.org/2000/svg" width="12.978" height="12.98" viewBox="0 0 12.978 12.98"><g transform="translate(-4.16 -4.159)"><g transform="translate(4.16 4.159)"><path d="M9.992,4.737a.487.487,0,1,0-.956-.182l-.661,3.5H5.3a.487.487,0,1,0,0,.973H8.19L7.576,12.27H4.647a.487.487,0,1,0,0,.973H7.392l-.627,3.32a.487.487,0,1,0,.956.18l.662-3.5h3.552l-.628,3.322a.487.487,0,1,0,.956.18l.663-3.5H16a.487.487,0,1,0,0-.973H13.11l.614-3.245h2.928a.487.487,0,0,0,0-.973H13.907l.627-3.312a.487.487,0,1,0-.956-.182L12.917,8.05H9.365l.627-3.314ZM9.181,9.025l3.552,0-.614,3.245H8.567l.614-3.245Z" transform="translate(-4.16 -4.159)"/></g></g></svg>