<svg xmlns="http://www.w3.org/2000/svg" width="33.183" height="33" viewBox="0 0 33.183 33"><ellipse cx="2.183" cy="2.249" rx="2.183" ry="2.249" transform="translate(8.858 28.503)"/><ellipse cx="2.183" cy="2.249" rx="2.183" ry="2.249" transform="translate(25.075 28.503)"/><path d="M5.651,12.94A1.144,1.144,0,0,0,4.539,12H0v2.338H3.608L7.966,36.775a1.144,1.144,0,0,0,1.112.94H29.5V35.377H10.008L9.1,30.7H29.5a1.143,1.143,0,0,0,1.107-.915l2.574-11.943H30.861l-2.268,10.52H8.646Z" transform="translate(0 -12)"/><path d="M78.012,20.666l-4.069-4.192v9.552H71.674V16.474L67.6,20.666,66,19.013,72.808,12l6.808,7.013Z" transform="translate(-53.518 -12)"/></svg>