<svg xmlns="http://www.w3.org/2000/svg" width="45.432" height="36.146" viewBox="0 0 45.432 36.146"><defs><style>.a{fill:none;stroke:#000;}</style></defs><g transform="translate(0.5 0.5)"><path class="a" d="M28.337,18.288V14.383c0-2.441-.654-2.929-3.7-2.929L19.7,11.425c-2.937,0-3.7.548-3.7,2.929v3.905c0,2.412.617,2.929,3.7,2.929h4.937C27.72,21.188,28.337,20.7,28.337,18.288Zm0,12.691V27.074c0-2.441-.654-2.929-3.7-2.929L19.7,24.116c-2.937,0-3.7.548-3.7,2.929V30.95c0,2.412.617,2.929,3.7,2.929h4.937c3.086,0,3.7-.487,3.7-2.9Zm0,12.692V39.765c0-2.441-.654-2.929-3.7-2.929L19.7,36.808c-2.937,0-3.7.548-3.7,2.929v3.905c0,2.412.617,2.929,3.7,2.929h4.937C27.72,46.571,28.337,46.083,28.337,43.671ZM44.382,18.288V14.383c0-2.441-.653-2.929-3.7-2.929l-4.937-.029c-2.937,0-3.7.548-3.7,2.929v3.905c0,2.412.617,2.929,3.7,2.929h4.937C43.765,21.188,44.382,20.7,44.382,18.288Zm0,12.691V27.074c0-2.441-.653-2.929-3.7-2.929l-4.937-.029c-2.937,0-3.7.548-3.7,2.929V30.95c0,2.412.617,2.929,3.7,2.929h4.937c3.086,0,3.7-.487,3.7-2.9Zm0,12.692V39.765c0-2.441-.653-2.929-3.7-2.929l-4.937-.028c-2.937,0-3.7.548-3.7,2.929v3.905c0,2.412.617,2.929,3.7,2.929h4.937C43.765,46.571,44.382,46.083,44.382,43.671ZM60.427,18.288V14.383c0-2.441-.653-2.929-3.7-2.929l-4.937-.029c-2.937,0-3.7.548-3.7,2.929v3.905c0,2.412.617,2.929,3.7,2.929h4.937C59.81,21.188,60.427,20.7,60.427,18.288Zm0,12.691V27.074c0-2.441-.653-2.929-3.7-2.929l-4.937-.029c-2.937,0-3.7.548-3.7,2.929V30.95c0,2.412.617,2.929,3.7,2.929h4.937c3.086,0,3.7-.487,3.7-2.9Zm0,12.692V39.765c0-2.441-.653-2.929-3.7-2.929l-4.937-.028c-2.937,0-3.7.548-3.7,2.929v3.905c0,2.412.617,2.929,3.7,2.929h4.937C59.81,46.571,60.427,46.083,60.427,43.671Z" transform="translate(-15.995 -11.425)"/></g></svg>