<svg xmlns="http://www.w3.org/2000/svg" width="47.996" height="33.597" viewBox="0 0 47.996 33.597"><defs><style>.a{fill:rgba(0,0,0,0.8);}</style></defs><path class="a" d="M46.594,47.4l-4.387-4.387a4.8,4.8,0,0,0-3.4-1.4H36V34.4A2.4,2.4,0,0,0,33.6,32H2.4A2.4,2.4,0,0,0,0,34.4V59.6a5.985,5.985,0,0,0,10.8,3.57A5.985,5.985,0,0,0,21.6,59.6a6.32,6.32,0,0,0-.12-1.2H33.717a5.764,5.764,0,0,0-.12,1.2,6,6,0,0,0,12,0,6.32,6.32,0,0,0-.12-1.2H46.8A1.2,1.2,0,0,0,48,57.2V50.786A4.784,4.784,0,0,0,46.594,47.4ZM6,62a2.4,2.4,0,1,1,2.4-2.4A2.407,2.407,0,0,1,6,62Zm9.6,0A2.4,2.4,0,1,1,18,59.6,2.407,2.407,0,0,1,15.6,62ZM36,45.2h2.812a1.191,1.191,0,0,1,.847.352L42.9,48.8H36ZM39.6,62A2.4,2.4,0,1,1,42,59.6,2.407,2.407,0,0,1,39.6,62Z" transform="translate(0 -32)"/></svg>