<svg xmlns="http://www.w3.org/2000/svg" width="62.473" height="41.174" viewBox="0 0 62.473 41.174"><defs><style>.a{fill:none;stroke:#010101;}</style></defs><g transform="translate(-11.426 -34.737)"><path class="a" d="M49.282,54.014c0-4.726,0-9.453-.07-14.179a8.017,8.017,0,0,0-.351-2.555,2.806,2.806,0,0,0-3.019-2.044H16.56c-.913,0-1.615.511-1.615,1.214-.07.766.562,1.341,1.545,1.341H20c.983,0,1.545.511,1.545,1.405s-.562,1.341-1.615,1.341H14.1a5.93,5.93,0,0,0-1.053.128,1.253,1.253,0,1,0,.281,2.491H26.672c1.124,0,1.685.383,1.755,1.214.07.958-.492,1.6-1.615,1.6H15.577c-.983,0-1.685.511-1.685,1.341.07.7.7,1.214,1.685,1.214h3.23c1.124,0,1.755.575,1.755,1.405,0,.958-.632,1.469-1.755,1.469H13.681c-1.053,0-1.755.511-1.755,1.277s.772,1.277,1.826,1.277H23.863c.983,0,1.545.511,1.545,1.341.07.958-.421,1.405-1.545,1.405-1.966,0-4,.064-5.969,0-.562,0-.7.192-.7.639V63.85c0,2.874,2.668,5.3,5.828,5.365a4.842,4.842,0,0,0,1.966-.128c.562-.255.211-1.022.281-1.6.7-4.535,5.266-7.664,10.322-7.217,4.143.319,7.654,3.257,8.356,6.962a10.292,10.292,0,0,1,.07,1.469c0,.383.14.511.562.511,1.334,0,2.668-.064,3.932,0,.632,0,.7-.192.7-.7V58.868C49.282,57.207,49.282,55.611,49.282,54.014Zm2.247,9.133a12.075,12.075,0,0,1,2.6-1.916,10.413,10.413,0,0,1,10.463.83A8.183,8.183,0,0,1,68.1,68.7c0,.383.211.511.632.511.7-.064,1.4,0,2.107,0a2.452,2.452,0,0,0,2.528-1.98,2.171,2.171,0,0,0-1.9-2.3c-.492-.128-.492-.319-.492-.7V56.377a7.826,7.826,0,0,0-.421-2.555c-1.053-2.746-2.036-5.493-3.09-8.3a5.824,5.824,0,0,0-5.9-4.024c-3.16-.064-6.39,0-9.55,0-.351,0-.562,0-.562.447V62.892A.931.931,0,0,0,51.529,63.147Zm9.129-10.538H54.9c-.492,0-.7-.064-.7-.639V44.689c0-.447.14-.639.7-.575h6.952a2.785,2.785,0,0,1,2.879,1.852c.7,1.98,1.475,4.024,2.177,6,.211.511.07.639-.492.639ZM51.389,68.768c0,3.641,3.3,6.642,7.3,6.642,3.932.064,7.3-3,7.3-6.578,0-3.641-3.371-6.706-7.3-6.706A7.08,7.08,0,0,0,51.389,68.768Zm10.322.064a2.913,2.913,0,0,1-3.019,2.746,2.881,2.881,0,0,1-3.019-2.81,2.822,2.822,0,0,1,3.019-2.682A2.755,2.755,0,0,1,61.711,68.831ZM34.677,75.41c3.862,0,7.3-2.874,7.3-6.578,0-3.9-3.371-6.706-7.373-6.642-3.862,0-7.233,2.619-7.233,6.642C27.3,72.6,30.744,75.41,34.677,75.41ZM37.7,68.768a2.922,2.922,0,0,1-3.019,2.81,2.881,2.881,0,0,1-3.019-2.81,2.743,2.743,0,0,1,3.019-2.682A2.822,2.822,0,0,1,37.7,68.768Z" transform="translate(0)"/></g></svg>