<svg xmlns="http://www.w3.org/2000/svg" width="40.93" height="43.12" viewBox="0 0 40.93 43.12"><defs><style>.a{fill:#fff;}.b{fill:#7c529e;}</style></defs><path class="a" d="M10.739,34.9,4.676,28.583,2.15,19.489l2.526-10.1,4.8-5.558,4.042-1.516L18.57,1.048l8.084,1.263,8.084,1.516,4.042,5.558,1.263,5.81v6.821l-1.263,6.568L34.737,32.12,28.169,34.9h-9.6l-3.284,4.547-1.768,1.768H10.739Z" transform="translate(-0.749 0.612)"/><path class="b" d="M20.654.007c-3.461.042-10.9.61-15.063,4.428-3.1,3.067-4.176,7.6-4.3,13.21-.105,5.587-.232,16.08,9.882,18.937v4.352s-.063,1.741,1.088,2.1c1.418.449,2.225-.891,3.573-2.33l2.513-2.842a39.085,39.085,0,0,0,12.831-.947c1.4-.449,9.314-1.46,10.606-11.954,1.326-10.838-.646-17.666-4.2-20.755h-.022C36.481,3.214,32.164.069,22.521.034c0,0-.716-.049-1.867-.028Zm.119,3.047c.982-.007,1.579.035,1.579.035,8.163.022,12.059,2.478,12.978,3.306,3,2.569,4.542,8.725,3.411,17.773-1.074,8.773-7.489,9.329-8.676,9.707a36.3,36.3,0,0,1-11.055.934s-4.38,5.286-5.749,6.647a.715.715,0,0,1-.632.274c-.232-.057-.3-.344-.288-.737l.042-7.222C3.8,31.4,4.31,22.448,4.4,17.773S5.384,9.273,8,6.683C11.512,3.5,17.829,3.075,20.77,3.054Zm.647,4.674a.537.537,0,1,0,0,1.074,10.125,10.125,0,0,1,7.244,2.857c1.958,1.9,2.912,4.457,2.949,7.8a.54.54,0,0,0,.54.54v-.022a.539.539,0,0,0,.54-.534,11.609,11.609,0,0,0-3.257-8.556A11.084,11.084,0,0,0,21.42,7.726Zm-7.1,1.236a1.687,1.687,0,0,0-1.1.217h-.028a8.458,8.458,0,0,0-2.057,1.691,3.245,3.245,0,0,0-.829,1.7,2.3,2.3,0,0,0,.085.976l.035.022a24.293,24.293,0,0,0,2.162,4.668,27.46,27.46,0,0,0,4.17,5.7L16.8,24l.077.057.049.057.057.049a27.856,27.856,0,0,0,5.714,4.19,26.5,26.5,0,0,0,4.675,2.155v.013a2.421,2.421,0,0,0,.716.112,3.3,3.3,0,0,0,1.98-.849,8.172,8.172,0,0,0,1.671-2.063v-.013a1.525,1.525,0,0,0-.323-2.015,24.887,24.887,0,0,0-3.861-2.772,1.762,1.762,0,0,0-2.232.309l-.807,1.017a1.465,1.465,0,0,1-1.166.435l-.022.013c-5.608-1.433-7.1-7.11-7.1-7.11a1.429,1.429,0,0,1,.449-1.166l1.011-.814a1.789,1.789,0,0,0,.3-2.247A24.247,24.247,0,0,0,15.219,9.5a1.536,1.536,0,0,0-.906-.54Zm8.036,1.6a.54.54,0,0,0,.007,1.081,6.773,6.773,0,0,1,4.759,2.063,6.28,6.28,0,0,1,1.614,4.618.543.543,0,0,0,.54.534l.022.028a.544.544,0,0,0,.54-.54,7.47,7.47,0,0,0-1.923-5.377,7.824,7.824,0,0,0-5.482-2.407Zm.885,2.906a.551.551,0,0,0-.035,1.1c1.776.092,2.639.989,2.752,2.835a.536.536,0,0,0,.534.527h.022a.543.543,0,0,0,.519-.575c-.127-2.407-1.439-3.763-3.769-3.888h-.022Z" transform="translate(-1.266 -0.001)"/></svg>