<svg width="102" height="161" viewBox="0 0 102 161" fill="none" xmlns="http://www.w3.org/2000/svg">
    <path fill-rule="evenodd" clip-rule="evenodd" d="M76.4351 0.961777C73.4444 2.05284 65.3476 4.97169 59.1323 7.1993C56.798 8.03593 54.3984 8.90695 53.7999 9.13461C53.2014 9.36249 51.3405 10.0381 49.6646 10.6362C47.9888 11.2342 42.5041 13.2055 37.4764 15.0167C11.6288 24.3283 7.26693 25.9114 6.86493 26.1265C6.49406 26.325 6.46185 26.676 6.46185 30.5247V34.707L5.4363 35.2509C3.88601 36.0727 1.97878 37.9625 1.0701 39.577L0.258933 41.018V44.8269C0.258933 48.0728 0.31748 48.7532 0.654831 49.4314C1.03985 50.2051 1.03898 50.2654 0.621532 51.6168C-0.00463659 53.6444 -0.0163904 58.798 0.60129 60.468C1.03136 61.6307 1.03136 61.6405 0.604555 62.7816C0.244786 63.7427 0.175792 64.4777 0.175792 67.3391C0.175792 70.261 0.237821 70.8954 0.60869 71.7608L1.04181 72.7709L0.589974 73.9797C0.18624 75.0594 0.144451 75.5833 0.19995 78.8885C0.253274 82.072 0.318568 82.6723 0.667237 83.1885C1.06466 83.7766 1.06357 83.8132 0.612608 85.0385C0.22781 86.0837 0.145103 86.8411 0.107886 89.662C0.0669684 92.7724 0.102881 93.1245 0.568862 94.1779C0.911219 94.9521 1.00633 95.4083 0.863554 95.5926C0.549055 95.9992 0.0980925 97.8113 0.108104 98.6294C0.112892 99.0243 0.112892 99.8859 0.108321 100.544C0.084598 103.932 0.135745 104.476 0.571908 105.462C0.875743 106.148 0.953661 106.566 0.810232 106.739C0.302898 107.35 -0.0250959 109.862 0.0245275 112.757C0.0674038 115.245 0.147716 115.866 0.524462 116.628L0.973248 117.535L0.538609 118.671C0.17514 119.62 0.0993985 120.376 0.0767633 123.288C0.0526045 126.358 0.101793 126.886 0.490727 127.74L0.931894 128.71L0.45155 130.177C0.0323629 131.456 -0.0231362 132.054 0.0158225 134.866C0.0510812 137.402 0.139444 138.246 0.431743 138.829C0.898812 139.761 0.895983 139.894 0.377332 141.433C0.0105979 142.522 -0.038589 143.177 0.021699 146.16C0.0839458 149.247 0.145104 149.73 0.585403 150.599C1.64403 152.689 3.90015 154.763 6.57067 156.102C8.74561 157.193 13.1932 158.438 14.9139 158.438C15.8313 158.438 16.0666 158.62 16.1504 159.393C16.2285 160.112 16.2353 160.125 16.614 160.27C17.0887 160.452 17.7795 159.806 17.7795 159.18C17.7795 158.39 17.4058 157.618 16.8455 157.251C16.5604 157.064 15.5286 156.811 14.5522 156.689C9.30323 156.031 3.91996 153.287 2.52245 150.557C1.78594 149.119 2.01403 148.954 3.22806 150.045C4.71872 151.386 6.76177 152.501 9.28494 153.353C11.6175 154.141 15.3738 154.837 16.1021 154.616C16.8899 154.377 17.5459 153.631 17.6987 152.799C17.8428 152.015 18.1527 151.627 18.4764 151.827C18.7819 152.016 18.6622 153.865 18.2994 154.567C17.8611 155.415 17.9993 156.966 18.57 157.607C19.6164 158.781 21.2657 158.795 26.2133 157.671C26.6825 157.564 26.703 157.619 26.703 158.985C26.703 159.946 26.7941 160.446 26.9828 160.518C27.1367 160.577 28.8263 160.091 30.7372 159.438C39.4655 156.455 55.0618 151.573 60.3293 150.174C69.8067 147.658 75.4368 146.379 81.3322 145.404C87.4981 144.385 90.7785 144.06 96.2843 143.92C100.377 143.816 101.356 143.733 101.453 143.481C101.519 143.31 101.548 115.995 101.518 82.7813C101.471 29.3794 101.427 22.3695 101.138 22.1871C100.958 22.0735 99.7588 21.9792 98.4718 21.9773L96.1321 21.974V16.1996C96.1321 10.9918 96.0962 10.4113 95.7663 10.2847C95.4607 10.1673 94.6619 10.3896 92.2689 11.2573C92.0654 11.3311 91.9968 10.9091 91.9968 9.5847C91.9968 8.23443 91.9215 7.78433 91.6797 7.69162C91.5054 7.6248 90.6564 7.82373 89.7927 8.13387C88.9291 8.4438 88.1415 8.69758 88.0422 8.69758C87.9427 8.69758 87.8616 7.911 87.8616 6.94966C87.8616 5.71582 87.7782 5.16953 87.5786 5.09292C87.423 5.03329 86.6371 5.23221 85.8325 5.53518C83.6806 6.34504 83.7263 6.3705 83.7263 4.35749C83.7263 3.40681 83.6351 2.57279 83.5234 2.5038C83.4118 2.43481 82.6657 2.62503 81.8652 2.92625C81.0647 3.22748 80.3234 3.47407 80.218 3.47407C80.1125 3.47407 80.0263 2.84551 80.0263 2.07721C80.0263 0.436597 79.8922 -0.0113195 79.4045 0.000215779C79.2077 0.005004 77.8716 0.437685 76.4351 0.961777ZM78.8937 2.54711L78.8292 4.01405L72.9528 6.13044C69.7207 7.29441 66.1459 8.59071 65.0087 9.01121C63.1093 9.71333 54.4788 12.8224 38.347 18.6157C34.8756 19.8626 27.1872 22.6352 21.2618 24.7773L10.4883 28.6721L10.3795 39.8887L10.2707 51.1053L9.10625 50.6952C8.46572 50.4695 7.80386 50.1705 7.63518 50.0306C7.37727 49.8166 7.33766 47.959 7.38489 38.3366L7.44126 26.8972L8.74714 26.3879C9.46537 26.1078 12.7464 24.909 16.0383 23.7241C19.3302 22.539 25.4515 20.3312 29.6412 18.8179C33.8309 17.3044 38.581 15.5926 40.197 15.0139C41.813 14.435 45.4369 13.1297 48.2499 12.1131C51.063 11.0967 57.0864 8.92698 61.6352 7.2918C70.0731 4.25846 71.419 3.77007 75.9998 2.07917C77.4363 1.54899 78.6895 1.10716 78.7848 1.09759C78.8799 1.08779 78.9289 1.74008 78.8937 2.54711ZM82.8113 5.16083L82.7469 6.62994L79.9175 7.66202C78.3613 8.22986 75.3251 9.32788 73.1704 10.1023C71.0157 10.8767 66.5105 12.4994 63.1587 13.7084C59.807 14.9175 55.2037 16.5757 52.9293 17.3932C50.6549 18.2107 45.8069 19.9564 42.1558 21.2725C38.5048 22.5886 33.1181 24.5287 30.1853 25.5834C27.2525 26.6384 22.5514 28.3393 19.7383 29.3633L14.6236 31.2248L14.567 41.617L14.5106 52.0092L14.0229 51.9883C13.7547 51.9767 13.0457 51.8538 12.4471 51.7147L11.3589 51.462V40.3984V29.3348L13.6442 28.4993C14.9011 28.0398 17.2027 27.2069 18.7589 26.6484C26.0829 24.0197 37.8523 19.7742 49.5558 15.5397C53.0871 14.2619 56.9068 12.8931 58.044 12.4979C59.1812 12.1024 62.0215 11.0793 64.3558 10.2239C66.69 9.36858 69.6772 8.28775 70.994 7.82199C72.3107 7.35601 75.3959 6.24275 77.8498 5.348C80.3038 4.45326 82.4385 3.71435 82.5937 3.7063C82.8041 3.69541 82.8592 4.06432 82.8113 5.16083ZM86.9479 7.82482L86.8822 9.19316L79.6998 11.7751C75.7495 13.1952 69.2854 15.526 65.3352 16.9544C61.3849 18.3831 56.3409 20.2026 54.1264 20.9979C51.9118 21.7931 47.6514 23.3284 44.6588 24.4097C36.0676 27.5135 29.4433 29.902 26.3765 31.0013C24.8203 31.5591 22.448 32.413 21.1049 32.8985L18.6625 33.7815L18.5575 43.9291C18.5001 49.5104 18.4535 54.5419 18.4544 55.1106C18.4553 55.6794 18.4559 58.1522 18.4559 60.6062C18.4559 63.0602 18.4559 65.5577 18.4559 66.1562C18.4559 73.0134 18.4516 76.3581 18.4411 77.3106C18.4341 77.9389 18.4513 80.412 18.4792 82.8061C18.5103 85.4719 18.4381 87.4644 18.2927 87.9472C18.1105 88.5531 18.1246 88.93 18.3543 89.5795C18.7223 90.6205 18.7384 98.0949 18.3734 98.5426C18.0624 98.9244 18.0787 100.713 18.396 101.03C18.7697 101.404 18.7526 109.615 18.378 109.74C18.0278 109.857 18.0409 111.993 18.3941 112.346C18.7926 112.744 18.7312 120.29 18.3236 121.003C17.9251 121.7 17.9157 122.608 18.2996 123.354C18.7212 124.172 18.6544 131.376 18.2132 132.706C17.9484 133.504 17.9479 133.734 18.2102 134.338C18.6886 135.44 18.7867 142.367 18.3373 143.314C17.9046 144.226 17.902 145.364 18.3316 145.978C18.5891 146.345 18.6516 146.944 18.6037 148.581C18.5501 150.403 18.4868 150.717 18.1603 150.78C17.8256 150.844 17.7795 150.659 17.7786 149.259C17.7777 147.373 17.3291 146.443 16.1486 145.88C15.4343 145.54 15.3854 145.45 15.3854 144.483C15.3854 143.514 15.43 143.433 16.0927 143.193C17.4275 142.709 17.663 142.117 17.7335 139.068C17.8062 135.926 17.542 135.189 16.1621 134.691C15.4045 134.417 15.3854 134.381 15.3854 133.256C15.3854 132.278 15.4467 132.103 15.7889 132.103C16.3049 132.103 17.2852 131.198 17.564 130.465C17.6826 130.153 17.779 128.852 17.7786 127.573C17.7777 124.896 17.4567 124.087 16.1486 123.463C15.4385 123.124 15.3854 123.029 15.3854 122.091C15.3854 121.154 15.4385 121.058 16.1486 120.72C17.4863 120.082 17.7777 119.307 17.7786 116.386C17.7795 113.842 17.7777 113.834 17.1024 113.065C16.7298 112.64 16.1911 112.235 15.9053 112.163C15.4395 112.046 15.3864 111.915 15.3956 110.913C15.4054 109.818 15.4254 109.784 16.3206 109.345C17.6027 108.715 17.7727 108.246 17.7755 105.333C17.7782 102.452 17.4604 101.623 16.1423 101.072C15.4271 100.773 15.3854 100.698 15.3854 99.7114C15.3854 98.7352 15.4317 98.6484 16.0927 98.3872C17.4071 97.8681 17.6619 97.2565 17.7425 94.4306C17.8319 91.2876 17.5625 90.4658 16.2636 89.9201C15.4017 89.5582 15.3897 89.5375 15.3875 88.4105C15.3858 87.5086 15.4585 87.2679 15.7327 87.2679C16.2914 87.2679 17.2645 86.4622 17.5562 85.7579C17.7364 85.3228 17.8001 84.2446 17.7481 82.5049C17.6774 80.1304 17.626 79.8553 17.1594 79.3588C16.8782 79.0596 16.3641 78.697 16.0167 78.5531C15.4472 78.3172 15.386 78.1929 15.391 77.2842C15.3962 76.3322 15.4419 76.2558 16.2205 75.8976C17.4658 75.3243 17.7795 74.4644 17.7795 71.6222C17.7795 69.5408 17.7224 69.1819 17.2878 68.5281C17.0173 68.1213 16.4808 67.6416 16.0953 67.4621C15.4583 67.1652 15.3949 67.047 15.396 66.1562C15.3969 65.2453 15.4591 65.1387 16.2829 64.6327C17.5927 63.828 17.7795 63.3039 17.7795 60.4317C17.7795 58.2132 17.727 57.8715 17.2852 57.2105C16.9951 56.7767 16.5001 56.3847 16.0881 56.2626C15.416 56.0635 15.3856 56.0065 15.3877 54.9568C15.3904 53.8944 15.418 53.8459 16.2479 53.4485C17.295 52.9468 17.7795 52.0212 17.7795 50.5218C17.7795 49.6179 17.7035 49.4026 17.3442 49.2886C16.4068 48.9911 16.0638 49.3352 15.9943 50.643C15.9551 51.3837 15.8213 51.9017 15.6552 51.9565C15.4367 52.0285 15.3925 49.9973 15.4376 41.9707L15.4942 31.8943L18.65 30.7443C20.3858 30.1118 22.5894 29.3087 23.5471 28.9598C24.5047 28.6109 27.2471 27.6215 29.6412 26.7609C35.3409 24.7126 41.1917 22.603 44.4411 21.4249C45.8776 20.904 48.8648 19.8289 51.0793 19.0358C53.2939 18.2427 56.2811 17.1655 57.7176 16.6421C59.154 16.1189 65.814 13.7219 72.5175 11.3156C79.221 8.90935 85.1464 6.76096 85.6851 6.54136C86.2238 6.32175 86.7431 6.21293 86.8391 6.29933C86.9348 6.38574 86.9838 7.0722 86.9479 7.82482ZM91.1263 10.2074C91.1263 10.9648 91.017 11.557 90.8542 11.6809C90.7047 11.7949 88.3785 12.6822 85.6851 13.6525C82.9917 14.623 74.226 17.7769 66.2058 20.6612C58.1855 23.5456 51.1337 26.093 50.5352 26.3221C49.5334 26.7056 36.0998 31.5506 30.5118 33.5439C24.3091 35.7562 23.0929 36.2094 22.8397 36.4022C22.6312 36.5613 22.5677 38.4043 22.5677 44.3052V52.0009L22.078 52.1019C21.8085 52.1576 21.1232 52.2634 20.5544 52.3372L19.5206 52.4712V43.4546V34.4382L20.7721 33.9909C21.4603 33.7447 25.5494 32.2693 29.8588 30.7121C34.1682 29.1546 44.403 25.4653 52.6029 22.5133C60.8027 19.5616 70.4988 16.0675 74.1498 14.749C77.8009 13.4305 82.551 11.7189 84.7057 10.9456C86.8604 10.1721 89.113 9.36031 89.7116 9.14114C90.3101 8.92219 90.8731 8.78746 90.963 8.84188C91.0529 8.89629 91.1263 9.5107 91.1263 10.2074ZM95.0439 16.6212V21.9331L94.0101 22.055C93.4416 22.122 92.1438 22.2354 91.1263 22.3068C81.1918 23.0039 64.1612 26.7561 47.597 31.8974C44.0437 33.0002 31.2154 37.2906 28.5529 38.2668L26.8118 38.9051L26.7541 44.9999C26.689 51.8634 26.8897 51.1756 24.8049 51.6762C24.1798 51.8264 23.6167 51.8973 23.5534 51.834C23.4901 51.7709 23.4383 48.4576 23.4383 44.4719C23.4383 37.6369 23.4613 37.2123 23.8418 37.0086C24.3191 36.7531 29.4921 34.8484 34.5382 33.0703C36.5134 32.3742 39.6475 31.2477 41.5029 30.5669C43.3583 29.8861 47.1291 28.518 49.8823 27.5268C66.4073 21.577 83.0498 15.5708 91.2351 12.6028C93.1504 11.9083 94.7908 11.3333 94.8807 11.3248C94.9705 11.3163 95.0439 13.6997 95.0439 16.6212ZM100.141 22.9767C100.453 23.0966 100.485 28.5891 100.485 83.0146V142.92L95.5336 143.054C88.7021 143.237 83.9217 143.838 75.1292 145.619C69.1642 146.828 58.4401 149.624 51.297 151.834C44.7598 153.856 29.0897 158.946 27.8334 159.456C27.4049 159.629 27.5764 157.341 28.0088 157.116C28.1884 157.022 29.1164 156.573 30.071 156.118C32.18 155.113 34.0553 153.592 35.2658 151.903C35.7997 151.159 36.3937 150.583 36.7147 150.499C37.0139 150.42 37.4791 150.213 37.7485 150.039C38.2145 149.738 38.2382 149.587 38.2382 146.924C38.2382 144.828 38.1638 144.065 37.9416 143.881C37.7137 143.692 37.1461 143.842 35.493 144.528C34.3095 145.02 33.2104 145.529 33.0506 145.66C32.8423 145.831 32.7923 146.26 32.8737 147.173L32.9873 148.448L31.6549 149.429C30.4164 150.34 28.2715 151.474 27.7847 151.474C27.6595 151.474 27.5735 150.364 27.5735 148.746C27.5735 146.343 27.6188 146.003 27.9544 145.89C28.164 145.819 29.1393 145.381 30.1217 144.916C32.3041 143.882 34.2629 142.29 35.3529 140.663C36.0004 139.696 36.3743 139.368 37.15 139.086L38.1294 138.729L38.1899 135.738C38.241 133.215 38.1984 132.727 37.9172 132.619C37.7337 132.549 36.5556 132.904 35.2991 133.409C32.7914 134.417 32.8959 134.283 33.006 136.364C33.0338 136.888 32.8608 137.197 32.212 137.782C31.5082 138.416 28.1033 140.374 27.7035 140.374C27.6321 140.374 27.5735 139.158 27.5735 137.672V134.971L30.0499 133.753C31.9909 132.798 32.8175 132.245 33.8746 131.191C34.6164 130.451 35.4079 129.484 35.6336 129.042C35.9063 128.507 36.2485 128.187 36.6516 128.088C36.9854 128.005 37.4791 127.796 37.7485 127.621C38.2162 127.319 38.2382 127.174 38.2382 124.395C38.2382 122.249 38.1659 121.457 37.9629 121.379C37.8116 121.321 36.6607 121.691 35.4055 122.201L33.1235 123.127L33.0574 124.51C33.0136 125.427 32.8674 126.03 32.6221 126.303C31.8964 127.111 28.492 129.056 27.8032 129.056C27.6545 129.056 27.5735 128.104 27.5735 126.353V123.651L28.6074 123.269C31.2875 122.279 34.4557 119.897 35.5303 118.063C35.9407 117.362 36.3332 117.031 37.1548 116.689C37.8739 116.39 38.2423 116.107 38.2506 115.846C38.3159 113.77 38.1736 110.406 38.0136 110.245C37.8212 110.052 33.901 111.442 33.2868 111.921C33.1211 112.05 33.0147 112.662 33.0147 113.484C33.0147 114.799 32.991 114.855 32.1465 115.534C31.2552 116.25 28.9354 117.555 28.0632 117.831L27.5735 117.985V115.239V112.493L28.3897 112.157C31.704 110.796 34.2951 108.882 35.5929 106.835C36.0617 106.096 36.4657 105.756 37.2151 105.47L38.213 105.089L38.28 102.435C38.3538 99.5113 38.3137 99.0954 37.9446 98.9566C37.6638 98.851 33.7105 100.377 33.2868 100.754C33.1287 100.895 33.0147 101.522 33.0147 102.25C33.0147 103.419 32.9601 103.553 32.1985 104.255C31.3212 105.063 30.8685 105.353 29.2614 106.135C27.5476 106.97 27.5735 107.003 27.5735 103.948V101.258L28.825 100.781C31.565 99.7384 35.1727 96.9407 35.8334 95.3469C35.9847 94.9821 36.4805 94.5806 37.2085 94.2326L38.347 93.6884L38.4078 91.0725C38.453 89.12 38.3927 88.3528 38.1696 88.0479C37.88 87.6518 37.821 87.6581 36.2589 88.2473C35.3725 88.5818 34.2799 89.0389 33.8309 89.263C33.0149 89.6707 33.0147 89.6713 33.0147 91.0665C33.0147 92.4465 33.0043 92.4707 32.0897 93.2074C31.0282 94.0624 28.7847 95.3208 28.3218 95.3208C28.1497 95.3208 28.0088 95.4246 28.0088 95.5513C28.0088 95.6779 27.9109 95.7213 27.7912 95.6473C27.665 95.5691 27.5735 94.3716 27.5735 92.7937V90.0746L28.2306 89.8457C31.2139 88.8055 34.2487 86.5973 35.6354 84.4572C36.144 83.6724 36.5334 83.3361 37.1813 83.1224C37.6575 82.965 38.1392 82.6647 38.2515 82.4546C38.4759 82.0354 38.5353 77.499 38.3237 76.9475C38.1333 76.4515 37.5962 76.5175 35.6865 77.2716C33.0608 78.3085 33.0147 78.3533 33.0147 79.8618C33.0147 81.033 32.9496 81.214 32.3074 81.8296C31.728 82.385 28.0909 84.4385 27.6867 84.4385C27.6245 84.4385 27.5735 83.2229 27.5735 81.7373V79.0358L30.0266 77.8294C32.6691 76.5299 34.6429 74.916 35.7109 73.182C36.1255 72.5086 36.5671 72.1386 37.3661 71.795L38.4559 71.3262V68.5501C38.4559 64.9241 38.5057 64.9654 35.5805 66.1627C34.3489 66.6668 33.2691 67.1898 33.1812 67.325C33.0933 67.4603 33.0199 68.1157 33.018 68.7817C33.0151 69.8218 32.9303 70.0699 32.4162 70.5426C31.4966 71.388 28.3886 73.1209 27.7923 73.1209C27.6576 73.1209 27.5735 72.0886 27.5735 70.4334V67.7459L28.4985 67.3602C30.1855 66.657 30.5009 66.4948 31.9269 65.5962C33.6354 64.5199 35.7346 62.3922 36.1105 61.356C36.178 61.1699 36.6368 60.8844 37.13 60.7216C37.6231 60.5588 38.1263 60.3056 38.248 60.1592C38.3801 60.0001 38.4445 58.7649 38.4082 57.0962C38.3355 53.7708 38.413 53.8374 35.7899 54.8405C33.0356 55.8937 33.0147 55.914 33.0147 57.5263C33.0147 58.6705 32.9335 58.9726 32.525 59.3476C31.5397 60.2519 29.0518 61.6052 27.9 61.8633C27.764 61.8938 27.6824 60.9022 27.6824 59.2205V56.5286L28.7682 56.102C31.5893 54.994 35.4926 51.9361 35.9581 50.4693C36.0487 50.1842 36.5547 49.8083 37.2803 49.4875L38.4559 48.9676V46.1621C38.4559 43.9667 38.3866 43.2992 38.1379 43.0926C37.8815 42.88 37.3846 43.0067 35.5805 43.7452C34.3489 44.2492 33.2691 44.7722 33.1812 44.9074C33.0933 45.0428 33.0199 45.741 33.018 46.4592C33.0149 47.6865 32.9694 47.8012 32.2606 48.3669C31.2559 49.1682 28.4337 50.6963 27.9507 50.7003C27.5916 50.7031 27.5701 50.3359 27.6243 45.13L27.6824 39.557L29.75 38.8113C34.2522 37.1875 45.0843 33.6307 50.5555 31.9796C67.9933 26.7169 83.0731 23.6096 94.1733 22.9917C96.6025 22.8566 99.8067 22.8485 100.141 22.9767ZM6.37806 38.4193C6.31625 38.5808 5.89336 38.9058 5.4387 39.1415C4.63863 39.5559 4.27059 39.8169 3.02369 40.8546C2.02644 41.6843 1.89476 41.5293 2.53334 40.2776C2.98365 39.3951 4.37267 37.9673 5.60781 37.1176L6.35303 36.6048L6.42202 37.3653C6.45989 37.7834 6.44009 38.2579 6.37806 38.4193ZM6.46185 43.1786V45.8831L5.24608 46.5787C3.8094 47.4007 3.37258 47.2893 2.61757 45.9086C2.15115 45.0554 2.1505 45.0401 2.55554 44.2022C3.16647 42.9377 5.54708 40.5784 6.29862 40.4926C6.38829 40.4824 6.46185 41.691 6.46185 43.1786ZM37.7557 46.1639C37.7039 48.2012 37.6327 48.6278 37.3106 48.83C36.995 49.0285 36.8379 48.9589 36.4204 48.4359C36.0796 48.0084 35.7956 47.846 35.5525 47.9392C35.0469 48.1333 35.0997 47.8913 35.7818 46.8906C36.1725 46.3175 36.3858 45.7014 36.4117 45.0717C36.4513 44.106 36.7253 43.748 37.4292 43.7419C37.782 43.7388 37.8116 43.9582 37.7557 46.1639ZM34.8196 45.2077C34.5931 45.8239 34.0681 46.568 33.8603 46.568C33.4981 46.568 33.6578 45.2896 34.0485 45.0619C34.6433 44.7154 34.9777 44.7788 34.8196 45.2077ZM6.46185 48.6433C6.46185 49.338 6.42072 49.3907 6.03875 49.1863C5.38711 48.8376 5.29157 48.5271 5.73274 48.1928C6.3428 47.7305 6.46185 47.804 6.46185 48.6433ZM34.7559 48.7121C34.7559 49.225 34.24 50.2774 34.0237 50.2055C33.6134 50.0689 33.6054 49.3918 34.0087 48.946C34.4061 48.5068 34.7559 48.3973 34.7559 48.7121ZM33.2432 50.5061C33.5327 51.047 33.0645 51.6444 31.5051 52.7235C30.4863 53.4287 28.1503 54.6209 27.7877 54.6209C27.67 54.6209 27.5775 54.2046 27.5822 53.6959L27.591 52.7709L30.2484 51.4372C31.7101 50.7035 32.927 50.0915 32.9527 50.0769C32.9783 50.0623 33.1092 50.2554 33.2432 50.5061ZM6.46185 52.587V53.3825L5.97215 52.9703C5.7027 52.7435 5.43369 52.5243 5.37406 52.4834C5.24303 52.3935 6.03635 51.7915 6.28577 51.7915C6.38263 51.7915 6.46185 52.1496 6.46185 52.587ZM9.18243 52.4247C10.2661 52.8047 10.2709 52.8105 10.3381 53.8494C10.4054 54.8912 10.4049 54.8921 9.80163 54.7406C9.46929 54.6573 8.77783 54.3978 8.26505 54.1643C7.39425 53.7678 7.33244 53.682 7.33244 52.8743C7.33244 51.8688 7.48914 51.8307 9.18243 52.4247ZM12.8824 53.4535C14.5698 53.7323 14.5148 53.6896 14.5148 54.7211C14.5148 55.2504 14.4408 55.7292 14.3504 55.7851C14.2599 55.8411 13.5253 55.7386 12.7181 55.5575L11.2501 55.2282V54.308C11.2501 53.2755 11.3979 53.0234 11.8917 53.2147C12.0773 53.2868 12.5233 53.3941 12.8824 53.4535ZM26.703 54.0237C26.703 54.8288 26.6246 54.9824 26.1044 55.1984C25.3189 55.5244 23.6605 55.7599 23.6392 55.5485C23.63 55.4573 23.5815 55.1868 23.5314 54.9474C23.3275 53.9754 23.6096 53.5893 24.688 53.3647C26.6368 52.9585 26.703 52.9801 26.703 54.0237ZM4.70414 54.0568C4.84387 54.2253 5.29658 54.5236 5.7101 54.72C6.41049 55.0523 6.46185 55.1468 6.4612 56.1003L6.46055 57.1239L5.10548 57.8438L3.75063 58.5638L3.15319 57.8438C2.82477 57.4479 2.55336 57.0096 2.55009 56.8699C2.54683 56.7304 2.45455 56.5835 2.34486 56.5434C2.04951 56.4361 2.64717 54.8799 3.21653 54.2738C3.77087 53.6837 4.32718 53.6026 4.70414 54.0568ZM22.5677 54.8616C22.5677 55.5607 22.4741 55.932 22.2956 55.9418C22.1461 55.9501 21.7384 55.9941 21.39 56.0396C20.3592 56.1741 19.9207 55.8084 19.9981 54.8788C20.0591 54.1447 20.1294 54.0677 20.8265 53.968C22.6103 53.7131 22.5677 53.6911 22.5677 54.8616ZM37.8029 57.3269C37.8029 59.6577 37.7742 59.8242 37.3491 59.9591C37.0416 60.0567 36.7388 59.9561 36.41 59.6473C36.1431 59.3965 35.7599 59.1915 35.5581 59.1915C35.095 59.1915 35.098 59.0705 35.5799 58.3544C36.3303 57.239 36.5565 56.6043 36.4291 55.9682C36.3266 55.4552 36.3952 55.2852 36.7802 55.0993C37.7685 54.6218 37.8029 54.6969 37.8029 57.3269ZM8.97262 56.2115L10.2707 56.714L10.3316 59.4821L10.3925 62.2501L9.78749 62.1067C9.4547 62.0277 8.76629 61.7778 8.25743 61.5512L7.33244 61.1394V58.5695C7.33244 56.4385 7.41297 55.7092 7.64868 55.7092C7.66304 55.7092 8.25874 55.9353 8.97262 56.2115ZM34.5961 56.8292C33.9356 57.9544 33.6676 58.0452 33.6676 57.1435C33.6676 56.5186 33.7725 56.3083 34.1573 56.163C34.8871 55.8872 35.0255 56.0974 34.5961 56.8292ZM26.703 59.5104C26.703 61.8751 26.654 62.2481 26.3221 62.4172C25.7035 62.7322 23.8322 63.1403 23.6838 62.9925C23.4313 62.7407 23.4365 57.6948 23.6894 57.5385C23.9308 57.3894 25.934 56.8655 26.4309 56.8216C26.6353 56.8035 26.703 57.4723 26.703 59.5104ZM13.1001 57.318L14.4059 57.5929L14.4669 60.3511L14.5278 63.1091H13.9937C13.7001 63.1091 12.9625 62.9944 12.3548 62.8541L11.2501 62.5992V59.807C11.2501 57.7111 11.318 57.0185 11.5221 57.029C11.6719 57.0368 12.3818 57.1667 13.1001 57.318ZM21.2927 57.6948L22.5807 57.6656L22.5198 60.436L22.4589 63.2064L21.4794 63.3694C20.9408 63.4591 20.2798 63.586 20.0103 63.6515L19.5206 63.7703V60.5975C19.5206 58.3248 19.5892 57.4671 19.7627 57.5742C19.8956 57.6565 20.5843 57.7106 21.2927 57.6948ZM15.9913 60.498C15.9477 62.2322 15.8487 62.9916 15.6574 63.0552C15.45 63.1239 15.3854 62.5298 15.3854 60.5518C15.3854 59.1253 15.4524 57.8913 15.534 57.8095C15.9131 57.4303 16.0483 58.2252 15.9913 60.498ZM6.46185 59.7356C6.46185 60.5716 6.32212 60.6532 5.68725 60.1875C5.2698 59.8812 5.2698 59.8725 5.70009 59.4388C6.31886 58.8145 6.46185 58.8703 6.46185 59.7356ZM34.5966 60.4974C34.2414 61.4015 33.7534 61.6476 33.6261 60.9871C33.5606 60.6476 34.4194 59.6514 34.7929 59.6338C34.873 59.6298 34.7846 60.0186 34.5966 60.4974ZM33.2104 61.849C33.4885 62.2945 33.4483 62.3839 32.6643 63.0632C31.6866 63.9099 28.4622 65.7209 27.9324 65.7209C27.6552 65.7209 27.5735 65.5098 27.5735 64.7922V63.8633L28.8535 63.3551C29.5574 63.0754 30.7083 62.5169 31.4109 62.1138C32.1134 61.711 32.7381 61.3782 32.799 61.3745C32.8602 61.371 33.0452 61.5843 33.2104 61.849ZM6.46185 63.7621C6.46185 64.5286 6.24791 64.585 5.68812 63.9664C5.34054 63.5825 5.32791 63.4889 5.59997 63.3168C6.18217 62.9485 6.46185 63.093 6.46185 63.7621ZM10.3795 65.1028V66.1368L9.45449 65.8123C7.443 65.1065 7.33244 65.0216 7.33244 64.1806C7.33244 63.7508 7.38707 63.3446 7.45367 63.278C7.52048 63.2112 8.20607 63.3618 8.97719 63.6126L10.3795 64.0685V65.1028ZM26.6605 65.2242C26.5976 66.1986 26.5554 66.2602 25.8324 66.435C25.4134 66.5362 24.7548 66.701 24.3689 66.8009C23.6966 66.975 23.6616 66.9521 23.5308 66.2546C23.3297 65.1827 23.4611 65.0062 24.7605 64.6048C26.6718 64.0143 26.7373 64.0357 26.6605 65.2242ZM13.1001 64.7056L14.4059 64.977V65.9475V66.918L13.4265 66.8479C12.8879 66.8093 12.1777 66.6629 11.8486 66.5227C11.3293 66.3014 11.2501 66.1449 11.2501 65.3413C11.2501 64.2995 11.2113 64.3129 13.1001 64.7056ZM4.52306 65.1948C4.73243 65.3844 5.22976 65.7137 5.62849 65.9268C6.26097 66.2648 6.36043 66.4354 6.41092 67.269C6.46816 68.2173 6.46033 68.2286 5.25087 68.9312C4.58095 69.3203 3.96001 69.6385 3.87077 69.6385C3.62005 69.6385 2.82759 68.7303 2.4626 68.0251C2.10697 67.3378 2.25322 66.854 3.24112 65.4488C3.72386 64.7624 3.98743 64.7101 4.52306 65.1948ZM22.5252 66.1018L22.4589 67.1356H21.2618H20.0647V66.2748C20.0647 65.3337 20.3679 65.135 21.8723 65.0897L22.5916 65.068L22.5252 66.1018ZM37.8029 68.5555C37.8029 70.6795 37.7587 70.9529 37.382 71.1544C36.7758 71.4787 36.6263 71.4391 36.3854 70.89C36.2672 70.6205 35.9503 70.3689 35.6809 70.3306C35.1683 70.2579 35.0375 69.9767 35.4095 69.7469C35.8323 69.4855 36.5325 67.6331 36.4032 67.118C36.302 66.7147 36.4008 66.5416 36.8749 66.2933C37.2048 66.1205 37.5485 66.0247 37.6388 66.0805C37.7291 66.1362 37.8029 67.2501 37.8029 68.5555ZM8.32273 67.2076C8.43634 67.3073 8.94563 67.5071 9.45449 67.6519L10.3795 67.9148V70.7281V73.5414L9.12802 73.0756C8.43982 72.8194 7.75424 72.5169 7.60449 72.4035C7.41362 72.2586 7.33244 71.4248 7.33244 69.612C7.33244 67.2677 7.369 67.0268 7.7242 67.0268C7.93967 67.0268 8.20912 67.1082 8.32273 67.2076ZM34.7559 67.483C34.7559 67.8194 34.0439 68.9856 33.8383 68.9856C33.5538 68.9856 33.6476 67.5065 33.9397 67.3885C34.4144 67.197 34.7559 67.2366 34.7559 67.483ZM13.7049 68.6622L14.5276 68.7901L14.4667 71.554L14.4059 74.3179L13.6442 74.2496C13.2252 74.2119 12.5152 74.0857 12.0662 73.969L11.2501 73.757V71.0811C11.2501 69.6094 11.3045 68.3507 11.3711 68.2841C11.4377 68.2177 11.8049 68.2467 12.1873 68.3488C12.5697 68.4506 13.2526 68.5917 13.7049 68.6622ZM26.703 70.8008V73.4865L25.8868 73.7427C25.438 73.8837 24.7446 74.0219 24.3463 74.0496L23.622 74.1003L23.6115 71.4252C23.6056 69.9541 23.6378 68.7181 23.6829 68.6785C23.7861 68.5882 25.8123 68.1751 26.3221 68.1407C26.6657 68.1176 26.703 68.3781 26.703 70.8008ZM22.5677 71.6465C22.5677 74.7782 22.7609 74.4816 20.5544 74.7349L19.5206 74.8538L19.5208 71.8653L19.5213 68.8768L21.0444 68.8757L22.5677 68.8746V71.6465ZM15.9295 71.7062C15.9295 73.5731 15.8546 74.3066 15.6574 74.3723C15.4493 74.4418 15.3854 73.8149 15.3854 71.7062C15.3854 69.5974 15.4493 68.9706 15.6574 69.04C15.8546 69.1057 15.9295 69.8392 15.9295 71.7062ZM6.46185 70.9444C6.46185 71.6274 6.09947 71.8008 5.63784 71.3392C5.4387 71.1401 5.46133 70.9908 5.73687 70.6863C6.24834 70.1208 6.46185 70.197 6.46185 70.9444ZM34.7559 71.1829C34.7559 71.5194 34.0439 72.6856 33.8383 72.6856C33.5286 72.6856 33.6609 71.748 34.0278 71.3425C34.4324 70.8954 34.7559 70.8245 34.7559 71.1829ZM33.2114 72.9505C33.4933 73.4019 33.4445 73.493 32.4619 74.358C31.5911 75.1241 28.1988 77.0385 27.712 77.0385C27.6358 77.0385 27.5735 76.5947 27.5735 76.0523C27.5735 75.3086 27.6671 75.0335 27.9544 74.9334C28.8883 74.6087 31.6483 73.2445 32.1191 72.8751C32.7762 72.3595 32.8454 72.3643 33.2114 72.9505ZM6.46185 74.862C6.46185 75.5953 6.30123 75.663 5.68725 75.1885C5.26915 74.8653 5.26915 74.8588 5.68725 74.5356C6.30123 74.0611 6.46185 74.1288 6.46185 74.862ZM8.31185 74.6444C8.38585 74.7641 8.63178 74.862 8.85857 74.862C9.08536 74.862 9.52022 74.9757 9.82514 75.1147C10.2983 75.3302 10.3795 75.5091 10.3795 76.3353C10.3795 77.2374 10.3453 77.2947 9.87759 77.1774C9.60162 77.1081 8.91603 76.8481 8.35407 76.5995C7.38554 76.171 7.33244 76.1028 7.33244 75.2871C7.33244 74.5806 7.40796 74.4267 7.75489 74.4267C7.98733 74.4267 8.23785 74.5247 8.31185 74.6444ZM26.703 76.3573V77.4172L25.778 77.651C23.6644 78.1848 23.7153 78.1903 23.5932 77.4174C23.4361 76.4232 23.9221 75.7381 24.8036 75.7109C25.3631 75.6937 26.1033 75.5365 26.6485 75.3191C26.6784 75.3071 26.703 75.7744 26.703 76.3573ZM14.1339 76.0867C14.4216 76.1703 14.5148 76.4297 14.5148 77.1491C14.5148 77.6727 14.4412 78.1407 14.3515 78.189C14.2619 78.2373 13.5273 78.1315 12.7192 77.9539L11.2501 77.6307V76.6565V75.6826L12.5015 75.8293C13.1897 75.91 13.9243 76.0258 14.1339 76.0867ZM5.24325 76.8753C6.40744 77.5558 6.45336 77.6174 6.4575 78.5033C6.46163 79.3697 6.40744 79.4511 5.53686 79.8888C5.028 80.1445 4.44231 80.503 4.23511 80.6852C3.76108 81.1017 3.40414 80.8427 2.62845 79.5192L2.08499 78.5916L2.56402 77.6527C3.00802 76.7823 3.53712 76.1914 3.8871 76.1749C3.96741 76.171 4.57747 76.4861 5.24325 76.8753ZM22.5677 77.2561V78.3444H21.3972C20.1085 78.3444 19.7461 78.0878 19.8793 77.2694C19.9881 76.6013 20.0029 76.588 20.8698 76.3825C22.4669 76.0045 22.5677 76.0563 22.5677 77.2561ZM37.8029 79.7549V82.2537L37.244 82.3939C36.8202 82.5003 36.6067 82.4224 36.361 82.0716C36.183 81.8171 35.8467 81.6091 35.614 81.6091C35.071 81.6091 35.0712 81.608 35.8515 80.1456C36.3212 79.2655 36.4746 78.7377 36.3823 78.318C36.2452 77.693 36.6559 77.2762 37.422 77.2627C37.7631 77.2568 37.8029 77.5178 37.8029 79.7549ZM10.3312 81.9828L10.3919 84.8383L8.91647 84.2165L7.44126 83.5944L7.37923 81.1459C7.34528 79.7994 7.36509 78.5736 7.4232 78.4221C7.50373 78.212 7.85522 78.2632 8.89971 78.6369L10.2707 79.1275L10.3312 81.9828ZM34.755 78.6164C34.7546 78.7662 34.535 79.2313 34.2668 79.6503L33.7795 80.412L33.7064 79.6598C33.655 79.1303 33.7475 78.8243 34.0185 78.626C34.5043 78.271 34.7561 78.2676 34.755 78.6164ZM26.703 82.0026V84.7904L25.236 85.1413C24.1306 85.4059 23.7266 85.4294 23.5969 85.2374C23.3984 84.9438 23.4779 80.1896 23.6846 79.9837C23.8466 79.8224 25.7719 79.2809 26.3221 79.242C26.6664 79.2176 26.703 79.4825 26.703 82.0026ZM12.5559 79.6304C12.9749 79.7377 13.5872 79.886 13.9162 79.9597L14.5148 80.0938V82.8103C14.5148 85.8989 14.6645 85.7169 12.4835 85.279L11.2501 85.0313V82.232C11.2501 79.1906 11.2033 79.2835 12.5559 79.6304ZM22.5677 82.9328V85.7444L21.8603 85.7496C21.4714 85.7524 20.7858 85.8401 20.3368 85.9444L19.5206 86.1337L19.5202 83.0553L19.5195 79.9767L21.0437 80.049L22.5677 80.1212V82.9328ZM15.9906 82.9839C15.9477 84.664 15.8481 85.4094 15.6574 85.4727C15.4493 85.5417 15.3854 84.9129 15.3854 82.7976C15.3854 80.3391 15.4224 80.0629 15.7186 80.3089C15.9884 80.5328 16.0402 81.0423 15.9906 82.9839ZM6.46185 82.1532C6.46185 82.9881 6.32234 83.0703 5.69008 82.6081C5.27851 82.3071 5.27829 82.2929 5.68224 81.8463C6.26575 81.2019 6.46185 81.2789 6.46185 82.1532ZM34.437 83.1178C34.0387 83.8883 33.6676 83.9908 33.6676 83.3307C33.6676 82.8666 34.5918 81.9251 34.7147 82.2637C34.752 82.3663 34.627 82.7506 34.437 83.1178ZM33.1731 84.2069C33.4049 84.5782 33.312 84.7397 32.3903 85.5672C31.4198 86.4382 28.4017 88.1385 27.8258 88.1385C27.6719 88.1385 27.5735 87.7563 27.5735 87.159C27.5735 86.6204 27.6734 86.1796 27.7955 86.1796C28.1113 86.1796 31.5138 84.5397 32.0353 84.1362C32.6149 83.6876 32.8582 83.7028 33.1731 84.2069ZM6.46185 85.962C6.46185 86.645 6.09947 86.8184 5.63784 86.3568C5.4387 86.1577 5.46133 86.0084 5.73687 85.7039C6.24834 85.1384 6.46185 85.2146 6.46185 85.962ZM9.34567 86.1494L10.3795 86.4861V87.529V88.572L9.23684 88.1197C8.6085 87.8712 7.92291 87.6152 7.71332 87.5512C7.43974 87.4675 7.33244 87.2067 7.33244 86.6258C7.33244 85.6962 7.49589 85.451 7.97406 85.6629C8.15971 85.7454 8.77696 85.9644 9.34567 86.1494ZM26.703 87.5774C26.703 88.4721 26.6527 88.5566 25.9895 88.7755C25.5973 88.905 24.8871 89.0349 24.4116 89.0643C23.576 89.1161 23.5447 89.0933 23.4768 88.3829C23.388 87.4537 23.5728 87.2779 25.0003 86.9323C26.7284 86.5142 26.703 86.5044 26.703 87.5774ZM13.8575 87.2603C14.3322 87.3863 14.4149 87.5445 14.4728 88.4373L14.5396 89.4687L13.711 89.3231C11.1891 88.88 11.3656 88.9879 11.2919 87.8425L11.225 86.8021L12.2671 86.9584C12.8402 87.0444 13.556 87.1802 13.8575 87.2603ZM4.67497 87.672C4.99948 87.8943 5.53424 88.2392 5.86332 88.4388C6.36478 88.7426 6.46185 88.9507 6.46163 89.7214C6.4612 90.6286 6.44183 90.6518 5.07262 91.3901C3.50622 92.2346 3.42568 92.2108 2.544 90.641C2.10392 89.8574 2.10022 89.793 2.45063 89.036C2.8461 88.1822 3.59393 87.2679 3.89689 87.2679C4.00049 87.2679 4.35068 87.4496 4.67497 87.672ZM22.5677 88.4416C22.5677 89.1126 22.4649 89.4372 22.2234 89.5299C21.7328 89.7181 19.9566 89.6938 19.9529 89.4987C19.9513 89.4089 19.8932 89.1242 19.824 88.8658C19.621 88.1093 20.4182 87.4855 21.5883 87.4855H22.5677V88.4416ZM37.8029 90.9731C37.8029 93.0971 37.7587 93.3705 37.382 93.572C36.7859 93.8911 36.497 93.8517 36.497 93.4519C36.497 93.2619 36.2032 92.9957 35.8441 92.8601C35.0717 92.5684 35.0582 92.5014 35.6265 91.779C35.8659 91.4748 36.0617 91.0756 36.0617 90.8919C36.0617 90.7084 36.1684 90.4923 36.299 90.4116C36.4376 90.326 36.482 89.9769 36.4058 89.571C36.2911 88.959 36.3466 88.8502 36.876 88.6528C37.2063 88.5298 37.5498 88.4673 37.6397 88.5141C37.7296 88.5611 37.8029 89.6676 37.8029 90.9731ZM9.9986 90.1869C10.3353 90.2879 10.3795 90.6211 10.3795 93.056V95.8105L9.74026 95.6827C9.38876 95.6124 8.72777 95.3791 8.27115 95.1645L7.44126 94.7741L7.37923 92.2857C7.34528 90.9171 7.36443 89.675 7.42167 89.5257C7.50111 89.3188 7.77513 89.3514 8.57193 89.6633C9.14717 89.8883 9.78901 90.1238 9.9986 90.1869ZM34.639 90.1517C34.5585 90.4211 34.3071 90.8344 34.0801 91.0706C33.6722 91.4952 33.6676 91.4913 33.6676 90.708C33.6676 89.9534 33.8581 89.7175 34.4984 89.6792C34.6958 89.6674 34.7395 89.8146 34.639 90.1517ZM26.703 93.2558V95.9533L25.8868 96.1831C25.438 96.3093 24.7004 96.4739 24.2477 96.5487L23.4248 96.6843L23.4859 93.8806L23.5471 91.0767L24.8127 90.8268C25.5087 90.6895 26.1345 90.5206 26.2032 90.4518C26.5711 90.084 26.703 90.824 26.703 93.2558ZM14.0316 91.1021C14.5209 91.1957 14.527 91.2347 14.4669 93.9664L14.4059 96.7355L13.5354 96.6684C13.0565 96.6314 12.3464 96.5015 11.9574 96.3794L11.2501 96.1576V93.4902C11.2501 92.023 11.3012 90.7715 11.3639 90.7091C11.4264 90.6464 11.9407 90.688 12.5065 90.8014C13.0724 90.9145 13.7587 91.0501 14.0316 91.1021ZM16.035 93.9427C16.0383 96.179 15.934 96.8443 15.5797 96.8443C15.3551 96.8443 15.3109 91.5501 15.5338 91.3274C15.8677 90.9933 16.0318 91.8493 16.035 93.9427ZM22.5677 94.0395C22.5677 97.2013 22.7442 96.9303 20.5544 97.1312L19.5206 97.2261L19.5208 94.2602V91.2943L21.0444 91.2686L22.5677 91.2427V94.0395ZM6.46185 93.4708C6.46185 94.3451 6.26575 94.4221 5.68224 93.7777C5.27829 93.3311 5.27851 93.3169 5.69008 93.0159C6.32234 92.5536 6.46185 92.6359 6.46185 93.4708ZM34.6457 93.7429C34.5593 93.9522 34.4414 94.2883 34.3833 94.4896C34.3251 94.6907 34.1404 94.9081 33.9726 94.9723C33.5379 95.1393 33.5782 94.2569 34.0278 93.76C34.4853 93.2545 34.8508 93.2444 34.6457 93.7429ZM33.1401 95.4181C33.2474 95.8457 33.1159 96.0893 32.473 96.6539C31.4487 97.5532 30.0839 98.4175 28.771 98.9981C28.2017 99.25 27.6993 99.4561 27.6547 99.4561C27.6101 99.4561 27.5735 99.0275 27.5735 98.5034V97.551L29.7576 96.5035C30.9588 95.9274 32.0481 95.3275 32.1783 95.1708C32.5507 94.722 32.994 94.8361 33.1401 95.4181ZM6.46185 97.1708C6.46185 98.0107 6.31777 98.0921 5.68725 97.6089C5.27394 97.292 5.27655 97.2757 5.80891 96.8519C6.10818 96.6136 6.37762 96.4164 6.40744 96.4138C6.43726 96.4112 6.46185 96.7518 6.46185 97.1708ZM9.18243 97.2598C10.2661 97.6398 10.2709 97.6457 10.3381 98.6845L10.4056 99.7275L9.79402 99.579C9.45753 99.4974 8.76629 99.2317 8.25743 98.9886C7.4023 98.58 7.33244 98.4825 7.33244 97.6955C7.33244 96.7054 7.49371 96.6674 9.18243 97.2598ZM26.703 98.7718V99.8289L25.2465 100.188C24.4129 100.394 23.7084 100.466 23.5993 100.357C23.4944 100.252 23.4398 99.7893 23.4779 99.3285C23.5469 98.4939 23.5525 98.4891 24.9618 98.1173C25.7399 97.9121 26.4501 97.7375 26.5397 97.7295C26.6294 97.7214 26.703 98.1904 26.703 98.7718ZM12.9096 98.2653C13.2537 98.3363 13.7556 98.4392 14.0251 98.4941C14.444 98.5794 14.5148 98.7328 14.5148 99.5562C14.5148 100.085 14.4412 100.558 14.3515 100.607C14.2619 100.655 13.5273 100.549 12.7192 100.371L11.2501 100.048V98.965C11.2501 97.9341 11.2751 97.8879 11.767 98.0091C12.0512 98.0792 12.5655 98.1946 12.9096 98.2653ZM5.24325 99.2928C6.40222 99.9704 6.45336 100.038 6.4575 100.905C6.46185 101.79 6.43138 101.828 5.10156 102.576L3.74127 103.342L3.23742 102.872C2.96036 102.613 2.57883 102.074 2.38947 101.675C2.063 100.987 2.07084 100.904 2.54552 100.04C3.50491 98.2938 3.52472 98.2884 5.24325 99.2928ZM22.5677 99.6509V100.716L21.7515 100.793C20.0419 100.955 19.5544 100.591 19.8589 99.3779C19.9979 98.8234 20.2918 98.718 21.9692 98.6203C22.5453 98.5868 22.5677 98.6253 22.5677 99.6509ZM37.7278 102.086C37.747 103.37 37.6647 104.471 37.538 104.625C37.1926 105.045 36.7047 104.95 36.1534 104.355C35.8256 104.001 35.5231 103.862 35.2821 103.955C35.0125 104.058 35.1285 103.711 35.7137 102.665C36.3075 101.603 36.4781 101.088 36.3736 100.673C36.2596 100.218 36.3297 100.074 36.7458 99.9075C37.0281 99.7949 37.3567 99.7292 37.4764 99.7612C37.6012 99.7947 37.7085 100.789 37.7278 102.086ZM9.34567 101.167L10.3795 101.504V104.312V107.121L9.87759 106.995C9.60162 106.926 8.91603 106.666 8.35407 106.417L7.33244 105.965V103.4C7.33244 101.989 7.40078 100.766 7.48435 100.683C7.56793 100.599 7.78819 100.598 7.97406 100.681C8.15971 100.763 8.77696 100.982 9.34567 101.167ZM34.6303 101.252C34.5452 101.521 34.3182 101.984 34.126 102.28L33.7765 102.818L33.7049 102.072C33.6548 101.549 33.7486 101.241 34.0185 101.044C34.5887 100.627 34.8048 100.7 34.6303 101.252ZM26.6551 104.408L26.5941 107.183L25.1794 107.537C24.4013 107.732 23.6912 107.849 23.6015 107.796C23.3072 107.624 23.4087 102.548 23.7103 102.353C23.9674 102.186 25.8354 101.71 26.4374 101.657C26.6533 101.638 26.7023 102.257 26.6551 104.408ZM13.8074 102.317L14.5148 102.537V105.241C14.5148 108.315 14.6639 108.134 12.4835 107.697L11.2501 107.449V104.63V101.812L12.1751 101.955C12.6839 102.034 13.4185 102.197 13.8074 102.317ZM22.5196 105.284L22.4589 108.03L20.9897 108.27L19.5206 108.51L19.5202 105.452L19.5195 102.394L21.05 102.467L22.5805 102.539L22.5196 105.284ZM15.9908 105.26C15.9475 107.053 15.8494 107.827 15.6574 107.89C15.4498 107.959 15.3854 107.358 15.3854 105.351C15.3854 103.134 15.4378 102.721 15.7188 102.721C16.0026 102.721 16.0431 103.098 15.9908 105.26ZM6.46185 104.571C6.46185 105.406 6.32234 105.488 5.69008 105.026C5.27851 104.725 5.27829 104.71 5.68224 104.264C6.26575 103.619 6.46185 103.696 6.46185 104.571ZM34.7559 104.579C34.7559 104.755 33.8888 106.421 33.7974 106.421C33.4824 106.421 33.5673 105.46 33.9221 105.009C34.3125 104.512 34.7559 104.284 34.7559 104.579ZM33.2323 106.966C33.2323 107.297 32.1193 108.34 31.1151 108.951C30.1291 109.551 28.0306 110.556 27.7642 110.556C27.6593 110.556 27.5735 110.137 27.5735 109.625V108.694L29.0427 108.063C29.8506 107.716 31.0015 107.117 31.6 106.733C32.5709 106.109 32.7176 106.071 32.9603 106.378C33.11 106.567 33.2323 106.831 33.2323 106.966ZM6.46185 108.38C6.46185 109.099 6.04375 109.251 5.58561 108.699C5.35686 108.424 5.38059 108.312 5.72229 108.053C6.32844 107.594 6.46185 107.653 6.46185 108.38ZM8.97262 108.446L10.2707 108.947L10.3377 109.988C10.4021 110.986 10.3843 111.022 9.9024 110.874C9.62621 110.79 8.95934 110.512 8.42067 110.257C7.51025 109.827 7.43647 109.729 7.37444 108.869C7.33744 108.361 7.39011 107.944 7.4911 107.944C7.59209 107.944 8.25874 108.17 8.97262 108.446ZM26.6605 110.062L26.5941 111.092L25.3052 111.377C23.7029 111.731 23.4383 111.635 23.4383 110.698C23.4383 109.803 23.684 109.577 24.9618 109.295C26.7306 108.905 26.7349 108.907 26.6605 110.062ZM14.0251 109.711C14.4349 109.863 14.5148 110.054 14.5148 110.885V111.877L13.3721 111.73C11.4185 111.478 11.2501 111.359 11.2501 110.227V109.235L12.3927 109.382C13.0211 109.463 13.7556 109.611 14.0251 109.711ZM5.2402 110.478C6.39786 111.23 6.46185 111.318 6.46011 112.165C6.45815 113.043 6.43269 113.072 5.03692 113.814L3.61591 114.569L3.0879 113.923C2.79756 113.567 2.55641 113.154 2.55205 113.005C2.5477 112.855 2.44628 112.732 2.32657 112.732C2.00489 112.732 2.06192 112.151 2.46086 111.361C2.84174 110.608 3.61352 109.685 3.86337 109.685C3.94869 109.685 4.56811 110.042 5.2402 110.478ZM22.5677 110.75C22.5677 111.943 22.4101 112.08 21.0339 112.08C20.1424 112.08 19.7383 111.681 19.7383 110.801C19.7383 110.243 20.048 110.057 21.2618 109.883C21.8005 109.806 22.3148 109.73 22.4044 109.715C22.4941 109.698 22.5677 110.165 22.5677 110.75ZM37.5983 111.046C37.69 112.948 37.5134 115.908 37.3002 116.043C36.8538 116.327 36.5316 116.231 36.3854 115.771C36.3029 115.511 35.9875 115.275 35.6256 115.203L35.0068 115.079L35.6188 114.069C36.4139 112.757 36.5935 112.132 36.2829 111.757C36.0842 111.518 36.1593 111.387 36.6457 111.123C37.4033 110.713 37.5816 110.698 37.5983 111.046ZM9.1056 112.326L10.3795 112.791V115.482C10.3795 118.671 10.3542 118.689 7.76773 117.32C7.34267 117.095 7.15832 111.862 7.57555 111.862C7.71658 111.862 8.405 112.071 9.1056 112.326ZM34.755 112.243C34.7546 112.333 34.535 112.749 34.2668 113.168L33.7795 113.93L33.7075 113.191C33.6639 112.745 33.7497 112.379 33.9236 112.269C34.2836 112.041 34.7561 112.026 34.755 112.243ZM26.703 115.534V118.335L25.6691 118.631C25.1004 118.795 24.3905 118.93 24.0912 118.932C23.549 118.935 23.5469 118.927 23.4835 116.65C23.3965 113.513 23.3965 113.513 24.9026 113.179C25.9773 112.941 26.2685 112.87 26.6485 112.75C26.6784 112.74 26.703 113.993 26.703 115.534ZM13.3721 113.436L14.5148 113.646V116.332C14.5148 117.81 14.4412 119.057 14.3515 119.104C14.2619 119.151 13.5517 119.083 12.7736 118.954L11.3589 118.718L11.2973 116.119C11.2281 113.202 11.2953 112.83 11.8503 113.065C12.0588 113.154 12.7438 113.32 13.3721 113.436ZM22.5677 116.423V119.221L21.425 119.366C20.7967 119.446 20.1111 119.559 19.9015 119.619C19.552 119.718 19.5206 119.478 19.5206 116.704V113.682L21.0442 113.654L22.5677 113.625V116.423ZM15.9295 116.541C15.9295 118.408 15.8546 119.142 15.6574 119.207C15.4493 119.277 15.3854 118.65 15.3854 116.541C15.3854 114.433 15.4493 113.806 15.6574 113.875C15.8546 113.941 15.9295 114.674 15.9295 116.541ZM6.46185 115.888C6.46185 116.769 6.39068 116.804 5.76691 116.222C5.38581 115.867 5.3549 115.738 5.58495 115.461C6.07248 114.873 6.46185 115.063 6.46185 115.888ZM34.4355 116.493C34.0329 117.457 33.7527 117.652 33.6017 117.075C33.5259 116.785 33.6746 116.445 34.0355 116.084C34.7319 115.388 34.8477 115.506 34.4355 116.493ZM33.0147 117.503C33.0147 117.613 33.0691 117.845 33.1357 118.018C33.3144 118.484 31.9517 119.669 30.0184 120.728C27.855 121.914 27.5735 121.92 27.5735 120.784V119.911L29.429 119.054C30.4493 118.583 31.5399 117.996 31.8523 117.75C32.4466 117.282 33.0147 117.162 33.0147 117.503ZM6.38698 120.28C6.20568 120.461 5.37362 119.914 5.37362 119.614C5.37362 119.457 5.59388 119.229 5.86332 119.108C6.30493 118.909 6.35978 118.951 6.42289 119.531C6.4612 119.885 6.44509 120.222 6.38698 120.28ZM8.85596 119.588C9.15522 119.759 9.62033 119.903 9.88978 119.907C10.3327 119.914 10.3795 120.021 10.3795 121.027C10.3795 122.079 10.3527 122.132 9.87759 122.012C9.60162 121.943 8.91603 121.683 8.35407 121.435C7.38554 121.006 7.33244 120.938 7.33244 120.122C7.33244 119.373 7.39555 119.263 7.82214 119.269C8.09159 119.274 8.5567 119.417 8.85596 119.588ZM26.6605 121.164L26.5941 122.196L25.1892 122.574C23.573 123.009 23.3482 122.882 23.5619 121.656C23.7201 120.748 23.724 120.744 24.3561 120.667C24.6294 120.634 25.0978 120.506 25.3971 120.383C26.5369 119.916 26.733 120.037 26.6605 121.164ZM14.0251 120.908C14.4547 120.999 14.5148 121.146 14.5148 122.11C14.5148 123.053 14.4606 123.193 14.1339 123.101C13.9243 123.042 13.1897 122.872 12.5015 122.725L11.2501 122.457V121.549C11.2501 121.049 11.3027 120.588 11.3669 120.523C11.4692 120.421 12.2502 120.534 14.0251 120.908ZM5.24325 121.71C6.40243 122.388 6.45336 122.456 6.4575 123.323C6.46185 124.21 6.43312 124.245 5.10156 124.984C3.77675 125.719 3.72996 125.729 3.30598 125.342C3.06657 125.124 2.68591 124.6 2.45999 124.179C2.10414 123.516 2.08629 123.324 2.32679 122.744C2.70093 121.841 3.38085 121.003 3.73975 121.003C3.90102 121.003 4.57747 121.321 5.24325 121.71ZM22.5252 122.032L22.4589 123.061L21.5069 123.222C20.2968 123.427 19.7383 123.145 19.7383 122.328C19.7383 121.418 20.2613 121.116 21.9811 121.033C22.5766 121.004 22.5899 121.028 22.5252 122.032ZM37.5853 124.601C37.5853 127.004 37.5644 127.119 37.0956 127.296C36.6992 127.445 36.5528 127.382 36.3268 126.962C36.1734 126.677 35.8713 126.444 35.6558 126.444C34.9877 126.444 34.9901 126.229 35.6711 125.133C36.1653 124.338 36.3077 123.884 36.2411 123.313C36.1706 122.711 36.2446 122.508 36.5967 122.337C37.5465 121.875 37.5853 121.964 37.5853 124.601ZM8.97262 123.464L10.2707 123.967L10.3316 126.729C10.3651 128.248 10.3125 129.491 10.2149 129.491C10.1172 129.491 9.45318 129.265 8.7393 128.989L7.44126 128.487L7.37923 126.01C7.32417 123.804 7.38663 122.962 7.60558 122.962C7.64367 122.962 8.25874 123.188 8.97262 123.464ZM34.6359 123.669C34.3243 124.692 33.3808 125.265 33.5616 124.321C33.6015 124.112 33.6417 123.826 33.6509 123.685C33.6655 123.462 34.0074 123.29 34.6072 123.205C34.7052 123.191 34.718 123.4 34.6359 123.669ZM26.703 126.836V129.622L25.2338 129.965C24.4257 130.155 23.7158 130.264 23.6559 130.209C23.438 130.009 23.4106 125.667 23.6237 125.11C23.7974 124.657 24.0603 124.493 24.8919 124.32C26.8518 123.912 26.703 123.705 26.703 126.836ZM13.1001 124.558L14.4059 124.829L14.4671 127.626L14.5283 130.424L13.4877 130.3C12.9153 130.232 12.1777 130.073 11.8486 129.948L11.2501 129.72V126.994C11.2501 124.953 11.3184 124.27 11.5221 124.277C11.6719 124.283 12.3818 124.409 13.1001 124.558ZM22.5679 127.696L22.5677 130.579H22.054C21.7713 130.579 21.0857 130.642 20.5305 130.718L19.5206 130.856V127.925C19.5206 126.312 19.562 124.952 19.6125 124.903C19.663 124.853 20.3486 124.812 21.1362 124.812H22.5679V127.696ZM15.914 125.263C16.3112 125.66 16.4026 128.859 16.0437 129.804C15.5862 131.006 15.3854 130.346 15.3854 127.641C15.3854 126.145 15.4274 124.921 15.4787 124.921C15.5299 124.921 15.7257 125.075 15.914 125.263ZM6.46185 127.004C6.46185 127.609 6.38241 127.766 6.10426 127.712C5.52924 127.598 5.24064 126.975 5.57603 126.571C6.07575 125.969 6.46185 126.158 6.46185 127.004ZM34.755 127.043C34.753 127.428 33.8594 128.63 33.6644 128.51C33.3257 128.301 33.4115 127.928 33.9232 127.383C34.395 126.881 34.7565 126.733 34.755 127.043ZM33.0909 129.002C33.1971 129.503 33.0761 129.726 32.3461 130.375C31.487 131.139 29.0185 132.569 28.0632 132.856C27.6066 132.993 27.5735 132.937 27.5735 132.033V131.064L28.9338 130.485C29.6821 130.166 30.8328 129.57 31.4912 129.159C32.1496 128.749 32.7503 128.411 32.826 128.408C32.902 128.405 33.021 128.672 33.0909 129.002ZM6.46185 130.901C6.46185 131.63 6.44139 131.649 5.91774 131.41C5.28243 131.121 5.21474 130.694 5.7545 130.379C6.36282 130.025 6.46185 130.098 6.46185 130.901ZM8.88012 130.796C10.1446 131.177 10.3795 131.421 10.3795 132.355C10.3795 133.241 10.376 133.245 9.68149 133.106C8.32926 132.836 7.4467 132.258 7.37053 131.595C7.26867 130.705 7.47848 130.286 7.9327 130.471C8.14121 130.556 8.56758 130.702 8.88012 130.796ZM26.703 132.412C26.703 133.307 26.6527 133.392 25.9895 133.611C25.5973 133.74 24.8871 133.87 24.4116 133.899C23.4805 133.957 23.5001 134.001 23.6368 132.174C23.6472 132.034 24.1702 131.825 24.7986 131.71C26.7513 131.354 26.703 131.336 26.703 132.412ZM13.6004 132.034L14.5361 132.165L14.471 133.168L14.4059 134.171L13.5415 134.117C13.0659 134.088 12.3557 133.958 11.9635 133.828C11.2964 133.608 11.2501 133.528 11.2501 132.603V131.613L11.9574 131.758C12.3464 131.837 13.0859 131.962 13.6004 132.034ZM4.72068 132.586C5.13965 132.85 5.67833 133.171 5.91774 133.299C6.25139 133.476 6.35303 133.753 6.35303 134.484C6.35303 135.366 6.2873 135.476 5.48244 135.952C3.61373 137.055 3.63288 137.052 3.06287 136.34C2.77884 135.985 2.54596 135.584 2.54531 135.449C2.54466 135.314 2.39992 135.084 2.22341 134.937C1.94177 134.703 1.94591 134.588 2.25714 133.985C2.77623 132.982 3.46312 132.103 3.72778 132.104C3.85489 132.104 4.30171 132.321 4.72068 132.586ZM22.5677 133.178V134.253L21.5517 134.405C20.3457 134.586 19.8736 134.352 19.7757 133.524C19.6843 132.751 19.8795 132.571 21.0598 132.34C22.6147 132.035 22.5677 132.009 22.5677 133.178ZM37.5853 135.687C37.5853 138.024 37.5555 138.198 37.113 138.435C36.7036 138.653 36.585 138.611 36.2241 138.116C35.9951 137.801 35.6201 137.544 35.3907 137.544C34.9428 137.544 34.8301 137.223 35.1981 136.996C35.6704 136.704 36.3325 134.926 36.2054 134.29C36.0968 133.747 36.1625 133.627 36.6688 133.441C36.9933 133.323 37.3321 133.218 37.422 133.208C37.5119 133.199 37.5853 134.314 37.5853 135.687ZM9.40008 134.782L10.2707 135.109L10.3318 137.879L10.393 140.648L9.68824 140.507C9.30083 140.43 8.63657 140.197 8.21238 139.989L7.44126 139.612L7.37988 136.92L7.31872 134.228L7.924 134.342C8.257 134.405 8.92126 134.603 9.40008 134.782ZM34.5382 134.71C34.5382 135.08 33.7447 136.243 33.5943 136.092C33.3586 135.857 33.43 135.039 33.7112 134.758C34.0257 134.444 34.5382 134.414 34.5382 134.71ZM26.7452 137.947L26.8118 140.744L25.2987 141.099C24.1149 141.376 23.7484 141.395 23.6152 141.186C23.3832 140.82 23.3984 136.42 23.6331 136.05C23.7802 135.818 25.3226 135.35 26.5275 135.172C26.6107 135.16 26.7086 136.409 26.7452 137.947ZM14.1402 135.941C14.4895 136.043 14.5215 136.325 14.4667 138.812L14.4059 141.571L13.753 141.511C13.3939 141.478 12.6839 141.343 12.1751 141.21L11.2501 140.97V138.253V135.535L12.5015 135.682C13.1897 135.763 13.9273 135.88 14.1402 135.941ZM22.5677 138.887C22.5677 140.968 22.4985 141.683 22.2956 141.694C21.7321 141.724 20.482 141.896 20.0103 142.007L19.5206 142.123V139.126V136.129L21.0442 136.112L22.5677 136.095V138.887ZM15.9295 138.959C15.9295 140.826 15.8546 141.559 15.6574 141.625C15.4493 141.694 15.3854 141.068 15.3854 138.959C15.3854 136.85 15.4493 136.223 15.6574 136.293C15.8546 136.358 15.9295 137.092 15.9295 138.959ZM6.38872 138.996C6.22288 139.161 5.37362 138.551 5.37362 138.266C5.37362 138.122 5.59388 137.849 5.86332 137.659C6.34258 137.322 6.35455 137.331 6.4218 138.104C6.45967 138.538 6.44488 138.94 6.38872 138.996ZM34.2157 139.278C34.0237 139.649 33.773 139.895 33.6583 139.824C33.3042 139.605 33.4271 139.011 33.9397 138.464C34.5641 137.797 34.7293 138.285 34.2157 139.278ZM33.1007 140.214C33.2752 140.49 33.2047 140.703 32.7899 141.149C32.0059 141.993 29.6407 143.463 28.0632 144.087C27.5957 144.272 27.5735 144.232 27.5735 143.218C27.5735 142.164 27.5809 142.153 28.4985 141.831C29.0072 141.653 30.1091 141.115 30.9471 140.636C32.5872 139.7 32.7557 139.667 33.1007 140.214ZM6.46185 142.12V142.995L5.91774 142.639C5.2759 142.218 5.23454 141.942 5.7545 141.547C6.35216 141.093 6.46185 141.182 6.46185 142.12ZM9.18243 142.095L10.2707 142.477L10.3375 143.656C10.3912 144.602 10.3503 144.782 10.1307 144.563C9.98032 144.414 9.72437 144.291 9.56222 144.291C9.40008 144.291 8.83202 144.093 8.29988 143.85C7.43887 143.458 7.33244 143.33 7.33244 142.69C7.33244 141.544 7.47913 141.497 9.18243 142.095ZM26.7019 143.584L26.7008 144.618L25.2328 144.972C24.4253 145.167 23.6912 145.284 23.6015 145.231C23.5118 145.179 23.4383 144.646 23.4383 144.048C23.4383 143.449 23.5168 143.008 23.6128 143.067C23.7088 143.127 24.3208 143.045 24.9731 142.887C26.7539 142.453 26.7032 142.433 26.7019 143.584ZM14.0251 143.326C14.4436 143.414 14.5148 143.569 14.5148 144.391C14.5148 144.921 14.4412 145.397 14.3515 145.449C14.2619 145.502 13.5517 145.385 12.7736 145.19C11.4116 144.849 11.3563 144.808 11.2892 144.107C11.156 142.718 11.1502 142.72 14.0251 143.326ZM5.7545 144.452C6.44096 144.797 6.46185 144.848 6.46185 146.188C6.46185 147.207 6.54652 147.602 6.78375 147.693C7.05668 147.798 8.59522 147.368 9.9986 146.794C10.3429 146.654 10.3795 146.809 10.3795 148.41C10.3795 149.627 10.4646 150.214 10.6515 150.285C10.8013 150.342 11.6092 150.137 12.4471 149.829C13.2851 149.522 14.0686 149.252 14.1883 149.229C14.3154 149.205 14.4325 149.945 14.4695 151.006L14.533 152.823L13.4015 152.667C9.72197 152.161 5.77518 150.314 3.65552 148.107C1.81467 146.19 1.72609 145.403 3.17039 143.804L3.70863 143.208L4.37789 143.653C4.74593 143.897 5.36557 144.257 5.7545 144.452ZM22.5677 144.487V145.553L21.5811 145.632C20.0582 145.753 19.6989 145.54 19.7794 144.566C19.8382 143.856 19.9324 143.731 20.5 143.611C20.8592 143.534 21.4714 143.46 21.8603 143.446C22.5657 143.421 22.5677 143.424 22.5677 144.487ZM37.5378 147.042C37.4793 149.454 37.4527 149.583 36.9798 149.758C36.5669 149.91 36.4483 149.85 36.2777 149.402C36.08 148.882 35.8543 148.764 35.2225 148.851C34.8869 148.897 34.8745 148.936 35.7026 147.359C36.1423 146.523 36.2842 146.002 36.1949 145.555C36.0929 145.045 36.1603 144.891 36.5552 144.732C37.5877 144.317 37.6029 144.352 37.5378 147.042ZM8.43395 145.681L9.15 145.982L8.45244 146.342C8.06895 146.541 7.65978 146.644 7.54377 146.573C7.30284 146.424 7.25996 145.742 7.47761 145.525C7.66239 145.34 7.59862 145.329 8.43395 145.681ZM34.602 145.978C34.3754 146.594 33.8505 147.338 33.6426 147.338C33.3181 147.338 33.4289 146.302 33.7919 145.939C34.2638 145.467 34.7809 145.492 34.602 145.978ZM26.6124 151.854C26.5554 151.911 25.8744 152.128 25.0991 152.336C23.6968 152.713 23.6892 152.713 23.5669 152.257C23.4994 152.006 23.4428 150.698 23.4413 149.351C23.4383 146.958 23.4491 146.903 23.928 146.899C24.1974 146.896 24.9074 146.768 25.5059 146.612L26.5941 146.33L26.6553 149.04C26.6888 150.531 26.6697 151.797 26.6124 151.854ZM13.1001 146.976C14.1424 147.192 14.4059 147.331 14.4059 147.661C14.4059 147.964 14.0614 148.207 13.1079 148.577C11.2779 149.286 11.2501 149.275 11.2501 147.882C11.2501 146.539 11.1752 146.576 13.1001 146.976ZM22.5677 150.106V152.997L21.5339 153C20.9651 153.002 20.2798 153.062 20.0103 153.134L19.5206 153.265L19.5217 150.248L19.5228 147.229L21.0452 147.222L22.5677 147.216V150.106ZM15.9921 149.696C16.0446 151.373 16.0013 151.691 15.7201 151.691C15.4422 151.691 15.3854 151.337 15.3854 149.605C15.3854 148.034 15.4524 147.542 15.6574 147.61C15.8424 147.671 15.9495 148.339 15.9921 149.696ZM34.4209 149.896C33.98 150.952 33.719 151.208 33.5449 150.754C33.4631 150.541 33.6139 150.135 33.9186 149.75C34.6211 148.861 34.8279 148.921 34.4209 149.896ZM33.0904 151.304C33.1758 151.63 33.0598 151.958 32.735 152.308C31.9922 153.109 29.9078 154.465 28.667 154.954L27.5496 155.394L27.616 154.396C27.6806 153.425 27.7113 153.386 28.7706 152.934C29.3691 152.678 30.4954 152.1 31.2735 151.649C32.0516 151.198 32.7503 150.826 32.826 150.824C32.902 150.822 33.0208 151.038 33.0904 151.304ZM26.703 154.691C26.703 155.727 26.6993 155.732 25.778 156.004C25.2691 156.153 24.5591 156.297 24.2 156.323C23.5625 156.369 23.5475 156.348 23.5649 155.398L23.5826 154.425L24.9796 154.066C25.7479 153.869 26.4501 153.695 26.5397 153.679C26.6294 153.663 26.703 154.118 26.703 154.691ZM22.5677 155.608V156.641L21.4596 156.788C20.1777 156.958 19.7383 156.717 19.7383 155.845C19.7383 155.359 19.8911 155.207 20.6633 154.923C21.1721 154.735 21.8085 154.58 22.078 154.578C22.5174 154.575 22.5677 154.681 22.5677 155.608Z" fill="black"/>
</svg>
