<svg width="98" height="158" viewBox="0 0 98 158" fill="none" xmlns="http://www.w3.org/2000/svg">
    <path fill-rule="evenodd" clip-rule="evenodd" d="M74.8405 0.11849C74.6794 0.177492 71.3825 1.36573 67.5142 2.75871C63.6459 4.15189 58.4588 6.02177 55.9874 6.91403C53.516 7.80628 49.7795 9.15355 47.6842 9.90806C43.7266 11.3333 36.4192 13.9678 31.8593 15.6138C30.4087 16.1374 27.1558 17.309 24.6306 18.2175C18.9078 20.2765 13.409 22.2615 8.22719 24.1386C6.02851 24.9349 4.16175 25.6935 4.07852 25.8244C3.99549 25.9551 3.92613 26.3885 3.92438 26.7872C3.92164 27.4751 3.87866 27.5237 3.09113 27.7312C2.63455 27.8516 1.8939 28.1626 1.44533 28.4221C0.996764 28.6817 0.491344 28.8409 0.321959 28.7761C0.0716903 28.6799 0.0119082 28.8171 0.00272585 29.5091C-0.00352597 29.9772 0.00135832 55.8724 0.0134712 87.054L0.0355478 143.748L0.521431 145.567C1.45217 149.053 2.93737 151.475 4.9108 152.725C7.87103 154.599 13.0767 155.829 18.4528 155.923C20.6808 155.962 20.7887 155.945 21.1478 155.501C21.3535 155.247 21.4748 154.917 21.4176 154.768C21.3078 154.482 22.2018 154.017 23.2734 153.802L23.8491 153.687V155.47C23.8491 157.038 23.8902 157.253 24.191 157.251C24.3792 157.249 26.6429 156.54 29.2218 155.674C36.6863 153.168 43.525 151.001 52.2754 148.37C54.5919 147.674 62.079 145.659 64.8767 144.978C75.9497 142.286 85.0771 140.972 93.4876 140.861C95.3084 140.837 96.8685 140.774 96.9542 140.721C97.04 140.668 97.1109 114.008 97.1121 81.4768C97.1134 34.3771 97.064 22.2634 96.869 22.0073C96.6719 21.7482 96.1493 21.6687 94.1821 21.5984L91.74 21.5111L91.6882 15.818C91.6472 11.3024 91.5827 10.1044 91.377 10.0255C91.2342 9.97078 90.3836 10.1939 89.4866 10.5211C88.5895 10.8486 87.8283 11.1164 87.7953 11.1164C87.7621 11.1164 87.7349 10.3224 87.7349 9.35204C87.7349 8.05538 87.6654 7.56089 87.4725 7.48685C87.3282 7.43136 86.4814 7.65213 85.5909 7.97703C84.7003 8.30213 83.8953 8.52074 83.802 8.46311C83.7086 8.40548 83.6322 7.62126 83.6322 6.72061C83.6322 5.81996 83.5505 5.03262 83.4507 4.97088C83.3508 4.90914 82.5426 5.12366 81.6548 5.44778C80.7671 5.7717 79.9696 6.03682 79.8828 6.03682C79.7959 6.03682 79.7248 5.25299 79.7248 4.29471C79.7248 3.07736 79.6513 2.52681 79.4806 2.46664C79.3464 2.41916 78.5426 2.63387 77.6949 2.94392C76.847 3.25378 76.111 3.46497 76.0593 3.4132C76.0075 3.36143 75.9391 2.63387 75.9073 1.79632C75.8754 0.958774 75.8422 0.207384 75.8334 0.126891C75.8152 -0.0385866 75.2817 -0.0430802 74.8405 0.11849ZM74.9957 2.54478L74.9382 3.93699L70.4447 5.54351C66.2759 7.03379 60.4108 9.14358 55.499 10.9199C54.3707 11.3278 51.1178 12.5002 48.2703 13.5253C45.4228 14.5504 40.0159 16.501 36.2551 17.8598C32.4942 19.2188 28.2303 20.7561 26.7797 21.2762C25.329 21.7961 22.1641 22.9392 19.7464 23.8164C17.3287 24.6936 14.1637 25.8342 12.7131 26.3511C11.2625 26.8681 9.56997 27.4823 8.95221 27.7164L7.82883 28.1417V32.6096C7.82883 35.067 7.75088 37.1258 7.65554 37.1846C7.5602 37.2436 6.89926 36.9679 6.18695 36.5719L4.89165 35.852L4.94381 31.0548L4.99598 26.2578L14.0807 22.9916C19.0772 21.1951 24.0005 19.4177 25.0213 19.0416C26.0421 18.6657 28.9434 17.615 31.4685 16.7067C35.7241 15.1762 48.2105 10.68 52.9592 8.96834C54.0874 8.56158 56.2853 7.77092 57.8434 7.21118C59.4015 6.65145 63.7533 5.06857 67.5142 3.69336C71.2751 2.31815 74.5098 1.18384 74.7026 1.1727C75.0136 1.15493 75.0467 1.30888 74.9957 2.54478ZM78.7479 5.05997C78.7479 6.01923 78.6688 6.62293 78.5432 6.62293C78.3586 6.62293 72.6733 8.63113 70.2494 9.55269C69.7121 9.75704 68.1296 10.3316 66.7327 10.8298C64.2623 11.7109 62.664 12.2869 52.4707 15.9696C49.7844 16.94 46.004 18.3029 44.0699 18.9982C39.9122 20.4928 32.6515 23.11 27.4635 24.9839C25.4218 25.7215 21.1591 27.2612 17.9908 28.4058C14.8223 29.5503 12.119 30.5789 11.9832 30.6917C11.7997 30.8439 11.7362 31.8699 11.7362 34.6823C11.7362 38.3154 11.7208 38.4681 11.3523 38.4681C10.7156 38.4681 9.11534 37.8703 8.85452 37.5351C8.67674 37.3065 8.61031 36.0923 8.61031 33.065C8.61031 29.2737 8.64099 28.8923 8.95944 28.7219C9.15149 28.6192 11.0638 27.9037 13.2087 27.132C20.185 24.6223 28.411 21.6556 29.7102 21.1807C33.9038 19.6478 40.5847 17.2377 41.9208 16.7757C42.7804 16.4785 46.6927 15.0734 50.6147 13.6535C61.5132 9.70761 65.6 8.23316 67.4165 7.59079C68.3299 7.26804 71.1871 6.22574 73.766 5.27468C76.3449 4.32362 78.5207 3.53453 78.6014 3.52124C78.6821 3.50796 78.7479 4.20034 78.7479 5.05997ZM82.753 7.58981V9.01249L79.5294 10.1654C77.7564 10.7993 73.8881 12.1906 70.9332 13.2567C58.1781 17.859 56.1906 18.5758 52.7638 19.8096C34.9854 26.2103 29.3935 28.2265 28.0496 28.7198C27.1899 29.0355 24.1129 30.153 21.2116 31.2033L15.9367 33.1131L15.8824 36.0305C15.8525 37.6351 15.7569 39.0191 15.67 39.106C15.5832 39.1928 14.8823 39.1599 14.1127 39.0328L12.7131 38.8016V35.0396V31.2778L13.2503 31.0816C13.5459 30.9736 18.5351 29.1715 24.3376 27.0765C47.4656 18.7265 59.0901 14.5317 62.63 13.2583C64.6716 12.5239 67.2211 11.6033 68.2957 11.2127C69.3702 10.822 71.8319 9.93756 73.766 9.24713C75.7002 8.55669 78.4256 7.56265 79.8225 7.03828C81.2194 6.51391 82.4502 6.10324 82.5576 6.12591C82.6663 6.14876 82.753 6.79895 82.753 7.58981ZM86.7174 10.0591L86.6604 11.5415L77.478 14.8427C72.4277 16.6583 66.9769 18.6239 65.3651 19.2108C63.7533 19.7977 60.3686 21.0215 57.8434 21.9303C41.5224 27.8045 28.5624 32.4779 23.6538 34.2595L19.8441 35.6421L19.7878 37.454L19.7315 39.2658L18.2248 39.2088L16.7181 39.1519L16.6638 36.5918C16.6236 34.6944 16.6742 33.9795 16.8592 33.8309C16.9965 33.7205 19.4826 32.7776 22.3839 31.7357C25.2851 30.6938 28.0984 29.6757 28.6357 29.4733C29.6092 29.1066 33.6227 27.6597 44.5583 23.733C47.7282 22.5948 50.8931 21.453 51.5916 21.1955C53.6514 20.4361 55.2632 19.853 61.6531 17.555C72.1243 13.7895 82.6037 10.0091 85.0974 9.09787C85.8496 8.82279 86.5346 8.59323 86.6198 8.58737C86.7049 8.5815 86.7489 9.24381 86.7174 10.0591ZM90.8151 16.3426L90.7632 21.5687L89.6886 21.6185C75.6367 22.2703 51.0981 28.323 26.149 37.2914L23.8575 38.1151L23.8046 41.7593L23.7514 45.4038L22.7248 45.4628C21.763 45.5182 21.6854 45.4882 21.4953 44.9882C21.3838 44.6948 21.306 43.411 21.3224 42.1356C21.3472 40.222 21.2958 39.7539 21.0288 39.4589C20.7764 39.1799 20.7179 38.7872 20.7631 37.6744L20.8209 36.2474L24.2399 35.0064C26.1203 34.3238 30.0765 32.8946 33.0315 31.8303C38.5366 29.8477 53.7786 24.3564 57.4527 23.0322C58.5809 22.6256 60.8668 21.8033 62.5323 21.2049C64.1978 20.6067 71.1432 18.096 77.9665 15.6259C84.7897 13.1557 90.4838 11.1305 90.6198 11.1256C90.8147 11.1184 90.8562 12.2248 90.8151 16.3426ZM96.0381 81.2541V139.963L91.5446 140.088C85.8828 140.246 82.5954 140.573 76.9605 141.535C68.8064 142.927 59.5291 145.226 48.0749 148.692C46.302 149.229 44.3238 149.826 43.6791 150.02C41.8792 150.56 38.6163 151.619 31.5662 153.951C28.0203 155.124 25.0092 156.083 24.8748 156.082C24.6886 156.081 24.6306 155.254 24.6306 152.602V149.123L26.924 148.872C28.1855 148.733 29.3781 148.534 29.574 148.43C29.812 148.302 30.0142 148.308 30.182 148.447C30.3659 148.6 30.7959 148.507 31.7813 148.104L33.1292 147.551V144.636V141.721L32.4454 141.747C32.0693 141.761 31.3441 141.956 30.8336 142.179C30.0841 142.508 29.9056 142.68 29.9056 143.072C29.9056 143.695 29.1626 143.92 26.5304 144.095L24.6204 144.222L24.6744 141.116L24.7283 138.009L26.5843 137.866C27.6051 137.788 29.0176 137.68 29.7231 137.627C30.4831 137.57 31.4605 137.33 32.1217 137.037L33.2372 136.544L33.1833 133.662L33.1292 130.78L32.4454 130.798C32.0693 130.808 31.3441 131.001 30.8336 131.227C30.0822 131.559 29.9056 131.731 29.9056 132.128C29.9056 132.759 29.1454 132.991 26.5304 133.159L24.6204 133.282L24.6744 130.175L24.7283 127.068L26.682 126.937C27.7565 126.865 28.8773 126.713 29.1729 126.6C29.4683 126.487 29.9519 126.441 30.2475 126.498C30.5794 126.562 31.2327 126.417 31.957 126.12L33.1292 125.639L33.1831 122.705C33.247 119.216 33.2394 119.207 31.2034 120.12C30.1164 120.608 29.9056 120.78 29.9056 121.179C29.9056 121.593 29.77 121.689 28.8828 121.902C28.3202 122.037 27.1554 122.156 26.2942 122.166L24.7283 122.184V119.156V116.128L26.5355 115.989C27.5293 115.912 28.6986 115.754 29.1337 115.637C29.5688 115.519 30.106 115.481 30.3276 115.551C30.5761 115.63 31.2089 115.476 31.9786 115.149L33.2269 114.618V111.723C33.2269 108.275 33.2108 108.255 31.1901 109.171C30.1064 109.662 29.9056 109.83 29.9056 110.241C29.9056 110.537 29.771 110.768 29.5637 110.829C28.8434 111.042 25.2388 111.391 24.9422 111.277C24.6755 111.175 24.6306 110.72 24.6306 108.123V105.089H25.6795C26.2565 105.089 27.4816 104.958 28.402 104.797C29.3224 104.637 30.2006 104.553 30.3536 104.612C30.5065 104.671 31.2179 104.484 31.9343 104.197L33.2368 103.676L33.1829 100.719L33.1292 97.7628L32.5431 97.7882C32.2207 97.802 31.5174 98.0226 30.9801 98.2782C30.218 98.641 29.9902 98.8561 29.9435 99.2575C29.8868 99.7444 29.7864 99.7895 28.0648 100.099C27.0643 100.28 25.9044 100.399 25.4871 100.365L24.7283 100.303L24.6746 97.2255L24.6206 94.1484L25.6514 94.1473C26.2182 94.1467 27.2095 94.0492 27.8542 93.9306C28.4989 93.812 29.466 93.6936 30.0033 93.6676C30.924 93.6229 32.4417 93.1433 32.9826 92.726C33.1581 92.5908 33.2269 91.7438 33.2269 89.7225C33.2269 86.4345 33.2396 86.4528 31.441 87.1255C30.4743 87.4869 30.1996 87.6895 29.9874 88.1975C29.6647 88.9696 29.3701 89.0606 26.7256 89.205L24.6201 89.3201L24.6742 86.3173L24.7283 83.3144L26.7797 83.0649C27.9079 82.9278 29.3365 82.7783 29.954 82.733C30.5794 82.6871 31.5559 82.4314 32.1572 82.1561L33.2374 81.6616L33.1833 78.7715C33.1204 75.4113 33.1255 75.418 31.2327 76.2551C30.4143 76.617 30.114 76.8581 30.067 77.191C29.974 77.8458 28.806 78.187 26.5843 78.2083L24.7283 78.2258L24.6744 75.2464C24.6247 72.5058 24.6482 72.2661 24.9674 72.2557C26.3053 72.2118 28.1732 72.0139 28.831 71.8464C29.2609 71.737 29.7884 71.6542 30.0033 71.6622C30.2182 71.6702 30.5505 71.6829 30.7416 71.6905C30.9328 71.6981 31.5725 71.483 32.1633 71.2127L33.2374 70.7209L33.1833 67.8308C33.1204 64.4687 33.1266 64.4769 31.2228 65.3187C30.4139 65.6765 30.0779 65.9412 29.9906 66.2895C29.9243 66.5529 29.7245 66.8292 29.5461 66.9036C29.1241 67.0792 24.8408 67.528 24.7218 67.409C24.6716 67.3588 24.6306 65.9791 24.6306 64.3429C24.6306 60.9458 24.5243 61.1335 26.4538 61.1269C27.1165 61.1248 28.2303 61.0021 28.9287 60.8546C29.6272 60.7069 30.2877 60.6582 30.3965 60.7463C30.5067 60.8356 31.1557 60.6723 31.8618 60.3777L33.1292 59.8488V56.9245C33.1292 54.0379 33.1235 53.9992 32.6884 53.9375C32.446 53.9029 31.7678 54.0944 31.1815 54.3628C30.3977 54.7217 30.082 54.9845 29.989 55.3551C29.915 55.6499 29.6887 55.8986 29.4443 55.9539C27.6565 56.3577 27.1108 56.4332 25.9493 56.4375L24.6306 56.4421V53.4139V50.3857L25.1679 50.3757C26.0558 50.3593 27.405 50.1866 28.4278 49.9584C28.9582 49.84 29.8374 49.7234 30.3815 49.699C30.9256 49.6747 31.7909 49.4698 32.3041 49.2435L33.2374 48.8321L33.1833 45.9457L33.1292 43.0593L32.4454 43.0802C31.4418 43.1107 30.2117 43.7507 30.1361 44.2816C30.1017 44.5232 29.9259 44.7991 29.7454 44.895C29.2228 45.1722 26.5698 45.5401 25.6075 45.4688L24.7283 45.4038V42.0977V38.7917L26.7797 38.044C41.4226 32.7073 59.0285 27.6001 71.4216 25.0941C77.9963 23.7644 82.0231 23.1819 88.8095 22.5786C89.2393 22.5403 91.0416 22.5172 92.8145 22.5274L96.0381 22.5455V81.2541ZM3.94587 32.9001C3.95935 33.1687 3.98631 33.6744 4.00584 34.0235C4.07305 35.2225 3.90191 35.2635 3.00907 34.2632C2.5437 33.742 2.16312 33.2086 2.16312 33.0783C2.16312 32.948 2.4929 32.7536 2.89576 32.6467C3.94059 32.3691 3.9191 32.364 3.94587 32.9001ZM32.6407 45.983C32.6407 48.1907 32.6054 48.4371 32.2629 48.6205C31.5137 49.0214 31.4685 48.8948 31.4685 46.3904C31.4685 44.2798 31.5139 43.9315 31.8104 43.7588C32.5876 43.3061 32.6407 43.4487 32.6407 45.983ZM23.7514 53.3162V56.3445H22.6769H21.6024L21.5047 53.459C21.451 51.8721 21.4377 50.4834 21.4752 50.3728C21.5143 50.2575 22.0132 50.1966 22.6474 50.23L23.7514 50.288V53.3162ZM32.6407 56.9237C32.6407 59.1314 32.6054 59.3778 32.2629 59.5612C31.5133 59.9623 31.4685 59.8361 31.4685 57.315C31.4685 54.9585 31.4849 54.86 31.9081 54.6899C32.15 54.5928 32.4135 54.5076 32.4942 54.5008C32.5749 54.4941 32.6407 55.5843 32.6407 56.9237ZM23.6104 61.2953C23.7989 61.4151 23.8466 62.1678 23.8058 64.3694L23.7514 67.2851L22.9885 67.3477C22.5691 67.3819 22.0195 67.3582 21.7675 67.2951C21.3144 67.1812 21.3093 67.1503 21.3093 64.4646C21.3093 62.971 21.3627 61.6101 21.4279 61.4401C21.5569 61.104 23.1433 60.9989 23.6104 61.2953ZM32.6407 67.9461C32.6407 70.3913 32.6282 70.4665 32.2012 70.581C31.9593 70.6457 31.6957 70.7 31.6151 70.7014C31.5344 70.7029 31.4685 69.6186 31.4685 68.2919C31.4685 65.9834 31.4875 65.8705 31.9081 65.6675C32.15 65.551 32.4135 65.4496 32.4942 65.4424C32.5749 65.435 32.6407 66.5619 32.6407 67.9461ZM23.8054 75.2558L23.8591 78.3425L22.6765 78.284L21.494 78.2258L21.4842 75.2953C21.4787 73.6835 21.4812 72.2944 21.4895 72.2085C21.4979 72.1225 22.0103 72.0785 22.6281 72.1108L23.7514 72.1694L23.8054 75.2558ZM32.6407 78.8868C32.6407 81.332 32.6282 81.4072 32.2012 81.5217C31.9593 81.5864 31.6957 81.6407 31.6151 81.6421C31.5344 81.6436 31.4685 80.6279 31.4685 79.385C31.4685 77.1368 31.4662 77.1255 31.029 77.2418C30.7871 77.306 30.985 77.1402 31.4685 76.8731C31.9521 76.606 32.4135 76.3835 32.4942 76.3786C32.5749 76.3737 32.6407 77.5026 32.6407 78.8868ZM23.1165 83.1378L23.8491 83.2589V86.271V89.2828L22.6281 89.2247L21.407 89.1665L21.3525 86.3427C21.3226 84.7895 21.3418 83.4049 21.3953 83.2656C21.5018 82.9883 21.9919 82.9518 23.1165 83.1378ZM32.6407 89.7136C32.6407 92.1883 32.5282 92.5855 31.8266 92.5855C31.5203 92.5855 31.4752 92.338 31.4261 90.3876L31.3708 88.1897L30.8824 88.2336C30.4448 88.2729 30.455 88.2545 30.9801 88.0584C31.3025 87.938 31.7397 87.7206 31.9517 87.575C32.1635 87.4295 32.4053 87.3105 32.4889 87.3105C32.5724 87.3105 32.6407 88.3919 32.6407 89.7136ZM23.8491 97.1948V100.205H22.6978C21.8282 100.205 21.5174 100.129 21.4279 99.8958C21.2347 99.3924 21.2929 94.4384 21.4945 94.2364C21.5963 94.1344 22.1678 94.0808 22.7644 94.1178L23.8491 94.1846V97.1948ZM32.6407 100.879C32.6407 102.897 32.5903 103.308 32.3317 103.408C31.5035 103.725 31.4685 103.633 31.4685 101.114C31.4685 98.8021 31.4869 98.6933 31.9081 98.5007C32.15 98.3901 32.4135 98.338 32.4942 98.3846C32.5749 98.4313 32.6407 99.5539 32.6407 100.879ZM23.6049 105.196C23.7862 105.253 23.8491 106.032 23.8491 108.218V111.164L22.6382 111.106L21.4271 111.048L21.4586 108.508C21.4758 107.111 21.4932 105.737 21.4973 105.455C21.5045 104.961 21.5399 104.945 22.4327 105.031C22.9432 105.08 23.4707 105.154 23.6049 105.196ZM32.6407 111.808C32.6407 113.836 32.5905 114.249 32.3317 114.348C31.506 114.665 31.4685 114.569 31.4685 112.132C31.4685 110.115 31.515 109.77 31.8104 109.598C32.587 109.146 32.6407 109.289 32.6407 111.808ZM23.7514 119.156V122.184L22.7961 122.245C22.2707 122.278 21.7538 122.218 21.6475 122.112C21.4586 121.923 21.3173 116.282 21.4969 116.103C21.5463 116.053 22.0738 116.039 22.6691 116.07L23.7514 116.128V119.156ZM32.6407 122.776C32.6407 125.136 32.6247 125.231 32.2012 125.391C31.9593 125.482 31.6957 125.518 31.6151 125.471C31.5344 125.423 31.4685 124.417 31.4685 123.234C31.4685 121.172 31.4523 121.088 31.0778 121.207C30.8537 121.278 30.6871 121.242 30.6871 121.123C30.6871 121.008 30.841 120.911 31.029 120.908C31.2169 120.904 31.5416 120.773 31.7501 120.615C32.5644 119.999 32.6407 120.184 32.6407 122.776ZM23.8052 130.048L23.7514 133.125L22.8723 133.176C21.4588 133.257 21.4566 133.252 21.4773 129.973C21.4873 128.375 21.4977 127.046 21.5002 127.019C21.5027 126.992 22.0343 126.971 22.6818 126.971H23.8591L23.8052 130.048ZM32.6407 133.704C32.6407 135.912 32.6054 136.158 32.2629 136.341C31.5137 136.742 31.4685 136.616 31.4685 134.111C31.4685 132.001 31.5139 131.652 31.8104 131.48C32.5876 131.027 32.6407 131.17 32.6407 133.704ZM23.8052 141.086L23.8591 144.163L23.0237 144.16C21.2302 144.155 21.3093 144.298 21.3093 141.047C21.3093 139.466 21.3718 138.109 21.448 138.033C21.5244 137.957 22.0738 137.92 22.6691 137.951L23.7514 138.009L23.8052 141.086ZM32.6407 144.645C32.6407 146.852 32.6054 147.099 32.2629 147.282C31.5133 147.683 31.4685 147.557 31.4685 145.036C31.4685 142.679 31.4849 142.581 31.9081 142.411C32.15 142.314 32.4135 142.228 32.4942 142.222C32.5749 142.215 32.6407 143.305 32.6407 144.645ZM23.4166 148.977C23.8452 149.092 23.8608 149.167 23.8073 150.85L23.7514 152.604L22.7746 152.975C22.2373 153.178 21.7098 153.345 21.6024 153.346C21.4799 153.346 21.4297 152.508 21.4678 151.099L21.5283 148.852L22.2492 148.855C22.6457 148.856 23.171 148.911 23.4166 148.977Z" fill="black"/>
</svg>
