<svg xmlns="http://www.w3.org/2000/svg" width="86.624" height="134.613" viewBox="0 0 86.624 134.613">
    <g id="Group_1437" transform="translate(0)">
        <g id="Group_1446" transform="translate(0 0)">
            <path id="Path_13310" d="M65.213.807c-2.552.915-9.459,3.363-14.763,5.231-1.991.7-4.039,1.432-4.549,1.623s-2.1.758-3.528,1.259-6.109,2.155-10.4,3.673C9.922,20.4,6.2,21.729,5.857,21.909c-.316.166-.344.461-.344,3.688V29.1l-.875.456A10.662,10.662,0,0,0,.913,33.189L.221,34.4v3.194c0,2.722.05,3.293.338,3.861.328.649.328.7-.028,1.833a17.5,17.5,0,0,0-.017,7.423,1.853,1.853,0,0,1,0,1.94C.209,53.454.15,54.07.15,56.47c0,2.45.053,2.982.369,3.708l.37.847L.5,62.039c-.345.905-.38,1.345-.333,4.116.045,2.67.1,3.173.4,3.606.339.493.338.524-.047,1.551-.328.877-.4,1.512-.431,3.877-.035,2.608,0,2.9.393,3.787.292.649.373,1.031.251,1.187a6.539,6.539,0,0,0-.645,2.546c0,.331,0,1.054,0,1.606-.02,2.841.023,3.3.4,4.124.259.575.326.926.2,1.071-.433.512-.713,2.619-.67,5.047.037,2.086.105,2.607.427,3.246l.383.761-.371.953c-.31.8-.375,1.43-.394,3.872-.021,2.574.021,3.017.353,3.733l.376.813-.41,1.23A9.735,9.735,0,0,0,.013,113.1c.03,2.127.105,2.834.355,3.323.4.782.4.893-.046,2.184-.313.913-.355,1.463-.3,3.964.053,2.589.105,2.994.481,3.723a11.58,11.58,0,0,0,5.107,4.615,23.371,23.371,0,0,0,7.118,1.959c.783,0,.983.153,1.055.8.067.6.072.614.4.735.4.153.994-.389.994-.914a1.957,1.957,0,0,0-.8-1.618,6.8,6.8,0,0,0-1.957-.471c-4.478-.552-9.071-2.853-10.264-5.142-.628-1.206-.434-1.344.6-.429A14.8,14.8,0,0,0,7.922,128.6c1.99.661,5.195,1.244,5.816,1.059a2.031,2.031,0,0,0,1.362-1.524c.123-.657.387-.983.664-.815.261.159.159,1.709-.151,2.3a2.664,2.664,0,0,0,.231,2.549c.893.985,2.3,1,6.521.054.4-.09.418-.044.418,1.1,0,.806.078,1.225.239,1.286a19.3,19.3,0,0,0,3.2-.906c7.447-2.5,20.754-6.6,25.247-7.769,8.086-2.11,12.89-3.182,17.919-4a80.672,80.672,0,0,1,12.757-1.244c3.492-.087,4.327-.157,4.41-.368.056-.143.081-23.049.055-50.9-.04-44.782-.078-50.661-.324-50.814a9.49,9.49,0,0,0-2.275-.176l-2,0V13.585c0-4.367-.031-4.854-.312-4.96-.26-.1-.942.088-2.984.816-.174.062-.232-.292-.232-1.4,0-1.132-.064-1.51-.27-1.588a4.76,4.76,0,0,0-1.61.371,14.291,14.291,0,0,1-1.494.473,3.652,3.652,0,0,1-.154-1.466c0-1.035-.072-1.493-.241-1.557a4.476,4.476,0,0,0-1.491.371c-1.835.679-1.8.7-1.8-.988A4.1,4.1,0,0,0,71.261,2.1a4.022,4.022,0,0,0-1.415.354,11.681,11.681,0,0,1-1.405.459c-.09,0-.164-.527-.164-1.171,0-1.376-.114-1.751-.531-1.742A22.537,22.537,0,0,0,65.213.807Zm2.1,1.329-.055,1.23L62.242,5.141c-2.758.976-5.808,2.063-6.778,2.416-1.621.589-8.984,3.2-22.748,8.054-2.962,1.046-9.521,3.371-14.577,5.167L8.948,24.044,8.856,33.45l-.093,9.406-.993-.344a6.156,6.156,0,0,1-1.255-.557c-.22-.179-.254-1.737-.214-9.806l.048-9.593,1.114-.427c.613-.235,3.412-1.24,6.221-2.234s8.031-2.845,11.606-4.114,7.627-2.7,9.006-3.19,4.471-1.58,6.871-2.433S48.7,7.486,52.586,6.115c7.2-2.544,8.348-2.953,12.256-4.371,1.225-.445,2.3-.815,2.376-.823S67.341,1.459,67.311,2.136Zm3.342,2.192L70.6,5.56l-2.415.866c-1.328.476-3.918,1.4-5.756,2.046s-5.682,2.01-8.541,3.024-6.787,2.4-8.728,3.09-6.077,2.149-9.192,3.253-7.711,2.731-10.213,3.615-6.513,2.311-8.913,3.17l-4.364,1.561L12.428,34.9l-.048,8.715-.416-.018a10.423,10.423,0,0,1-1.344-.229l-.928-.212V24.6l1.95-.7c1.072-.385,3.036-1.084,4.364-1.552,6.249-2.2,16.29-5.765,26.275-9.316,3.013-1.072,6.272-2.219,7.242-2.551s3.394-1.19,5.385-1.907,4.54-1.624,5.663-2.014,3.756-1.324,5.849-2.075,3.914-1.37,4.047-1.377C70.647,3.1,70.694,3.408,70.653,4.328Zm3.53,2.234-.056,1.148L68,9.874c-3.37,1.191-8.886,3.145-12.256,4.343s-7.674,2.724-9.563,3.391S40.655,19.563,38.1,20.47c-7.33,2.6-12.982,4.606-15.6,5.528-1.328.468-3.352,1.184-4.5,1.591l-2.084.74-.09,8.51c-.049,4.68-.089,8.9-.088,9.377s0,2.551,0,4.609v4.654c0,5.75,0,8.555-.013,9.354-.006.527.009,2.6.033,4.608a25.647,25.647,0,0,1-.159,4.311,1.852,1.852,0,0,0,.053,1.369c.314.873.328,7.141.016,7.517a2.8,2.8,0,0,0,.019,2.086c.319.314.3,7.2-.015,7.3-.3.1-.288,1.889.014,2.185.34.334.288,6.662-.06,7.26a2.065,2.065,0,0,0-.02,1.972c.36.686.3,6.727-.074,7.842a1.464,1.464,0,0,0,0,1.369c.408.924.492,6.733.108,7.527a2.387,2.387,0,0,0,0,2.234c.22.308.273.81.232,2.183-.046,1.528-.1,1.791-.378,1.844s-.325-.1-.326-1.275c0-1.582-.384-2.362-1.391-2.834-.609-.285-.651-.361-.651-1.172s.038-.881.6-1.082c1.139-.406,1.34-.9,1.4-3.459.062-2.635-.163-3.253-1.341-3.671-.646-.23-.663-.26-.663-1.2,0-.82.052-.967.344-.967.44,0,1.277-.759,1.514-1.374a11.443,11.443,0,0,0,.183-2.425c0-2.245-.275-2.923-1.391-3.447-.606-.284-.651-.364-.651-1.151s.045-.866.651-1.15c1.141-.535,1.39-1.185,1.391-3.634,0-2.133,0-2.14-.577-2.785a2.753,2.753,0,0,0-1.021-.756c-.4-.1-.443-.208-.435-1.048.008-.918.025-.947.789-1.315,1.094-.528,1.239-.922,1.241-3.364,0-2.416-.269-3.111-1.393-3.573-.61-.251-.646-.314-.646-1.141s.039-.891.6-1.11c1.121-.435,1.339-.948,1.408-3.317.076-2.636-.154-3.325-1.262-3.783-.735-.3-.746-.321-.747-1.265,0-.756.061-.959.295-.959a2.331,2.331,0,0,0,1.556-1.266,8.682,8.682,0,0,0,.164-2.728c-.06-1.991-.1-2.222-.5-2.638a3.394,3.394,0,0,0-.975-.676c-.486-.2-.538-.3-.534-1.064,0-.8.043-.862.708-1.163,1.062-.481,1.33-1.2,1.33-3.585,0-1.745-.049-2.046-.42-2.595a2.977,2.977,0,0,0-1.017-.894c-.543-.249-.6-.348-.6-1.1,0-.764.054-.853.757-1.278,1.118-.675,1.277-1.114,1.277-3.523,0-1.86-.045-2.147-.422-2.7a2.113,2.113,0,0,0-1.021-.795c-.573-.167-.6-.215-.6-1.1s.026-.932.734-1.265a2.389,2.389,0,0,0,1.307-2.454c0-.758-.065-.939-.371-1.034-.8-.249-1.092.039-1.152,1.136-.033.621-.148,1.056-.289,1.1-.186.06-.224-1.643-.186-8.374l.048-8.45,2.692-.964,4.178-1.5c.817-.293,3.157-1.122,5.2-1.844,4.863-1.718,9.855-3.487,12.627-4.475,1.226-.437,3.774-1.338,5.664-2s4.438-1.568,5.664-2.007,6.907-2.449,12.627-4.467,10.774-3.819,11.234-4a1.774,1.774,0,0,1,.985-.2A3.254,3.254,0,0,1,74.183,6.562Zm3.565,2A2.1,2.1,0,0,1,77.515,9.8c-.127.1-2.113.84-4.41,1.653s-9.777,3.459-16.619,5.877-12.859,4.555-13.37,4.747c-.855.322-12.316,4.385-17.084,6.056-5.292,1.855-6.33,2.235-6.546,2.4-.178.133-.232,1.679-.232,6.627v6.454l-.418.085c-.23.047-.815.135-1.3.2L16.655,44V28.88l1.068-.375c.587-.206,4.076-1.444,7.753-2.75s12.409-4.4,19.4-6.875,15.269-5.405,18.384-6.511,7.168-2.541,9.006-3.189,3.76-1.329,4.271-1.513a2.922,2.922,0,0,1,1.067-.251A2.809,2.809,0,0,1,77.747,8.56Zm3.343,5.379v4.455l-.882.1c-.485.056-1.592.151-2.461.211-8.476.585-23.006,3.731-37.138,8.043-3.032.925-13.977,4.523-16.248,5.341l-1.485.535-.049,5.111c-.056,5.756.116,5.179-1.663,5.6a2.887,2.887,0,0,1-1.068.132c-.054-.053-.1-2.831-.1-6.174,0-5.732.02-6.088.344-6.259.407-.214,4.821-1.812,9.126-3.3,1.685-.584,4.359-1.528,5.942-2.1s4.8-1.718,7.149-2.549c14.1-4.989,28.3-10.026,35.282-12.515C79.474,9.986,80.874,9.5,80.951,9.5A35.534,35.534,0,0,1,81.09,13.938Zm4.349,5.33c.266.1.293,4.707.293,50.347v50.236l-4.224.112A90.847,90.847,0,0,0,64.1,122.115c-5.089,1.014-14.239,3.359-20.333,5.212-5.577,1.7-18.947,5.964-20.019,6.392-.366.145-.219-1.774.15-1.962.153-.079.945-.455,1.759-.837a11.725,11.725,0,0,0,4.432-3.535,3.4,3.4,0,0,1,1.236-1.177,3.729,3.729,0,0,0,.882-.386c.4-.252.418-.379.418-2.612,0-1.758-.063-2.4-.253-2.552s-.679-.033-2.089.543a18.371,18.371,0,0,0-2.084.949c-.178.143-.22.5-.151,1.269l.1,1.069-1.137.823a11.729,11.729,0,0,1-3.3,1.715,6.708,6.708,0,0,1-.18-2.288c0-2.015.039-2.3.325-2.4.179-.06,1.011-.427,1.849-.817a11.362,11.362,0,0,0,4.463-3.567,2.764,2.764,0,0,1,1.533-1.322l.836-.3.052-2.508c.044-2.116.007-2.525-.233-2.616a8.049,8.049,0,0,0-2.234.662c-2.14.845-2.05.733-1.956,2.478.024.439-.124.7-.677,1.189a19.339,19.339,0,0,1-3.847,2.174,11.746,11.746,0,0,1-.111-2.266v-2.265l2.113-1.021a10.473,10.473,0,0,0,3.263-2.148,10.074,10.074,0,0,0,1.5-1.8,1.4,1.4,0,0,1,.869-.8,3.731,3.731,0,0,0,.936-.392c.4-.253.418-.375.418-2.705,0-1.8-.062-2.464-.235-2.529a9.084,9.084,0,0,0-2.182.689l-1.947.777-.056,1.16a2.612,2.612,0,0,1-.371,1.5,12.947,12.947,0,0,1-4.111,2.309c-.127,0-.2-.8-.2-2.267v-2.266l.882-.32a13.2,13.2,0,0,0,5.907-4.366A2.459,2.459,0,0,1,31.7,97.854c.614-.251.928-.488.935-.707a26.443,26.443,0,0,0-.2-4.7A14.65,14.65,0,0,0,28.4,93.856a2.276,2.276,0,0,0-.232,1.311c0,1.1-.02,1.15-.741,1.719a16.8,16.8,0,0,1-3.484,1.926l-.418.129V94.336l.7-.282a13.166,13.166,0,0,0,6.146-4.463,2.5,2.5,0,0,1,1.384-1.145l.851-.32L32.66,85.9c.063-2.452.029-2.8-.286-2.917A17.974,17.974,0,0,0,28.4,84.491a2.312,2.312,0,0,0-.232,1.255c0,.98-.047,1.093-.7,1.681A8.273,8.273,0,0,1,24.965,89c-1.462.7-1.44.728-1.44-1.834V84.914l1.068-.4c2.338-.875,5.416-3.22,5.979-4.557a2.341,2.341,0,0,1,1.173-.934l.971-.457.052-2.193c.039-1.638-.013-2.281-.2-2.537-.247-.332-.3-.327-1.63.167-.756.281-1.688.664-2.072.852-.7.342-.7.342-.7,1.512s-.009,1.178-.789,1.8a11.55,11.55,0,0,1-3.215,1.773c-.147,0-.267.087-.267.193s-.084.143-.186.081a8.007,8.007,0,0,1-.186-2.393v-2.28l.561-.192A13.288,13.288,0,0,0,30.4,70.825a2.32,2.32,0,0,1,1.319-1.119,1.9,1.9,0,0,0,.913-.56,19.106,19.106,0,0,0,.062-4.618c-.162-.416-.621-.361-2.25.272-2.24.87-2.28.907-2.28,2.172,0,.982-.056,1.134-.6,1.65a20.236,20.236,0,0,1-3.942,2.188,13.449,13.449,0,0,1-.1-2.265V66.279l2.093-1.012a11.568,11.568,0,0,0,4.85-3.9,2.721,2.721,0,0,1,1.412-1.163l.93-.393V57.485c0-3.041.042-3.006-2.453-2a10.882,10.882,0,0,0-2.047.975,3.827,3.827,0,0,0-.139,1.222c0,.872-.075,1.08-.513,1.477a13.756,13.756,0,0,1-3.945,2.162,5.961,5.961,0,0,1-.187-2.254V56.811l.789-.323a14.551,14.551,0,0,0,2.925-1.479,10.852,10.852,0,0,0,3.569-3.556,1.642,1.642,0,0,1,.87-.532,2.849,2.849,0,0,0,.954-.472,9.111,9.111,0,0,0,.137-2.569c-.062-2.789,0-2.733-2.234-1.892-2.35.883-2.368.9-2.368,2.252,0,.96-.069,1.213-.418,1.527a12.345,12.345,0,0,1-3.946,2.11c-.116.026-.186-.806-.186-2.216V47.4l.926-.358c2.407-.929,5.737-3.493,6.134-4.724a2.133,2.133,0,0,1,1.128-.823l1-.436V38.711c0-1.841-.059-2.4-.271-2.574s-.643-.072-2.182.547a10.876,10.876,0,0,0-2.047.975,4.253,4.253,0,0,0-.139,1.3c0,1.029-.041,1.125-.646,1.6a15,15,0,0,1-3.677,1.957c-.306,0-.325-.306-.278-4.671l.05-4.673,1.764-.625c3.841-1.362,13.083-4.344,17.751-5.729C58.011,22.4,70.877,19.8,80.347,19.281A37.216,37.216,0,0,1,85.439,19.268Zm-80,12.95a2.124,2.124,0,0,1-.8.606A9.686,9.686,0,0,0,2.58,34.26c-.851.7-.963.566-.418-.484a9.375,9.375,0,0,1,2.623-2.65l.636-.43.059.638A2.7,2.7,0,0,1,5.442,32.218Zm.071,3.991v2.268l-1.037.583c-1.226.689-1.6.6-2.243-.562-.4-.715-.4-.728-.053-1.431.521-1.06,2.552-3.039,3.194-3.111A9.169,9.169,0,0,1,5.513,36.209Zm26.7,2.5c-.044,1.708-.1,2.066-.38,2.236s-.4.108-.759-.33c-.291-.358-.533-.495-.741-.417-.431.163-.386-.04.2-.879a2.874,2.874,0,0,0,.537-1.525c.034-.81.268-1.11.868-1.115C32.235,36.679,32.26,36.863,32.213,38.713Zm-2.505-.8c-.193.517-.641,1.141-.818,1.141-.309,0-.173-1.072.161-1.263C29.557,37.5,29.842,37.551,29.708,37.911ZM5.513,40.792c0,.583-.035.627-.361.455-.556-.292-.637-.553-.261-.833C5.412,40.026,5.513,40.088,5.513,40.792Zm24.14.058c0,.43-.44,1.313-.625,1.252-.35-.115-.357-.682-.013-1.056S29.653,40.586,29.653,40.85Zm-1.291,1.5c.247.454-.152.955-1.483,1.859A14.781,14.781,0,0,1,23.708,45.8c-.1,0-.179-.349-.175-.776l.008-.776,2.267-1.118c1.247-.615,2.285-1.128,2.307-1.141S28.248,42.144,28.363,42.354ZM5.513,44.1v.667L5.1,44.42c-.23-.19-.459-.374-.51-.408-.112-.075.565-.58.778-.58C5.446,43.432,5.513,43.732,5.513,44.1Zm2.321-.136c.925.319.929.324.986,1.195s.057.874-.458.747a9.917,9.917,0,0,1-1.311-.483c-.743-.333-.8-.4-.8-1.082C6.256,43.5,6.39,43.465,7.834,43.963Zm3.157.863c1.44.234,1.393.2,1.393,1.063a1.808,1.808,0,0,1-.14.892,5.151,5.151,0,0,1-1.393-.191L9.6,46.314v-.772c0-.866.126-1.077.547-.917A5.576,5.576,0,0,0,10.991,44.826Zm11.792.478c0,.675-.067.8-.511.985-.67.273-2.085.471-2.1.294-.008-.076-.049-.3-.092-.5-.174-.815.067-1.139.987-1.327C22.726,44.41,22.783,44.429,22.783,45.3Zm-18.769.028a3.193,3.193,0,0,0,.858.556c.6.279.641.358.641,1.158V47.9l-1.156.6-1.156.6-.51-.6a2.441,2.441,0,0,1-.515-.817A.312.312,0,0,0,2,47.417c-.252-.09.258-1.395.744-1.9S3.692,44.951,4.013,45.332Zm15.241.675c0,.586-.08.9-.232.906-.128.007-.475.044-.773.082-.879.113-1.254-.194-1.188-.973.052-.616.112-.68.707-.764C19.291,45.043,19.254,45.025,19.254,46.006Zm13,2.067c0,1.955-.024,2.094-.387,2.207a.8.8,0,0,1-.8-.261,1.408,1.408,0,0,0-.727-.382c-.4,0-.393-.1.019-.7.64-.935.833-1.468.725-2-.087-.43-.029-.573.3-.729C32.224,45.805,32.253,45.868,32.253,48.074Zm-24.6-.935,1.108.421.052,2.321L8.867,52.2l-.516-.12a9.607,9.607,0,0,1-1.305-.466l-.789-.345V49.116c0-1.787.069-2.4.27-2.4C6.538,46.717,7.046,46.907,7.655,47.138Zm21.862.518c-.564.944-.792,1.02-.792.264,0-.524.089-.7.418-.822C29.765,46.866,29.883,47.043,29.517,47.656ZM22.783,49.9c0,1.983-.042,2.3-.325,2.438a5.9,5.9,0,0,1-2.251.482,16.246,16.246,0,0,1,0-4.574,13.9,13.9,0,0,1,2.339-.6C22.725,47.635,22.783,48.2,22.783,49.9ZM11.177,48.066l1.114.231.052,2.313.052,2.313h-.456a8.62,8.62,0,0,1-1.4-.214L9.6,52.5V50.154c0-1.758.058-2.338.232-2.33C9.958,47.831,10.564,47.939,11.177,48.066Zm6.99.316,1.1-.024-.052,2.323L19.162,53l-.836.137c-.46.075-1.023.182-1.253.237l-.418.1V50.816c0-1.906.059-2.625.207-2.535A4.425,4.425,0,0,0,18.167,48.382Zm-4.523,2.351c-.037,1.454-.122,2.091-.285,2.144s-.232-.441-.232-2.1a11.676,11.676,0,0,1,.127-2.3C13.577,48.16,13.692,48.827,13.644,50.733Zm-8.13-.639c0,.7-.119.769-.661.379-.356-.257-.356-.264.011-.628C5.391,49.321,5.513,49.368,5.513,50.094Zm24,.639c-.3.758-.719.965-.828.411-.056-.285.677-1.12,1-1.135C29.753,50,29.678,50.331,29.517,50.733Zm-1.183,1.133c.237.374.2.449-.466,1.018a16.112,16.112,0,0,1-4.037,2.229c-.237,0-.306-.177-.306-.779v-.779l1.092-.426A20.768,20.768,0,0,0,26.8,52.088a12.175,12.175,0,0,1,1.184-.62C28.036,51.465,28.194,51.644,28.335,51.866ZM5.513,53.47c0,.643-.183.69-.66.171-.3-.322-.307-.4-.075-.545C5.275,52.788,5.513,52.909,5.513,53.47Zm3.342,1.124v.867l-.789-.272c-1.716-.592-1.811-.663-1.811-1.368a1.849,1.849,0,0,1,.1-.757,3.865,3.865,0,0,1,1.3.281l1.2.382Zm13.891.1c-.054.817-.09.869-.707,1.015-.357.085-.919.223-1.249.307-.574.146-.6.127-.715-.458-.172-.9-.059-1.047,1.049-1.384C22.756,53.682,22.812,53.7,22.746,54.7Zm-11.57-.435,1.114.228v1.628l-.836-.059a5.269,5.269,0,0,1-1.346-.273c-.443-.186-.511-.317-.511-.991C9.6,53.921,9.565,53.932,11.177,54.261Zm-7.318.41a5.851,5.851,0,0,0,.943.614c.54.283.624.427.668,1.126.049.8.042.8-.99,1.394A7.524,7.524,0,0,1,3.3,58.4c-.214,0-.89-.762-1.2-1.353-.3-.576-.179-.982.664-2.16C3.177,54.309,3.4,54.265,3.859,54.672Zm15.359.761-.057.867H17.119v-.722c0-.789.259-.956,1.542-.994l.614-.018ZM32.253,57.49c0,1.781-.038,2.01-.359,2.179-.517.272-.645.239-.85-.222a.878.878,0,0,0-.6-.469c-.437-.061-.549-.3-.232-.489a3.7,3.7,0,0,0,.848-2.2c-.086-.338,0-.483.4-.692a1.1,1.1,0,0,1,.652-.178A8.444,8.444,0,0,1,32.253,57.49ZM7.1,56.36a3.929,3.929,0,0,0,.966.373l.789.22v4.718l-1.068-.391a8.626,8.626,0,0,1-1.3-.564c-.163-.122-.232-.821-.232-2.341,0-1.966.031-2.168.334-2.168A.917.917,0,0,1,7.1,56.36Zm22.552.231c0,.282-.607,1.26-.783,1.26-.243,0-.163-1.24.086-1.339C29.362,56.351,29.653,56.384,29.653,56.591Zm-17.96.989.7.107L12.343,60l-.052,2.318-.65-.057a10.24,10.24,0,0,1-1.346-.235l-.7-.178V59.608a14.567,14.567,0,0,1,.1-2.346,1.26,1.26,0,0,1,.7.054C10.724,57.4,11.307,57.52,11.693,57.579Zm11.09,1.793v2.252l-.7.215a7.046,7.046,0,0,1-1.314.257l-.618.043L20.145,59.9a19.962,19.962,0,0,1,.061-2.3,15.248,15.248,0,0,1,2.252-.451C22.751,57.123,22.783,57.341,22.783,59.373Zm-3.528.709c0,2.626.165,2.377-1.718,2.59l-.882.1V57.759h2.6Zm-5.664.05c0,1.566-.064,2.181-.232,2.236s-.232-.467-.232-2.236.055-2.294.232-2.236S13.591,58.566,13.591,60.132Zm-8.078-.639c0,.573-.309.718-.7.331-.17-.167-.151-.292.085-.548C5.331,58.8,5.513,58.867,5.513,59.493Zm24.14.2c0,.282-.607,1.26-.783,1.26-.264,0-.151-.786.162-1.126C29.377,59.452,29.653,59.393,29.653,59.693Zm-1.318,1.482c.241.379.2.455-.639,1.18A17.679,17.679,0,0,1,23.643,64.6c-.065,0-.118-.372-.118-.827,0-.624.08-.854.325-.938A25.141,25.141,0,0,0,27.4,61.112C27.964,60.68,28.023,60.684,28.335,61.176Zm-22.822,1.6c0,.615-.137.672-.661.274-.357-.271-.357-.276,0-.548C5.376,62.107,5.513,62.164,5.513,62.779ZM7.092,62.6a.611.611,0,0,0,.467.182,2.51,2.51,0,0,1,.825.212c.4.181.473.331.473,1.024,0,.756-.029.8-.428.706a11.267,11.267,0,0,1-1.3-.485c-.826-.359-.872-.417-.872-1.1,0-.592.064-.722.36-.722A.624.624,0,0,1,7.092,62.6Zm15.691,1.436v.889l-.789.2c-1.8.448-1.76.452-1.864-.2-.134-.834.281-1.408,1.033-1.431a5.2,5.2,0,0,0,1.574-.329A3.99,3.99,0,0,1,22.783,64.033Zm-10.724-.227c.245.07.325.288.325.891a1.712,1.712,0,0,1-.139.872,5.772,5.772,0,0,1-1.393-.2L9.6,65.1V63.467l1.068.123A13.7,13.7,0,0,1,12.059,63.806Zm-7.585.661c.993.571,1.032.622,1.036,1.365,0,.727-.043.795-.785,1.162a6.878,6.878,0,0,0-1.111.668c-.4.349-.709.132-1.371-.978l-.464-.778.409-.787c.379-.73.83-1.225,1.129-1.239A7.311,7.311,0,0,1,4.474,64.467Zm14.781.319V65.7h-1c-1.1,0-1.409-.215-1.3-.9.093-.56.105-.571.845-.744C19.168,63.737,19.254,63.78,19.254,64.786Zm13,2.1v2.1l-.477.118a.6.6,0,0,1-.753-.27.933.933,0,0,0-.637-.388c-.463,0-.463,0,.2-1.227a2.366,2.366,0,0,0,.453-1.533c-.117-.524.233-.874.887-.885C32.219,64.787,32.253,65.006,32.253,66.882ZM8.814,68.75l.052,2.395-1.259-.521L6.349,70.1,6.3,68.048a16.37,16.37,0,0,1,.038-2.284c.069-.176.369-.133,1.26.18l1.17.411Zm20.838-2.823a2.714,2.714,0,0,1-.417.867l-.416.639-.062-.631c-.044-.444.035-.7.266-.867C29.439,65.637,29.653,65.634,29.652,65.927Zm-6.87,2.84V71.1l-1.252.294c-.943.222-1.288.242-1.4.081a18.718,18.718,0,0,1,.075-4.406,9.656,9.656,0,0,1,2.25-.622C22.751,66.431,22.783,66.653,22.783,68.767Zm-12.07-1.989c.357.09.88.214,1.161.276l.511.112v2.278c0,2.59.128,2.437-1.733,2.07L9.6,71.306V68.959C9.6,66.408,9.558,66.486,10.713,66.777Zm8.542,2.769V71.9l-.6,0a7.336,7.336,0,0,0-1.3.163l-.7.159V67.068l1.3.061,1.3.061Zm-5.611.043c-.037,1.409-.122,2.034-.284,2.087s-.232-.469-.232-2.243c0-2.062.032-2.293.284-2.087C13.641,67.534,13.685,67.961,13.643,69.59Zm-8.13-.7c0,.7-.119.769-.658.381-.351-.252-.351-.264-.007-.639C5.346,68.1,5.513,68.16,5.513,68.893Zm23.868.809c-.34.646-.656.732-.656.179,0-.389.789-1.179.893-.895A1.563,1.563,0,0,1,29.381,69.7Zm-1.078.913c.2.311.118.447-.668,1.141a13.806,13.806,0,0,1-3.894,2.156c-.131,0-.215-.32-.215-.821,0-.452.085-.821.189-.821a23.125,23.125,0,0,0,3.617-1.714C27.827,70.18,28.034,70.192,28.3,70.615ZM5.513,72.087c0,.573-.309.718-.7.331-.17-.167-.151-.293.085-.548C5.331,71.4,5.513,71.46,5.513,72.087Zm2.46.157.882.283v1.749L7.881,73.9c-.536-.209-1.121-.424-1.3-.477-.233-.07-.325-.288-.325-.776,0-.78.139-.985.547-.808C6.962,71.905,7.488,72.089,7.974,72.244Zm14.809,1.2c0,.751-.043.822-.609,1.005a6.569,6.569,0,0,1-1.346.242c-.713.044-.74.024-.8-.571-.076-.779.082-.927,1.3-1.217C22.8,72.55,22.783,72.541,22.783,73.441Zm-10.96-.266c.405.106.476.238.525.987l.057.865-.707-.122c-2.152-.371-2-.281-2.064-1.242l-.057-.872.889.131C10.955,72.994,11.566,73.108,11.823,73.175Zm-7.834.346c.277.186.733.475,1.014.643.428.255.511.429.51,1.075,0,.761-.017.781-1.185,1.4-1.336.709-1.405.688-2.157-.628-.375-.657-.379-.711-.08-1.346.337-.716.975-1.483,1.234-1.483A2.176,2.176,0,0,1,3.989,73.521Zm15.266.646c0,.563-.088.834-.294.912a3.8,3.8,0,0,1-1.937-.026,3.366,3.366,0,0,0-.11-.531c-.173-.635.507-1.157,1.505-1.157h.836Zm13,2.122c0,1.781-.038,2.01-.359,2.179-.509.268-.755.235-.755-.1,0-.159-.251-.382-.557-.5-.659-.245-.671-.3-.186-.907a1.654,1.654,0,0,0,.371-.744.513.513,0,0,1,.2-.4c.118-.072.156-.365.091-.705-.1-.513-.051-.6.4-.77a1.331,1.331,0,0,1,.652-.117A8.291,8.291,0,0,1,32.253,76.289ZM8.531,75.63c.287.085.325.364.325,2.406v2.309l-.545-.107A6.971,6.971,0,0,1,7.057,79.8l-.708-.328L6.3,77.39a16.973,16.973,0,0,1,.036-2.315c.068-.174.3-.147.981.115C7.8,75.379,8.352,75.577,8.531,75.63ZM29.553,75.6a2.293,2.293,0,0,1-.477.771c-.348.356-.352.352-.352-.3,0-.633.163-.831.709-.863C29.6,75.194,29.639,75.318,29.553,75.6Zm-6.771,2.6v2.262l-.7.193c-.383.106-1.012.244-1.4.307l-.7.113.052-2.351.052-2.351,1.08-.21a5.548,5.548,0,0,0,1.186-.314C22.67,75.544,22.783,76.164,22.783,78.2ZM11.972,76.4c.417.079.423.112.371,2.4l-.052,2.322-.743-.056a7.385,7.385,0,0,1-1.346-.242l-.6-.185V78.4a15.232,15.232,0,0,1,.1-2.332,2.521,2.521,0,0,1,.975.077C11.153,76.24,11.739,76.354,11.972,76.4Zm1.709,2.382c0,1.875-.086,2.433-.388,2.433a18.667,18.667,0,0,1-.039-4.627C13.538,76.306,13.678,77.024,13.681,78.78Zm5.574.081c0,2.651.151,2.424-1.718,2.592l-.882.08V76.558l1.3-.021,1.3-.022ZM5.513,78.384c0,.733-.167.8-.665.257-.345-.375-.344-.387.007-.639C5.394,77.615,5.513,77.684,5.513,78.384Zm24.046.228c-.074.175-.174.457-.224.626a.68.68,0,0,1-.35.4c-.371.14-.336-.6.047-1.016S29.734,78.194,29.559,78.612Zm-1.285,1.4c.092.359-.021.563-.569,1.037a13.005,13.005,0,0,1-3.158,1.966c-.486.211-.914.384-.952.384a2.377,2.377,0,0,1-.069-.8v-.8l1.863-.879a13.247,13.247,0,0,0,2.065-1.117C27.772,79.433,28.15,79.529,28.275,80.017ZM5.513,81.487c0,.7-.123.772-.661.367-.353-.266-.35-.279.1-.635a4.354,4.354,0,0,1,.511-.367A2.2,2.2,0,0,1,5.513,81.487Zm2.321.075c.925.319.929.324.986,1.195l.058.874-.522-.124a8.726,8.726,0,0,1-1.311-.495c-.73-.343-.789-.424-.789-1.084C6.256,81.1,6.394,81.064,7.834,81.561Zm14.948,1.268v.886l-1.243.3a2.975,2.975,0,0,1-1.405.142,1.543,1.543,0,0,1-.1-.862c.059-.7.064-.7,1.266-1.016.664-.172,1.27-.318,1.346-.325S22.783,82.341,22.783,82.829ZM11.014,82.4l.952.192c.357.071.418.2.418.891a1.747,1.747,0,0,1-.139.881,5.787,5.787,0,0,1-1.393-.2L9.6,83.9v-.908c0-.865.021-.9.441-.8C10.282,82.248,10.721,82.345,11.014,82.4Zm-6.541.862c.989.568,1.032.625,1.036,1.352,0,.742-.022.774-1.157,1.4l-1.161.642-.43-.394a3.966,3.966,0,0,1-.723-1c-.279-.577-.272-.647.133-1.371C2.99,82.428,3.007,82.423,4.474,83.266Zm14.781.3v.893l-.7.065c-1.459.136-1.875-.169-1.615-1.187.119-.465.369-.553,1.8-.636C19.235,82.674,19.254,82.706,19.254,83.566Zm12.934,2.042a6.963,6.963,0,0,1-.162,2.129c-.295.352-.711.273-1.181-.226-.28-.3-.538-.413-.743-.335-.23.086-.131-.2.368-1.082s.652-1.322.563-1.67c-.1-.382-.037-.5.318-.642a1.432,1.432,0,0,1,.623-.122A5.306,5.306,0,0,1,32.189,85.608ZM7.974,84.838l.882.283v4.71l-.428-.106a11.159,11.159,0,0,1-1.3-.485l-.872-.379V86.71a11.23,11.23,0,0,1,.13-2.278.432.432,0,0,1,.418,0C6.962,84.5,7.488,84.683,7.974,84.838Zm21.572.071a4.322,4.322,0,0,1-.43.862l-.3.451-.061-.626c-.043-.439.037-.7.268-.862C29.511,84.385,29.695,84.446,29.546,84.909Zm-6.8,2.647-.052,2.327-1.207.3a4.941,4.941,0,0,1-1.346.217,13.774,13.774,0,0,1,.093-4.564,11.625,11.625,0,0,1,2.327-.584C22.74,85.233,22.782,85.752,22.742,87.556ZM11.78,85.8l.6.184v2.268c0,2.578.127,2.426-1.733,2.06L9.6,90.106V85.379l.789.12A12.211,12.211,0,0,1,11.78,85.8Zm7.433,2.488-.052,2.3-1.254.2-1.253.2V85.867l1.306.061,1.306.06Zm-5.57-.02c-.037,1.5-.121,2.153-.284,2.205s-.232-.446-.232-2.129c0-1.859.045-2.205.284-2.205S13.688,86.457,13.643,88.27Zm-8.13-.578c0,.7-.119.769-.658.382-.351-.252-.351-.265-.007-.639C5.346,86.894,5.513,86.958,5.513,87.692Zm24.14.007a7.394,7.394,0,0,1-.818,1.545c-.269,0-.2-.806.106-1.184C29.275,87.643,29.653,87.452,29.653,87.7Zm-1.3,2c0,.278-.95,1.152-1.806,1.665a16.645,16.645,0,0,1-2.859,1.346c-.089,0-.163-.351-.163-.781V91.15l1.254-.529a18.355,18.355,0,0,0,2.182-1.115c.828-.523.954-.555,1.161-.3A1.029,1.029,0,0,1,28.353,89.7ZM5.513,90.886c0,.6-.357.73-.748.268-.2-.231-.175-.325.117-.542C5.4,90.227,5.513,90.277,5.513,90.886Zm2.142.055,1.108.42.057.873c.055.837.04.867-.371.743a12.721,12.721,0,0,1-1.264-.517c-.777-.361-.84-.443-.893-1.164-.032-.426.013-.776.1-.776A9.775,9.775,0,0,1,7.655,90.942ZM22.746,92.3l-.057.864-1.1.239c-1.367.3-1.593.216-1.593-.569,0-.751.21-.94,1.3-1.177C22.806,91.327,22.81,91.328,22.746,92.3ZM11.966,92c.35.127.418.288.418.985v.832l-.975-.123c-1.667-.211-1.81-.311-1.81-1.26V91.6l.975.123A8.739,8.739,0,0,1,11.966,92Zm-7.5.643c.988.631,1.042.7,1.041,1.415,0,.736-.023.761-1.214,1.383l-1.212.633-.45-.542a2.115,2.115,0,0,1-.457-.77.219.219,0,0,0-.192-.229c-.274,0-.226-.487.115-1.15.325-.631.983-1.405,1.2-1.405A7.516,7.516,0,0,1,4.471,92.646Zm14.784.228c0,1-.134,1.115-1.309,1.115-.761,0-1.105-.335-1.105-1.073,0-.468.264-.624,1.3-.77.46-.065.9-.128.975-.141S19.254,92.383,19.254,92.874Zm12.824.248a15.738,15.738,0,0,1-.254,4.19c-.381.238-.656.158-.78-.228a.849.849,0,0,0-.648-.476l-.528-.1.522-.847c.678-1.1.832-1.624.567-1.939-.17-.2-.105-.31.31-.532C31.912,92.843,32.064,92.83,32.078,93.122ZM7.769,94.2l1.087.39v2.257c0,2.674-.022,2.689-2.228,1.541-.363-.189-.52-4.577-.164-4.577A8.3,8.3,0,0,1,7.769,94.2Zm21.884-.07a3.339,3.339,0,0,1-.417.776l-.416.639-.061-.62c-.037-.374.036-.681.184-.773C29.25,93.957,29.653,93.944,29.652,94.126Zm-6.87,2.76v2.349l-.882.248a6.751,6.751,0,0,1-1.346.252c-.463,0-.464,0-.518-1.914-.074-2.631-.074-2.631,1.211-2.911.917-.2,1.165-.259,1.49-.36C22.762,94.543,22.783,95.593,22.783,96.886ZM11.409,95.126l.975.176v2.252a10.433,10.433,0,0,1-.139,2.325,5.9,5.9,0,0,1-1.346-.126l-1.207-.2-.053-2.179c-.059-2.446,0-2.758.472-2.561A9.3,9.3,0,0,0,11.409,95.126Zm7.846,2.5v2.346l-.975.122c-.536.067-1.121.162-1.3.212-.3.083-.325-.118-.325-2.444V95.333l1.3-.023,1.3-.024Zm-5.664.1c0,1.566-.064,2.181-.232,2.236s-.232-.467-.232-2.236.055-2.294.232-2.236S13.591,96.165,13.591,97.73Zm-8.078-.548c0,.739-.061.768-.593.28-.325-.3-.352-.406-.155-.638C5.181,96.331,5.513,96.491,5.513,97.183Zm23.867.507c-.343.808-.583.972-.711.488-.065-.243.062-.528.37-.831C29.633,96.763,29.732,96.862,29.38,97.69Zm-1.212.847a1.52,1.52,0,0,0,.1.432c.152.391-1.01,1.385-2.66,2.273-1.846.995-2.086,1-2.086.047v-.732l1.583-.719a15.174,15.174,0,0,0,2.068-1.094C27.683,98.352,28.168,98.251,28.168,98.537ZM5.449,100.866c-.155.152-.865-.307-.865-.559,0-.132.188-.323.418-.424.377-.167.424-.132.477.355A1.3,1.3,0,0,1,5.449,100.866Zm2.107-.58a2.253,2.253,0,0,0,.882.268c.378.006.418.1.418.939,0,.882-.023.927-.428.826a11.279,11.279,0,0,1-1.3-.484c-.826-.36-.872-.417-.872-1.1,0-.628.054-.72.418-.715A2.269,2.269,0,0,1,7.556,100.285Zm15.191,1.322-.057.865-1.2.317c-1.379.365-1.571.258-1.388-.77.135-.761.138-.765.678-.829a4.2,4.2,0,0,0,.888-.238C22.641,100.56,22.808,100.662,22.746,101.607Zm-10.78-.215c.367.076.418.2.418,1.008,0,.791-.046.908-.325.831-.179-.049-.806-.192-1.393-.315L9.6,102.691v-.761a2.37,2.37,0,0,1,.1-.86A6.988,6.988,0,0,1,11.966,101.392Zm-7.493.673c.989.569,1.032.626,1.036,1.353,0,.744-.021.773-1.157,1.393s-1.17.625-1.532.3a4.431,4.431,0,0,1-.722-.975c-.3-.556-.319-.717-.114-1.2.319-.757.9-1.46,1.205-1.46A5.334,5.334,0,0,1,4.474,102.065Zm14.745.27-.057.863-.812.135c-1.032.172-1.509-.065-1.509-.75,0-.763.446-1.016,1.914-1.086C19.262,101.473,19.273,101.493,19.218,102.335Zm12.849,2.154c0,2.015-.018,2.112-.418,2.26-.338.125-.463.072-.656-.28a.808.808,0,0,0-.572-.434c-.57,0-.568-.18.013-1.1a2.173,2.173,0,0,0,.486-1.526c-.06-.5,0-.675.3-.818C32.034,102.2,32.067,102.278,32.067,104.489Zm-24.412-.953,1.108.422.052,2.316a9,9,0,0,1-.1,2.316,9.975,9.975,0,0,1-1.259-.421l-1.107-.421L6.3,105.671c-.047-1.85.006-2.556.193-2.556C6.521,103.115,7.046,103.3,7.655,103.536Zm21.9.172c-.266.858-1.071,1.338-.917.547a5.378,5.378,0,0,0,.076-.533c.012-.187.3-.331.816-.4C29.61,103.307,29.621,103.482,29.551,103.708Zm-6.768,2.656V108.7l-1.254.288a5.025,5.025,0,0,1-1.346.2,16.514,16.514,0,0,1-.027-4.276c.148-.38.373-.517,1.082-.662C22.91,103.911,22.783,103.738,22.783,106.363Zm-11.606-1.91,1.114.227.052,2.346.052,2.346-.888-.1a7.532,7.532,0,0,1-1.4-.3l-.511-.191V106.5c0-1.712.058-2.284.232-2.278C9.958,104.223,10.564,104.328,11.177,104.453Zm8.078,2.631V109.5h-.438a13.049,13.049,0,0,0-1.3.117l-.862.116v-2.458a21.8,21.8,0,0,1,.078-2.534,6.269,6.269,0,0,1,1.3-.076h1.222Zm-5.677-2.04c.339.333.417,3.016.111,3.808-.39,1.008-.562.454-.562-1.814a16.508,16.508,0,0,1,.08-2.281A1.264,1.264,0,0,1,13.578,105.044ZM5.513,106.5c0,.507-.068.639-.305.594a.612.612,0,0,1-.451-.957C5.184,105.636,5.513,105.795,5.513,106.5Zm24.139.033c0,.323-.764,1.331-.93,1.23-.289-.175-.216-.488.221-.945C29.345,106.4,29.654,106.277,29.652,106.537Zm-1.42,1.643c.091.42-.013.607-.635,1.151a15.246,15.246,0,0,1-3.654,2.081c-.39.115-.418.068-.418-.69v-.813l1.161-.486a19.317,19.317,0,0,0,2.182-1.112,8.561,8.561,0,0,1,1.139-.63C28.072,107.679,28.173,107.9,28.233,108.18ZM5.513,109.772c0,.611-.017.627-.464.427-.542-.242-.6-.6-.139-.865C5.429,109.038,5.513,109.1,5.513,109.772Zm2.063-.088c1.079.319,1.279.524,1.279,1.307,0,.743,0,.746-.6.63-1.154-.226-1.907-.711-1.972-1.267-.087-.746.092-1.1.48-.943C6.946,109.483,7.31,109.605,7.576,109.684Zm15.206,1.355c0,.751-.043.822-.609,1.005a6.569,6.569,0,0,1-1.346.242c-.794.049-.778.086-.661-1.447.009-.117.455-.293.991-.389C22.824,110.152,22.783,110.137,22.783,111.039ZM11.6,110.722l.8.11-.056.841-.056.841-.737-.045a6.514,6.514,0,0,1-1.346-.242c-.569-.185-.609-.252-.609-1.027v-.83l.6.122C10.534,110.557,11.165,110.662,11.6,110.722Zm-7.576.463c.357.221.817.491,1.021.6.285.148.371.381.371.994,0,.74-.056.832-.743,1.231-1.594.925-1.578.922-2.064.325a2.091,2.091,0,0,1-.442-.747.727.727,0,0,0-.275-.429c-.24-.2-.237-.293.029-.8.443-.841,1.029-1.578,1.255-1.577A2.96,2.96,0,0,1,4.028,111.185Zm15.227.5v.9l-.867.127c-1.029.152-1.432-.044-1.515-.739-.078-.648.089-.8,1.1-.993C19.295,110.723,19.254,110.7,19.254,111.682Zm12.813,2.1c0,1.96-.025,2.106-.4,2.3-.349.183-.45.148-.758-.268a1.143,1.143,0,0,0-.711-.48c-.382,0-.478-.269-.164-.46a3.488,3.488,0,0,0,.859-2.269c-.093-.455-.037-.556.4-.712a4.99,4.99,0,0,1,.643-.2A7.823,7.823,0,0,1,32.067,113.786ZM8.02,113.027l.743.274.052,2.323.052,2.322-.6-.118a6.326,6.326,0,0,1-1.259-.434l-.658-.316L6.3,114.82l-.052-2.257.516.1A9.771,9.771,0,0,1,8.02,113.027Zm21.447-.06c0,.31-.677,1.286-.805,1.159a1.044,1.044,0,0,1,.1-1.119C29.03,112.743,29.467,112.718,29.467,112.967Zm-6.649,2.715.057,2.346-1.291.3c-1.01.232-1.323.248-1.436.073a15.6,15.6,0,0,1,.015-4.307,6.959,6.959,0,0,1,2.469-.736A10.546,10.546,0,0,1,22.819,115.681ZM12.064,114c.3.086.325.322.279,2.408l-.052,2.314-.557-.05a10.567,10.567,0,0,1-1.346-.252l-.789-.2v-4.558l1.068.123A13.957,13.957,0,0,1,12.064,114Zm7.19,2.471c0,1.745-.059,2.345-.232,2.354a16.592,16.592,0,0,0-1.95.262l-.418.1v-5.027l1.3-.014,1.3-.014Zm-5.664.06c0,1.566-.064,2.18-.232,2.236s-.232-.467-.232-2.236.055-2.294.232-2.236S13.591,114.964,13.591,116.53Zm-8.14.031c-.141.138-.866-.373-.866-.612,0-.121.188-.35.418-.509.409-.283.419-.275.477.373A1.847,1.847,0,0,1,5.451,116.561Zm23.742.236c-.164.311-.378.517-.476.458-.3-.184-.2-.682.24-1.141C29.49,115.555,29.631,115.964,29.192,116.8Zm-.951.785c.149.231.089.41-.265.784a14.6,14.6,0,0,1-4.033,2.464c-.4.155-.418.122-.418-.729,0-.884.006-.893.789-1.163a16.66,16.66,0,0,0,2.089-1C27.8,117.151,27.947,117.123,28.241,117.582Zm-22.728,1.6v.734l-.464-.3c-.548-.353-.583-.585-.139-.916C5.42,118.319,5.513,118.394,5.513,119.181Zm2.321-.021.929.32.057.989c.046.793.011.944-.176.761A.835.835,0,0,0,8.158,121a4.534,4.534,0,0,1-1.077-.37c-.735-.329-.825-.436-.825-.973C6.256,118.7,6.381,118.658,7.834,119.16Zm14.947,1.249v.867l-1.252.3a5.3,5.3,0,0,1-1.392.217A2.168,2.168,0,0,1,20,120.8c0-.5.067-.872.149-.823a3.449,3.449,0,0,0,1.161-.151C22.826,119.46,22.783,119.443,22.782,120.408Zm-10.816-.216c.357.074.418.2.418.893a1.782,1.782,0,0,1-.139.887,4.944,4.944,0,0,1-1.346-.217c-1.162-.286-1.209-.32-1.266-.908C9.518,119.682,9.513,119.684,11.966,120.192Zm-7.056.944c.586.289.6.332.6,1.456,0,.855.072,1.186.275,1.262a8.51,8.51,0,0,0,2.743-.754c.294-.117.325.013.325,1.355,0,1.021.073,1.513.232,1.572a4.9,4.9,0,0,0,1.532-.382c.715-.257,1.383-.484,1.486-.5s.208.6.24,1.49l.054,1.524-.965-.131A15.387,15.387,0,0,1,3.119,124.2c-1.571-1.608-1.646-2.268-.414-3.608l.459-.5.571.373C4.049,120.671,4.578,120.973,4.91,121.136Zm14.345.029v.894l-.842.066c-1.3.1-1.606-.077-1.537-.894.05-.6.131-.7.615-.8a8.216,8.216,0,0,1,1.161-.138C19.253,120.271,19.254,120.274,19.254,121.165Zm12.772,2.143c-.05,2.023-.073,2.131-.476,2.278-.352.127-.453.077-.6-.3-.169-.436-.361-.535-.9-.462-.286.039-.3.071.41-1.251a2.332,2.332,0,0,0,.42-1.513c-.087-.428-.03-.557.307-.69C32.069,121.023,32.082,121.052,32.027,123.308ZM7.2,122.167l.611.252-.6.3a1.243,1.243,0,0,1-.775.194.729.729,0,0,1-.056-.879C6.537,121.881,6.483,121.872,7.2,122.167Zm22.326.249c-.193.517-.641,1.14-.819,1.14-.277,0-.182-.869.127-1.173C29.233,121.987,29.675,122.008,29.522,122.416Zm-6.817,4.928a8.65,8.65,0,0,1-1.291.4c-1.2.316-1.2.316-1.307-.066A18.918,18.918,0,0,1,20,125.244c0-2.007.007-2.053.415-2.056a7.9,7.9,0,0,0,1.346-.241l.928-.236.052,2.273A16.527,16.527,0,0,1,22.705,127.343Zm-11.528-4.091c.889.181,1.114.3,1.114.574,0,.254-.294.458-1.107.768-1.561.595-1.585.585-1.585-.583C9.6,122.886,9.535,122.917,11.177,123.253Zm8.078,2.625V128.3l-.882,0a6.922,6.922,0,0,0-1.3.112l-.418.11v-5.062l1.3-.006,1.3-.005Zm-5.61-.344c.045,1.406.008,1.673-.232,1.673s-.286-.3-.286-1.749c0-1.317.057-1.73.232-1.673C13.517,123.836,13.608,124.4,13.644,125.534Zm15.723.168c-.376.886-.6,1.1-.747.72a1.056,1.056,0,0,1,.319-.842C29.538,124.833,29.715,124.884,29.367,125.7Zm-1.135,1.181a.879.879,0,0,1-.3.842,12.655,12.655,0,0,1-3.471,2.219l-.953.369.057-.837c.055-.814.081-.847.985-1.226.511-.215,1.472-.7,2.135-1.078a11.575,11.575,0,0,1,1.325-.692C28.072,126.478,28.173,126.659,28.232,126.882Zm-5.45,2.84c0,.869,0,.873-.789,1.1a8.2,8.2,0,0,1-1.346.267c-.544.039-.557.021-.542-.776l.015-.816,1.192-.3c.656-.165,1.255-.311,1.331-.325S22.783,129.242,22.783,129.722Zm-3.528.769v.866l-.945.123c-1.094.143-1.469-.06-1.469-.791,0-.408.13-.535.789-.773a4.854,4.854,0,0,1,1.207-.289C19.212,129.625,19.254,129.714,19.254,130.491Z" fill-rule="evenodd"/>
        </g>
    </g>
</svg>
