<svg xmlns="http://www.w3.org/2000/svg" width="83.583" height="135.344" viewBox="0 0 83.583 135.344">
    <g id="Group_1439" transform="translate(0 0)">
        <path id="Path_13312" d="M64.414.1,58.109,2.374c-3.329,1.2-7.794,2.808-9.921,3.576L41.041,8.528c-3.406,1.227-9.7,3.494-13.62,4.911L21.2,15.68c-4.926,1.772-9.658,3.481-14.118,5.1A27.633,27.633,0,0,0,3.51,22.227a2.162,2.162,0,0,0-.133.829c0,.592-.039.634-.717.812a6.977,6.977,0,0,0-1.417.595,1.711,1.711,0,0,1-.967.3C.062,24.684.01,24.8,0,25.4,0,25.8,0,48.089.012,74.926l.019,48.8.418,1.566c.8,3,2.079,5.085,3.778,6.161,2.548,1.613,7.028,2.672,11.655,2.752,1.918.034,2.01.019,2.32-.363a.84.84,0,0,0,.232-.631c-.095-.246.675-.646,1.6-.831l.5-.1v1.535c0,1.35.035,1.535.294,1.533.162,0,2.11-.612,4.33-1.357,6.425-2.157,12.311-4.022,19.842-6.286,1.994-.6,8.438-2.333,10.846-2.919a109.875,109.875,0,0,1,24.625-3.543c1.567-.021,2.91-.075,2.984-.12s.135-22.992.136-50.991c0-40.538-.041-50.964-.209-51.185s-.619-.291-2.313-.352l-2.1-.075-.045-4.9c-.035-3.887-.091-4.918-.268-4.986a5.566,5.566,0,0,0-1.627.427c-.772.282-1.427.512-1.456.512a11.2,11.2,0,0,1-.052-1.519c0-1.116-.06-1.542-.226-1.605a5.462,5.462,0,0,0-1.619.422,5.422,5.422,0,0,1-1.54.418,4.436,4.436,0,0,1-.146-1.5,4.226,4.226,0,0,0-.156-1.506,5.137,5.137,0,0,0-1.546.41c-.764.279-1.45.507-1.525.507a4.275,4.275,0,0,1-.136-1.5c0-1.048-.063-1.522-.21-1.573a5.5,5.5,0,0,0-1.537.411,5.573,5.573,0,0,1-1.408.4,7.063,7.063,0,0,1-.131-1.392C65.3.825,65.276.178,65.269.109,65.253-.033,64.794-.037,64.414.1Zm.134,2.088-.049,1.2L60.631,4.771C57.043,6.054,51.995,7.87,47.767,9.4c-.971.351-3.771,1.36-6.222,2.242S34.441,14.2,31.2,15.372s-6.907,2.493-8.155,2.94S19.076,19.743,17,20.5s-4.8,1.737-6.053,2.182-2.705.974-3.237,1.175l-.967.366v3.845A27.394,27.394,0,0,1,6.589,32a3.531,3.531,0,0,1-1.264-.527l-1.115-.62.045-4.129L4.3,22.6l7.819-2.811c4.3-1.546,8.538-3.076,9.416-3.4s3.376-1.228,5.549-2.01c3.663-1.317,14.41-5.187,18.5-6.66l4.2-1.512c1.341-.482,5.087-1.844,8.324-3.028S64.13,1.019,64.3,1.009C64.563.994,64.592,1.127,64.548,2.19Zm3.229,2.165c0,.826-.068,1.345-.176,1.345-.159,0-5.052,1.728-7.138,2.522-.462.176-1.824.67-3.027,1.1-2.126.758-3.5,1.254-12.275,4.424-2.312.835-5.566,2.008-7.23,2.607C34.352,17.638,28.1,19.89,23.637,21.5l-8.153,2.945c-2.727.985-5.054,1.87-5.171,1.967-.158.131-.213,1.014-.213,3.435,0,3.127-.013,3.258-.33,3.258a4.631,4.631,0,0,1-2.15-.8c-.153-.2-.21-1.242-.21-3.847,0-3.263.026-3.591.3-3.738.165-.088,1.811-.7,3.657-1.368,6-2.16,13.084-4.713,14.2-5.122,3.609-1.319,9.36-3.394,10.51-3.791.74-.256,4.107-1.465,7.483-2.687,9.38-3.4,12.9-4.665,14.461-5.218.786-.278,3.245-1.175,5.465-1.993s4.092-1.5,4.162-1.509A3.507,3.507,0,0,1,67.777,4.355Zm3.447,2.177V7.757l-2.775.992c-1.526.546-4.855,1.743-7.4,2.661-10.978,3.961-12.689,4.578-15.638,5.64-15.3,5.509-20.115,7.244-21.271,7.669-.74.272-3.388,1.234-5.885,2.138L13.717,28.5l-.047,2.511a14.644,14.644,0,0,1-.183,2.647,3.449,3.449,0,0,1-1.34-.063l-1.2-.2V26.92l.462-.169c.254-.093,4.549-1.644,9.543-3.447,19.906-7.187,29.911-10.8,32.958-11.893,1.757-.632,3.951-1.424,4.876-1.761s3.044-1.1,4.708-1.692,4.01-1.45,5.213-1.9a18.7,18.7,0,0,1,2.354-.785A2.6,2.6,0,0,1,71.224,6.532Zm3.412,2.125-.049,1.276-7.9,2.841c-4.347,1.563-9.038,3.254-10.425,3.76s-4.3,1.558-6.474,2.341c-14.047,5.056-25.2,9.078-29.427,10.612l-3.279,1.19-.048,1.559L16.983,33.8l-1.3-.049-1.3-.049-.047-2.2c-.035-1.633.009-2.248.168-2.376.118-.1,2.258-.907,4.755-1.8s4.918-1.773,5.381-1.947c.838-.316,4.292-1.561,13.7-4.941,2.728-.98,5.452-1.962,6.053-2.184,1.773-.654,3.16-1.155,8.66-3.133C62.076,11.868,71.1,8.615,73.242,7.83c.647-.237,1.237-.434,1.31-.439A3.072,3.072,0,0,1,74.637,8.658Zm3.527,5.408-.045,4.5-.925.043C65.1,19.168,43.979,24.377,22.506,32.1l-1.972.709-.046,3.137-.046,3.137-.884.051c-.828.048-.895.022-1.058-.408a11.744,11.744,0,0,1-.149-2.455c.021-1.647-.023-2.05-.253-2.3s-.268-.578-.229-1.536l.05-1.228,2.943-1.068c1.618-.588,5.023-1.818,7.567-2.734l21.019-7.572,4.372-1.573c1.433-.515,7.411-2.676,13.284-4.8S77.878,9.58,78,9.576C78.163,9.569,78.2,10.522,78.163,14.066Zm4.5,55.868v50.53l-3.867.108a76.9,76.9,0,0,0-12.552,1.245,206.737,206.737,0,0,0-24.861,6.16c-1.526.462-3.229.976-3.783,1.143-1.549.465-4.357,1.376-10.425,3.383-3.052,1.01-5.644,1.835-5.759,1.834-.16,0-.21-.713-.21-3v-2.994l1.974-.216a13.454,13.454,0,0,0,2.281-.38.436.436,0,0,1,.523.015c.158.132.528.052,1.376-.3l1.16-.476v-5.018l-.589.022a4.776,4.776,0,0,0-1.387.372c-.645.283-.8.431-.8.769,0,.536-.639.73-2.9.88l-1.644.109.046-2.673.046-2.674,1.6-.123,2.7-.206a6.965,6.965,0,0,0,2.064-.508l.96-.424-.046-2.48-.047-2.48-.589.015a4.579,4.579,0,0,0-1.387.369c-.647.286-.8.434-.8.775,0,.543-.654.743-2.9.887l-1.644.106.046-2.674.046-2.674,1.682-.113a11.868,11.868,0,0,0,2.144-.29,2,2,0,0,1,.925-.088,3.2,3.2,0,0,0,1.471-.325l1.009-.414.046-2.525c.055-3,.048-3.011-1.7-2.225-.936.42-1.117.568-1.117.911s-.117.439-.88.622a12.5,12.5,0,0,1-2.228.227l-1.348.015V99.95l1.555-.12a16.8,16.8,0,0,0,2.236-.3,2.368,2.368,0,0,1,1.028-.074,2.889,2.889,0,0,0,1.421-.346L28.6,98.65V96.159c0-2.968-.014-2.985-1.753-2.2-.933.423-1.106.567-1.106.921a.49.49,0,0,1-.294.506,21.663,21.663,0,0,1-3.978.386c-.23-.088-.268-.479-.268-2.715V90.449h.9a17.273,17.273,0,0,0,2.343-.251,6.918,6.918,0,0,1,1.68-.159,3.7,3.7,0,0,0,1.36-.357l1.121-.448-.046-2.545-.046-2.544-.5.022a4.578,4.578,0,0,0-1.345.422c-.656.312-.852.5-.892.843-.049.419-.135.458-1.617.724a12.158,12.158,0,0,1-2.219.229l-.653-.053-.046-2.649-.046-2.648h.887a12.807,12.807,0,0,0,1.9-.187,17.038,17.038,0,0,1,1.85-.226,6.018,6.018,0,0,0,2.564-.81c.151-.116.21-.845.21-2.585,0-2.83.011-2.814-1.537-2.235-.832.311-1.068.485-1.251.923-.278.665-.531.743-2.807.867l-1.812.1.047-2.584.047-2.585,1.766-.215c.971-.118,2.2-.247,2.732-.286a6.562,6.562,0,0,0,1.9-.5l.93-.426L28.56,67.8c-.054-2.892-.05-2.886-1.679-2.166-.7.311-.963.519-1,.806-.08.564-1.085.857-3,.876l-1.6.015-.046-2.564c-.043-2.359-.023-2.565.252-2.574a21.925,21.925,0,0,0,3.325-.352,4.8,4.8,0,0,1,1.009-.159l.635.024a4.5,4.5,0,0,0,1.224-.411l.924-.423-.047-2.487c-.054-2.894-.049-2.887-1.687-2.162-.7.308-.985.536-1.061.836a.845.845,0,0,1-.383.529,25.8,25.8,0,0,1-4.152.435,23.6,23.6,0,0,1-.078-2.639c0-2.924-.091-2.762,1.569-2.768a12.667,12.667,0,0,0,2.13-.234,2.97,2.97,0,0,1,1.263-.093,2.611,2.611,0,0,0,1.261-.317l1.091-.455V48.994c0-2.484,0-2.518-.379-2.571a3.444,3.444,0,0,0-1.3.366c-.675.309-.946.535-1.026.854a.7.7,0,0,1-.469.515,11.34,11.34,0,0,1-3.008.416l-1.135,0V43.366l.462-.009A16.07,16.07,0,0,0,24.467,43a11.747,11.747,0,0,1,1.682-.223,5.531,5.531,0,0,0,1.655-.392l.8-.354-.047-2.484-.047-2.484-.589.018c-.864.026-1.923.577-1.988,1.034a.784.784,0,0,1-.336.528,12.351,12.351,0,0,1-3.561.494l-.757-.056V33.388l1.766-.644A295.994,295.994,0,0,1,61.472,21.6a118.314,118.314,0,0,1,14.966-2.165c.37-.033,1.921-.053,3.447-.044l2.774.016ZM3.4,28.317c.012.231.035.666.052.967.058,1.032-.089,1.067-.858.206a3.672,3.672,0,0,1-.728-1.02c0-.112.284-.279.631-.371C3.392,27.86,3.373,27.855,3.4,28.317Zm24.7,11.26c0,1.9-.03,2.112-.325,2.27-.645.345-.684.236-.684-1.919,0-1.817.039-2.116.294-2.265C28.048,37.273,28.093,37.4,28.093,39.577Zm-7.651,6.312v2.606h-1.85l-.084-2.484c-.046-1.366-.058-2.561-.025-2.656s.463-.152,1.009-.123l.95.05Zm7.651,3.1c0,1.9-.03,2.112-.325,2.27-.645.345-.684.237-.684-1.933,0-2.028.014-2.113.378-2.259a2.847,2.847,0,0,1,.5-.163A8.7,8.7,0,0,1,28.093,48.993Zm-7.772,3.763c.162.1.2.751.168,2.646l-.047,2.51-.657.054a4.08,4.08,0,0,1-1.051-.045c-.39-.1-.394-.125-.394-2.436a20.083,20.083,0,0,1,.1-2.6C18.554,52.591,19.919,52.5,20.321,52.756Zm7.772,5.724c0,2.1-.011,2.169-.378,2.268a3.323,3.323,0,0,1-.5.1,8.66,8.66,0,0,1-.126-2.074c0-1.987.016-2.084.378-2.259a2.434,2.434,0,0,1,.5-.194A9.275,9.275,0,0,1,28.093,58.48Zm-7.6,6.291.046,2.657-1.018-.05-1.018-.05-.008-2.522c0-1.387,0-2.583,0-2.657s.448-.112.98-.084l.967.05Zm7.6,3.125c0,2.1-.011,2.169-.378,2.268a3.32,3.32,0,0,1-.5.1,7.612,7.612,0,0,1-.126-1.943c0-1.935,0-1.945-.378-1.845-.208.055-.038-.087.378-.317a5.491,5.491,0,0,1,.883-.426A9.339,9.339,0,0,1,28.093,67.9Zm-8.2,3.659.631.1v5.185l-1.051-.05-1.051-.05-.047-2.43a23.262,23.262,0,0,1,.037-2.648C18.506,71.427,18.928,71.4,19.9,71.556Zm8.2,5.66c0,2.13-.1,2.472-.7,2.472-.264,0-.3-.213-.345-1.892L27,75.9l-.42.038c-.377.034-.368.018.084-.151a4.7,4.7,0,0,0,.836-.416,1.335,1.335,0,0,1,.462-.228A8.347,8.347,0,0,1,28.093,77.215Zm-7.567,6.439v2.591h-.991c-.748,0-1.016-.065-1.093-.266a23.1,23.1,0,0,1,.057-4.871,2.364,2.364,0,0,1,1.093-.1l.934.057Zm7.567,3.171c0,1.736-.043,2.091-.266,2.177-.713.273-.743.194-.743-1.974,0-1.99.016-2.083.378-2.249a.809.809,0,0,1,.5-.1A9.874,9.874,0,0,1,28.093,86.825Zm-7.777,3.716c.156.049.21.72.21,2.6v2.536l-1.042-.05-1.042-.05.027-2.186c.015-1.2.03-2.385.033-2.628.006-.425.037-.439.805-.365A8.344,8.344,0,0,1,20.316,90.541Zm7.777,5.691c0,1.745-.043,2.1-.266,2.186-.711.273-.743.19-.743-1.907,0-1.736.04-2.033.294-2.181C28.047,93.941,28.093,94.064,28.093,96.232Zm-7.651,6.324v2.606l-.822.053a1.955,1.955,0,0,1-.989-.114,28.217,28.217,0,0,1-.13-5.172,3.62,3.62,0,0,1,1.009-.028l.932.05Zm7.651,3.116c0,2.031-.014,2.113-.378,2.251a.849.849,0,0,1-.5.069,8.025,8.025,0,0,1-.126-1.925c0-1.775-.014-1.847-.336-1.745-.193.061-.336.03-.336-.072s.132-.182.294-.185a1.3,1.3,0,0,0,.621-.252C28.028,103.282,28.093,103.441,28.093,105.672Zm-7.6,6.259-.046,2.648-.757.044c-1.217.07-1.218.065-1.2-2.757.009-1.375.018-2.519.02-2.542a6.3,6.3,0,0,1,1.017-.041h1.013Zm7.6,3.147c0,1.9-.03,2.112-.325,2.27-.645.345-.684.237-.684-1.919,0-1.816.039-2.116.294-2.264C28.048,112.773,28.093,112.9,28.093,115.077Zm-7.6,6.354.046,2.648-.719,0c-1.544,0-1.476.119-1.476-2.679a15.507,15.507,0,0,1,.119-2.594,2.767,2.767,0,0,1,1.051-.071l.932.05Zm7.6,3.063c0,1.9-.03,2.112-.325,2.27-.645.345-.684.237-.684-1.933,0-2.029.014-2.113.378-2.259a2.793,2.793,0,0,1,.5-.163A8.692,8.692,0,0,1,28.093,124.494Zm-7.939,3.728c.369.1.382.164.336,1.612l-.048,1.51-.841.319a6.341,6.341,0,0,1-1.009.319c-.105,0-.149-.721-.116-1.934l.052-1.934.62,0A4.894,4.894,0,0,1,20.154,128.223Z" transform="translate(0 0)" fill-rule="evenodd"/>
    </g>
</svg>
