<svg id="Компонент_1948_1" data-name="Компонент 1948 – 1" xmlns="http://www.w3.org/2000/svg" width="239.651" height="82.198" viewBox="0 0 239.651 82.198">
    <g id="Прямоугольник_234"
       fill="#b7b7b7"
       stroke="#e4e4e5"
       stroke-width="1"
    >
        <path d="M12,0H239.651a0,0,0,0,1,0,0V82.2a0,0,0,0,1,0,0H12a12,12,0,0,1-12-12V12A12,12,0,0,1,12,0Z" stroke="none"/>
        <path d="M12,.5H239.151a0,0,0,0,1,0,0V81.7a0,0,0,0,1,0,0H12A11.5,11.5,0,0,1,.5,70.2V12A11.5,11.5,0,0,1,12,.5Z" fill="none"/>
    </g>
    <g id="ios-calculator-outline" transform="translate(57.641 12.781)">
        <path id="Контур_22" d="M54.72,45.92H86.081V36.48H54.72Zm2.24-7.08H83.841v4.72H56.96Z" transform="translate(-50.24 -31.76)"/>
        <path id="Контур_23" d="M78.4,24.32H47.04a4.6,4.6,0,0,0-4.48,4.72v47.2a4.6,4.6,0,0,0,4.48,4.72H78.4a4.6,4.6,0,0,0,4.48-4.72V29.04A4.6,4.6,0,0,0,78.4,24.32Zm2.24,51.917A2.309,2.309,0,0,1,78.4,78.6H47.04a2.309,2.309,0,0,1-2.24-2.36V29.04a2.309,2.309,0,0,1,2.24-2.36H78.4a2.309,2.309,0,0,1,2.24,2.36Z" transform="translate(-42.56 -24.32)"/>
        <path id="Контур_24" d="M56.96,80.04V72.96H54.72V82.4h8.96V80.04H56.96Z" transform="translate(-50.24 -54.081)"/>
        <path id="Контур_25" d="M56.96,110.44v-7.08H54.72v9.44h8.96v-2.36H56.96Z" transform="translate(-50.24 -72.681)"/>
        <path id="Контур_26" d="M56.96,140.84v-7.08H54.72v9.44h8.96v-2.36H56.96Z" transform="translate(-50.24 -91.282)"/>
        <path id="Контур_27" d="M87.36,80.04V72.96H85.12V82.4h8.96V80.04H87.36Z" transform="translate(-69.439 -54.081)"/>
        <path id="Контур_28" d="M117.76,80.04V72.96h-2.24V82.4h8.96V80.04h-6.72Z" transform="translate(-88.639 -54.081)"/>
        <path id="Контур_29" d="M87.36,110.44v-7.08H85.12v9.44h8.96v-2.36H87.36Z" transform="translate(-69.439 -72.681)"/>
        <path id="Контур_30" d="M87.36,140.84v-7.08H85.12v9.44h8.96v-2.36H87.36Z" transform="translate(-69.439 -91.282)"/>
        <path id="Контур_31" d="M117.76,122.239V103.36h-2.24V124.6h8.96v-2.36h-6.72Z" transform="translate(-88.639 -72.681)"/>
    </g>
</svg>
