<svg id="Компонент_1951_1" data-name="Компонент 1951 – 1" xmlns="http://www.w3.org/2000/svg" width="178" height="82" viewBox="0 0 178 82">
    <g id="Прямоугольник_1567" fill="#228b57" stroke="#fff" stroke-width="1">
        <path d="M0,0H166a12,12,0,0,1,12,12V70a12,12,0,0,1-12,12H0a0,0,0,0,1,0,0V0A0,0,0,0,1,0,0Z" stroke="none"/>
        <path d="M.5.5H166A11.5,11.5,0,0,1,177.5,12V70A11.5,11.5,0,0,1,166,81.5H.5a0,0,0,0,1,0,0V.5A0,0,0,0,1,.5.5Z" fill="none"/>
    </g>
    <g id="Сгруппировать_646" transform="translate(1.798 2.669)">
        <ellipse id="Эллипс_4" cx="3.581" cy="3.773" rx="3.581" ry="3.773" transform="translate(74.518 58.467)"/>
        <ellipse id="Эллипс_5" cx="3.581" cy="3.773" rx="3.581" ry="3.773" transform="translate(101.116 58.467)"/>
        <path id="Контур_34" d="M9.269,13.577A1.889,1.889,0,0,0,7.445,12H0v3.922H5.918l7.147,37.643a1.888,1.888,0,0,0,1.824,1.577h33.5V51.22H16.415l-1.489-7.844H48.39a1.886,1.886,0,0,0,1.816-1.535L54.427,21.8h-3.81L46.9,39.454H14.182Z" transform="translate(59.988 -1.351)"/>
    </g>
</svg>
