<svg id="Компонент_1950_6" data-name="Компонент 1950 – 6" xmlns="http://www.w3.org/2000/svg" width="171.848" height="82.198" viewBox="0 0 171.848 82.198">
    <g id="Объединение_1" fill="#F2F0E7">
        <path d="M 164.1415100097656 81.69699096679688 L 0.5000075697898865 81.69699096679688 L 0.5000075697898865 51.20931243896484 C 0.653870165348053 51.09535980224609 0.7930311560630798 50.94646835327148 0.9159858226776123 50.7639274597168 L 8.104789733886719 40.04957962036133 C 8.651616096496582 39.2321891784668 8.651529312133789 37.95327377319336 8.105007171630859 37.13742828369141 L 0.9165076017379761 26.42264556884766 C 0.7926535606384277 26.23953628540039 0.6534044742584229 26.09060478210449 0.5000075697898865 25.97676849365234 L 0.5000075697898865 0.4999929070472717 L 164.1415100097656 0.4999929070472717 L 164.1415100097656 27.1625804901123 L 164.1415100097656 27.31479644775391 L 164.226318359375 27.44118881225586 L 171.1059265136719 37.69340515136719 C 171.4266204833984 38.17245101928711 171.4266815185547 39.01299285888672 171.1057891845703 39.4916877746582 L 164.226318359375 49.74370956420898 L 164.1415100097656 49.87010192871094 L 164.1415100097656 50.02231979370117 L 164.1415100097656 81.69699096679688 Z" stroke="none"/>
        <path d="M 163.6415100097656 81.19699096679688 L 163.6415100097656 49.7178840637207 L 170.6904907226562 39.21329879760742 C 170.9003601074219 38.90018844604492 170.9001770019531 38.28488540649414 170.6907501220703 37.97201538085938 L 163.6415100097656 27.46701431274414 L 163.6415100097656 0.9999929070472717 L 1.000007629394531 0.9999929070472717 L 1.000007629394531 25.74628067016602 C 1.119416952133179 25.86118125915527 1.230124354362488 25.99386787414551 1.331725001335144 26.14407920837402 L 8.52039909362793 36.85914611816406 C 9.182247161865234 37.84712219238281 9.182398796081543 39.33799362182617 8.520007133483887 40.32814407348633 L 1.330681443214417 51.04325485229492 C 1.229930996894836 51.19284057617188 1.119518280029297 51.32529830932617 1.000007629394531 51.44016265869141 L 1.000007629394531 81.19699096679688 L 163.6415100097656 81.19699096679688 M 164.6415100097656 82.19790649414062 L 164.6415100097656 82.19699096679688 L 7.581627869512886e-06 82.19699096679688 L 7.581627869512886e-06 50.92110061645508 C 0.1881162822246552 50.84640502929688 0.35639888048172 50.69971084594727 0.5012902021408081 50.48460006713867 L 7.689594745635986 39.77099227905273 C 8.124290466308594 39.12121200561523 8.124290466308594 38.06460189819336 7.689594745635986 37.41571044921875 L 0.5012902021408081 26.70121002197266 C 0.35639888048172 26.48699378967285 0.1881162822246552 26.33940505981445 7.581627869512886e-06 26.26470947265625 L 7.581627869512886e-06 -7.089366135915043e-06 L 164.6415100097656 -7.089366135915043e-06 L 164.6415100097656 27.1625804901123 L 171.5211181640625 37.41479873657227 C 171.9567108154297 38.06549453735352 171.9567108154297 39.12029647827148 171.5211181640625 39.77010345458984 L 164.6415100097656 50.02231979370117 L 164.6415100097656 82.19790649414062 Z" stroke="none" fill="#8d8d8a"/>
    </g>
    <g id="flag-finish-b-o" transform="translate(62.562 15.043)">
        <path id="Контур_32" d="M91.143,0A1.915,1.915,0,0,0,89.28,1.962V46.817a1.865,1.865,0,1,0,3.726,0V26.352h22.886a1.915,1.915,0,0,0,1.863-1.962V1.962A1.915,1.915,0,0,0,115.891,0H91.409q-.068,0-.135.006T91.143,0Zm7.345,3.925H103.7V8.091h5.216V3.925h5.109V8.091h-5.109v5.494h5.109V19.08h-5.109v3.348H103.7V19.08H98.487v3.347H93.272V19.08h5.216v-5.5H93.272V8.09h5.216Zm0,4.166v5.494H103.7V8.09H98.487Zm5.216,5.494V19.08h5.216V13.585Z" transform="translate(-75.176 0)"/>
        <path id="Контур_33" d="M47.982,147.441c-5.638.84-9.582,2.848-9.582,5.8,0,3.981,6.589,7.209,15.967,7.209s15.967-3.227,15.967-7.209c0-2.956-3.944-4.964-9.582-5.8l-.781,1.4c4.25.621,7.17,1.927,7.17,3.441,0,2.123-5.719,3.845-12.773,3.845s-12.773-1.721-12.773-3.845c0-1.509,2.9-2.814,7.163-3.437Q48.37,148.143,47.982,147.441Z" transform="translate(-38.4 -104.385)"/>
    </g>
</svg>
