<svg id="Компонент_1950_1" data-name="Компонент 1950 – 1" xmlns="http://www.w3.org/2000/svg" width="171.848" height="82.198" viewBox="0 0 171.848 82.198">
    <g id="Объединение_1" fill="#ac63ff">
        <path d="M 164.1421966552734 81.697265625 L 0.4999957680702209 81.697265625 L 0.4999957680702209 51.20936584472656 C 0.6550307869911194 51.09479522705078 0.7944280505180359 50.94522857666016 0.9165827035903931 50.76203155517578 L 8.104496002197266 40.04944229125977 C 8.65145206451416 39.23272705078125 8.65145206451416 37.95370483398438 8.104756355285645 37.13729095458984 L 0.9157783985137939 26.42316055297852 C 0.793714165687561 26.24010467529297 0.6545513272285461 26.09069442749023 0.4999957680702209 25.97648620605469 L 0.4999957680702209 0.500008225440979 L 164.1421966552734 0.500008225440979 L 164.1421966552734 27.16300773620605 L 164.1421966552734 27.31520462036133 L 164.2269897460938 27.44159507751465 L 171.10595703125 37.69407272338867 C 171.4269256591797 38.1725959777832 171.4268188476562 39.01309585571289 171.1056976318359 39.49266052246094 L 164.2269897460938 49.74374771118164 L 164.1421966552734 49.87014007568359 L 164.1421966552734 50.02235794067383 L 164.1421966552734 81.697265625 Z" stroke="none"/>
        <path d="M 163.6421966552734 81.197265625 L 163.6421966552734 49.71794128417969 L 170.6902313232422 39.21444320678711 C 170.9003601074219 38.90063858032227 170.9005889892578 38.28548812866211 170.6907348632812 37.97266006469727 L 163.6421966552734 27.46739959716797 L 163.6421966552734 1.000008225440979 L 0.9999957680702209 1.000008225440979 L 0.9999957680702209 25.74541282653809 C 1.12015688419342 25.86094284057617 1.230690360069275 25.99419021606445 1.330973982810974 26.14457321166992 L 8.52021312713623 36.85909652709961 C 9.182234764099121 37.84772491455078 9.182212829589844 39.33872604370117 8.519691467285156 40.32802963256836 L 1.332582712173462 51.03942108154297 C 1.231767654418945 51.19061279296875 1.120707988739014 51.3244514465332 0.9999957680702209 51.44043350219727 L 0.9999957680702209 81.197265625 L 163.6421966552734 81.197265625 M 164.6421966552734 82.19835662841797 L 164.6421966552734 82.197265625 L -4.230001650284976e-06 82.197265625 L -4.230001650284976e-06 50.92087936401367 C 0.1883218586444855 50.84585571289062 0.3569305539131165 50.7000732421875 0.500582754611969 50.48463821411133 L 7.689300060272217 39.77085494995117 C 8.124235153198242 39.12139892578125 8.124235153198242 38.06501007080078 7.689300060272217 37.41548538208008 L 0.500582754611969 26.70174789428711 C 0.3569305539131165 26.4863338470459 0.1883218586444855 26.33946418762207 -4.230001650284976e-06 26.2654857635498 L -4.230001650284976e-06 8.215863090299536e-06 L 164.6421966552734 8.215863090299536e-06 L 164.6421966552734 27.16300773620605 L 171.5211486816406 37.41548538208008 C 171.9568176269531 38.06501007080078 171.9568176269531 39.12024688720703 171.5211486816406 39.77085494995117 L 164.6421966552734 50.02235794067383 L 164.6421966552734 82.19835662841797 Z" stroke="none" fill="#eaeaeb"/>
    </g>
    <g id="flag-finish-b-o" transform="translate(62.562 15.043)">
        <path id="Контур_32" d="M91.143,0A1.915,1.915,0,0,0,89.28,1.962V46.817a1.865,1.865,0,1,0,3.726,0V26.352h22.886a1.915,1.915,0,0,0,1.863-1.962V1.962A1.915,1.915,0,0,0,115.891,0H91.409q-.068,0-.135.006T91.143,0Zm7.345,3.925H103.7V8.091h5.216V3.925h5.109V8.091h-5.109v5.494h5.109V19.08h-5.109v3.348H103.7V19.08H98.487v3.347H93.272V19.08h5.216v-5.5H93.272V8.09h5.216Zm0,4.166v5.494H103.7V8.09H98.487Zm5.216,5.494V19.08h5.216V13.585Z" transform="translate(-75.176 0)"/>
        <path id="Контур_33" d="M47.982,147.441c-5.638.84-9.582,2.848-9.582,5.8,0,3.981,6.589,7.209,15.967,7.209s15.967-3.227,15.967-7.209c0-2.956-3.944-4.964-9.582-5.8l-.781,1.4c4.25.621,7.17,1.927,7.17,3.441,0,2.123-5.719,3.845-12.773,3.845s-12.773-1.721-12.773-3.845c0-1.509,2.9-2.814,7.163-3.437Q48.37,148.143,47.982,147.441Z" transform="translate(-38.4 -104.385)"/>
    </g>
</svg>
