<svg id="Компонент_1949_1" data-name="Компонент 1949 – 1" xmlns="http://www.w3.org/2000/svg" width="237.46" height="82.198" viewBox="0 0 237.46 82.198">
    <g id="Объединение_1" fill="#fc0">
        <path d="M 227.0027923583984 81.69759368896484 L 0.4999993145465851 81.69759368896484 L 0.4999993145465851 51.25680541992188 C 0.7047186493873596 51.14995193481445 0.8922290802001953 51.00521469116211 1.060263991355896 50.82400512695312 L 10.99308776855469 40.1108283996582 C 11.76755809783936 39.27297592163086 11.76744079589844 37.91159439086914 10.99332237243652 37.07550811767578 L 1.060293436050415 26.36209487915039 C 0.8924382925033569 26.18107414245605 0.7049346566200256 26.0362434387207 0.4999993145465851 25.92899703979492 L 0.4999993145465851 0.5000065565109253 L 227.0027923583984 0.5000065565109253 L 227.0027923583984 27.16288948059082 L 227.0027923583984 27.35900688171387 L 227.1361236572266 27.50283050537109 L 236.6407012939453 37.75515365600586 C 237.0690307617188 38.21683120727539 237.0689086914062 38.96862411499023 236.6405639648438 39.43112564086914 L 227.1361389160156 49.68227005004883 L 227.0027923583984 49.82609558105469 L 227.0027923583984 50.02221298217773 L 227.0027923583984 81.69759368896484 Z" stroke="none"/>
        <path d="M 226.5027770996094 81.19761657714844 L 226.5027770996094 49.62995529174805 L 236.2737426757812 39.09139251708984 C 236.5198059082031 38.82570648193359 236.5200805664062 38.36023712158203 236.2740478515625 38.09505081176758 L 226.5027770996094 27.55508232116699 L 226.5027770996094 0.9999881386756897 L 1.000019550323486 0.9999881386756897 L 1.000019550323486 25.64867782592773 C 1.15212094783783 25.75485610961914 1.294684767723083 25.87950134277344 1.426957011222839 26.02214431762695 L 11.36023807525635 36.73583221435547 C 12.32367610931396 37.77639389038086 12.32392597198486 39.40770721435547 11.35976982116699 40.45080184936523 L 1.426925778388977 51.16399002075195 C 1.294564127922058 51.30672454833984 1.152032971382141 51.43133163452148 1.000019550323486 51.53738021850586 L 1.000019550323486 81.19761657714844 L 226.5027770996094 81.19761657714844 M 227.5027770996094 82.19761657714844 L 1.953124956344254e-05 82.19761657714844 L 1.953124956344254e-05 50.9205207824707 C 0.2599882781505585 50.84654998779297 0.4937382936477661 50.69964599609375 0.6936445236206055 50.48405075073242 L 10.62645721435547 39.77089309692383 C 11.22723865509033 39.12092590332031 11.22723865509033 38.06408309936523 10.62645721435547 37.41520690917969 L 0.6936445236206055 26.70205116271973 C 0.4937382936477661 26.48645782470703 0.2599882781505585 26.33955001831055 1.953124956344254e-05 26.26451873779297 L 1.953124956344254e-05 -1.184082066174597e-05 L 227.5027770996094 -1.184082066174597e-05 L 227.5027770996094 27.16286277770996 L 237.0074005126953 37.41520690917969 C 237.6103668212891 38.06514358520508 237.6103668212891 39.1198616027832 237.0074005126953 39.77089309692383 L 227.5027770996094 50.0222053527832 L 227.5027770996094 82.19761657714844 Z" stroke="none" fill="#eaeaeb"/>
    </g>
    <g id="Контур_19" transform="translate(21.648 -10.672)" fill="none" stroke-linecap="square" fill-rule="evenodd">
        <path d="M66.48,24A1.391,1.391,0,0,1,67.8,25.455v.1a12.432,12.432,0,0,1,8.325,4.4A10.736,10.736,0,0,1,78.476,35.1l.142.121c1.48,1.268,2.566,2.8,2.308,4.567A4.745,4.745,0,0,1,77.99,43.16q-.492.239-1,.431a12.029,12.029,0,0,1-5.04,10.732,9.682,9.682,0,0,1-10.938,0,12.029,12.029,0,0,1-5.04-10.732q-.509-.191-1-.431a4.745,4.745,0,0,1-2.936-3.372c-.258-1.763.828-3.3,2.308-4.567l.167-.143q.051-.348.126-.69a11.531,11.531,0,0,1,1.858-4.153,11.246,11.246,0,0,1,8.67-4.751v-.029A1.391,1.391,0,0,1,66.48,24ZM76.566,39.2a1.247,1.247,0,0,0,1.517-.518,1.085,1.085,0,0,1,.245.646c-.017.116-.219.6-1.4,1.176a19.133,19.133,0,0,1-5.842,1.441,4.609,4.609,0,1,0-9.206,0A19.133,19.133,0,0,1,56.036,40.5c-1.184-.579-1.385-1.06-1.4-1.176a1.088,1.088,0,0,1,.245-.646,1.241,1.241,0,0,0,1.688.437,1.526,1.526,0,0,0,.616-1.792,4.435,4.435,0,0,1,.012-2.246,8.492,8.492,0,0,1,1.372-3.043l.014-.02v2.9a1.323,1.323,0,1,0,2.633,0V29.6a9.15,9.15,0,0,1,3.95-1.2v3.605a1.323,1.323,0,1,0,2.633,0V28.484a10.48,10.48,0,0,1,3.95,1.354v5.078a1.323,1.323,0,1,0,2.633,0V32.178a6.11,6.11,0,0,1,1.4,5.154A1.5,1.5,0,0,0,76.566,39.2Zm-13.42,6.513a33.633,33.633,0,0,1-4.54-.633c.328,4.539,3.755,8.039,7.875,8.039s7.547-3.5,7.875-8.039a33.649,33.649,0,0,1-4.54.633,4.311,4.311,0,0,1-6.67,0Zm5.31-3.515a1.985,1.985,0,1,1-1.975-2.183A2.087,2.087,0,0,1,68.455,42.194Z" stroke="none"/>
        <path d="M 66.48048400878906 24.00000381469727 C 67.20763397216797 24.00000381469727 67.79711151123047 24.65165328979492 67.79711151123047 25.45549392700195 L 67.79711151123047 25.55447387695312 C 71.48102569580078 25.97948455810547 74.29202270507812 27.73045349121094 76.12212371826172 29.95882415771484 C 77.38081359863281 31.49146270751953 78.21424865722656 33.31812286376953 78.47624206542969 35.09966278076172 L 78.61845397949219 35.22046279907227 C 80.09833526611328 36.48821258544922 81.18453979492188 38.02521514892578 80.92649841308594 39.78783416748047 C 80.67765808105469 41.49076461791992 79.28596496582031 42.52708435058594 77.99042510986328 43.16022491455078 C 77.66270446777344 43.31989288330078 77.328857421875 43.4636344909668 76.98978424072266 43.5910530090332 C 77.25339508056641 47.92793273925781 75.30999755859375 52.06606292724609 71.94966125488281 54.32302093505859 C 68.58932495117188 56.57998657226562 64.37162780761719 56.57998657226562 61.01129150390625 54.32302093505859 C 57.65098571777344 52.06606292724609 55.70756530761719 47.92793273925781 55.97118377685547 43.5910530090332 C 55.63212585449219 43.4636344909668 55.29825592041016 43.31989288330078 54.97055053710938 43.16022491455078 C 53.67498779296875 42.52708435058594 52.28331756591797 41.49076461791992 52.03447723388672 39.78783416748047 C 51.77642059326172 38.02521514892578 52.86263275146484 36.48821258544922 54.34251403808594 35.22046279907227 L 54.50972747802734 35.07782363891602 C 54.54371643066406 34.84612274169922 54.58588409423828 34.61597442626953 54.63613128662109 34.38791275024414 C 54.98252105712891 32.87397384643555 55.61573028564453 31.45858383178711 56.49388122558594 30.2353630065918 C 58.25816345214844 27.74937438964844 61.14551544189453 25.74077224731445 65.16385650634766 25.48461151123047 L 65.16385650634766 25.45549392700195 C 65.16385650634766 24.65165328979492 65.75332641601562 24.00000381469727 66.48048400878906 24.00000381469727 Z M 66.48048400878906 33.46076202392578 C 65.75332641601562 33.46076202392578 65.16385650634766 32.80911254882812 65.16385650634766 32.00526428222656 L 65.16385650634766 28.39997482299805 C 63.60629272460938 28.52224349975586 62.29625701904297 28.96471405029297 61.21398162841797 29.59785461425781 L 61.21398162841797 34.91626358032227 C 61.21398162841797 35.72011184692383 60.62451171875 36.37176513671875 59.89736175537109 36.37176513671875 C 59.17020416259766 36.37176513671875 58.58073425292969 35.72011184692383 58.58073425292969 34.91626358032227 L 58.58073425292969 32.01253509521484 L 58.56624603271484 32.03291320800781 C 57.91996765136719 32.92913436889648 57.45243072509766 33.96630477905273 57.19432067871094 35.07636260986328 C 56.97576141357422 36.06901168823242 57.02447509765625 36.85062408447266 57.18248748779297 37.32220458984375 C 57.41204071044922 38.00565338134766 57.14879608154297 38.77143478393555 56.56657409667969 39.11384201049805 C 55.98436737060547 39.45624923706055 55.26278686523438 39.26964950561523 54.87838745117188 38.67727279663086 C 54.61900329589844 39.07900238037109 54.62822723388672 39.29004287719727 54.63348388671875 39.32352447509766 C 54.65060424804688 39.43996429443359 54.85205078125 39.92027282714844 56.03569030761719 40.49956512451172 C 57.41683197021484 41.17492294311523 59.49446105957031 41.66396331787109 61.8775634765625 41.94051361083984 C 61.9951171875 39.22479248046875 64.02108764648438 37.0897331237793 66.48049163818359 37.0897331237793 C 68.93989562988281 37.0897331237793 70.96586608886719 39.22479248046875 71.08338928222656 41.94051361083984 C 73.46650695800781 41.66396331787109 75.54412841796875 41.17492294311523 76.92527770996094 40.49956512451172 C 78.10891723632812 39.92027282714844 78.31036376953125 39.43996429443359 78.32746887207031 39.32352447509766 C 78.33274841308594 39.29004287719727 78.34194946289062 39.07754516601562 78.08258056640625 38.67727279663086 C 77.73863220214844 39.20542144775391 77.11933898925781 39.41698837280273 76.56582641601562 39.19544219970703 C 75.88252258300781 38.921875 75.5289306640625 38.08800506591797 75.77584838867188 37.33239364624023 C 76.16030883789062 36.1534423828125 75.84957885742188 34.10991287231445 74.38023376464844 32.17846298217773 L 74.38023376464844 34.91626358032227 C 74.38023376464844 35.72011184692383 73.79075622558594 36.37176513671875 73.06361389160156 36.37176513671875 C 72.33644104003906 36.37176513671875 71.74697875976562 35.72011184692383 71.74697875976562 34.91626358032227 L 71.74697875976562 29.8380241394043 C 70.65154266357422 29.18595504760742 69.33756256103516 28.6983642578125 67.79711151123047 28.48440170288086 L 67.79711151123047 32.00526428222656 C 67.79711151123047 32.80911254882812 67.20763397216797 33.46076202392578 66.48048400878906 33.46076202392578 Z M 66.48048400878906 44.37702178955078 C 67.57120513916016 44.37702178955078 68.45541381835938 43.39955139160156 68.45541381835938 42.19377517700195 C 68.45541381835938 40.98800277709961 67.57120513916016 40.01052474975586 66.48048400878906 40.01052474975586 C 65.38975524902344 40.01052474975586 64.50554656982422 40.98800277709961 64.50554656982422 42.19377517700195 C 64.50554656982422 43.39955139160156 65.38975524902344 44.37702178955078 66.48048400878906 44.37702178955078 Z M 66.48049163818359 53.11422348022461 C 70.59979248046875 53.11422348022461 74.02764892578125 49.61505126953125 74.35520935058594 45.07566452026367 C 72.95960235595703 45.37841415405273 71.41387939453125 45.58800506591797 69.81549072265625 45.70881271362305 C 68.94682312011719 46.71862411499023 67.74144744873047 47.29114151000977 66.48048400878906 47.28803253173828 C 65.22222137451172 47.28972244262695 64.01413726806641 46.71863555908203 63.14547729492188 45.70881271362305 C 61.62186431884766 45.6015625 60.10572052001953 45.39010238647461 58.60575103759766 45.0756721496582 C 58.93331146240234 49.61505126953125 62.36118316650391 53.11422348022461 66.48049163818359 53.11422348022461 Z" stroke="none" fill="#000"/>
    </g>
    <g id="Контур_21" transform="translate(39.457 -65.112)" fill="none" stroke-linecap="square" fill-rule="evenodd">
        <path d="M42.55,113.6l4.751,3.784h2.741l4.751-3.784c8.354,1.421,18.55,5.371,18.55,11.062v8.733H24v-8.733C24,118.971,34.2,115.021,42.55,113.6Zm8.406,6.7,4.537-3.614c1.375.268,2.774.6,4.143,1v12.8h2.741V118.571c.959.349,1.879.729,2.741,1.138v10.775h-32.9V119.709c.862-.408,1.782-.789,2.741-1.138v11.913h2.741v-12.8c1.369-.394,2.769-.731,4.143-1l4.537,3.614Zm18.693,2.46a2.92,2.92,0,0,1,.953,1.907v5.822H67.86V121.25a10.066,10.066,0,0,1,1.789,1.506Zm-41.955,0a10.227,10.227,0,0,1,1.789-1.5v9.234H26.741v-5.822A2.913,2.913,0,0,1,27.694,122.755Z" stroke="none"/>
        <path d="M 42.55004501342773 113.5999908447266 L 47.30062484741211 117.3843078613281 L 50.04188537597656 117.3843078613281 L 54.79247283935547 113.5999908447266 C 63.14643478393555 115.0205535888672 73.342529296875 118.9707946777344 73.342529296875 124.6618194580078 L 73.342529296875 133.3948059082031 L 23.99999237060547 133.3948059082031 L 23.99999237060547 124.6618194580078 C 23.99999237060547 118.9707946777344 34.19608306884766 115.0205535888672 42.55004501342773 113.5999908447266 Z M 50.95609283447266 120.2953033447266 L 46.38642501831055 120.2953033447266 L 41.84965515136719 116.6812896728516 C 40.47491455078125 116.9490966796875 39.07551574707031 117.2853240966797 37.70625305175781 117.6797637939453 L 37.70625305175781 130.4838256835938 L 34.96500396728516 130.4838256835938 L 34.96500396728516 118.5705261230469 C 34.00556564331055 118.9198608398438 33.08587646484375 119.3011932373047 32.2237548828125 119.7087326049805 L 32.2237548828125 130.4838256835938 L 65.11875915527344 130.4838256835938 L 65.11875915527344 119.7087326049805 C 64.25664520263672 119.2997436523438 63.33695602416992 118.9198608398438 62.37751388549805 118.5705261230469 L 62.37751388549805 130.4838256835938 L 59.63626480102539 130.4838256835938 L 59.63626480102539 117.6797637939453 C 58.26701354980469 117.2853240966797 56.86759567260742 116.9491119384766 55.49285507202148 116.6812896728516 L 50.95609283447266 120.2953033447266 Z M 29.48249816894531 130.4838256835938 L 29.48249816894531 121.2501068115234 C 28.74372100830078 121.7537078857422 28.14614105224609 122.2602233886719 27.69383239746094 122.7550964355469 C 26.91943359375 123.6051177978516 26.74124145507812 124.2324371337891 26.74124145507812 124.6618194580078 L 26.74124145507812 130.4838256835938 L 29.48249816894531 130.4838256835938 Z M 69.648681640625 122.7565689086914 C 69.19776916503906 122.2602233886719 68.60016632080078 121.7537078857422 67.86002349853516 121.2501068115234 L 67.86002349853516 130.4838256835938 L 70.60127258300781 130.4838256835938 L 70.60127258300781 124.6618194580078 C 70.60127258300781 124.2324371337891 70.42171478271484 123.6051177978516 69.648681640625 122.7550964355469 L 69.648681640625 122.7565689086914 Z" stroke="none" fill="#000"/>
    </g>
</svg>
