<?xml version="1.0" encoding="iso-8859-1"?>
<!-- Uploaded to: SVG Repo, www.svgrepo.com, Generator: SVG Repo Mixer Tools -->
<svg height="800px" width="800px" version="1.1" id="Layer_1" xmlns="http://www.w3.org/2000/svg" xmlns:xlink="http://www.w3.org/1999/xlink" 
	 viewBox="0 0 512 512" xml:space="preserve">
<!--<path style="fill:#32BEA6;" d="M222.752,512v-59.568c-42.048-1.888-82.816-13.184-106.688-26.976l18.848-73.424-->
<!--	c26.368,14.416,63.36,27.584,104.176,27.584c35.76,0,60.24-13.792,60.24-38.88c0-23.856-20.08-38.928-66.528-54.624-->
<!--	c-67.136-22.576-112.96-53.952-112.96-114.8c0-55.232,38.928-98.512,106.064-111.696V0h61.472v55.232-->
<!--	c42.048,1.888,70.304,10.624,90.992,20.688l-18.192,70.912c-16.304-6.896-45.168-21.36-90.384-21.36-->
<!--	c-40.768,0-53.952,17.568-53.952,35.152c0,20.688,21.968,33.872,75.312,53.952c74.64,26.368,104.784,60.848,104.784,117.36-->
<!--	c0,55.84-39.552,103.52-111.696,116.08V512H222.752z"/>-->
<!--</svg>-->
<path fill="#000000" d="M505.403,120.573c-2.474-5.96-6.696-10.352-12.604-12.66V22.394c0-8.947-5.653-17.051-13.982-19.795
	c-8.315-2.744-17.603,0.506-22.373,7.813l-65.504,101.053c-9.581,14.814-29.138,23.277-50.442,23.277H256V0h-86.667v122.588H160
	c-35.346,0-64,28.654-64,64v21.332H0v106.667h96v213.333h106.667v-192h42.667c35.346,0,64-28.654,64-64v-42.667
	c27.733,0,52.373-14.933,64.964-37.302L372.449,499.47c2.211,4.183,6.38,7.153,11.208,7.871c0.852,0.119,1.734,0.191,2.618,0.191
	c3.717,0,7.115-1.447,9.634-3.925L508.7,132.603C510.278,129.639,510.97,126.229,505.403,120.573z M352,192c-11.782,0-21.333-9.551-21.333-21.333
	s9.551-21.333,21.333-21.333s21.333,9.551,21.333,21.333S363.782,192,352,192z"/>
		</svg>