<svg xmlns="http://www.w3.org/2000/svg" width="172" height="25" viewBox="0 0 172 25"><defs><style>.a{fill:#a10000;}.b,.c{stroke:none;}.c{fill:#707070;}</style></defs><g class="a"><path class="b" d="M 168 24.5 L 4 24.5 C 2.07008695602417 24.5 0.5 22.92991256713867 0.5 21 L 0.5 4 C 0.5 2.07008695602417 2.07008695602417 0.5 4 0.5 L 168 0.5 C 169.9299163818359 0.5 171.5 2.07008695602417 171.5 4 L 171.5 21 C 171.5 22.92991256713867 169.9299163818359 24.5 168 24.5 Z"/><path class="c" d="M 4 1 C 2.345809936523438 1 1 2.345804214477539 1 4 L 1 21 C 1 22.65419578552246 2.345809936523438 24 4 24 L 168 24 C 169.6541900634766 24 171 22.65419578552246 171 21 L 171 4 C 171 2.345804214477539 169.6541900634766 1 168 1 L 4 1 M 4 0 L 168 0 C 170.2091369628906 0 172 1.790868759155273 172 4 L 172 21 C 172 23.20913124084473 170.2091369628906 25 168 25 L 4 25 C 1.790863037109375 25 0 23.20913124084473 0 21 L 0 4 C 0 1.790868759155273 1.790863037109375 0 4 0 Z"/></g></svg>