<svg xmlns="http://www.w3.org/2000/svg" width="82.4" height="102.5" viewBox="0 0 82.4 102.5"><defs><style>.a,.b{fill:none;stroke:#000;stroke-linejoin:round;stroke-width:2px;}.a{stroke-linecap:round;}</style></defs><g transform="translate(1 1)"><path class="a" d="M6,13.05v80.4A10.05,10.05,0,0,0,16.05,103.5h60.3A10.05,10.05,0,0,0,86.4,93.45V34.869a10.049,10.049,0,0,0-3.024-7.185L61.064,5.864A10.05,10.05,0,0,0,54.039,3H16.05A10.05,10.05,0,0,0,6,13.05Z" transform="translate(-6 -3)"/><path class="b" d="M21,3V23.1A10.05,10.05,0,0,0,31.05,33.15h20.1" transform="translate(29.25 -3)"/></g></svg>