<svg xmlns="http://www.w3.org/2000/svg" width="145.541" height="134.238" viewBox="0 0 145.541 134.238"><path d="M146.748,30.588a12.366,12.366,0,0,1,1.573,11.274l-24.034,79.179a18.052,18.052,0,0,1-6.686,9.395,17.436,17.436,0,0,1-10.706,3.8H26.231a21.394,21.394,0,0,1-12.978-4.676,24.549,24.549,0,0,1-8.7-11.492,15.852,15.852,0,0,1-.175-11.1q0-.35.262-2.36t.35-3.234A4.862,4.862,0,0,0,4.732,99.5a4.328,4.328,0,0,1-.262-1.7,5.434,5.434,0,0,1,.7-1.835,21.377,21.377,0,0,1,1.442-2.054,21.378,21.378,0,0,0,1.442-2.054,58.545,58.545,0,0,0,3.933-8,47.437,47.437,0,0,0,2.622-8,6.819,6.819,0,0,0,.044-2.622,7.677,7.677,0,0,1-.044-2.447,7.324,7.324,0,0,1,1.486-2.447,14.4,14.4,0,0,0,1.486-2.01,53.467,53.467,0,0,0,3.671-8.04,35.768,35.768,0,0,0,2.185-7.866,12.639,12.639,0,0,0-.218-2.8q-.306-2.01.044-2.447a7.01,7.01,0,0,1,1.923-2.666q1.573-1.529,1.923-1.966a36.067,36.067,0,0,0,3.714-7.385,33.121,33.121,0,0,0,2.4-8.434A7.232,7.232,0,0,0,32.96,22.5a5.675,5.675,0,0,1-.175-2.316,4.937,4.937,0,0,1,.787-1.573q.612-.874,1.573-2.01t1.486-1.835A19.689,19.689,0,0,0,38.073,12.1q.743-1.617,1.311-3.059t1.4-3.146a15.035,15.035,0,0,1,1.7-2.8A10.116,10.116,0,0,1,44.8,1.049,5.837,5.837,0,0,1,47.948.044,18.128,18.128,0,0,1,52.1.524l-.087.262A24.336,24.336,0,0,1,56.469,0h66.507a11.511,11.511,0,0,1,9.963,4.894q3.5,4.894,1.573,11.361L110.567,95.435q-3.146,10.4-6.249,13.415t-11.23,3.015H17.142a3.852,3.852,0,0,0-3.321,1.311,3.986,3.986,0,0,0-.087,3.758q2.1,6.118,12.585,6.118h80.665a9.7,9.7,0,0,0,4.894-1.355,6.272,6.272,0,0,0,3.059-3.627l26.218-86.258a14.115,14.115,0,0,0,.437-4.981A11.556,11.556,0,0,1,146.748,30.588Z" transform="translate(-3.463)"/></svg>