<svg xmlns="http://www.w3.org/2000/svg" width="122.999" height="122.999" viewBox="0 0 122.999 122.999"><g transform="translate(-5.055 -15.165)"><path d="M128.054,76.664a61.5,61.5,0,1,1-61.5-61.5A61.5,61.5,0,0,1,128.054,76.664ZM105.96,59.083a6.173,6.173,0,0,0-6.15-6.15H84.02V51a6.165,6.165,0,0,0-6.15-6.15H55.346A6.165,6.165,0,0,0,49.2,51v1.922H33.391a6.165,6.165,0,0,0-6.15,6.15V98.789a6.165,6.165,0,0,0,6.15,6.15H99.8a6.173,6.173,0,0,0,6.15-6.15ZM85.266,78.932A18.657,18.657,0,1,1,66.6,60.275,18.657,18.657,0,0,1,85.266,78.932Zm-31.172,0a12.491,12.491,0,1,1,.008,0Zm21.14-30.219a3.075,3.075,0,1,0,3.075,3.075A3.075,3.075,0,0,0,75.233,48.713Z"/></g></svg>