<svg xmlns="http://www.w3.org/2000/svg" width="24.546" height="28.565" viewBox="0 0 24.546 28.565"><defs><style>.a{fill:#3c60a6;}</style></defs><rect class="a" width="28.565" height="24.546" transform="translate(24.546) rotate(90)"/><g transform="translate(2.946 1.964)"><path d="M90.094,0a.825.825,0,0,0-.814.835V19.917a.814.814,0,1,0,1.628,0V11.211h10a.825.825,0,0,0,.814-.835V.835A.825.825,0,0,0,100.91,0H90.21l-.059,0ZM93.3,1.67h2.279V3.442h2.279V1.67H100.1V3.442H97.863V5.779H100.1V8.117H97.863V9.541H95.583V8.117H93.3V9.541H91.024V8.117H93.3V5.779H91.024V3.442H93.3Zm0,1.772V5.779h2.279V3.442H93.3Zm2.279,2.337V8.117h2.279V5.779Z" transform="translate(-83.116 0)"/><path d="M42.588,147.441c-2.464.357-4.188,1.212-4.188,2.469,0,1.694,2.88,3.067,6.978,3.067s6.978-1.373,6.978-3.067c0-1.257-1.724-2.112-4.187-2.469l-.341.6c1.857.264,3.133.82,3.133,1.464,0,.9-2.5,1.636-5.582,1.636S39.8,150.4,39.8,149.5c0-.642,1.268-1.2,3.13-1.462Z" transform="translate(-38.4 -129.124)"/></g></svg>