<?xml version="1.0" encoding="utf-8"?>
<!-- Generator: Adobe Illustrator 27.3.1, SVG Export Plug-In . SVG Version: 6.00 Build 0)  -->
<svg version="1.1" id="Шар_1" xmlns="http://www.w3.org/2000/svg" xmlns:xlink="http://www.w3.org/1999/xlink" x="0px" y="0px"
	 viewBox="0 0 332 213" style="enable-background:new 0 0 332 213;" xml:space="preserve">
<style type="text/css">
	.st0{stroke:#000000;stroke-width:2;}
	.st1{font-family:'FuturaDemiC';}
	.st2{font-size:61.9335px;}
	.st3{font-size:43.8048px;}
</style>
<path className="st0" d="M9.5,62.4V45.9c0-0.2,0.1-0.4,0.2-0.5l27.4-31c0.5-0.5,1.4-0.2,1.4,0.5v17.3c0,0.2-0.1,0.4-0.2,0.5L10.9,63
	C10.4,63.5,9.5,63.2,9.5,62.4z"/>
<path d="M61.3,30.2V15.1h18c2.9,0,4.3,0.2,5.4,0.7c2.9,1.1,5,3.5,5,6.8c0,3.4-2.2,5.7-5,6.8c-1.2,0.5-2.6,0.7-5.4,0.7H61.3z
	 M61.3,72.4V43.8h20c6,0,10.2-1.2,13.5-3.3c5.8-3.7,9.6-10.1,9.6-17.8c0-8.1-3.7-14.4-9.5-17.9c-3.4-2.2-7.6-3.3-13.6-3.3H46.5v71
	H61.3z M123,72.4V43.7h13.4l16.8,28.7h17l-18-30.2l0.6-0.2c3.8-1.3,7.1-3.6,9.6-7.2c2.3-3.4,3.6-7.5,3.6-12.1
	c0-8.1-3.7-14.4-9.5-17.9c-3.4-2.2-7.6-3.3-13.6-3.3h-34.7v71H123z M123,30.1V15.1h17.9c2.9,0,4.3,0.2,5.4,0.7c2.9,1.1,5,3.5,5,6.8
	c0,3.4-2.2,5.6-5,6.8c-1.2,0.5-2.6,0.7-5.4,0.7H123z M172.9,72.4h14.9v-71h-14.9V72.4z M210.9,72.4V27.5L253,72.4h8.1v-71h-14.8v45
	l-42.1-45H196v71H210.9z M265.7,1.4v13.7h23.3v57.3h14.9V15.1h23.4V1.4H265.7z"/>
<path d="M23.2,100.7V85.6h18c2.9,0,4.3,0.2,5.4,0.7c2.9,1.1,5,3.5,5,6.8c0,3.4-2.2,5.7-5,6.8c-1.2,0.5-2.6,0.7-5.4,0.7H23.2z
	 M23.2,142.9v-28.6h20c6,0,10.2-1.2,13.5-3.3c5.8-3.7,9.6-10.1,9.6-17.8c0-8.1-3.7-14.4-9.5-17.9c-3.4-2.2-7.6-3.3-13.6-3.3H8.4v71
	H23.2z M70.1,71.9v71h50v-13.7H85v-18.5h26.8V97.2H85V85.6h35.1V71.9H70.1z M175,142.9h15.4l-28.1-71h-14.7l-28.2,71h15.4l4.4-11.8
	h31.3L175,142.9z M155,89.2l10.5,28.4h-21.1L155,89.2z M227.9,71.9l-21,24.3V71.9h-14.9v71h14.9V116l6.7-7.4l22.4,34.4h17.6
	l-30.1-45.4l23.1-25.6H227.9z M249.3,130.6c9.9,8.8,20.8,12.3,30.3,12.3c15.3,0,27.1-9.2,27.1-21.7c0-16.1-14.5-20.1-26.4-22.1
	c-10.1-1.7-15.9-3-15.9-7.7c0-4.3,5.5-6.1,10.7-6.1c6.4,0,13.3,2.4,18,6.3l8.4-10.5c-7.9-6.2-17.2-9.2-26.2-9.2
	c-16.2,0-25.3,9.3-25.3,20.9c0,11.4,9.5,16.3,21.4,18.8c10.4,2.2,20.7,3,20.7,9.7c0,5.4-6.7,7.9-12.8,7.9c-7.8,0-15.2-3.8-21.1-9.2
	L249.3,130.6z"/>
<text transform="matrix(0.9442 0 0 1 4.7246 202.4453)" className="st1 st2">Calc </text>
<text transform="matrix(1.0565 0 0 1 153.1934 202.4453)" className="st1 st3">BETA 2.1</text>
</svg>
