<svg xmlns="http://www.w3.org/2000/svg" width="732.963" height="70" viewBox="0 0 732.963 70"><defs><style>.a,.c{fill:#e4e2da;}.a{stroke:#e4e4e5;}.b{font-size:17px;}.b,.d,.f{font-family:inter, inter;}.d{fill:rgba(0,0,0,0.87);}.d,.f{font-size:18px;}.e{fill:#fc0;}.g,.h,.j{fill:none;}.g,.h{stroke-linecap:square;}.g{fill-rule:evenodd;}.i,.k,.l,.m{stroke:none;}.k{fill:#e4e4e5;}.l{fill:#eaeaeb;}.m{fill:#000;}</style></defs><g transform="translate(-84.032 -6189)"><g className="a" transform="translate(84.032 6189)"><rect className="i" width="215" height="70" rx="4"/><rect className="j" x="0.5" y="0.5" width="214" height="69" rx="3.5"/></g><text className="b" transform="translate(155.032 6230)"><tspan x="0" y="0">Прорахунок</tspan></text></g><g transform="translate(-29 -6189)"><g className="c" transform="translate(578 6189)"><path className="i" d="M 179.6600189208984 69.5 L 0.4999920427799225 69.5 L 0.4999920427799225 0.5 L 179.6600189208984 0.5 C 181.7571258544922 0.5 183.4632720947266 2.070091009140015 183.4632720947266 4 L 183.4632720947266 66 C 183.4632720947266 67.92990875244141 181.7571258544922 69.5 179.6600189208984 69.5 Z"/><path className="k" d="M 0.9999847412109375 1 L 0.9999847412109375 69 L 179.6600036621094 69 C 181.4814147949219 69 182.9632415771484 67.65421295166016 182.9632415771484 66 L 182.9632415771484 4 C 182.9632415771484 2.345787048339844 181.4814147949219 1 179.6600036621094 1 L 0.9999847412109375 1 M -1.52587890625e-05 0 L 179.6600036621094 0 C 182.03662109375 0 183.9632415771484 1.790855407714844 183.9632415771484 4 L 183.9632415771484 66 C 183.9632415771484 68.20914459228516 182.03662109375 70 179.6600036621094 70 L -1.52587890625e-05 70 L -1.52587890625e-05 0 Z"/></g><text className="d" transform="translate(670 6230)"><tspan x="0" y="0">Віддали</tspan></text><g transform="translate(593.797 6187.638)"><circle cx="3.5" cy="3.5" r="3.5" transform="translate(14.203 56.362)"/><circle cx="3.5" cy="3.5" r="3.5" transform="translate(40.203 56.362)"/><path d="M9.06,13.463A1.819,1.819,0,0,0,7.277,12H0v3.639H5.785l6.986,34.923a1.819,1.819,0,0,0,1.783,1.463H47.3V48.386H16.046l-1.455-7.277H47.3a1.819,1.819,0,0,0,1.776-1.424L53.2,21.1H49.479L45.842,37.47H13.863Z"/><path d="M85.259,25.488l-6.524-6.524V33.831H75.1V18.964l-6.524,6.524L66,22.916,76.916,12,87.831,22.916Z" transform="translate(-45.988)"/></g></g><g transform="translate(-157 -6190)"><g className="e" transform="translate(355.82 6190)"><path className="i" d="M 186.9394073486328 69.49929809570312 L 0.5000026822090149 69.49929809570312 L 0.5000026822090149 43.68955230712891 C 0.6610403060913086 43.59648895263672 0.8091314435005188 43.4749755859375 0.9428026676177979 43.32597351074219 L 9.126502990722656 34.20267486572266 C 9.797152519226074 33.4527473449707 9.797152519226074 32.27874755859375 9.127002716064453 31.52939987182617 L 0.9428026676177979 22.4055233001709 C 0.8091314435005188 22.25652313232422 0.6610403060913086 22.135009765625 0.5000026822090149 22.04194641113281 L 0.5000026822090149 0.4999991953372955 L 186.9394073486328 0.4999991953372955 L 186.9394073486328 23.13084983825684 L 186.9394073486328 23.32222366333008 L 187.0671844482422 23.46469879150391 L 194.8989715576172 32.19654846191406 C 195.2243499755859 32.55904769897461 195.2242279052734 33.17200088500977 194.8988342285156 33.53512573242188 L 187.0671997070312 42.26592254638672 L 186.9394073486328 42.40839767456055 L 186.9394073486328 42.59980010986328 L 186.9394073486328 69.49929809570312 Z"/><path className="l" d="M 186.4394073486328 68.99929809570312 L 186.4394073486328 42.21699905395508 L 194.5264739990234 33.20145034790039 C 194.6840209960938 33.02560043334961 194.6842803955078 32.70589828491211 194.5267791748047 32.53039932250977 L 186.4394073486328 23.51359939575195 L 186.4394073486328 0.9999991655349731 L 1.00000274181366 0.9999991655349731 L 1.00000274181366 21.77699661254883 C 1.111271381378174 21.86344909667969 1.216414570808411 21.96176910400391 1.315002679824829 22.07167434692383 L 9.499702453613281 31.19607353210449 C 10.33700275421143 32.13235092163086 10.33700275421143 33.59914779663086 9.498703002929688 34.53652572631836 L 1.314977645874023 43.65985107421875 C 1.216398000717163 43.76974487304688 1.111267685890198 43.8680534362793 1.00000274181366 43.95450592041016 L 1.00000274181366 68.99929809570312 L 186.4394073486328 68.99929809570312 M 187.4394073486328 70.00019836425781 L 187.4394073486328 69.99929809570312 L 2.685546860448085e-06 69.99929809570312 L 2.685546860448085e-06 43.36380004882812 C 0.2142026871442795 43.30080032348633 0.4059026837348938 43.17569732666016 0.5706027150154114 42.99209976196289 L 8.754302978515625 33.86879730224609 C 9.249302864074707 33.31529998779297 9.249302864074707 32.41619873046875 8.754302978515625 31.86269950866699 L 0.5706027150154114 22.73939895629883 C 0.4059026837348938 22.55579948425293 0.2142026871442795 22.43069839477539 2.685546860448085e-06 22.36769866943359 L 2.685546860448085e-06 -8.178710686479462e-07 L 187.4394073486328 -8.178710686479462e-07 L 187.4394073486328 23.13084983825684 L 195.2712097167969 31.86269950866699 C 195.7680053710938 32.41619873046875 195.7680053710938 33.31439971923828 195.2712097167969 33.86879730224609 L 187.4394073486328 42.59980010986328 L 187.4394073486328 70.00019836425781 Z"/></g><text className="f" transform="translate(430.781 6231)"><tspan x="0" y="0">В роботі</tspan></text></g><g transform="translate(25 -6190)"><g className="c" transform="translate(355.82 6190)"><path className="i" d="M 171.8979644775391 69.49906921386719 L 0.5000115036964417 69.49906921386719 L 0.5000115036964417 43.6774787902832 C 0.6507006883621216 43.58225631713867 0.7880865335464478 43.4593391418457 0.9108070135116577 43.3096809387207 L 8.437215805053711 34.1870002746582 C 9.047329902648926 33.446044921875 9.047329902648926 32.28579711914062 8.437534332275391 31.54515838623047 L 0.9098524451255798 22.42095375061035 C 0.7873188257217407 22.27154350280762 0.6501711010932922 22.14877319335938 0.5000115036964417 22.05385971069336 L 0.5000115036964417 0.5 L 171.8979644775391 0.5 L 171.8979644775391 23.13197708129883 L 171.8979644775391 23.31161308288574 L 172.0122833251953 23.45015907287598 L 179.2153015136719 32.18115997314453 C 179.5211181640625 32.55197906494141 179.5210113525391 33.17929458618164 179.2149963378906 33.55097579956055 L 172.0122833251953 42.2807502746582 L 171.8979644775391 42.41931915283203 L 171.8979644775391 42.59895324707031 L 171.8979644775391 69.49906921386719 Z"/><path className="l" d="M 171.3979644775391 68.99906921386719 L 171.3979644775391 42.23965835571289 L 178.8289947509766 33.23318099975586 C 178.9817352294922 33.04766082763672 178.9819946289062 32.68411254882812 178.8296051025391 32.49936294555664 L 171.3979644775391 23.4912281036377 L 171.3979644775391 1 L 1.000011563301086 1 L 1.000011563301086 21.8016357421875 C 1.105150103569031 21.89041900634766 1.20379626750946 21.99090576171875 1.295534253120422 22.10277366638184 L 8.82353401184082 31.22734069824219 C 9.580057144165039 32.14620590209961 9.580057144165039 33.58565902709961 8.822897911071777 34.50518035888672 L 1.297443389892578 43.62670516967773 C 1.205045461654663 43.7393798828125 1.105799674987793 43.84045028686523 1.000011563301086 43.92971038818359 L 1.000011563301086 68.99906921386719 L 171.3979644775391 68.99906921386719 M 172.3979644775391 70 L 172.3979644775391 69.99906921386719 L 1.153009543486405e-05 69.99906921386719 L 1.153009543486405e-05 43.3641357421875 C 0.1971933543682098 43.30025100708008 0.3737387955188751 43.17609024047852 0.5241706371307373 42.99263763427734 L 8.051534652709961 33.86879730224609 C 8.506943702697754 33.31572723388672 8.506943702697754 32.41609191894531 8.051534652709961 31.86297798156738 L 0.5241706371307373 22.73915863037109 C 0.3737387955188751 22.55572700500488 0.1971933543682098 22.4306583404541 1.153009543486405e-05 22.3676586151123 L 1.153009543486405e-05 0 L 172.3979644775391 0 L 172.3979644775391 23.13197708129883 L 179.6009826660156 31.86297798156738 C 180.0571746826172 32.41609191894531 180.0571746826172 33.31472778320312 179.6009826660156 33.86879730224609 L 172.3979644775391 42.59895324707031 L 172.3979644775391 70 Z"/></g><text className="f" transform="translate(435 6231)"><tspan x="0" y="0">Готове</tspan></text></g><g transform="translate(212 8.801)"><g className="g" transform="translate(-41.809 -24)"><path className="i" d="M68.008,24a1.456,1.456,0,0,1,1.456,1.455v.1a14.208,14.208,0,0,1,9.2,4.4,10.3,10.3,0,0,1,2.6,5.141l.157.121c1.636,1.268,2.837,2.8,2.551,4.567-.275,1.7-1.814,2.739-3.246,3.372q-.543.239-1.106.431a11.644,11.644,0,1,1-23.236,0q-.562-.191-1.106-.431c-1.432-.633-2.971-1.669-3.246-3.372-.285-1.763.916-3.3,2.551-4.567l.185-.143q.056-.348.14-.69a11.031,11.031,0,0,1,2.054-4.153,12.784,12.784,0,0,1,9.584-4.751v-.029A1.456,1.456,0,0,1,68.008,24ZM79.157,39.2a1.456,1.456,0,0,0,1.677-.518c.287.4.277.613.271.646-.019.116-.242.6-1.55,1.176A22.977,22.977,0,0,1,73.1,41.941a5.094,5.094,0,0,0-10.177,0A22.977,22.977,0,0,1,56.462,40.5c-1.308-.579-1.531-1.06-1.55-1.176-.006-.033-.016-.245.271-.646a1.456,1.456,0,0,0,2.547-1.355,4.027,4.027,0,0,1,.013-2.246,8.129,8.129,0,0,1,1.517-3.043l.016-.02v2.9a1.456,1.456,0,1,0,2.911,0V29.6a10.9,10.9,0,0,1,4.367-1.2v3.605a1.456,1.456,0,0,0,2.911,0V28.484a12.417,12.417,0,0,1,4.367,1.354v5.078a1.456,1.456,0,1,0,2.911,0V32.178c1.624,1.931,1.968,3.975,1.543,5.154A1.456,1.456,0,0,0,79.157,39.2ZM64.321,45.709a40.881,40.881,0,0,1-5.019-.633,8.733,8.733,0,0,0,17.411,0,40.9,40.9,0,0,1-5.019.633,5.093,5.093,0,0,1-7.374,0Zm5.87-3.515a2.183,2.183,0,1,1-2.183-2.183A2.183,2.183,0,0,1,70.192,42.194Z"/><path className="m" d="M 68.00825500488281 24.00000381469727 C 68.81210327148438 24.00000381469727 69.46376800537109 24.65165328979492 69.46376800537109 25.45549392700195 L 69.46376800537109 25.55447387695312 C 73.5362548828125 25.97948455810547 76.64374542236328 27.73045349121094 78.66690063476562 29.95882415771484 C 80.058349609375 31.49146270751953 80.97969055175781 33.31812286376953 81.26933288574219 35.09966278076172 L 81.42652893066406 35.22046279907227 C 83.06251525878906 36.48821258544922 84.2633056640625 38.02521514892578 83.97801208496094 39.78783416748047 C 83.70294189453125 41.49076461791992 82.16446685791016 42.52708435058594 80.73225402832031 43.16022491455078 C 80.36997985839844 43.31989288330078 80.00090026855469 43.4636344909668 79.62607574462891 43.5910530090332 C 79.91749572753906 47.92793273925781 77.76908874511719 52.06606292724609 74.0543212890625 54.32302093505859 C 70.33953857421875 56.57999038696289 65.67694854736328 56.57997894287109 61.96218872070312 54.32302093505859 C 58.24742126464844 52.06606292724609 56.09901428222656 47.92793273925781 56.39044189453125 43.5910530090332 C 56.01560211181641 43.4636344909668 55.64652252197266 43.31989288330078 55.28425598144531 43.16022491455078 C 53.85204315185547 42.52708435058594 52.31358337402344 41.49076461791992 52.03848266601562 39.78783416748047 C 51.75321197509766 38.02521514892578 52.95400238037109 36.48821258544922 54.58998870849609 35.22046279907227 L 54.77483367919922 35.07782363891602 C 54.81240844726562 34.84612274169922 54.85902404785156 34.61597442626953 54.91456604003906 34.38791275024414 C 55.29749298095703 32.87397384643555 55.99749755859375 31.45858383178711 56.96827697753906 30.2353630065918 C 58.91864776611328 27.74937438964844 62.11056518554688 25.74077224731445 66.55274200439453 25.48461151123047 L 66.55274200439453 25.45549392700195 C 66.55274200439453 24.65165328979492 67.20439147949219 24.00000381469727 68.00825500488281 24.00000381469727 Z M 68.00825500488281 33.46076202392578 C 67.20439147949219 33.46076202392578 66.55274200439453 32.80911254882812 66.55274200439453 32.00526428222656 L 66.55274200439453 28.39997482299805 C 64.83089447021484 28.52224349975586 63.38267517089844 28.96471405029297 62.18624877929688 29.59785461425781 L 62.18624877929688 34.91626358032227 C 62.18624877929688 35.72011184692383 61.53459167480469 36.37176513671875 60.73074340820312 36.37176513671875 C 59.92689514160156 36.37176513671875 59.27524566650391 35.72011184692383 59.27524566650391 34.91626358032227 L 59.27524566650391 32.01253509521484 L 59.25923156738281 32.03291320800781 C 58.54478454589844 32.92913436889648 58.02793121337891 33.96630477905273 57.74259185791016 35.07636260986328 C 57.50099182128906 36.06901168823242 57.55483245849609 36.85062408447266 57.72950744628906 37.32220458984375 C 57.9832763671875 38.00565338134766 57.69226837158203 38.77143478393555 57.04863739013672 39.11384201049805 C 56.40499877929688 39.45626068115234 55.60732269287109 39.26964950561523 55.182373046875 38.67727279663086 C 54.89563751220703 39.07900238037109 54.90582275390625 39.29004287719727 54.91165161132812 39.32352447509766 C 54.93057250976562 39.43996429443359 55.15325164794922 39.92027282714844 56.46176147460938 40.49956512451172 C 57.98857879638672 41.17492294311523 60.28536224365234 41.66396331787109 62.91982269287109 41.94051361083984 C 63.04976654052734 39.22479248046875 65.28943634033203 37.0897331237793 68.00826263427734 37.0897331237793 C 70.72708129882812 37.0897331237793 72.96675109863281 39.22479248046875 73.0966796875 41.94051361083984 C 75.73114013671875 41.66396331787109 78.02793884277344 41.17492294311523 79.55475616455078 40.49956512451172 C 80.86325073242188 39.92027282714844 81.08594512939453 39.43996429443359 81.10486602783203 39.32352447509766 C 81.11067199707031 39.29004287719727 81.12088012695312 39.07754516601562 80.83414459228516 38.67727279663086 C 80.45391845703125 39.20541763305664 79.76930236816406 39.41698837280273 79.15740966796875 39.19544219970703 C 78.40201568603516 38.921875 78.01113891601562 38.08800506591797 78.28409576416016 37.33239364624023 C 78.7091064453125 36.1534423828125 78.3656005859375 34.10991287231445 76.74126434326172 32.17846298217773 L 76.74126434326172 34.91626358032227 C 76.74126434326172 35.72011184692383 76.08963012695312 36.37176513671875 75.2857666015625 36.37176513671875 C 74.48191833496094 36.37176513671875 73.83026123046875 35.72011184692383 73.83026123046875 34.91626358032227 L 73.83026123046875 29.8380241394043 C 72.61928558349609 29.18595504760742 71.16669464111328 28.6983642578125 69.46376800537109 28.48440170288086 L 69.46376800537109 32.00526428222656 C 69.46376800537109 32.80911254882812 68.81210327148438 33.46076202392578 68.00825500488281 33.46076202392578 Z M 68.00825500488281 44.37702178955078 C 69.21402740478516 44.37702178955078 70.19150543212891 43.39955139160156 70.19150543212891 42.19377517700195 C 70.19150543212891 40.98800277709961 69.21402740478516 40.01052474975586 68.00825500488281 40.01052474975586 C 66.80247497558594 40.01052474975586 65.82500457763672 40.98800277709961 65.82500457763672 42.19377517700195 C 65.82500457763672 43.39955139160156 66.80247497558594 44.37702178955078 68.00825500488281 44.37702178955078 Z M 68.00826263427734 53.11422348022461 C 72.56206512451172 53.11422348022461 76.35148620605469 49.61505126953125 76.71360778808594 45.07566452026367 C 75.17078399658203 45.37841415405273 73.46202087402344 45.58800506591797 71.69504547119141 45.70881271362305 C 70.73609161376953 46.71720504760742 69.40538024902344 47.28803634643555 68.01398468017578 47.28803634643555 C 68.01016235351562 47.28803634643555 68.00634765625 47.28803634643555 68.00252532958984 47.28803634643555 C 66.61103820800781 47.28803634643555 65.28046417236328 46.71727752685547 64.32146453857422 45.70881271362305 C 62.63715362548828 45.6015625 60.96108245849609 45.39010238647461 59.30290222167969 45.0756721496582 C 59.66502380371094 49.61505126953125 63.45445251464844 53.11422348022461 68.00826263427734 53.11422348022461 Z"/></g><g className="h" transform="translate(-64.712 -97.79)"><path className="i" d="M90.911,145.822A2.911,2.911,0,1,0,88,142.911,2.911,2.911,0,0,0,90.911,145.822Z"/><path className="m" d="M 90.91100311279297 143.8220062255859 C 91.41332244873047 143.8220062255859 91.82199859619141 143.413330078125 91.82199859619141 142.9109954833984 C 91.82199859619141 142.4086761474609 91.41332244873047 142 90.91100311279297 142 C 90.40867614746094 142 89.99999237060547 142.4086761474609 89.99999237060547 142.9109954833984 C 89.99999237060547 143.413330078125 90.40867614746094 143.8220062255859 90.91100311279297 143.8220062255859 M 90.91100311279297 145.8220062255859 C 89.30329895019531 145.8220062255859 87.99999237060547 144.5186920166016 87.99999237060547 142.9109954833984 C 87.99999237060547 141.3032989501953 89.30329895019531 140 90.91100311279297 140 C 92.51869201660156 140 93.82199859619141 141.3032989501953 93.82199859619141 142.9109954833984 C 93.82199859619141 144.5186920166016 92.51870727539062 145.8220062255859 90.91100311279297 145.8220062255859 Z"/></g><g className="g" transform="translate(-24 -80.997)"><path className="i" d="M43.7,113.6l5.045,3.784h2.911L56.7,113.6c8.871,1.421,19.7,5.371,19.7,11.062v8.733H24v-8.733C24,118.971,34.827,115.021,43.7,113.6Zm8.927,6.7,4.818-3.614c1.46.268,2.946.6,4.4,1v12.8h2.911V118.571c1.019.349,2,.729,2.911,1.138v10.775H32.733V119.709c.916-.408,1.892-.789,2.911-1.138v11.913h2.911v-12.8c1.454-.394,2.94-.731,4.4-1l4.818,3.614Zm19.85,2.46a2.851,2.851,0,0,1,1.012,1.907v5.822H70.576V121.25a10.555,10.555,0,0,1,1.9,1.506Zm-44.553,0a10.725,10.725,0,0,1,1.9-1.5v9.234H26.911v-5.822A2.844,2.844,0,0,1,27.923,122.755Z"/><path className="m" d="M 43.69876480102539 113.5999908447266 L 48.74352645874023 117.3843078613281 L 51.65453720092773 117.3843078613281 L 56.69930648803711 113.5999908447266 C 65.57059478759766 115.0205535888672 76.39806365966797 118.9707946777344 76.39806365966797 124.6618194580078 L 76.39806365966797 133.3948059082031 L 23.99999237060547 133.3948059082031 L 23.99999237060547 124.6618194580078 C 23.99999237060547 118.9707946777344 34.82748413085938 115.0205535888672 43.69876480102539 113.5999908447266 Z M 52.6253547668457 120.2953033447266 L 47.772705078125 120.2953033447266 L 42.95500564575195 116.6812896728516 C 41.49513626098633 116.9490966796875 40.00906753540039 117.2853240966797 38.55501556396484 117.6797637939453 L 38.55501556396484 130.4838256835938 L 35.64401245117188 130.4838256835938 L 35.64401245117188 118.5705261230469 C 34.62516784667969 118.9198608398438 33.64852905273438 119.3011932373047 32.73300933837891 119.7087326049805 L 32.73300933837891 130.4838256835938 L 67.66506958007812 130.4838256835938 L 67.66506958007812 119.7087326049805 C 66.74954223632812 119.2997436523438 65.77290344238281 118.9198608398438 64.75405883789062 118.5705261230469 L 64.75405883789062 130.4838256835938 L 61.84305572509766 130.4838256835938 L 61.84305572509766 117.6797637939453 C 60.38900375366211 117.2853240966797 58.90293502807617 116.9491119384766 57.44306564331055 116.6812896728516 L 52.6253547668457 120.2953033447266 Z M 29.82200622558594 130.4838256835938 L 29.82200622558594 121.2501068115234 C 29.03748321533203 121.7537078857422 28.40289306640625 122.2602233886719 27.92257690429688 122.7550964355469 C 27.10021209716797 123.6051177978516 26.91100311279297 124.2324371337891 26.91100311279297 124.6618194580078 L 26.91100311279297 130.4838256835938 L 29.82200622558594 130.4838256835938 Z M 72.47549438476562 122.7565689086914 C 71.99664306640625 122.2602233886719 71.36203765869141 121.7537078857422 70.57606506347656 121.2501068115234 L 70.57606506347656 130.4838256835938 L 73.48707580566406 130.4838256835938 L 73.48707580566406 124.6618194580078 C 73.48707580566406 124.2324371337891 73.29639434814453 123.6051177978516 72.47549438476562 122.7550964355469 L 72.47549438476562 122.7565689086914 Z"/></g></g><g transform="translate(-27.56 -17.379)"><path d="M54.72,45.833H87.456V36.48H54.72Zm2.338-7.015h28.06v4.677H57.058Z" transform="translate(-7.483 -7.483)"/><path d="M79.973,24.32H47.237A4.672,4.672,0,0,0,42.56,29V75.762a4.672,4.672,0,0,0,4.677,4.677H79.973a4.672,4.672,0,0,0,4.677-4.677V29A4.672,4.672,0,0,0,79.973,24.32Zm2.338,51.442A2.345,2.345,0,0,1,79.973,78.1H47.237A2.345,2.345,0,0,1,44.9,75.762V29a2.345,2.345,0,0,1,2.338-2.338H79.973A2.345,2.345,0,0,1,82.311,29Z"/><path d="M57.058,79.975V72.96H54.72v9.353h9.353V79.975H57.058Z" transform="translate(-7.483 -29.934)"/><path d="M57.058,110.375V103.36H54.72v9.353h9.353v-2.338H57.058Z" transform="translate(-7.483 -48.642)"/><path d="M57.058,140.775V133.76H54.72v9.353h9.353v-2.338H57.058Z" transform="translate(-7.483 -67.351)"/><path d="M87.458,79.975V72.96H85.12v9.353h9.353V79.975H87.458Z" transform="translate(-26.192 -29.934)"/><path d="M117.858,79.975V72.96H115.52v9.353h9.353V79.975h-7.015Z" transform="translate(-44.9 -29.934)"/><path d="M87.458,110.375V103.36H85.12v9.353h9.353v-2.338H87.458Z" transform="translate(-26.192 -48.642)"/><path d="M87.458,140.775V133.76H85.12v9.353h9.353v-2.338H87.458Z" transform="translate(-26.192 -67.351)"/><path d="M117.858,122.066V103.36H115.52V124.4h9.353v-2.338h-7.015Z" transform="translate(-44.9 -48.642)"/></g><g transform="translate(362.148 8.801)"><path d="M91.114,0A1.834,1.834,0,0,0,89.28,1.834V43.752a1.834,1.834,0,1,0,3.668,0V24.627h22.531a1.834,1.834,0,0,0,1.834-1.834V1.834A1.834,1.834,0,0,0,115.479,0h-24.1q-.067,0-.133.005T91.114,0Zm7.231,3.668h5.135V7.561h5.135V3.668h5.03V7.561h-5.03V12.7h5.03v5.135h-5.03v3.129H103.48V17.831H98.345v3.128H93.21V17.831h5.135V12.7H93.21V7.561h5.135Zm0,3.893V12.7h5.135V7.561H98.345ZM103.48,12.7v5.135h5.135V12.7Z" transform="translate(-36.995 0)"/><path d="M47.834,147.441c-5.551.785-9.434,2.662-9.434,5.424,0,3.72,6.487,6.737,15.719,6.737s15.719-3.016,15.719-6.737c0-2.762-3.883-4.639-9.433-5.423l-.769,1.309c4.184.58,7.059,1.8,7.059,3.216,0,1.984-5.63,3.593-12.576,3.593s-12.576-1.609-12.576-3.593c0-1.411,2.856-2.629,7.052-3.212Q48.216,148.1,47.834,147.441Z" transform="translate(0 -107.203)"/></g></svg>