<svg width="364" height="311" viewBox="0 0 364 311" fill="none" xmlns="http://www.w3.org/2000/svg">
<g clip-path="url(#clip0_7_196)">
<g clip-path="url(#clip1_7_196)">
<mask id="path-1-inside-1_7_196" fill="white">
<path fill-rule="evenodd" clip-rule="evenodd" d="M355.45 144.458C356.394 108.199 326.131 77.9976 287.856 77.0005L284.436 208.304C322.711 209.301 354.505 180.716 355.45 144.458ZM332.136 142.016C332.752 118.371 313.017 98.6762 288.057 98.026L285.827 183.651C310.787 184.301 331.52 165.66 332.136 142.016Z"/>
</mask>
<path fill-rule="evenodd" clip-rule="evenodd" d="M355.45 144.458C356.394 108.199 326.131 77.9976 287.856 77.0005L284.436 208.304C322.711 209.301 354.505 180.716 355.45 144.458ZM332.136 142.016C332.752 118.371 313.017 98.6762 288.057 98.026L285.827 183.651C310.787 184.301 331.52 165.66 332.136 142.016Z" fill="#008249"/>
<path d="M287.856 77.0005L287.901 75.2711L286.172 75.2261L286.127 76.9555L287.856 77.0005ZM355.45 144.458L353.72 144.413L353.72 144.413L355.45 144.458ZM284.436 208.304L282.706 208.259L282.661 209.988L284.391 210.033L284.436 208.304ZM288.057 98.026L288.102 96.2966L286.373 96.2516L286.328 97.981L288.057 98.026ZM332.136 142.016L330.407 141.971L332.136 142.016ZM285.827 183.651L284.098 183.606L284.052 185.335L285.782 185.38L285.827 183.651ZM287.811 78.7299C325.221 79.7044 354.638 109.196 353.72 144.413L357.179 144.503C358.151 107.202 327.042 76.2907 287.901 75.2711L287.811 78.7299ZM286.165 208.349L289.585 77.0456L286.127 76.9555L282.706 208.259L286.165 208.349ZM353.72 144.413C352.803 179.629 321.89 207.549 284.481 206.575L284.391 210.033C323.532 211.053 356.207 181.803 357.179 144.503L353.72 144.413ZM288.012 99.7554C312.107 100.383 330.996 119.368 330.407 141.971L333.866 142.061C334.509 117.374 313.928 96.9694 288.102 96.2966L288.012 99.7554ZM287.556 183.696L289.787 98.0711L286.328 97.981L284.098 183.606L287.556 183.696ZM330.407 141.971C329.818 164.573 309.966 182.549 285.872 181.922L285.782 185.38C311.608 186.053 333.223 166.748 333.866 142.061L330.407 141.971Z" fill="#211E1F" mask="url(#path-1-inside-1_7_196)"/>
<path d="M65.982 43.8367L68.1426 253.995C68.2162 261.154 71.6969 267.926 77.8861 271.525C141.747 308.655 239.641 301.917 283.765 263.979C288.482 259.923 290.798 253.88 291.021 247.662L298.076 50.7864L65.982 43.8367Z" fill="#008249" stroke="#211E1F" stroke-width="1.73"/>
<path d="M298.474 49.2835C298.402 54.9009 295.241 60.3207 289.348 65.3174C283.457 70.3123 274.918 74.8079 264.314 78.5561C243.114 86.05 213.846 90.4926 181.544 90.0731C149.242 89.6537 120.099 84.4527 99.1012 76.4108C88.5988 72.3885 80.1791 67.6727 74.4196 62.5265C68.6581 57.3785 65.6397 51.8784 65.7126 46.2611C65.7856 40.6437 68.9458 35.2239 74.839 30.2272C80.7302 25.2322 89.2695 20.7367 99.8728 16.9885C121.073 9.49453 150.341 5.05199 182.643 5.47143C214.945 5.89087 244.088 11.0919 265.086 19.1338C275.588 23.156 284.008 27.8718 289.767 33.018C295.529 38.1661 298.547 43.6661 298.474 49.2835Z" fill="white" stroke="#211E1F" stroke-width="1.73"/>
<path d="M288.745 49.1029C288.685 53.7412 285.846 58.257 280.458 62.4505C275.077 66.6374 267.268 70.4075 257.562 73.549C238.158 79.8292 211.36 83.5366 181.778 83.1524C152.196 82.7683 125.503 78.3663 106.269 71.5844C96.6468 68.1919 88.9385 64.2203 83.6688 59.8952C78.3907 55.5632 75.6703 50.9751 75.7305 46.3369C75.7907 41.6986 78.6293 37.1827 84.0181 32.9892C89.3984 28.8024 97.2072 25.0323 106.914 21.8908C126.318 15.6106 153.116 11.9032 182.698 12.2873C212.28 12.6714 238.972 17.0734 258.207 23.8553C267.829 27.2478 275.537 31.2194 280.807 35.5446C286.085 39.8765 288.805 44.4646 288.745 49.1029Z" fill="white" stroke="#211E1F" stroke-width="1.73"/>
<path d="M127.058 184.087H128.943V158.704H127.058V171.722C124.483 172.556 121.836 172.919 119.769 172.919C114.547 172.919 112.081 170.997 112.081 165.811V158.704H110.195V166.246C110.195 172.302 113.677 174.659 119.624 174.659C121.763 174.659 124.592 174.297 127.058 173.462V184.087ZM134.32 184.087H136.278L139.505 176.98H154.482L157.709 184.087H159.776L147.955 158.522H146.141L134.32 184.087ZM140.303 175.276L147.012 160.589L153.684 175.276H140.303ZM165.144 184.087H197.128V158.704H195.242V182.347H182.079V158.704H180.193V182.347H167.03V158.704H165.144V184.087ZM204.665 184.087H206.551V171.903H211.628L223.232 184.087H225.843L213.223 170.924L225.335 158.704H222.796L211.555 170.163H206.551V158.704H204.665V184.087ZM251.692 184.087V158.704H249.915L232.473 180.788V158.704H230.587V184.087H232.001L249.806 161.532V184.087H251.692Z" fill="#211E1F"/>
</g>
</g>
<defs>
<clipPath id="clip0_7_196">
<rect width="363.276" height="310.114" fill="white"/>
</clipPath>
<clipPath id="clip1_7_196">
<rect width="396.828" height="310.114" fill="white" transform="translate(-16.835 -0.000183105)"/>
</clipPath>
</defs>
</svg>
