<svg width="415" height="234" viewBox="0 0 415 234" fill="none" xmlns="http://www.w3.org/2000/svg">
<path d="M9.81146 108.438L9.81146 87.5472C9.81146 87.3029 9.90085 87.0671 10.0627 86.8843L44.6864 47.7786C45.2965 47.0894 46.4351 47.521 46.4351 48.4415L46.4351 70.2286C46.4351 70.4768 46.3428 70.7162 46.1761 70.9001L11.5525 109.109C10.9382 109.787 9.81146 109.353 9.81146 108.438Z" fill="black" stroke="black" stroke-width="2"/>
<path d="M75.125 67.75V48.6875H97.8125C101.5 48.6875 103.188 49 104.688 49.625C108.312 51.0625 111 54.0625 111 58.25C111 62.5625 108.188 65.4375 104.688 66.875C103.125 67.5 101.438 67.75 97.875 67.75H75.125ZM75.125 121V84.9375H100.312C107.938 84.9375 113.125 83.4375 117.375 80.75C124.75 76.125 129.438 68.0625 129.438 58.25C129.438 48.0625 124.75 40.125 117.5 35.625C113.188 32.875 107.938 31.4375 100.312 31.4375H56.4375V121H75.125ZM152.975 121V84.8125H169.85L191.037 121H212.537L189.787 82.9375L190.6 82.625C195.35 81 199.537 78.125 202.662 73.5625C205.6 69.3125 207.225 64.0625 207.225 58.25C207.225 48 202.537 40.0625 195.287 35.625C190.975 32.875 185.725 31.4375 178.1 31.4375H134.287V121H152.975ZM152.975 67.6875V48.6875H175.6C179.287 48.6875 180.975 48.9375 182.475 49.625C186.1 51.0625 188.787 54.0625 188.787 58.25C188.787 62.5 185.975 65.375 182.475 66.8125C180.912 67.5 179.225 67.6875 175.662 67.6875H152.975ZM216.012 121H234.762V31.375H216.012V121ZM263.925 121V64.3125L317.113 121H327.3V31.375H308.613V88.125L255.425 31.375H245.238V121H263.925ZM333.212 31.375V48.6875H362.65V121H381.4V48.6875H410.9V31.375H333.212Z" fill="black"/>
<path d="M27.125 156.75V137.688H49.8125C53.5 137.688 55.1875 138 56.6875 138.625C60.3125 140.062 63 143.062 63 147.25C63 151.562 60.1875 154.438 56.6875 155.875C55.125 156.5 53.4375 156.75 49.875 156.75H27.125ZM27.125 210V173.938H52.3125C59.9375 173.938 65.125 172.438 69.375 169.75C76.75 165.125 81.4375 157.062 81.4375 147.25C81.4375 137.062 76.75 129.125 69.5 124.625C65.1875 121.875 59.9375 120.438 52.3125 120.438H8.4375V210H27.125ZM86.2875 120.375V210H149.35V192.75H105.037V169.438H138.85V152.375H105.037V137.625H149.35V120.375H86.2875ZM218.7 210H238.137L202.637 120.438H184.137L148.575 210H168.012L173.512 195.062H213.075L218.7 210ZM193.387 142.25L206.637 178.125H179.95L193.387 142.25ZM285.488 120.375L258.988 151.062V120.375H240.238V210H258.988V176L267.425 166.625L295.738 210H317.925L279.925 152.688L309.05 120.375H285.488ZM312.4 194.5C324.837 205.625 338.65 210 350.587 210C369.837 210 384.775 198.375 384.775 182.562C384.775 162.25 366.525 157.188 351.462 154.688C338.775 152.562 331.4 150.875 331.4 145C331.4 139.625 338.337 137.25 344.9 137.25C352.962 137.25 361.65 140.25 367.587 145.25L378.212 131.938C368.275 124.125 356.462 120.312 345.15 120.312C324.712 120.312 313.275 132 313.275 146.688C313.275 161.062 325.275 167.312 340.275 170.438C353.462 173.188 366.4 174.25 366.4 182.625C366.4 189.5 357.9 192.625 350.275 192.625C340.462 192.625 331.087 187.875 323.65 181.062L312.4 194.5Z" fill="black"/>
</svg>
