<svg xmlns="http://www.w3.org/2000/svg" width="392.674" height="48.055" viewBox="0 0 392.674 48.055"><defs><style>.a{fill:none;}.b,.c{stroke:none;}.c{fill:#292929;}</style></defs><g class="a" transform="translate(392.674) rotate(90)"><path class="b" d="M12,0H36.055a12,12,0,0,1,12,12V380.674a12,12,0,0,1-12,12H12a12,12,0,0,1-12-12V12A12,12,0,0,1,12,0Z"/><path class="c" d="M 11.99997711181641 0.999969482421875 C 9.061775207519531 0.999969482421875 6.299427032470703 2.1441650390625 4.221824645996094 4.221832275390625 C 2.144176483154297 6.2994384765625 0.9999771118164062 9.061767578125 0.9999771118164062 11.99996948242188 L 0.9999771118164062 380.6735229492188 C 0.9999771118164062 383.6117248535156 2.144176483154297 386.3740844726562 4.221824645996094 388.4517211914062 C 6.299427032470703 390.5293273925781 9.061775207519531 391.6735229492188 11.99997711181641 391.6735229492188 L 36.05537414550781 391.6735229492188 C 38.99357604980469 391.6735229492188 41.75592422485352 390.5293273925781 43.83352661132812 388.4517211914062 C 45.91112518310547 386.3740844726562 47.05532455444336 383.6117248535156 47.05532455444336 380.6735229492188 L 47.05532455444336 11.99996948242188 C 47.05532455444336 9.061767578125 45.91112518310547 6.2994384765625 43.83352661132812 4.221832275390625 C 41.75587463378906 2.1441650390625 38.99357604980469 0.999969482421875 36.05537414550781 0.999969482421875 L 11.99997711181641 0.999969482421875 M 11.99997711181641 -3.0517578125e-05 L 36.05537414550781 -3.0517578125e-05 C 42.68277740478516 -3.0517578125e-05 48.05532455444336 5.372589111328125 48.05532455444336 11.99996948242188 L 48.05532455444336 380.6735229492188 C 48.05532455444336 387.3009643554688 42.68277740478516 392.6735229492188 36.05537414550781 392.6735229492188 L 11.99997711181641 392.6735229492188 C 5.372573852539062 392.6735229492188 -2.288818359375e-05 387.3009643554688 -2.288818359375e-05 380.6735229492188 L -2.288818359375e-05 11.99996948242188 C -2.288818359375e-05 5.372589111328125 5.372573852539062 -3.0517578125e-05 11.99997711181641 -3.0517578125e-05 Z"/></g></svg>