<svg xmlns="http://www.w3.org/2000/svg" width="39.976" height="42.115" viewBox="0 0 39.976 42.115"><path d="M20.2.007C16.822.047,9.555.6,5.49,4.332c-3.023,3-4.079,7.425-4.2,12.9-.1,5.457-.226,15.705,9.652,18.5v4.25s-.062,1.7,1.062,2.049c1.385.438,2.173-.87,3.489-2.276l2.455-2.776a38.173,38.173,0,0,0,12.532-.925c1.372-.438,9.1-1.425,10.359-11.675,1.3-10.585-.63-17.255-4.107-20.271h-.021C35.66,3.139,31.444.067,22.025.033c0,0-.7-.047-1.823-.028Zm.116,2.976c.96-.007,1.543.034,1.543.034,7.972.021,11.778,2.421,12.675,3.229,2.927,2.509,4.436,8.521,3.331,17.359-1.049,8.569-7.314,9.111-8.474,9.481A35.456,35.456,0,0,1,18.6,34s-4.278,5.162-5.615,6.492a.7.7,0,0,1-.617.267c-.226-.055-.295-.336-.282-.72l.041-7.054C3.745,30.666,4.239,21.925,4.328,17.359s.96-8.3,3.51-10.831C11.273,3.422,17.443,3,20.315,2.983Zm.632,4.565a.525.525,0,1,0,0,1.049,9.889,9.889,0,0,1,7.075,2.79A10.2,10.2,0,0,1,30.9,19a.528.528,0,0,0,.528.528v-.021a.526.526,0,0,0,.528-.521,11.338,11.338,0,0,0-3.181-8.357A10.825,10.825,0,0,0,20.95,7.546ZM14.012,8.754a1.648,1.648,0,0,0-1.077.212h-.028A8.261,8.261,0,0,0,10.9,10.618a3.17,3.17,0,0,0-.809,1.658,2.242,2.242,0,0,0,.083.953l.034.021a23.727,23.727,0,0,0,2.111,4.559,26.82,26.82,0,0,0,4.072,5.566l.047.068.075.055.047.055.055.047A27.207,27.207,0,0,0,22.2,27.7a25.879,25.879,0,0,0,4.566,2.1v.013a2.364,2.364,0,0,0,.7.109,3.227,3.227,0,0,0,1.934-.829,7.982,7.982,0,0,0,1.632-2.015v-.013a1.49,1.49,0,0,0-.316-1.968,24.306,24.306,0,0,0-3.771-2.708,1.721,1.721,0,0,0-2.18.3l-.788.994a1.431,1.431,0,0,1-1.139.425l-.021.013c-5.477-1.4-6.938-6.944-6.938-6.944a1.4,1.4,0,0,1,.438-1.139l.987-.8a1.747,1.747,0,0,0,.295-2.194,23.682,23.682,0,0,0-2.7-3.771,1.5,1.5,0,0,0-.885-.528Zm7.849,1.564a.528.528,0,0,0,.007,1.056,6.615,6.615,0,0,1,4.648,2.015A6.134,6.134,0,0,1,28.092,17.9a.53.53,0,0,0,.528.521l.021.028a.532.532,0,0,0,.528-.528,7.3,7.3,0,0,0-1.878-5.252,7.642,7.642,0,0,0-5.354-2.351Zm.865,2.838a.539.539,0,0,0-.034,1.077c1.735.09,2.577.966,2.688,2.769a.524.524,0,0,0,.521.515h.021a.53.53,0,0,0,.507-.562,3.592,3.592,0,0,0-3.682-3.8h-.021Z" transform="translate(-1.266 0)"/></svg>