<svg xmlns="http://www.w3.org/2000/svg" width="32" height="281" viewBox="0 0 32 281"><defs><style>.a{opacity:0.5;}.b{fill:#F2F0E7;stroke:#707070;}.c,.e{fill:none;}.c{stroke:#000;}.d{stroke:none;}</style></defs><g class="a"><g class="b"><rect class="d" width="32" height="38" rx="12"/><rect class="e" x="0.5" y="0.5" width="31" height="37" rx="11.5"/></g><line class="c" x2="13.077" transform="translate(9.462 19.27)"/><line class="c" x2="13.98" transform="translate(16 12.28) rotate(90)"/></g><g class="a" transform="translate(0 61)"><g class="b"><rect class="d" width="32" height="38" rx="12"/><rect class="e" x="0.5" y="0.5" width="31" height="37" rx="11.5"/></g><line class="c" x2="13.077" transform="translate(9.462 19.27)"/><line class="c" x2="13.98" transform="translate(16 12.28) rotate(90)"/></g><g class="a" transform="translate(0 122)"><g class="b"><rect class="d" width="32" height="38" rx="12"/><rect class="e" x="0.5" y="0.5" width="31" height="37" rx="11.5"/></g><line class="c" x2="13.077" transform="translate(9.462 19.27)"/><line class="c" x2="13.98" transform="translate(16 12.28) rotate(90)"/></g><g transform="translate(0 182)"><g class="b"><rect class="d" width="32" height="38" rx="12"/><rect class="e" x="0.5" y="0.5" width="31" height="37" rx="11.5"/></g><line class="c" x2="13.077" transform="translate(9.462 19.27)"/><line class="c" x2="13.98" transform="translate(16 12.28) rotate(90)"/></g><g class="a" transform="translate(0 243)"><g class="b"><rect class="d" width="32" height="38" rx="12"/><rect class="e" x="0.5" y="0.5" width="31" height="37" rx="11.5"/></g><line class="c" x2="13.077" transform="translate(9.462 19.27)"/><line class="c" x2="13.98" transform="translate(16 12.28) rotate(90)"/></g></svg>