<svg xmlns="http://www.w3.org/2000/svg" width="122.857" height="95" viewBox="0 0 122.857 95"><defs><style>.a{opacity:0.15;}</style></defs><g class="a" transform="translate(0 95) rotate(-90)"><path d="M38.979,19.2C33.357,19.2,28.8,24.357,28.8,30.718v99.821c0,6.361,4.557,11.518,10.179,11.518h47.5c5.621,0,10.179-5.157,10.179-11.518V119.021a3.637,3.637,0,0,0-3.393-3.839,8.577,8.577,0,0,1-5.809-1.812,10.1,10.1,0,0,1-2.877-4.784c-1.452-4.515-1.493-10.5-1.493-16.44a4.109,4.109,0,0,0-1-2.718l-1.941-2.2L71.916,77.91c-3.169-3.586-4.1-5.989-4.275-7.333a2.859,2.859,0,0,1,.828-2.534c1.452-1.574,2.49-2.641,3.664-2.964.7-.2,2.294-.338,5.157,2.9L97.648,91.018a3.123,3.123,0,0,0,4.8,0,4.207,4.207,0,0,0,0-5.433l-5.795-6.55v-23.7L114.029,75a12.329,12.329,0,0,1,2.986,8.147v55.071a3.419,3.419,0,1,0,6.786,0V83.147a20.548,20.548,0,0,0-4.965-13.565l-22.178-25.1V30.718c0-6.361-4.557-11.518-10.179-11.518ZM89.871,46.075V71.361l-7.776-8.807c-3.929-4.438-7.831-5.966-11.57-4.937A9.561,9.561,0,0,0,68.4,58.5a18.488,18.488,0,0,0-17.9,3.71,24.186,24.186,0,0,0-8.132,18.419c0,9.1,4.732,17.345,12.076,21.045s15.924,2.164,21.9-3.922A49.332,49.332,0,0,0,78.2,111.212a17.714,17.714,0,0,0,5.184,8.293l.041.046c-4.241,1.509-7.125,5.958-7.125,10.988v3.839H49.157v-3.839c0-6.361-4.557-11.518-10.179-11.518H35.586V42.236h3.393c5.621,0,10.179-5.157,10.179-11.518V26.879H76.3v3.839c0,6.361,4.557,11.518,10.179,11.518h3.393Zm0,84.464v.069a3.627,3.627,0,0,1-3.393,3.77H83.086v-3.839a3.637,3.637,0,0,1,3.393-3.839h3.393ZM49.157,80.629c0-8.106,5.567-14.816,12.716-15.326a11.265,11.265,0,0,0-.943,6.4c.482,3.7,2.565,7.548,6.182,11.641L73.267,90.3c-3.621,5.049-9.659,6.97-15.074,4.8S49.158,87.131,49.157,80.629Zm-6.786-53.75v3.839a3.637,3.637,0,0,1-3.393,3.839H35.586V30.718a3.637,3.637,0,0,1,3.393-3.839ZM35.586,126.7h3.393a3.637,3.637,0,0,1,3.393,3.839v3.839H38.979a3.637,3.637,0,0,1-3.393-3.839ZM89.871,34.557H86.479a3.637,3.637,0,0,1-3.393-3.839V26.879h3.393a3.637,3.637,0,0,1,3.393,3.839Z" transform="translate(-28.8 -19.2)"/></g></svg>