<svg xmlns="http://www.w3.org/2000/svg" width="55" height="56" viewBox="0 0 55 56"><defs><style>.a,.b,.d{fill:none;}.a{stroke:#000;}.b{stroke:#707070;stroke-width:0.5px;}.c{stroke:none;}</style></defs><g transform="translate(6 10)"><path class="a" d="M37.519,3.9H68.756a1.953,1.953,0,0,0,0-3.9H37.519a1.953,1.953,0,0,0,0,3.9Z" transform="translate(-27.755)"/><path class="a" d="M68.3,35.3H37.006a1.953,1.953,0,1,0,0,3.907H68.3a1.953,1.953,0,0,0,0-3.9Z" transform="translate(-27.298 -27.49)"/><path class="a" d="M68.749,70.616H37.512a1.953,1.953,0,0,0,0,3.9h31.24a1.953,1.953,0,0,0,0-3.9Z" transform="translate(-27.75 -54.996)"/><path class="a" d="M68.749,141.224H37.512a1.953,1.953,0,0,0,0,3.9h31.24a1.953,1.953,0,0,0,0-3.9Z" transform="translate(-27.75 -109.987)"/><path class="a" d="M68.749,105.92H37.512a1.953,1.953,0,0,0,0,3.9h31.24a1.953,1.953,0,0,0,0-3.9Z" transform="translate(-27.75 -82.492)"/><path class="a" d="M1.948,0h0A1.953,1.953,0,1,0,3.9,1.954,1.953,1.953,0,0,0,1.945,0Z" transform="translate(0.007)"/><path class="a" d="M1.948,35.3h0A1.953,1.953,0,1,0,3.9,37.259,1.953,1.953,0,0,0,1.945,35.3Z" transform="translate(0.007 -27.496)"/><path class="a" d="M1.948,70.616h0A1.953,1.953,0,1,0,3.9,72.57a1.953,1.953,0,0,0-1.955-1.954Z" transform="translate(0.007 -54.996)"/><path class="a" d="M1.948,141.224h0A1.953,1.953,0,1,0,3.9,143.178a1.953,1.953,0,0,0-1.955-1.954Z" transform="translate(0.007 -109.987)"/><path class="a" d="M1.948,105.92h0A1.953,1.953,0,1,0,3.9,107.874a1.953,1.953,0,0,0-1.955-1.954Z" transform="translate(0.007 -82.492)"/></g><g class="b"><rect class="c" width="55" height="56"/><rect class="d" x="0.25" y="0.25" width="54.5" height="55.5"/></g></svg>