<svg xmlns="http://www.w3.org/2000/svg" width="33" height="33" viewBox="0 0 33 33"><defs><style>.a{fill-rule:evenodd;}</style></defs><path class="a" d="M62.081,24a.917.917,0,0,1,.917.917v.062a8.948,8.948,0,0,1,5.8,2.774,6.484,6.484,0,0,1,1.639,3.238l.1.076c1.03.8,1.787,1.766,1.607,2.877a3.105,3.105,0,0,1-2.044,2.124q-.342.151-.7.271a7.333,7.333,0,1,1-14.634,0q-.354-.12-.7-.271a3.105,3.105,0,0,1-2.044-2.124c-.18-1.11.577-2.078,1.607-2.877l.116-.09q.035-.219.088-.434a6.947,6.947,0,0,1,1.293-2.615,8.051,8.051,0,0,1,6.036-2.992v-.018A.917.917,0,0,1,62.081,24ZM69.1,33.57a.917.917,0,0,0,1.056-.326c.181.252.174.386.171.407-.012.073-.152.376-.976.741a14.471,14.471,0,0,1-4.067.908,3.208,3.208,0,0,0-6.409,0,14.471,14.471,0,0,1-4.067-.908c-.824-.365-.964-.667-.976-.741,0-.021-.01-.154.17-.407a.917.917,0,0,0,1.6-.853,2.536,2.536,0,0,1,.008-1.414,5.119,5.119,0,0,1,.955-1.917l.01-.013v1.829a.917.917,0,0,0,1.833,0v-3.35a6.863,6.863,0,0,1,2.75-.754v2.271a.917.917,0,0,0,1.833,0V26.824a7.82,7.82,0,0,1,2.75.853v3.2a.917.917,0,1,0,1.833,0V29.151a3.581,3.581,0,0,1,.972,3.246A.917.917,0,0,0,69.1,33.57Zm-9.344,4.1a25.747,25.747,0,0,1-3.161-.4,5.5,5.5,0,0,0,10.965,0,25.757,25.757,0,0,1-3.161.4,3.208,3.208,0,0,1-4.644,0Zm3.7-2.214a1.375,1.375,0,1,1-1.375-1.375A1.375,1.375,0,0,1,63.456,35.458Z" transform="translate(-45.581 -24)"/><path d="M89.833,143.667A1.833,1.833,0,1,0,88,141.833,1.833,1.833,0,0,0,89.833,143.667Z" transform="translate(-73.333 -113.417)"/><path class="a" d="M36.406,113.6l3.177,2.383h1.833l3.177-2.383c5.587.895,12.406,3.382,12.406,6.967v5.5H24v-5.5C24,116.982,30.819,114.495,36.406,113.6Zm5.622,4.217,3.034-2.276c.919.169,1.855.38,2.771.629v8.064h1.833v-7.5c.642.22,1.257.459,1.833.717v6.786h-22v-6.786c.577-.257,1.192-.5,1.833-.717v7.5h1.833v-8.064c.916-.248,1.852-.46,2.771-.629l3.034,2.276Zm12.5,1.549a1.8,1.8,0,0,1,.637,1.2v3.667H53.333v-5.815a6.647,6.647,0,0,1,1.2.949Zm-28.059,0a6.754,6.754,0,0,1,1.2-.948v5.815H25.833v-3.667A1.791,1.791,0,0,1,26.47,119.366Z" transform="translate(-24 -93.067)"/></svg>