<svg xmlns="http://www.w3.org/2000/svg" width="103.012" height="86.744" viewBox="0 0 103.012 86.744"><path d="M43.461,24H48.04V97.616H43.461ZM32.026,24h6.861V97.616H32.026V24Zm-4.574,0H29.74V97.616H27.453V24ZM11.434,24h2.292V97.616H11.434V24Zm4.579,0h6.855V97.616h-6.85V24Zm64.125,0H87V97.616H80.143V24ZM66.412,24h6.861V97.616H66.412Zm9.147,0h2.292V97.616H75.559Zm-9.147,78.867H91.573v7.876H66.412ZM0,24H6.861v86.744H0Zm54.972,78.867h6.866v7.876H54.972ZM89.286,24h2.287V97.616H89.286Zm6.866,0h6.861v86.744H96.152Zm-36.6,0h4.574V97.616H59.551V24ZM11.434,102.867h6.861v7.876H11.439v-7.876Zm11.434,0H50.321v7.876H22.869ZM52.691,24h2.287V97.616H52.691Z" transform="translate(0 -24)"/></svg>