<svg xmlns="http://www.w3.org/2000/svg" width="116" height="29.276" viewBox="0 0 116 29.276"><defs><style>.a{fill:#b7b7b7;}.b{fill:#fc0;}.c,.d{fill:none;stroke-linecap:square;}.c{fill-rule:evenodd;}.e{fill:#ac63ff;}.f{fill:#228b57;}.g{fill:red;}.h,.i{stroke:none;}.i{fill:#000;}</style></defs><g transform="translate(0 -16.756)"><g transform="translate(0 0.701)"><rect class="a" width="29.276" height="25" rx="4" transform="translate(41 16.056) rotate(90)"/><g transform="translate(19.44 19.064)"><path d="M54.72,40.357H68.814V36.48H54.72Zm1.007-2.907H67.807v1.938H55.727Z" transform="translate(-52.707 -34.542)"/><path d="M58.667,24.32H44.573a1.975,1.975,0,0,0-2.013,1.938V45.641a1.975,1.975,0,0,0,2.013,1.938H58.667a1.975,1.975,0,0,0,2.013-1.938V26.258A1.975,1.975,0,0,0,58.667,24.32Zm1.007,21.321a.991.991,0,0,1-1.007.969H44.573a.991.991,0,0,1-1.007-.969V26.258a.991.991,0,0,1,1.007-.969H58.667a.991.991,0,0,1,1.007.969Z" transform="translate(-42.56 -24.32)"/><path d="M55.727,75.867V72.96H54.72v3.877h4.027v-.969h-3.02Z" transform="translate(-52.707 -65.207)"/><path d="M55.727,106.267V103.36H54.72v3.877h4.027v-.969h-3.02Z" transform="translate(-52.707 -90.761)"/><path d="M55.727,136.667V133.76H54.72v3.877h4.027v-.969h-3.02Z" transform="translate(-52.707 -116.315)"/><path d="M86.127,75.867V72.96H85.12v3.877h4.027v-.969h-3.02Z" transform="translate(-78.073 -65.207)"/><path d="M116.527,75.867V72.96H115.52v3.877h4.027v-.969h-3.02Z" transform="translate(-103.439 -65.207)"/><path d="M86.127,106.267V103.36H85.12v3.877h4.027v-.969h-3.02Z" transform="translate(-78.073 -90.761)"/><path d="M86.127,136.667V133.76H85.12v3.877h4.027v-.969h-3.02Z" transform="translate(-78.073 -116.315)"/><path d="M116.527,111.113V103.36H115.52v8.722h4.027v-.969h-3.02Z" transform="translate(-103.439 -90.761)"/></g></g><g transform="translate(0 0.15)"><rect class="b" width="29.092" height="25" rx="4" transform="translate(66 16.607) rotate(90)"/><g transform="translate(43 19.607)"><g class="c" transform="translate(-47.936 -24)"><path class="h" d="M58.378,24a.6.6,0,0,1,.58.627v.043a5.514,5.514,0,0,1,3.668,1.9,4.577,4.577,0,0,1,1.037,2.214l.063.052A2.241,2.241,0,0,1,64.744,30.8a2.059,2.059,0,0,1-1.294,1.453q-.217.1-.441.186a5.139,5.139,0,0,1-2.221,4.622,4.347,4.347,0,0,1-4.82,0,5.139,5.139,0,0,1-2.221-4.622q-.224-.082-.441-.186A2.059,2.059,0,0,1,52.013,30.8a2.241,2.241,0,0,1,1.017-1.967l.074-.061q.022-.15.056-.3a4.913,4.913,0,0,1,.819-1.789,4.982,4.982,0,0,1,3.82-2.046v-.013A.6.6,0,0,1,58.378,24Zm4.444,6.545a.556.556,0,0,0,.668-.223.46.46,0,0,1,.108.278c-.008.05-.1.257-.618.507a8.587,8.587,0,0,1-2.574.621,2.029,2.029,0,1,0-4.056,0,8.587,8.587,0,0,1-2.574-.621c-.522-.25-.61-.456-.618-.507a.461.461,0,0,1,.108-.278.554.554,0,0,0,.744.188.65.65,0,0,0,.271-.772,1.869,1.869,0,0,1,.005-.967,3.619,3.619,0,0,1,.6-1.311l.006-.009V28.7a.582.582,0,1,0,1.16,0V26.411A4.1,4.1,0,0,1,57.8,25.9v1.553a.582.582,0,1,0,1.16,0V25.932a4.689,4.689,0,0,1,1.74.583V28.7a.582.582,0,1,0,1.16,0V27.523a2.588,2.588,0,0,1,.615,2.22A.642.642,0,0,0,62.822,30.545ZM56.909,33.35a15.138,15.138,0,0,1-2-.273,3.47,3.47,0,0,0,6.94,0,15.145,15.145,0,0,1-2,.273,1.927,1.927,0,0,1-2.939,0Zm2.34-1.514a.873.873,0,1,1-.87-.94A.907.907,0,0,1,59.249,31.836Z"/><path class="i" d="M 58.37839889526367 24 C 58.69879913330078 24 58.95853042602539 24.28068161010742 58.95853042602539 24.62691116333008 L 58.95853042602539 24.66954040527344 C 60.58173751831055 24.85260009765625 61.82032012939453 25.60678100585938 62.6266975402832 26.56658172607422 C 63.18130874633789 27.22671890258789 63.54853057861328 28.01350021362305 63.66397857666016 28.78084945678711 L 63.72662734985352 28.83287811279297 C 64.37870025634766 29.37892150878906 64.85730743408203 30.04093933105469 64.74359893798828 30.80013084411621 C 64.63397216796875 31.53362083435059 64.02075958251953 31.97999000549316 63.44990921020508 32.25270080566406 C 63.30551910400391 32.32147216796875 63.15840911865234 32.38337707519531 63.00901031494141 32.43825912475586 C 63.12516021728516 34.30624008178711 62.26885986328125 36.08861923217773 60.78822708129883 37.06073760986328 C 59.30759811401367 38.03285980224609 57.44918441772461 38.03285980224609 55.96857070922852 37.06073760986328 C 54.48793792724609 36.08861923217773 53.63162994384766 34.30624008178711 53.74778747558594 32.43825912475586 C 53.598388671875 32.38337707519531 53.45129013061523 32.32147216796875 53.30688858032227 32.25270080566406 C 52.73604583740234 31.97999000549316 52.12284088134766 31.53362083435059 52.01319122314453 30.80013084411621 C 51.89949035644531 30.04093933105469 52.37809753417969 29.37892150878906 53.03017044067383 28.83287811279297 L 53.10384750366211 28.77143859863281 C 53.11882019042969 28.67163848876953 53.13739776611328 28.572509765625 53.15953826904297 28.47428131103516 C 53.31216812133789 27.82220077514648 53.59116744995117 27.21255111694336 53.97809982299805 26.68568801879883 C 54.75547790527344 25.61492919921875 56.0277099609375 24.74979019165039 57.79825973510742 24.63945007324219 L 57.79825973510742 24.62691116333008 C 57.79825973510742 24.28068161010742 58.05799865722656 24 58.37839889526367 24 Z M 58.37839889526367 28.0749397277832 C 58.05799865722656 28.0749397277832 57.79825973510742 27.79425811767578 57.79825973510742 27.44802093505859 L 57.79825973510742 25.89516067504883 C 57.11196899414062 25.94781112670898 56.53474807739258 26.13840103149414 56.05786895751953 26.41110992431641 L 56.05786895751953 28.70185089111328 C 56.05786895751953 29.04808807373047 55.79813766479492 29.32876968383789 55.47773742675781 29.32876968383789 C 55.1573371887207 29.32876968383789 54.89760971069336 29.04808807373047 54.89760971069336 28.70185089111328 L 54.89760971069336 27.4511604309082 L 54.89122772216797 27.45993041992188 C 54.60646820068359 27.84595108032227 54.40045928955078 28.29269027709961 54.28672790527344 28.77080917358398 C 54.1904296875 29.19836044311523 54.21188735961914 29.53501892089844 54.28150939941406 29.73814010620117 C 54.38265991210938 30.03252029418945 54.26667022705078 30.36235046386719 54.01012802124023 30.50984001159668 C 53.75361633300781 30.65732192993164 53.4356575012207 30.57695007324219 53.26627731323242 30.32180023193359 C 53.1519889831543 30.49482917785645 53.15604782104492 30.58572959899902 53.15837860107422 30.60014915466309 C 53.16592025756836 30.65029907226562 53.25468063354492 30.85717964172363 53.77621841430664 31.106689453125 C 54.38476943969727 31.39759063720703 55.30022048950195 31.60821914672852 56.35025787353516 31.72734069824219 C 56.40205001831055 30.55761909484863 57.29473876953125 29.63800811767578 58.37839889526367 29.63800811767578 C 59.46207046508789 29.63800811767578 60.3547477722168 30.55761909484863 60.40653991699219 31.72734069824219 C 61.45657730102539 31.60821914672852 62.37202072143555 31.39759063720703 62.9805793762207 31.106689453125 C 63.50211715698242 30.85717964172363 63.59088897705078 30.65029907226562 63.59841918945312 30.60014915466309 C 63.60073852539062 30.58572959899902 63.60480880737305 30.49419975280762 63.49052047729492 30.32180023193359 C 63.33896255493164 30.54928016662598 63.06608963012695 30.64040756225586 62.82220840454102 30.54497909545898 C 62.5211296081543 30.42715072631836 62.36532974243164 30.06797981262207 62.47412872314453 29.74253082275391 C 62.64352798461914 29.2347297668457 62.50661849975586 28.35454940795898 61.85918807983398 27.52262878417969 L 61.85918807983398 28.70185089111328 C 61.85918807983398 29.04808807373047 61.59946060180664 29.32876968383789 61.27906036376953 29.32876968383789 C 60.95866012573242 29.32876968383789 60.69892883300781 29.04808807373047 60.69892883300781 28.70185089111328 L 60.69892883300781 26.51454925537109 C 60.21625900268555 26.23368835449219 59.63727951049805 26.0236701965332 58.95853042602539 25.9315185546875 L 58.95853042602539 27.44802093505859 C 58.95853042602539 27.79425811767578 58.69879913330078 28.0749397277832 58.37839889526367 28.0749397277832 Z M 58.37839889526367 32.77680206298828 C 58.85898971557617 32.77680206298828 59.24860000610352 32.35578155517578 59.24860000610352 31.83642959594727 C 59.24860000610352 31.31707954406738 58.85898971557617 30.89605903625488 58.37839889526367 30.89605903625488 C 57.89780044555664 30.89605903625488 57.50820922851562 31.31707954406738 57.50820922851562 31.83642959594727 C 57.50820922851562 32.35578155517578 57.89780044555664 32.77680206298828 58.37839889526367 32.77680206298828 Z M 58.37610244750977 34.03063201904297 C 57.82148361206055 34.03063201904297 57.29115676879883 33.78478622436523 56.90892791748047 33.35042953491211 L 56.90892791748047 33.35041809082031 C 56.23759841918945 33.30422973632812 55.56954956054688 33.21315765380859 54.90863800048828 33.07772064208984 C 55.0529670715332 35.03292083740234 56.56335067749023 36.54009246826172 58.37839889526367 36.54009246826172 C 60.19344711303711 36.54009246826172 61.70383071899414 35.03292083740234 61.84815979003906 33.07772064208984 C 61.23323059082031 33.20812225341797 60.55215072631836 33.29838943481445 59.84786987304688 33.35041809082031 C 59.46511840820312 33.78536987304688 58.93376541137695 34.03061294555664 58.37839889526367 34.03063201904297 C 58.37765121459961 34.03063201904297 58.37684631347656 34.03063201904297 58.37610244750977 34.03063201904297 Z"/></g><g class="d" transform="translate(-78.718 -121.819)"><path class="h" d="M89.16,142.508A1.258,1.258,0,1,0,88,141.254,1.21,1.21,0,0,0,89.16,142.508Z"/><path class="i" d="M 89.16025543212891 142.5076446533203 C 88.51946258544922 142.5076446533203 88 141.9462738037109 88 141.2537994384766 C 88 140.5613250732422 88.51946258544922 139.9999847412109 89.16025543212891 139.9999847412109 C 89.80105590820312 139.9999847412109 90.32052612304688 140.5613250732422 90.32052612304688 141.2537994384766 C 90.32052612304688 141.9462738037109 89.80105590820312 142.5076446533203 89.16025543212891 142.5076446533203 Z"/></g><g class="c" transform="translate(-24 -99.557)"><path class="h" d="M31.851,113.6l2.011,1.63h1.16l2.011-1.63c3.536.612,7.852,2.313,7.852,4.765v3.761H24v-3.761C24,115.913,28.316,114.212,31.851,113.6Zm3.558,2.884,1.92-1.557c.582.115,1.174.26,1.754.43v5.515h1.16v-5.131c.406.15.8.314,1.16.49v4.641H27.481v-4.641c.365-.176.754-.34,1.16-.49v5.131H29.8v-5.515c.58-.17,1.172-.315,1.754-.43l1.92,1.557Zm7.912,1.059a1.267,1.267,0,0,1,.4.821v2.508h-1.16V116.9a4.281,4.281,0,0,1,.757.649Zm-17.758,0a4.349,4.349,0,0,1,.757-.648v3.977H25.16v-2.508A1.264,1.264,0,0,1,25.563,117.543Z"/><path class="i" d="M 31.85149765014648 113.599967956543 L 33.86222839355469 115.2299499511719 L 35.02249908447266 115.2299499511719 L 37.03323745727539 113.599967956543 C 40.56913757324219 114.2118377685547 44.88473510742188 115.9132843017578 44.88473510742188 118.3645248413086 L 44.88473510742188 122.1260147094727 L 23.99999618530273 122.1260147094727 L 23.99999618530273 118.3645248413086 C 23.99999618530273 115.9132843017578 28.31559753417969 114.2118377685547 31.85149765014648 113.599967956543 Z M 35.40944671630859 116.4837799072266 L 33.47528839111328 116.4837799072266 L 31.55504608154297 114.9271545410156 C 30.97317886352539 115.0425033569336 30.38086700439453 115.1873245239258 29.80131912231445 115.3572235107422 L 29.80131912231445 120.872184753418 L 28.64104843139648 120.872184753418 L 28.64104843139648 115.7408905029297 C 28.23495864868164 115.8913650512695 27.84568786621094 116.0556030273438 27.48078918457031 116.2311401367188 L 27.48078918457031 120.872184753418 L 41.40394592285156 120.872184753418 L 41.40394592285156 116.2311401367188 C 41.03904724121094 116.0549850463867 40.64976501464844 115.8913650512695 40.24367523193359 115.7408905029297 L 40.24367523193359 120.872184753418 L 39.08341979980469 120.872184753418 L 39.08341979980469 115.3572235107422 C 38.50386810302734 115.1873245239258 37.91154479980469 115.0425033569336 37.32967758178711 114.9271545410156 L 35.40944671630859 116.4837799072266 Z M 26.32052612304688 120.872184753418 L 26.32052612304688 116.8950424194336 C 26.00782775878906 117.1119384765625 25.75489807128906 117.3301086425781 25.56345748901367 117.5432586669922 C 25.23567581176758 117.9093780517578 25.1602668762207 118.1795883178711 25.1602668762207 118.3645248413086 L 25.1602668762207 120.872184753418 L 26.32052612304688 120.872184753418 Z M 43.3212776184082 117.5438919067383 C 43.13042831420898 117.3301086425781 42.87747955322266 117.1119384765625 42.564208984375 116.8950424194336 L 42.564208984375 120.872184753418 L 43.72446823120117 120.872184753418 L 43.72446823120117 118.3645248413086 C 43.72446823120117 118.1795883178711 43.64847564697266 117.9093780517578 43.3212776184082 117.5432586669922 L 43.3212776184082 117.5438919067383 Z"/></g></g></g><g transform="translate(0 0.15)"><rect class="e" width="29.092" height="25" rx="4" transform="translate(91 16.607) rotate(90)"/><g transform="translate(69 18.607)"><path d="M90.109,0a.84.84,0,0,0-.829.85V20.285a.829.829,0,1,0,1.658,0V11.418h10.186a.84.84,0,0,0,.829-.85V.85a.84.84,0,0,0-.829-.85h-10.9l-.06,0Zm3.269,1.7H95.7V3.506h2.322V1.7H100.3V3.506H98.021V5.886H100.3V8.267H98.021V9.717H95.7V8.267H93.378v1.45H91.057V8.267h2.322V5.886H91.057V3.505h2.322Zm0,1.805V5.886H95.7V3.505H93.378ZM95.7,5.886V8.267h2.322V5.886Z" transform="translate(-83.002 0)"/><path d="M42.665,147.441c-2.51.364-4.265,1.234-4.265,2.515,0,1.725,2.933,3.123,7.107,3.123s7.107-1.4,7.107-3.123c0-1.281-1.755-2.151-4.265-2.514l-.348.607c1.892.269,3.191.835,3.191,1.491,0,.92-2.545,1.666-5.685,1.666s-5.685-.746-5.685-1.666c0-.654,1.291-1.219,3.188-1.489Z" transform="translate(-38.4 -128.785)"/></g></g><g transform="translate(0 0.15)"><rect class="f" width="29.092" height="25" rx="4" transform="translate(116 16.607) rotate(90)"/><g transform="translate(93 20.607)"><ellipse cx="1.401" cy="1.428" rx="1.401" ry="1.428" transform="translate(5.685 18.1)"/><ellipse cx="1.401" cy="1.428" rx="1.401" ry="1.428" transform="translate(16.093 18.1)"/><path d="M3.627,12.6a.732.732,0,0,0-.714-.6H0v1.485H2.316l2.8,14.249a.732.732,0,0,0,.714.6H18.934V26.846H6.423L5.84,23.877H18.934a.731.731,0,0,0,.711-.581L21.3,15.711H19.806L18.35,22.392H5.549Z" transform="translate(0 -12)"/><path d="M73.709,17.5,71.1,14.841v6.066H69.641V14.841L67.03,17.5,66,16.454,70.369,12l4.369,4.454Z" transform="translate(-57.989 -12)"/></g></g><g transform="translate(0 0.15)"><rect class="g" width="29.092" height="16" rx="4" transform="translate(16 16.607) rotate(90)"/><path d="M2.275,0H.233l5.3,5.564L0,11.341H1.991l4.55-4.863,4.55,4.863h2.068L7.6,5.522,12.927,0H10.936L6.593,4.587Z" transform="translate(2.33 37.732) rotate(-90)"/></g></g></svg>