<svg xmlns="http://www.w3.org/2000/svg" width="32.259" height="19.683" viewBox="0 0 32.259 19.683"><path d="M13.61,24h1.434V40.7H13.61Zm-3.581,0h2.148V40.7H10.029ZM8.6,24h.716V40.7H8.6V24ZM3.581,24H4.3V40.7H3.581V24Zm1.434,0H7.162V40.7H5.016V24ZM25.1,24h2.148V40.7H25.1V24Zm-4.3,0h2.148V40.7H20.8Zm2.865,0h.718V40.7h-.718ZM20.8,41.9h7.879v1.787H20.8ZM0,24H2.148V43.683H0ZM17.215,41.9h2.15v1.787h-2.15ZM27.961,24h.716V40.7h-.716Zm2.15,0h2.148V43.683H30.111ZM18.649,24h1.432V40.7H18.649V24ZM3.581,41.9H5.729v1.787H3.582V41.9Zm3.581,0h8.6v1.787h-8.6ZM16.5,24h.716V40.7H16.5Z" transform="translate(0 -24)"/></svg>