<svg xmlns="http://www.w3.org/2000/svg" width="38.154" height="46.857" viewBox="0 0 38.154 46.857"><defs><style>.a{fill:#b3b3b3;}</style></defs><g transform="translate(-0.149 -0.349)"><g transform="translate(0.149 11.643)"><path class="a" d="M2517.4-4592.127a10.6,10.6,0,0,1,5.065-8.915,10.953,10.953,0,0,0-8.573-4.648c-3.647-.369-7.12,2.146-8.969,2.146s-4.707-2.094-7.731-2.035a11.465,11.465,0,0,0-9.7,5.874c-4.132,7.167-1.054,17.789,2.968,23.607,1.969,2.844,4.314,6.048,7.4,5.93,2.971-.118,4.093-1.92,7.678-1.92s4.6,1.92,7.734,1.864c3.193-.062,5.218-2.906,7.173-5.759a25.755,25.755,0,0,0,3.243-6.666,10.347,10.347,0,0,1-6.29-9.479" transform="translate(-2485.532 4605.728)"/></g><path class="a" d="M359.274,7.832A10.306,10.306,0,0,0,361.711.349a10.5,10.5,0,0,0-6.9,3.553,9.8,9.8,0,0,0-2.484,7.247,8.694,8.694,0,0,0,6.949-3.317" transform="translate(-333.159 0)"/></g></svg>