<svg xmlns="http://www.w3.org/2000/svg" width="45.66" height="46.592" viewBox="0 0 45.66 46.592"><defs><style>.a{fill:#4285f4;}.b{fill:#34a853;}.c{fill:#fbbc05;}.d{fill:#eb4335;}</style></defs><path class="a" d="M152.914,111.524a19.964,19.964,0,0,0-.492-4.763H130.55v8.645h12.839a11.385,11.385,0,0,1-4.763,7.558l-.044.289,6.916,5.357.479.048c4.4-4.064,6.937-10.043,6.937-17.136" transform="translate(-107.254 -87.71)"/><path class="b" d="M34.736,175.059a22.2,22.2,0,0,0,15.427-5.643l-7.351-5.695a13.788,13.788,0,0,1-8.076,2.33,14.024,14.024,0,0,1-13.253-9.681l-.273.023-7.191,5.565-.094.261a23.279,23.279,0,0,0,20.811,12.839" transform="translate(-11.44 -128.466)"/><path class="c" d="M10.043,86.49a14.342,14.342,0,0,1-.776-4.607,15.071,15.071,0,0,1,.751-4.607L10,76.967,2.723,71.312l-.238.113a23.247,23.247,0,0,0,0,20.915l7.558-5.85" transform="translate(0 -58.587)"/><path class="d" d="M34.736,9.008a12.911,12.911,0,0,1,9.008,3.469l6.575-6.419A22.382,22.382,0,0,0,34.736,0,23.279,23.279,0,0,0,13.925,12.839l7.532,5.85A14.082,14.082,0,0,1,34.736,9.008" transform="translate(-11.44)"/></svg>