<svg xmlns="http://www.w3.org/2000/svg" width="132.75" height="132.75" viewBox="0 0 132.75 132.75"><g transform="translate(-6 -6)"><path d="M65.83,30.149H43.7l-2.622,2.62a41.962,41.962,0,0,0-7.872-5.941,46.007,46.007,0,0,0-6.341-3.073A60.966,60.966,0,0,1,23.43,7.92,1.952,1.952,0,0,0,21.512,6a1.928,1.928,0,0,0-1.923,1.92A67.073,67.073,0,0,0,22.335,22.2,71.22,71.22,0,0,0,7.92,19.587,1.929,1.929,0,0,0,6,21.51a1.957,1.957,0,0,0,1.92,1.923,62,62,0,0,1,16.047,3.378c.619,1.56,1.29,3.1,2.04,4.606a41.551,41.551,0,0,0,5.317,8.177c.44.524.909,1.038,1.4,1.535l-2.578,2.578V65.833L94.662,138.75,138.75,94.664,65.83,30.149M34.043,36.875a38.082,38.082,0,0,1-4.693-7.359c-.084-.168-.157-.343-.239-.511a41.287,41.287,0,0,1,5.912,3.609,32.222,32.222,0,0,1,3.345,2.87L35.453,38.4q-.734-.735-1.409-1.524m.164,27.417V45.382l6.914-6.914c.223.268.46.533.673.8l.049.062.046.064.294.4q.86,1.189,1.617,2.447c.208.347.376.717.571,1.073a6.631,6.631,0,0,0-.584.471A7.075,7.075,0,1,0,48.022,41.9c-.241-.445-.482-.889-.732-1.316a35.24,35.24,0,0,0-3.447-4.843l1.54-1.54H64.295l68.539,60.64L94.845,132.832,34.207,64.293M46.221,47.312c.064.188.139.376.2.569.126.4.252.812.339,1.226.5,2.436,4.217,1.44,3.717-.973a17.036,17.036,0,0,0-.518-1.894,2.7,2.7,0,0,1,.622.416,2.778,2.778,0,0,1,0,3.927,2.842,2.842,0,0,1-3.927,0,2.748,2.748,0,0,1-.434-3.27"/></g></svg>