<svg xmlns="http://www.w3.org/2000/svg" width="31.724" height="33.99" viewBox="0 0 31.724 33.99"><defs><style>.a{fill:none;stroke:#000;}</style></defs><g transform="translate(0.513 0.49)"><path class="a" d="M32.136,6.6,27.8,10.636H12.19L7.854,6.6a8.868,8.868,0,0,1,5.693-3.393c3.507-.377,4.713,1.734,6.448,1.81,1.734-.075,2.941-2.187,6.41-1.81A8.882,8.882,0,0,1,32.136,6.6ZM20.6,25.982V29a1.982,1.982,0,0,0,1.131-.528,1.527,1.527,0,0,0,.415-1.018,1.225,1.225,0,0,0-.377-.9A2.415,2.415,0,0,0,20.6,25.982Zm-2.564-3.921a1.217,1.217,0,0,0,.3.792,2.331,2.331,0,0,0,.9.566V20.7a2.238,2.238,0,0,0-.867.528A1.237,1.237,0,0,0,18.034,22.061ZM34.775,32.543a5.274,5.274,0,0,1-5.279,3.62h-19a5.226,5.226,0,0,1-5.279-3.62c-2.828-12.518,5.807-19.305,5.807-19.305H28.969S37.6,20.025,34.775,32.543ZM24.406,27.189a2.785,2.785,0,0,0-.792-2.074A6.462,6.462,0,0,0,20.6,23.8V20.741a1.664,1.664,0,0,1,1.093,1.244l2.338-.264a3.1,3.1,0,0,0-1.093-1.848,4.233,4.233,0,0,0-2.338-.867v-.754H19.241v.754a4.4,4.4,0,0,0-2.526,1.018,2.759,2.759,0,0,0-.98,2.149,3.053,3.053,0,0,0,.867,2.149,5.258,5.258,0,0,0,2.639,1.32v3.28a3,3,0,0,1-.9-.679,2.159,2.159,0,0,1-.528-1.056l-2.413.189a3.833,3.833,0,0,0,1.244,2.413,5.028,5.028,0,0,0,2.6.98V32.2H20.6V30.733a4.645,4.645,0,0,0,2.79-1.169A3.256,3.256,0,0,0,24.406,27.189Z" transform="translate(-4.646 -3.163)"/></g></svg>