<svg xmlns="http://www.w3.org/2000/svg" width="107.819" height="102.25" viewBox="0 0 107.819 102.25"><defs><style>.a{fill:none;stroke:#000;stroke-linejoin:round;stroke-width:2px;}</style></defs><g transform="translate(1 1)"><path class="a" d="M57.417,24C38.982,24,24.78,38.982,24,57.417V124.25H74.125V82.256A33.061,33.061,0,0,0,96.4,90.833,33.417,33.417,0,1,0,96.4,24H57.417M96.4,35.139A22.278,22.278,0,1,1,74.125,57.417,22.272,22.272,0,0,1,96.4,35.139m0,12.531a9.747,9.747,0,1,0,9.747,9.747A9.722,9.722,0,0,0,96.4,47.67" transform="translate(-24 -24)"/></g></svg>