<svg xmlns="http://www.w3.org/2000/svg" width="53" height="46" viewBox="0 0 53 46"><defs><style>.a{fill:#FBFAF6;}.b,.c{stroke:none;}.c{fill:#707070;}</style></defs><g class="a"><path class="b" d="M 41 45.5 L 12 45.5 C 5.658880233764648 45.5 0.5 41.30239868164062 0.5 36.14286041259766 L 0.5 9.857139587402344 C 0.5 4.6975998878479 5.658880233764648 0.5 12 0.5 L 41 0.5 C 47.34112167358398 0.5 52.5 4.6975998878479 52.5 9.857139587402344 L 52.5 36.14286041259766 C 52.5 41.30239868164062 47.34112167358398 45.5 41 45.5 Z"/><path class="c" d="M 12 1 C 5.934581756591797 1 1 4.973300933837891 1 9.857139587402344 L 1 36.14286041259766 C 1 41.02669906616211 5.934581756591797 45 12 45 L 41 45 C 47.06542205810547 45 52 41.02669906616211 52 36.14286041259766 L 52 9.857139587402344 C 52 4.973300933837891 47.06542205810547 1 41 1 L 12 1 M 12 0 L 41 0 C 47.62741851806641 0 53 4.413188934326172 53 9.857139587402344 L 53 36.14286041259766 C 53 41.58681106567383 47.62741851806641 46 41 46 L 12 46 C 5.372581481933594 46 0 41.58681106567383 0 36.14286041259766 L 0 9.857139587402344 C 0 4.413188934326172 5.372581481933594 0 12 0 Z"/></g></svg>