<svg xmlns="http://www.w3.org/2000/svg" width="117.902" height="115" viewBox="0 0 117.902 115"><defs><style>.a{fill:none;stroke:#000;stroke-width:2px;}</style></defs><g transform="translate(1 1)"><path class="a" d="M47.568,39.664a14.171,14.171,0,0,0-5.7-.966c-1.256,0-2.366,0-3.284.048a11.056,11.056,0,0,0-1.98.048V55.021c.676.048,1.3.1,1.883.1h2.56a18.039,18.039,0,0,0,5.554-.869,8.305,8.305,0,0,0,3.96-2.56,7.462,7.462,0,0,0,1.5-4.974,7.949,7.949,0,0,0-1.111-4.3,7,7,0,0,0-3.38-2.753ZM95.378.45H20.524A20.507,20.507,0,0,0,0,20.974V92.926A20.507,20.507,0,0,0,20.524,113.45H95.378A20.507,20.507,0,0,0,115.9,92.926V20.974A20.507,20.507,0,0,0,95.378.45ZM59.685,56.711a16.509,16.509,0,0,1-7.77,5.892,31.3,31.3,0,0,1-10.866,1.642c-1.159,0-1.932,0-2.415-.048s-1.159-.048-2.077-.048v15.5a.605.605,0,0,1-.531.681H26.658c-.386,0-.58-.2-.58-.633V30.005c0-.338.145-.531.483-.531.821,0,1.594,0,2.7-.048,1.159-.048,2.366-.048,3.67-.1s2.7-.048,4.2-.1,2.946-.048,4.395-.048a28.4,28.4,0,0,1,9.948,1.5,17.245,17.245,0,0,1,6.471,3.96,15.376,15.376,0,0,1,3.525,5.505,18.6,18.6,0,0,1,1.106,6.278,17.2,17.2,0,0,1-2.9,10.286ZM93.929,75.5a12.2,12.2,0,0,1-5.409,4.3,22.232,22.232,0,0,1-8.746,1.536,33.213,33.213,0,0,1-6.563-.623,19.676,19.676,0,0,1-4.926-1.545.943.943,0,0,1-.536-.913v-8.4a.535.535,0,0,1,.2-.435.368.368,0,0,1,.435.048,20.538,20.538,0,0,0,5.988,2.366,22.427,22.427,0,0,0,5.7.724,9.206,9.206,0,0,0,4.008-.681,2.243,2.243,0,0,0,1.3-2.028,2.551,2.551,0,0,0-1.159-1.932,21,21,0,0,0-4.728-2.275,29.818,29.818,0,0,1-6.858-3.472,12.677,12.677,0,0,1-3.675-4.1,10.422,10.422,0,0,1-1.106-4.931A11.317,11.317,0,0,1,69.5,47.289a11.892,11.892,0,0,1,5.066-4.443,18.758,18.758,0,0,1,8.543-1.685A41.633,41.633,0,0,1,89.1,41.6a16.992,16.992,0,0,1,4.153,1.111.863.863,0,0,1,.483.435,2.424,2.424,0,0,1,.1.58v7.872a.594.594,0,0,1-.241.483,1.287,1.287,0,0,1-.869,0,17.093,17.093,0,0,0-4.636-1.642,25.458,25.458,0,0,0-5.409-.628,9.774,9.774,0,0,0-2.9.338,2.494,2.494,0,0,0-1.5.966,2.559,2.559,0,0,0-.386,1.3,2.123,2.123,0,0,0,.488,1.256,5.391,5.391,0,0,0,1.642,1.3c1.106.58,2.27,1.111,3.424,1.594a34.905,34.905,0,0,1,7.442,3.525A11.144,11.144,0,0,1,94.7,64.1a10.394,10.394,0,0,1,1.111,4.969A11.211,11.211,0,0,1,93.929,75.5Z" transform="translate(0 -0.45)"/></g></svg>