<svg xmlns="http://www.w3.org/2000/svg" width="147.728" height="121.832" viewBox="0 0 147.728 121.832"><g transform="translate(0 -20.79)"><path d="M101.563,87.224H18.682V77.991h82.88Zm46.165,55.4H0V105.69a8.947,8.947,0,0,1,.721-3.607,9.4,9.4,0,0,1,4.905-4.905,8.947,8.947,0,0,1,3.607-.721H138.495V85.493L25.607,29.013l4.184-8.223L142.606,77.2a9.7,9.7,0,0,1,3.715,3.462,8.909,8.909,0,0,1,1.407,4.833ZM9.233,133.389H138.495v-27.7H9.233Zm13.849-18.466a4.681,4.681,0,1,1-3.246,1.371A4.437,4.437,0,0,1,23.082,114.923Z"/></g></svg>