<svg xmlns="http://www.w3.org/2000/svg" width="27.203" height="27.204" viewBox="0 0 27.203 27.204"><g transform="translate(-0.002 -0.002)"><g transform="translate(0.002 0.002)"><path d="M10.339.4l.3,1.236A12.351,12.351,0,0,0,7.225,3.049L6.574,1.956A13.432,13.432,0,0,1,10.337.4Zm6.529,0-.3,1.234a12.353,12.353,0,0,1,3.418,1.415l.66-1.093A13.529,13.529,0,0,0,16.868.4ZM1.956,6.571A13.507,13.507,0,0,0,.4,10.337l1.236.306A12.351,12.351,0,0,1,3.05,7.225L1.956,6.569ZM1.276,13.6a12.421,12.421,0,0,1,.138-1.849L.156,11.563a13.6,13.6,0,0,0,0,4.077l1.258-.19A12.347,12.347,0,0,1,1.276,13.6ZM20.632,25.247l-.653-1.088a12.293,12.293,0,0,1-3.412,1.413l.306,1.238a13.543,13.543,0,0,0,3.759-1.563Zm5.3-11.644a12.415,12.415,0,0,1-.139,1.847l1.258.19a13.544,13.544,0,0,0,0-4.077l-1.258.194a12.432,12.432,0,0,1,.139,1.847Zm.877,3.261-1.238-.306a12.33,12.33,0,0,1-1.415,3.421l1.093.658a13.488,13.488,0,0,0,1.559-3.773ZM15.451,25.791a12.235,12.235,0,0,1-3.695,0l-.19,1.262a13.585,13.585,0,0,0,4.074,0l-.19-1.26Zm8.076-4.876a12.291,12.291,0,0,1-2.613,2.608l.758,1.029a13.721,13.721,0,0,0,2.882-2.872l-1.027-.765ZM20.914,3.679a12.286,12.286,0,0,1,2.613,2.613l1.027-.765a13.7,13.7,0,0,0-2.873-2.875l-.765,1.027ZM3.679,6.292A12.313,12.313,0,0,1,6.292,3.679L5.527,2.652A13.7,13.7,0,0,0,2.652,5.525l1.027.765Zm21.573.277-1.095.658a12.247,12.247,0,0,1,1.415,3.412l1.238-.306a13.485,13.485,0,0,0-1.557-3.764Zm-13.5-5.155a12.334,12.334,0,0,1,3.693,0l.19-1.258a13.577,13.577,0,0,0-4.074,0l.19,1.258ZM4.332,24.893l-2.63.612.612-2.634-1.24-.289L.46,25.214a1.275,1.275,0,0,0,1.53,1.534l2.632-.607-.289-1.248ZM1.337,21.445l1.245.286.425-1.824a12.22,12.22,0,0,1-1.374-3.344L.4,16.868A13.6,13.6,0,0,0,1.648,20.1l-.313,1.343ZM7.288,24.2l-1.824.425.289,1.243L7.1,25.56a13.479,13.479,0,0,0,3.234,1.253l.306-1.238A12.237,12.237,0,0,1,7.3,24.2l-.012.008ZM13.6,2.551a11.047,11.047,0,0,0-9.352,16.93L3.189,24.017,7.72,22.955A11.054,11.054,0,1,0,13.6,2.551" transform="translate(-0.002 -0.002)"/></g></g></svg>