<svg xmlns="http://www.w3.org/2000/svg" width="35.598" height="31.406" viewBox="0 0 35.598 31.406"><path d="M36.844,8.341a3.287,3.287,0,0,0-1.034.236h0c-.316.123-2.348.965-5.31,2.194S23.688,13.6,19.872,15.187c-7.633,3.174-15.133,6.3-15.133,6.3l.034-.012a3.784,3.784,0,0,0-.837.42,2.238,2.238,0,0,0-.6.574,1.4,1.4,0,0,0-.249.964A2,2,0,0,0,4,24.792a3.332,3.332,0,0,0,.734.385l0,0L12.07,27.6c.121.42,2.082,7.248,2.544,8.69a4.5,4.5,0,0,0,.675,1.438,1.227,1.227,0,0,0,.312.289.752.752,0,0,0,.132.062l.021.01a.378.378,0,0,0,.041.009,1.428,1.428,0,0,0,1.275-.19l.016-.012,5.029-4.425,7.438,5.965.065.029a2.654,2.654,0,0,0,2.753-.221,2.784,2.784,0,0,0,.806-1.045l.018-.046,5.366-27.141a3.068,3.068,0,0,0,.031-1.487,1.572,1.572,0,0,0-.709-.95,1.878,1.878,0,0,0-1.041-.239Zm.029,1.065a.955.955,0,0,1,.488.08.445.445,0,0,1,.223.319,2.122,2.122,0,0,1-.042.98l0,.007L32.195,37.827a1.653,1.653,0,0,1-.471.6,1.46,1.46,0,0,1-1.65.089L18.116,28.927a.522.522,0,0,0-.379-.163h-.013a.524.524,0,0,0-.523.51h0l-1.363,7.3a6.231,6.231,0,0,1-.226-.6c-.422-1.316-2.319-7.9-2.506-8.553l18.766-12.15a.525.525,0,0,0,.51.4h.013a.524.524,0,0,0,.51-.641v0a.933.933,0,0,0-.07-.474.832.832,0,0,0-.571-.443.99.99,0,0,0-.628.066l-.052.019L12.42,26.618,5.073,24.189a2.281,2.281,0,0,1-.479-.256,1.015,1.015,0,0,1-.473-.636.3.3,0,0,1,.072-.236,1.311,1.311,0,0,1,.328-.3,2.872,2.872,0,0,1,.587-.3l.016-.006.017-.007s7.5-3.122,15.132-6.3c3.816-1.587,7.666-3.186,10.627-4.415s5.076-2.1,5.288-2.186a2.188,2.188,0,0,1,.683-.146Zm-5.951,6.637-.419.211-.083.462.321.343.181.032.419-.21.083-.462-.32-.343-.182-.033Zm-1.465,1.414-.419.21-.083.462.32.343.182.033.419-.211.083-.461-.321-.343-.181-.033ZM27.99,18.87l-.419.211-.083.461.32.343.182.033.419-.21.083-.462-.32-.343Zm-1.465,1.414-.42.21-.082.462.32.343.182.033.419-.211.083-.461-.321-.344-.181-.032ZM25.059,21.7l-.419.211-.083.461.32.343.182.033.419-.21.083-.462-.32-.343-.182-.033ZM23.593,23.11l-.419.211-.083.462.321.343.181.032.42-.21.082-.462-.32-.343-.182-.033Zm-1.465,1.414-.419.21-.083.462.32.343.182.033.419-.211.083-.461-.321-.343-.181-.033Zm-1.466,1.413-.419.211-.083.461.321.343.181.033.419-.21.083-.462-.32-.343-.182-.033ZM19.2,27.351l-.42.21-.082.462.32.343.182.033.419-.211.083-.462-.321-.343-.181-.032Zm-1.112,2.892,3.2,2.568-4.406,3.875,1.2-6.444Z" transform="translate(-3.072 -8.339)"/></svg>