<svg xmlns="http://www.w3.org/2000/svg" width="138.453" height="32.832" viewBox="0 0 138.453 32.832"><defs><style>.a{fill:none;stroke:#000;stroke-miterlimit:10;stroke-width:0.5px;}</style></defs><g transform="translate(0.284 0.25)"><g transform="translate(-32.6 -31.056)"><g transform="translate(32.6 31.056)"><path class="a" d="M133.357,33.593a4.513,4.513,0,0,0-3.551-1.566c-8.842-.033-17.686-.125-26.528-.148Q83,31.822,62.72,31.828c-.5,0-1,.054-1.537.084-.248.485-.468.919-.857,1.68h73.031ZM57.94,33.545c1.8,0,2.106-.263,2.649-2.334a4.444,4.444,0,0,0-.7-.123c-5.045-.018-10.09-.046-15.136-.023-1.5.008-2.424,1.111-3.764,2.235.9.1,1.418.207,1.934.209Q50.435,33.543,57.94,33.545Zm98.869,16.031c.561-.005,1.175-.3,1.876-.358a2.024,2.024,0,0,0-3-.227A1.339,1.339,0,0,0,156.809,49.576ZM57.088,34.781v-.1h-16.4l.023.1Zm45.113,5.7c11.789-.041,23.578-.018,35.367-.038a12.986,12.986,0,0,0,1.681-.215c-.02-.2-.043-.409-.063-.613-.647-.038-1.294-.107-1.939-.107q-42.051,0-84.1.008-7.2,0-14.4.008c-.854,0-1.711.005-1.729,1.446,1.489-.074,2.9-.2,4.315-.209q30.438-.157,60.871-.278Zm56.743,14.741c.387-.023.816-.046,1.441-.084-.2-.61-.341-1.047-.5-1.514h-2.143C158.153,54.168,158.515,54.653,158.945,55.225ZM138.913,43.306c.071-.861.121-1.456.2-2.4-34.315.138-68.424.273-102.58.411-.329.817-.6,1.5-.968,2.413q11.9-.05,23.757-.1C85.883,43.525,112.352,43.416,138.913,43.306Zm-2.6-4.408c.005-.192.013-.383.018-.575-.685-.033-1.37-.1-2.052-.1q-35.568,0-71.136.02-11.75,0-23.5.015a11.5,11.5,0,0,0-1.878.319c.025.107.048.212.073.317ZM39.571,37.1c5.67,0,11.342.005,17.011-.046.432,0,.862-.416,1.292-.638L57.7,35.94c-.91,0-1.82-.008-2.73,0-4.916.054-9.835.1-14.751.189a5.5,5.5,0,0,0-1.436.442l.1.388A3.485,3.485,0,0,0,39.571,37.1Zm97.173,21.834V56.129l-75.45.557c-.051.993-.1,1.836-.142,2.745C86.495,59.265,111.594,59.1,136.744,58.936ZM59.325,44.149c.43,1.489.773,2.679,1.087,3.759,1.873,0,3.468.008,5.06,0q22.1-.13,44.2-.263c6.82-.036,13.642-.028,20.461-.072a2.85,2.85,0,0,0,1.648-.406c1.122-.868,2.133-1.882,3.387-3.019H59.325Zm82.8,11.4c-.682-5.011-1.317-9.651-1.949-14.289l-.576-.084c.273,1.364.013,2.028-.5,2.362-.809.529-2.247.222-3.18.567.4,2.4.857,4.653,1.122,6.926.195,1.668.591,3.07,2.356,3.65.028.01.015.148.04.437-4.057-.488-4.123-4.587-6.357-6.914l-2.942.018-69.619.452c-1.3,2.551-1,5.614-3.832,7.48,27.7-.2,55.05-.391,82.753-.587l2.679-.018Zm-5-16.8h26.386c.005-.112.01-.225.015-.335h-26.4C137.128,38.527,137.128,38.64,137.126,38.752Zm-3.963,8.666c.351-.378.705-.756,1.057-1.137-.083-.056-.164-.115-.248-.171q-.6.464-1.2.927C132.9,47.165,133.034,47.29,133.163,47.418ZM58.979,36.7c.053.089.109.176.162.263h75.637c.01-.179.018-.358.028-.539a10.967,10.967,0,0,0-1.509-.22c-10.186-.092-20.37-.2-30.557-.235-12.757-.038-25.514-.015-38.271,0-1.469,0-2.937.049-4.4.158-.377.028-.728.375-1.089.575Zm77.91-1.578c-.4,0-.8.043-1.446.082.407.748.7,1.285,1.112,2.033,8.5-.235,17.052.309,25.81-.1-.771-1.417-1.555-2-2.884-2C151.951,35.169,144.418,35.128,136.888,35.118ZM135.43,33.57c4.039.1,8.081.158,12.12.189,3.637.028,7.277.008,10.917.008.04-.184.081-.365.124-.547-1.762-.554-3.511-1.525-5.29-1.589-6.981-.253-13.97-.22-20.957-.291-.336,0-.675.038-1.062.061.872.577,1.615,1.136,2.424,1.581a4.025,4.025,0,0,0,1.724.587Zm14.021,16.749a.277.277,0,0,1,.1-.018c.3,0,.748.378,1.117.557.051.153.1.306.157.46-.329.112-.657.222-.983.332.051.1.1.2.154.294h6.772c.051.442.086.753.129,1.126.9-.072,1.7-.133,2.5-.2l.129-.5c-.632-.314-1.264-.628-1.989-.991.546-.158.971-.283,1.547-.449-.576-1.435-1.671-.779-2.272-.886-.243.511-.334,1.1-.614,1.216-1.1.444-1.57-.22-1.628-1.31l-.056.008-1.153.14c.109.419.2.759.339,1.282h-2.419c.3-.628.458-.945.715-1.479-.377.023-.748.043-1.115.064-.455.026-.9.054-1.35.077l-3.334.194c-.048.156-.1.314-.149.472a3.331,3.331,0,0,0,.945.669,6.964,6.964,0,0,0,1.5.069c.306-.4.549-.978.948-1.134Zm-1.365,5.889h.566c.005-.061.01-.123.015-.181-.185-.031-.367-.059-.551-.087Zm9.613-1.052c-.008-.092-.013-.184-.02-.276h-1.246c0,.123.008.245.01.368l1.256-.092Zm-6.721-2.268,1.057.238c.038-.151.076-.3.111-.452-.324-.11-.65-.22-.973-.327-.066.181-.129.36-.195.541Zm-2.017.281c-.182-.661-.326-1.182-.468-1.7l.008-.008c-.6.271-1.211.541-1.878.845C146.875,53.657,147.851,53.128,148.96,53.169Zm-.458-1.716v.005l.008-.005h-.005Zm7.922,2.756c0,.069,0,.138,0,.209h.978c0-.072,0-.14,0-.209Zm-.91-3.6c.129.008.26.015.392.02,0-.041,0-.084.005-.128l-.392-.018C155.517,50.528,155.517,50.572,155.515,50.613Zm14.418,6.4c.233,1.535.367,3.085.559,4.75-.682.066-1.13.146-1.577.146-4,.013-8-.031-12,.02-12.838.158-25.676.365-38.516.529-8.336.1-16.672.174-25.009.253q-13.9.134-27.789.26-12,.115-24,.248c-2.4.028-4.792.12-7.189.166-.49.008-.981-.064-1.812-.125.882-6.336,1.742-12.53,2.629-18.909H58.377a8.612,8.612,0,0,1,.1,1.4c-.195,2.329-.442,4.653-.639,6.982A2.632,2.632,0,0,1,56.059,55.4c-.331.1-.67.184-1.006.276.157.271.316.544.473.817h4.843c.106,1.287.19,2.27.293,3.53,25.565-.163,51.011-.327,76.616-.493.1-1.213.174-2.161.263-3.266h4.916c0-.238,0-.475-.005-.713A56.879,56.879,0,0,0,140.5,41.171q-.2-.782-.437-1.568c.586-.031,1.026-.077,1.466-.077,7.075,0,14.152.041,21.227-.01a2.365,2.365,0,0,1,2.363,1.469c2.71,5.011,3.973,10.456,4.815,16.031Zm-8.652-.332a5.475,5.475,0,0,0-.058-.948q-.99-3.344-1.984-6.686-1.115-3.743-2.219-7.488a1.419,1.419,0,0,0-1.585-1.124c-3.453.02-6.906,0-10.358.008a13.335,13.335,0,0,0-1.529.207,99.265,99.265,0,0,0,1.992,10.126c.493,1.984,1.031,3.948,1.608,5.9Zm-14.266-2.8c.167.623.281,1.05.4,1.507h1.537c.4-.659.72-1.19,1.16-1.918C149.024,53.621,148.093,53.744,147.014,53.887Zm7.967.948c.253-.488.435-.838.645-1.244h-3.513c.179.493.672,1.216.49,1.5a1.082,1.082,0,0,1-.468.375c-.521-.715-.784-1.08-1.067-1.474l-1.062,1.218c.657.084,1.206.151,2.106.266a6.587,6.587,0,0,1-1.074.345,4.823,4.823,0,0,1-1.231.02c.005.1.013.2.018.3h10.6c-1.785-1.093-3.915.539-5.439-1.315Zm.114-2.064c.008-.125.015-.25.02-.375l-1.436-.112c-.015.163-.028.324-.043.488Zm-4.8-4.247c.144.7.265,1.047.569,1.047s.753-.322,1.56-.95c.609.355,1.256.728,2.078,1.205-.033-.659-.048-.981-.063-1.3Zm3.807-4.3s-.028.049-.051.082l.013.01C154.081,44.274,154.1,44.235,154.1,44.223ZM147.568,47.1c-.346-1.522-.708-3.108-1.127-4.939h7.98c.415,1.52.842,3.083,1.347,4.939Zm6.476-.7-1.456-.1v.365l1.456-.082Zm-1.838-2.914c.129.406.235.738.339,1.07,0,0,0,0-.005,0-.081,0-.162,0-.245,0l-.008.008h.263c0-.005,0-.01-.005-.015.3-.212.591-.427.933-.674.192.143.384.283.576.424.02.278.038.557.066.973l-.864-.462c-.121.255-.22.46-.394.833.7-.1,1.206-.166,1.878-.26-.137-.736-.248-1.323-.356-1.9h-2.176Zm-3.632-1.06c.01.082.02.166.03.25h2.753c0-.084-.008-.169-.01-.25Zm-.359,4.237h1.1l.023-.383c-.361-.036-.723-.072-1.084-.1C148.243,46.337,148.227,46.5,148.215,46.662Zm-.837-2.47c.238-.347.425-.626.612-.9a.076.076,0,0,1,.01.02c.018.174.03.347.045.521l.159-.043-.2-.478c0-.01,0-.02,0-.031l-.008.008-.811-.209c.086.478.144.8.2,1.114Zm1.347,4.952c.3-.015.6-.031.9-.043l-.03-.375c-.306.049-.612.094-.915.143C148.7,48.96,148.713,49.052,148.725,49.144Zm-.741.429c-.154-.455-.255-.759-.344-1.022h-1.807c-.076.156-.149.312-.225.467a4.819,4.819,0,0,0,1.094.6A4.746,4.746,0,0,0,147.985,49.573Zm13.237,6.163a5.474,5.474,0,0,1,.058.948H147.146c-.576-1.956-1.115-3.92-1.608-5.9a99.26,99.26,0,0,1-1.992-10.126,13.336,13.336,0,0,1,1.529-.207c3.453-.01,6.906.013,10.358-.008a1.419,1.419,0,0,1,1.585,1.124q1.1,3.747,2.219,7.488Q160.231,52.39,161.222,55.736Zm-1.332-2.11h-2.143c.407.541.768,1.027,1.2,1.6.387-.023.816-.046,1.441-.084C160.186,54.53,160.044,54.094,159.89,53.626Zm-4.2-4.635a1.339,1.339,0,0,0,1.122.585c.561-.005,1.175-.3,1.876-.358A2.024,2.024,0,0,0,155.686,48.991Zm-.167,1.5c0,.041,0,.084-.005.125.129.008.26.015.392.02,0-.041,0-.084.005-.128Zm-9.079-8.331c.42,1.831.781,3.417,1.127,4.939h8.2c-.506-1.857-.933-3.42-1.347-4.939Zm8,6.367H150.3c.144.7.265,1.047.569,1.047s.753-.322,1.56-.95c.609.355,1.256.728,2.078,1.205C154.471,49.167,154.456,48.845,154.44,48.523Zm-4.84.2c-.306.049-.612.094-.915.143.013.092.028.184.04.276.3-.015.6-.031.9-.043Zm-3.991.294a4.819,4.819,0,0,0,1.094.6,4.746,4.746,0,0,0,1.282-.049c-.154-.455-.255-.759-.344-1.022h-1.807C145.758,48.707,145.685,48.863,145.609,49.019Zm3.352,4.15c-.182-.661-.326-1.182-.468-1.7l.008-.008.008-.005H148.5c.306-.4.549-.978.948-1.134a.277.277,0,0,1,.1-.018c.3,0,.748.378,1.117.557.051.153.1.306.157.46-.329.112-.657.222-.983.332.051.1.1.2.154.294h6.772c.051.442.086.753.129,1.126.9-.072,1.7-.133,2.5-.2l.129-.5c-.632-.314-1.264-.628-1.989-.991.546-.158.971-.283,1.547-.449-.576-1.435-1.671-.779-2.272-.886-.243.511-.334,1.1-.614,1.216-1.1.444-1.57-.22-1.628-1.31l-.056.008-1.153.14c.109.419.2.759.339,1.282h-2.419c.3-.628.458-.945.715-1.479-.377.023-.748.043-1.115.064-.455.026-.9.054-1.35.077l-3.334.194c-.048.156-.1.314-.149.472a3.331,3.331,0,0,0,.945.669,6.964,6.964,0,0,0,1.5.069v.005c-.6.271-1.211.541-1.878.845.253,1.354,1.228.825,2.338.866Zm7.472,1.711c0,.123.008.245.01.368l1.256-.092c-.008-.092-.013-.184-.02-.276h-1.246Zm.973-.462c0-.072,0-.14,0-.209h-.978c0,.069,0,.138,0,.209Zm-3.726-2.135c-.015.163-.028.324-.043.488H155.1c.008-.125.015-.25.02-.375Zm-2.507.064c-.066.181-.129.36-.195.541l1.057.238c.038-.151.076-.3.111-.452C151.822,52.564,151.5,52.454,151.172,52.347Zm-2.5,3.68c-.185-.031-.367-.059-.551-.087l-.03.268h.566C148.657,56.147,148.662,56.086,148.667,56.027Zm.286-.633c.4-.659.72-1.19,1.16-1.918-1.089.146-2.02.268-3.1.411.167.623.281,1.05.4,1.507h1.537Zm11.468.756c-1.785-1.093-3.915.539-5.439-1.315.253-.488.435-.838.645-1.244h-3.513c.179.493.672,1.216.49,1.5a1.082,1.082,0,0,1-.468.375c-.521-.715-.784-1.08-1.067-1.474l-1.062,1.218c.657.084,1.206.151,2.106.266a6.586,6.586,0,0,1-1.074.345,4.823,4.823,0,0,1-1.231.02c.005.1.013.2.018.3h10.6ZM153.477,43.88c.192.143.384.283.576.424.023-.033.043-.069.051-.082-.005.013-.023.051-.038.092l-.013-.01c.02.278.038.557.066.973l-.864-.462c-.121.255-.22.46-.394.833.7-.1,1.206-.166,1.878-.261-.137-.736-.248-1.323-.356-1.9h-2.176c.129.406.235.738.339,1.07.3-.212.591-.427.933-.674Zm-.89,2.784,1.456-.082V46.4l-1.456-.1Zm-.293-2.1-.008.008h.263c0-.005,0-.01-.005-.015s0,0-.005,0c-.081,0-.162,0-.245,0Zm-.938-1.885c0-.084-.008-.169-.01-.25h-2.773c.01.082.02.166.03.25Zm-2.015,3.6c-.361-.036-.723-.072-1.084-.1-.015.163-.03.324-.043.488h1.1l.023-.383Zm-1.137-2.49-.2-.478c.018.174.03.347.045.521Zm-.2-.478s0-.02,0-.031l-.008.008-.811-.209c.086.478.144.8.2,1.114.238-.347.425-.626.612-.9A.076.076,0,0,1,148,43.311Z" transform="translate(-32.6 -31.056)"/></g></g></g></svg>