<svg xmlns="http://www.w3.org/2000/svg" width="25.266" height="26.604" viewBox="0 0 25.266 26.604"><defs><style>.a{fill:#fff;}.b{fill:#7c529e;}</style></defs><path class="a" d="M7.452,21.933l-3.743-3.9L2.15,12.426,3.709,6.192,6.672,2.763l2.495-.935,3.119-.779,4.99.779,4.99.935,2.495,3.429.78,3.584v4.208l-.78,4.052-2.495,2.182-4.054,1.714H12.286l-2.027,2.806L9.167,25.83H7.452Z" transform="translate(-1.285 -0.024)"/><path class="b" d="M13.234,0C11.1.03,6.505.381,3.936,2.737c-1.911,1.892-2.578,4.69-2.656,8.15s-.143,9.921,6.1,11.684v2.685s-.039,1.074.671,1.295c.875.277,1.373-.55,2.205-1.438l1.552-1.754a24.139,24.139,0,0,0,7.921-.585c.867-.277,5.749-.9,6.547-7.375.819-6.687-.4-10.9-2.6-12.806h-.013C23,1.983,20.34.043,14.387.021c0,0-.442-.03-1.152-.017Zm.073,1.88c.606,0,.975.022.975.022,5.039.013,7.444,1.529,8.011,2.04,1.85,1.585,2.8,5.383,2.106,10.966-.663,5.413-4.623,5.756-5.356,5.989a22.42,22.42,0,0,1-6.824.576s-2.7,3.261-3.549,4.1a.441.441,0,0,1-.39.169c-.143-.035-.186-.212-.178-.455l.026-4.456c-5.3-1.463-4.983-6.985-4.927-9.87S3.808,5.722,5.42,4.124c2.17-1.961,6.07-2.226,7.886-2.239Zm.4,2.884a.331.331,0,1,0,0,.663,6.252,6.252,0,0,1,4.472,1.763A6.441,6.441,0,0,1,20,12a.333.333,0,0,0,.334.333v-.013A.333.333,0,0,0,20.666,12a7.16,7.16,0,0,0-2.011-5.279,6.844,6.844,0,0,0-4.948-1.949ZM9.322,5.53a1.042,1.042,0,0,0-.681.134H8.624A5.221,5.221,0,0,0,7.354,6.708a2,2,0,0,0-.512,1.048,1.416,1.416,0,0,0,.052.6l.022.013a14.985,14.985,0,0,0,1.334,2.88,16.943,16.943,0,0,0,2.574,3.516l.03.043.047.035.03.035.035.03A17.2,17.2,0,0,0,14.495,17.5a16.361,16.361,0,0,0,2.886,1.33v.008a1.5,1.5,0,0,0,.442.069,2.04,2.04,0,0,0,1.222-.524,5.043,5.043,0,0,0,1.032-1.273V17.1a.941.941,0,0,0-.2-1.243,15.362,15.362,0,0,0-2.383-1.71,1.088,1.088,0,0,0-1.378.19l-.5.628a.9.9,0,0,1-.72.269l-.013.008A6.507,6.507,0,0,1,10.5,10.852a.881.881,0,0,1,.277-.719l.624-.5a1.1,1.1,0,0,0,.186-1.386A14.96,14.96,0,0,0,9.879,5.862a.948.948,0,0,0-.559-.333Zm4.961.988a.333.333,0,0,0,0,.667,4.182,4.182,0,0,1,2.937,1.273,3.873,3.873,0,0,1,1,2.849.335.335,0,0,0,.334.329l.013.017a.336.336,0,0,0,.334-.333A4.607,4.607,0,0,0,17.714,8,4.831,4.831,0,0,0,14.33,6.518Zm.547,1.793a.34.34,0,0,0-.022.68,1.609,1.609,0,0,1,1.7,1.749.331.331,0,0,0,.329.325h.013a.335.335,0,0,0,.32-.355,2.269,2.269,0,0,0-2.327-2.4h-.013Z" transform="translate(-1.266 -0.001)"/></svg>