<svg xmlns="http://www.w3.org/2000/svg" width="27.589" height="27.815" viewBox="0 0 27.589 27.815"><defs><style>.a{fill:#fff;}</style></defs><path d="M8.725,25.225l.451.226A11.782,11.782,0,0,0,15.266,27.1,12.014,12.014,0,0,0,23.761,6.582a11.961,11.961,0,0,0-20.448,8.57,12.329,12.329,0,0,0,1.8,6.315l.3.451-1.2,4.435,4.51-1.128Z" transform="translate(-1.433 -1.319)"/><path class="a" d="M23.605,4.059A13.533,13.533,0,0,0,13.907,0,13.732,13.732,0,0,0,.15,13.832a14.515,14.515,0,0,0,1.8,6.841L0,27.815l7.292-1.879a13.422,13.422,0,0,0,6.54,1.654A13.828,13.828,0,0,0,27.589,13.757a13.643,13.643,0,0,0-3.984-9.7Zm-9.7,21.2A11.169,11.169,0,0,1,8.119,23.68l-.451-.226-4.36,1.128L4.435,20.3l-.3-.451A11.411,11.411,0,1,1,19.846,23.53a10.96,10.96,0,0,1-5.939,1.729Zm6.615-8.344-.827-.376s-1.2-.526-1.955-.9c-.075,0-.15-.075-.226-.075a1.086,1.086,0,0,0-.526.15s-.075.075-1.128,1.278a.414.414,0,0,1-.376.226h-.075a.571.571,0,0,1-.3-.15l-.376-.15a7.31,7.31,0,0,1-2.18-1.428c-.15-.15-.376-.3-.526-.451a8.394,8.394,0,0,1-1.428-1.8l-.075-.15c-.075-.075-.075-.15-.15-.3a.563.563,0,0,1,.075-.376s.3-.376.526-.6c.15-.15.226-.376.376-.526a.926.926,0,0,0,.15-.752,29.262,29.262,0,0,0-1.2-2.857.87.87,0,0,0-.526-.376H8.946c-.15,0-.3.075-.451.075l-.075.075c-.15.075-.3.226-.451.3-.15.15-.226.3-.376.451a3.834,3.834,0,0,0-.827,2.33,4.459,4.459,0,0,0,.376,1.729l.075.226A12.522,12.522,0,0,0,10,16.313l.3.3a4.546,4.546,0,0,1,.6.6,13.432,13.432,0,0,0,5.413,2.857c.226.075.526.075.752.15h.752a2.788,2.788,0,0,0,1.128-.3c.225-.15.376-.15.526-.3l.15-.15c.15-.15.3-.225.451-.376a1.993,1.993,0,0,0,.376-.451,4.312,4.312,0,0,0,.3-1.052v-.526a.93.93,0,0,0-.226-.15Z"/></svg>