<svg xmlns="http://www.w3.org/2000/svg" width="106.447" height="32.724" viewBox="0 0 106.447 32.724"><defs><style>.a{fill:#b7b7b7;}.b{fill:#fc0;}.c{fill:none;stroke-linecap:square;}.d{fill:#ac63ff;}.e{fill:#228b57;}.f{fill:red;}.g,.h{stroke:none;}.h{fill:#000;}</style></defs><g transform="translate(10.97 0.984)"><path className="a" d="M36.09,2.767,19.641,27.79a6.131,6.131,0,0,1-.971,1.127,7.452,7.452,0,0,1-1.228.914,6.478,6.478,0,0,1-1.328.608,4,4,0,0,1-1.272.209L2.788,30.431a1.786,1.786,0,0,1-.936-.244,1.1,1.1,0,0,1-.474-.628,1.713,1.713,0,0,1,.014-.916,3.674,3.674,0,0,1,.527-1.111L18.424,3.015a5.955,5.955,0,0,1,.93-1.061,7.424,7.424,0,0,1,1.175-.872A6.589,6.589,0,0,1,21.8.486,4.124,4.124,0,0,1,23.028.254L35.036.049a2,2,0,0,1,.974.2,1.1,1.1,0,0,1,.524.576,1.5,1.5,0,0,1,.039.869A3.269,3.269,0,0,1,36.09,2.767Z"/><g transform="translate(4.527 3.111)"><path d="M0,4.057l9.968-.069L12.6,0,2.641.114ZM2.687,1.09,11.227,1,9.909,2.994l-8.543.069Z" transform="translate(13.531 2.003)"/><path d="M27.445.02,17.485.156a1.748,1.748,0,0,0-.651.161,3.865,3.865,0,0,0-.727.425,5.692,5.692,0,0,0-1.34,1.391L1.367,22.1a3.966,3.966,0,0,0-.422.794,1.792,1.792,0,0,0-.133.652.646.646,0,0,0,.155.443.593.593,0,0,0,.442.168L11.4,24.3a1.708,1.708,0,0,0,.67-.154,3.838,3.838,0,0,0,.752-.437,5.657,5.657,0,0,0,.743-.653,5.718,5.718,0,0,0,.644-.8L27.576,1.987a3.635,3.635,0,0,0,.4-.773,1.6,1.6,0,0,0,.107-.627A.6.6,0,0,0,27.9.168.642.642,0,0,0,27.445.02ZM13.485,22.244a2.905,2.905,0,0,1-.693.726,1.938,1.938,0,0,1-.376.219.852.852,0,0,1-.334.078l-9.989-.13a.294.294,0,0,1-.22-.084.325.325,0,0,1-.077-.222.9.9,0,0,1,.066-.326,1.959,1.959,0,0,1,.209-.4l13.4-19.985a2.756,2.756,0,0,1,.311-.382,2.816,2.816,0,0,1,.36-.314,1.951,1.951,0,0,1,.365-.213.869.869,0,0,1,.325-.081L26.79,1.01a.316.316,0,0,1,.228.075.306.306,0,0,1,.088.21.805.805,0,0,1-.054.314,1.8,1.8,0,0,1-.2.385Z" transform="translate(0 0)"/><path d="M1.374,3l2-2.989-.7,0L0,4H2.827L3.5,3H2.787Z" transform="translate(9.533 8.029)"/><path d="M1.381,3.017,3.4,0H2.694L0,4.022l2.829.017L3.5,3.027l-.709,0Z" transform="translate(6.169 13.028)"/><path d="M1.387,3.048,3.423.005,2.718,0,0,4.058l2.83.033.681-1.021L2.8,3.063Z" transform="translate(2.775 18.06)"/><path d="M1.379,3.011l2-3-.71,0L0,4.015H2.85l.668-1.006H2.8Z" transform="translate(13.07 8.012)"/><path d="M1.385,3.023l2-3.013-.716,0L0,4.032H2.874l.668-1.011h-.72Z" transform="translate(16.635 7.996)"/><path d="M1.386,3.029,3.4,0H2.692L0,4.038l2.852.017.674-1.016-.715,0Z" transform="translate(9.708 13.032)"/><path d="M1.393,3.061,3.428,0,2.716,0,0,4.075l2.854.034.681-1.025-.715-.008Z" transform="translate(6.315 18.085)"/><path d="M1.4,8.147,6.8,0H6.08L0,9.165,2.878,9.2l.68-1.029-.721-.008Z" transform="translate(9.886 13.036)"/></g></g><g transform="translate(28.787 0.669)"><path className="b" d="M36.675,2.824,20.39,28.238a6.023,6.023,0,0,1-.977,1.151,7.431,7.431,0,0,1-1.252.934,6.593,6.593,0,0,1-1.366.62,4.191,4.191,0,0,1-1.319.213l-12.57-.224a1.93,1.93,0,0,1-.983-.25,1.175,1.175,0,0,1-.513-.641,1.717,1.717,0,0,1-.013-.935,3.6,3.6,0,0,1,.515-1.134L18.273,3.082A5.851,5.851,0,0,1,19.209,2a7.4,7.4,0,0,1,1.2-.89A6.7,6.7,0,0,1,21.714.5,4.309,4.309,0,0,1,22.985.265L35.491.051a2.157,2.157,0,0,1,1.021.2,1.178,1.178,0,0,1,.565.588,1.507,1.507,0,0,1,.068.887A3.194,3.194,0,0,1,36.675,2.824Z" transform="translate(0 0)"/><g transform="translate(3.942 3.201)"><g className="c" transform="translate(9.091)"><path className="g" d="M14.1.064a.169.169,0,0,1,.133.049.2.2,0,0,1,.045.138.594.594,0,0,1-.043.206,1.322,1.322,0,0,1-.131.253l-.029.044a1.919,1.919,0,0,1,.683.238,1.42,1.42,0,0,1,.453.427A1.68,1.68,0,0,1,15.456,2a2.625,2.625,0,0,1,.051.7,3.885,3.885,0,0,1-.068.538,5.223,5.223,0,0,1-.148.575c-.062.2-.137.4-.223.6s-.184.4-.293.606l.011.054a2.151,2.151,0,0,1,.042.451,2.217,2.217,0,0,1-.064.5,2.664,2.664,0,0,1-.2.54,3.653,3.653,0,0,1-.361.582,4.5,4.5,0,0,1-.465.528,4.967,4.967,0,0,1-.5.426,5.6,5.6,0,0,1-.507.334c-.166.1-.329.182-.481.254l-.115.054-.114.051-.113.048-.112.045a14.609,14.609,0,0,1-1.008,1.457A16.177,16.177,0,0,1,9.6,11.695a14.83,14.83,0,0,1-1.3,1.177,11.161,11.161,0,0,1-1.332.926,6.747,6.747,0,0,1-1.243.581,3.3,3.3,0,0,1-1.042.192,1.509,1.509,0,0,1-.788-.2,1.172,1.172,0,0,1-.482-.583,2.161,2.161,0,0,1-.124-.924,4.778,4.778,0,0,1,.234-1.17,8.765,8.765,0,0,1,.568-1.344A12.986,12.986,0,0,1,4.968,8.91l-.053-.044-.05-.047-.048-.05-.045-.053a.968.968,0,0,1-.22-.578A1.356,1.356,0,0,1,4.6,7.718,2.4,2.4,0,0,1,4.822,7.2a3.962,3.962,0,0,1,.39-.576,5.643,5.643,0,0,1,.5-.537c.18-.172.373-.337.575-.5s.41-.309.622-.452L7,5.073l.06-.078.06-.078.061-.077.062-.077q.208-.255.428-.5T8.12,3.78q.228-.235.463-.457t.475-.429c.324-.28.661-.547,1.007-.791a10.231,10.231,0,0,1,1.055-.659A7.118,7.118,0,0,1,12.191.97,4.646,4.646,0,0,1,13.244.734l.008-.013a1.916,1.916,0,0,1,.2-.254,1.855,1.855,0,0,1,.226-.208A1.215,1.215,0,0,1,13.9.118.506.506,0,0,1,14.1.064ZM12.949,6.883a.175.175,0,0,0,.113.039.427.427,0,0,0,.155-.03A.949.949,0,0,0,13.4,6.8a1.575,1.575,0,0,0,.2-.153.985.985,0,0,1-.029.12.8.8,0,0,1-.033.089.591.591,0,0,1-.029.058.293.293,0,0,1-.017.027.61.61,0,0,1-.064.069,1.591,1.591,0,0,1-.144.12,2.783,2.783,0,0,1-.241.16c-.1.059-.216.122-.355.189-.163.077-.336.15-.518.216s-.373.128-.57.184-.4.106-.609.15-.42.083-.635.115a4.449,4.449,0,0,0,.422-.864,1.98,1.98,0,0,0,.127-.7.686.686,0,0,0-.165-.464.6.6,0,0,0-.455-.166,1.721,1.721,0,0,0-.675.174,4.116,4.116,0,0,0-.769.469,6.417,6.417,0,0,0-.777.7,6.916,6.916,0,0,0-.7.863c-.172-.03-.335-.067-.485-.109A3.283,3.283,0,0,1,6.465,7.9a1.962,1.962,0,0,1-.329-.178A1.107,1.107,0,0,1,5.9,7.512a.677.677,0,0,1-.109-.185.492.492,0,0,1-.033-.157.421.421,0,0,1,.012-.118.3.3,0,0,1,.025-.068.284.284,0,0,1,.017-.026c.01-.014.024-.033.045-.057s.047-.054.081-.088.076-.075.126-.12a.334.334,0,0,0,0,.164.145.145,0,0,0,.078.091.236.236,0,0,0,.141.011.66.66,0,0,0,.194-.073A1.364,1.364,0,0,0,6.7,6.736a1.927,1.927,0,0,0,.206-.2,1.947,1.947,0,0,0,.176-.227A1.41,1.41,0,0,0,7.2,6.076a1.949,1.949,0,0,1,.09-.185c.038-.07.084-.148.139-.233s.118-.178.19-.277.153-.2.244-.317.207-.248.315-.368.217-.238.329-.353.225-.227.341-.335.232-.213.349-.315l.011-.009-.85,1.3a1.347,1.347,0,0,0-.133.255.609.609,0,0,0-.045.208.2.2,0,0,0,.044.139.167.167,0,0,0,.132.05.5.5,0,0,0,.2-.053,1.212,1.212,0,0,0,.227-.142,1.867,1.867,0,0,0,.227-.209,1.937,1.937,0,0,0,.2-.255l1.555-2.39q.2-.108.4-.2t.408-.162a4.184,4.184,0,0,1,.409-.119,3.459,3.459,0,0,1,.407-.071l-1.052,1.62a1.338,1.338,0,0,0-.132.255.6.6,0,0,0-.044.207.2.2,0,0,0,.044.139.169.169,0,0,0,.133.05.5.5,0,0,0,.2-.053,1.214,1.214,0,0,0,.227-.142A1.862,1.862,0,0,0,12,3.908a1.928,1.928,0,0,0,.2-.256l1.027-1.583a1.688,1.688,0,0,1,.3.09,1.311,1.311,0,0,1,.246.132,1.131,1.131,0,0,1,.343.372L12.631,4.954a1.34,1.34,0,0,0-.132.256.606.606,0,0,0-.044.209.205.205,0,0,0,.045.14.17.17,0,0,0,.134.051.5.5,0,0,0,.2-.053,1.214,1.214,0,0,0,.228-.142,1.861,1.861,0,0,0,.228-.21,1.928,1.928,0,0,0,.2-.257l.8-1.238a3.413,3.413,0,0,1-.134.654A4.563,4.563,0,0,1,13.909,5a5,5,0,0,1-.32.572,4.078,4.078,0,0,1-.352.468,1.885,1.885,0,0,0-.193.259,1.26,1.26,0,0,0-.119.245.553.553,0,0,0-.035.2A.185.185,0,0,0,12.949,6.883ZM6.661,9.863q-.173-.018-.34-.044t-.327-.062q-.16-.035-.314-.08t-.3-.1A7.4,7.4,0,0,0,4.7,11.02a3.3,3.3,0,0,0-.2,1.162,1.165,1.165,0,0,0,.285.776,1.017,1.017,0,0,0,.765.284,2.885,2.885,0,0,0,1.134-.282,6.9,6.9,0,0,0,1.3-.778A10.871,10.871,0,0,0,9.3,11.013a11.951,11.951,0,0,0,1.2-1.449q-.2.052-.412.1t-.417.081q-.209.037-.419.065t-.419.05a5.05,5.05,0,0,1-.43.307,3.628,3.628,0,0,1-.41.227,2.31,2.31,0,0,1-.378.14,1.309,1.309,0,0,1-.333.048A.721.721,0,0,1,7,10.532a.5.5,0,0,1-.2-.139.582.582,0,0,1-.116-.225,1,1,0,0,1-.031-.306Zm2.761-1.6a2.919,2.919,0,0,1-.3.386,2.8,2.8,0,0,1-.342.316,1.818,1.818,0,0,1-.342.214.747.747,0,0,1-.3.079.252.252,0,0,1-.2-.077.311.311,0,0,1-.066-.212.926.926,0,0,1,.067-.315,2.038,2.038,0,0,1,.2-.385,2.921,2.921,0,0,1,.3-.386,2.8,2.8,0,0,1,.342-.315,1.818,1.818,0,0,1,.341-.213.749.749,0,0,1,.3-.079.252.252,0,0,1,.2.076.309.309,0,0,1,.066.211.921.921,0,0,1-.067.314A2.033,2.033,0,0,1,9.422,8.259Z"/><path className="h" d="M 4.683605194091797 14.57186317443848 C 4.529660701751709 14.57145881652832 4.386279106140137 14.55486869812012 4.254555702209473 14.52210903167725 C 4.122888088226318 14.48936462402344 4.002866744995117 14.44045734405518 3.895579099655151 14.375412940979 C 3.788340330123901 14.31039810180664 3.693832397460938 14.22926139831543 3.613127946853638 14.1320161819458 C 3.532465219497681 14.03481769561768 3.465601205825806 13.92153167724609 3.413606643676758 13.7921838760376 C 3.309700965881348 13.5336856842041 3.26952075958252 13.2217903137207 3.289135456085205 12.8685998916626 C 3.308726072311401 12.51580238342285 3.387977838516235 12.12180137634277 3.522978782653809 11.69862651824951 C 3.657832622528076 11.27590751647949 3.848317384719849 10.82405948638916 4.090553760528564 10.35502624511719 C 4.332554340362549 9.886455535888672 4.62623119354248 9.400676727294922 4.967761039733887 8.909560203552246 C 4.949846267700195 8.895242691040039 4.932340621948242 8.880464553833008 4.915246963500977 8.865229606628418 C 4.898155212402344 8.849994659423828 4.881476402282715 8.834300994873047 4.865206718444824 8.818151473999023 C 4.848937034606934 8.802007675170898 4.833080291748047 8.785405158996582 4.817643165588379 8.768352508544922 C 4.802204608917236 8.751300811767578 4.787182331085205 8.733794212341309 4.7725830078125 8.715838432312012 C 4.715009212493896 8.644661903381348 4.662961006164551 8.562128067016602 4.623878479003906 8.466357231140137 C 4.584813117980957 8.370623588562012 4.558706760406494 8.261663436889648 4.552988052368164 8.137605667114258 C 4.54727029800415 8.01359748840332 4.561928272247314 7.874503135681152 4.604385852813721 7.718442916870117 C 4.646820068359375 7.562445640563965 4.717029571533203 7.389495372772217 4.82242488861084 7.197710037231445 C 4.9314284324646 6.999281406402588 5.063229560852051 6.807114124298096 5.212859153747559 6.621526718139648 C 5.362450122833252 6.435989856719971 5.52987003326416 6.257005214691162 5.710169792175293 6.084892749786377 C 5.89043664932251 5.912805080413818 6.083593845367432 5.747568130493164 6.28468132019043 5.589513778686523 C 6.485747814178467 5.431466579437256 6.694762229919434 5.280588626861572 6.90674877166748 5.137211322784424 L 7.002387523651123 5.07267427444458 C 7.022105693817139 5.046625137329102 7.041964530944824 5.020619869232178 7.061948776245117 4.994658946990967 C 7.081937789916992 4.968704223632812 7.102060317993164 4.942792415618896 7.122306346893311 4.916928768157959 C 7.14255952835083 4.891069889068604 7.162934303283691 4.865260601043701 7.183442115783691 4.839507102966309 C 7.203945636749268 4.813751220703125 7.224578380584717 4.788051605224609 7.245331287384033 4.762409687042236 C 7.384117126464844 4.59221076965332 7.526830196380615 4.424768447875977 7.672838687896729 4.260732650756836 C 7.818820953369141 4.096733570098877 7.968099594116211 3.936132192611694 8.120036125183105 3.779583692550659 C 8.271949768066406 3.6230628490448 8.426530838012695 3.470587491989136 8.583148002624512 3.322810888290405 C 8.739740371704102 3.175051689147949 8.898374557495117 3.031988620758057 9.05841064453125 2.894265413284302 C 9.381977081298828 2.614421844482422 9.719398498535156 2.34773325920105 10.06494235992432 2.103082180023193 C 10.41047859191895 1.858437061309814 10.76420116424561 1.635780692100525 11.12039470672607 1.443999767303467 C 11.47665882110596 1.252184391021729 11.83546543121338 1.091214299201965 12.19113254547119 0.96998530626297 C 12.54694175720215 0.8487061262130737 12.89968776702881 0.7671743631362915 13.24368190765381 0.7343200445175171 L 13.2521505355835 0.7212861776351929 C 13.31057262420654 0.6313493251800537 13.37815189361572 0.5455256700515747 13.45034980773926 0.4673338532447815 C 13.52254104614258 0.3891474902629852 13.59934043884277 0.3185877203941345 13.67620754241943 0.2591679394245148 C 13.75306701660156 0.1997474431991577 13.82999610900879 0.1514620780944824 13.90244770050049 0.1178308576345444 C 13.97490501403809 0.08419781178236008 14.04287528991699 0.06521793454885483 14.10182189941406 0.0644141286611557 C 14.16077518463135 0.06361021846532822 14.20512294769287 0.08106177300214767 14.23482990264893 0.1133143976330757 C 14.26454734802246 0.1455726474523544 14.27962875366211 0.1926381140947342 14.2800407409668 0.2510549128055573 C 14.2804536819458 0.3094811141490936 14.26619052886963 0.3792634904384613 14.23722457885742 0.4569424092769623 C 14.20825672149658 0.5346360802650452 14.16458606719971 0.6202263236045837 14.10617637634277 0.7102483510971069 L 14.07740497589111 0.7545936703681946 C 14.34560203552246 0.7983656525611877 14.57217216491699 0.879555344581604 14.7603874206543 0.9922727942466736 C 14.94875431060791 1.105080485343933 15.09871196746826 1.249469876289368 15.21351909637451 1.419528245925903 C 15.32842254638672 1.58972442150116 15.40812015533447 1.785638689994812 15.45588302612305 2.001336574554443 C 15.5036792755127 2.217208862304688 15.51948642730713 2.452895164489746 15.50658130645752 2.702445268630981 C 15.49769592285156 2.874194383621216 15.47476005554199 3.054421186447144 15.43855667114258 3.240744352340698 C 15.40233707427979 3.427168369293213 15.3528356552124 3.619689464569092 15.29084587097168 3.815926074981689 C 15.2288293838501 4.012261390686035 15.15430736541748 4.212305068969727 15.06808757781982 4.413666248321533 C 14.98182773590088 4.615118980407715 14.88385677337646 4.817881107330322 14.77497482299805 5.019546031951904 L 14.78617382049561 5.07393217086792 C 14.8145751953125 5.216678142547607 14.82999038696289 5.367195606231689 14.82775783538818 5.525220394134521 C 14.82551765441895 5.683325290679932 14.80560779571533 5.848938465118408 14.76334667205811 6.021786212921143 C 14.72106552124023 6.19471263885498 14.65641021728516 6.374869823455811 14.564697265625 6.561978816986084 C 14.47294139862061 6.749163627624512 14.3541202545166 6.943290233612061 14.20353603363037 7.144064426422119 C 14.0580472946167 7.338100910186768 13.90132236480713 7.513335227966309 13.73853015899658 7.671579360961914 C 13.57570457458496 7.829849720001221 13.40682506561279 7.971102714538574 13.23704051971436 8.097169876098633 C 13.06724834442139 8.223240852355957 12.89657688140869 8.334115028381348 12.73016262054443 8.43163013458252 C 12.56376266479492 8.529142379760742 12.40162372589111 8.613289833068848 12.24890041351318 8.685927391052246 C 12.21030521392822 8.70424747467041 12.17188262939453 8.722112655639648 12.13363456726074 8.739519119262695 C 12.09538269042969 8.756924629211426 12.0573148727417 8.773873329162598 12.01941871643066 8.790361404418945 C 11.98153114318848 8.806849479675293 11.94381809234619 8.822879791259766 11.90629482269287 8.838445663452148 C 11.86877822875977 8.854011535644531 11.83145141601562 8.869112968444824 11.79432106018066 8.883749961853027 C 11.49616527557373 9.378512382507324 11.15625 9.868186950683594 10.78637790679932 10.34064674377441 C 10.41624355316162 10.81343936920166 10.01620292663574 11.26888179779053 9.598137855529785 11.69482231140137 C 9.179882049560547 12.12095069885254 8.743703842163086 12.51743030548096 8.301515579223633 12.87210655212402 C 7.859262943267822 13.22683906555176 7.411126613616943 13.53964614868164 6.969064712524414 13.79839134216309 C 6.748062610626221 13.92774486541748 6.533203125 14.04088497161865 6.325589656829834 14.13779735565186 C 6.118005275726318 14.23469257354736 5.917691230773926 14.31536483764648 5.72573184967041 14.37981605529785 C 5.533814907073975 14.44425487518311 5.350265979766846 14.49247360229492 5.17618989944458 14.5244779586792 C 5.002158641815186 14.55647563934326 4.83759880065918 14.57226657867432 4.683605194091797 14.57186317443848 Z M 5.379150867462158 9.579490661621094 C 5.070013999938965 10.09453392028809 4.842428207397461 10.58041572570801 4.695701122283936 11.01968765258789 C 4.548816204071045 11.45944786071777 4.482965469360352 11.8525218963623 4.497516632080078 12.18131446838379 C 4.512080192565918 12.51047515869141 4.607217788696289 12.77519989013672 4.782271385192871 12.95778846740723 C 4.957505226135254 13.14055824279785 5.212773323059082 13.24099826812744 5.547354698181152 13.24137401580811 C 5.882193088531494 13.24174785614014 6.268224716186523 13.14187812805176 6.68170166015625 12.95930671691895 C 7.09531307220459 12.77667427062988 7.536219596862793 12.51136302947998 7.980607509613037 12.18103790283203 C 8.424954414367676 11.85074043273926 8.872611045837402 11.45557308197021 9.299758911132812 11.01327133178711 C 9.726705551147461 10.57118034362793 10.13300037384033 10.08218288421631 10.49489974975586 9.564034461975098 C 10.3585844039917 9.598913192749023 10.2209529876709 9.631138801574707 10.08247947692871 9.660737037658691 C 9.944042205810547 9.690332412719727 9.804766654968262 9.717301368713379 9.665131568908691 9.741677284240723 C 9.525532722473145 9.766044616699219 9.385580062866211 9.787819862365723 9.24575138092041 9.807033538818359 C 9.105959892272949 9.826242446899414 8.966293334960938 9.842891693115234 8.827231407165527 9.857009887695312 C 8.682125091552734 9.972108840942383 8.53825569152832 10.07475852966309 8.397679328918457 10.16400527954102 C 8.257104873657227 10.25324726104736 8.119829177856445 10.32908058166504 7.987905502319336 10.39055061340332 C 7.855992794036865 10.4520149230957 7.729444026947021 10.49910736083984 7.610306262969971 10.53088474273682 C 7.49118185043335 10.56265926361084 7.379481315612793 10.5791187286377 7.277243137359619 10.57931613922119 C 7.277097702026367 10.57931709289551 7.276959419250488 10.57931613922119 7.27681827545166 10.57931709289551 C 7.276676177978516 10.57931613922119 7.276538848876953 10.57931709289551 7.276401042938232 10.57931709289551 C 7.27626371383667 10.57931804656982 7.276125431060791 10.57931709289551 7.275984287261963 10.57931804656982 C 7.275846481323242 10.57931900024414 7.275704383850098 10.57931804656982 7.275559425354004 10.57931900024414 C 7.275422096252441 10.57931900024414 7.275283813476562 10.57931900024414 7.275142192840576 10.57931900024414 C 7.274997234344482 10.57931995391846 7.274855136871338 10.57931900024414 7.274710178375244 10.57931995391846 C 7.274568557739258 10.57931995391846 7.274423122406006 10.57932090759277 7.274281978607178 10.57932090759277 C 7.274139881134033 10.57932090759277 7.273998737335205 10.57932090759277 7.273860931396484 10.57932186126709 C 7.17164421081543 10.579514503479 7.081122398376465 10.56344604492188 7.003110885620117 10.53207397460938 C 6.925125122070312 10.50070858001709 6.85963773727417 10.4540491104126 6.807461738586426 10.39304447174072 C 6.755303382873535 10.33205699920654 6.716447353363037 10.25673770904541 6.691702842712402 10.16803550720215 C 6.666964054107666 10.07936573028564 6.656321048736572 9.977321624755859 6.660576820373535 9.862863540649414 L 6.660582542419434 9.862855911254883 C 6.545096397399902 9.850996017456055 6.43172550201416 9.836186408996582 6.32050085067749 9.818426132202148 C 6.209312438964844 9.800670623779297 6.100267887115479 9.779969215393066 5.993414878845215 9.756336212158203 C 5.886595726013184 9.732709884643555 5.781961441040039 9.706150054931641 5.679557800292969 9.676666259765625 C 5.577184677124023 9.647192001342773 5.477036476135254 9.614797592163086 5.379150867462158 9.579490661621094 Z M 9.422711372375488 7.271930694580078 C 9.33418083190918 7.272425651550293 9.231886863708496 7.300577163696289 9.122705459594727 7.351056575775146 C 9.013526916503906 7.401529788970947 8.897448539733887 7.474331378936768 8.781336784362793 7.564149379730225 C 8.665224075317383 7.653968811035156 8.549067497253418 7.760810852050781 8.439736366271973 7.879364967346191 C 8.330389022827148 7.997937202453613 8.227860450744629 8.128237724304199 8.139023780822754 8.264956474304199 C 8.050164222717285 8.401710510253906 7.983412742614746 8.53194522857666 7.938794612884521 8.650367736816406 C 7.894163608551025 8.768817901611328 7.87167501449585 8.875456809997559 7.87135648727417 8.964968681335449 C 7.871039867401123 9.054506301879883 7.892907619476318 9.126904487609863 7.936989784240723 9.176853179931641 C 7.981077671051025 9.226811408996582 8.047389984130859 9.254301071166992 8.135951042175293 9.254002571105957 C 8.224525451660156 9.253702163696289 8.326958656311035 9.225631713867188 8.43635082244873 9.175121307373047 C 8.545753479003906 9.124605178833008 8.662093162536621 9.051654815673828 8.778473854064941 8.961605072021484 C 8.894856452941895 8.871562004089355 9.011255264282227 8.764431953430176 9.120776176452637 8.645567893981934 C 9.230286598205566 8.526718139648438 9.33289909362793 8.396143913269043 9.421730041503906 8.259193420410156 C 9.510536193847656 8.12227725982666 9.577150344848633 7.99196195602417 9.621564865112305 7.873541831970215 C 9.665968894958496 7.755160331726074 9.688194274902344 7.648670196533203 9.688240051269531 7.559359550476074 C 9.688290596008301 7.470075607299805 9.666182518005371 7.397964954376221 9.621912002563477 7.348300933837891 C 9.577654838562012 7.298649311065674 9.511256217956543 7.271432876586914 9.422711372375488 7.271930694580078 Z M 10.28087711334229 5.950044631958008 C 10.48051738739014 5.948628902435303 10.63228511810303 6.007624626159668 10.73579978942871 6.11615514755249 C 10.83938121795654 6.224748611450195 10.89465808868408 6.382942199707031 10.90123462677002 6.579837322235107 C 10.90781211853027 6.776864051818848 10.86562347412109 7.012654781341553 10.77424621582031 7.276271820068359 C 10.68281555175781 7.540059089660645 10.54213428497314 7.831700801849365 10.35180950164795 8.140207290649414 C 10.56633567810059 8.107872009277344 10.77862930297852 8.06951904296875 10.98656463623047 8.025333404541016 C 11.19457244873047 7.98113489151001 11.39820671081543 7.931107521057129 11.59534072875977 7.875443458557129 C 11.79252910614014 7.819764614105225 11.98319625854492 7.758456230163574 12.16522598266602 7.691711902618408 C 12.34728145599365 7.624951362609863 12.52068710327148 7.552754878997803 12.68329048156738 7.475326061248779 C 12.82270050048828 7.408905982971191 12.94021034240723 7.345406055450439 13.0386791229248 7.286688804626465 C 13.13714790344238 7.227967739105225 13.21657276153564 7.174036502838135 13.27980995178223 7.126750469207764 C 13.34304618835449 7.079466342926025 13.39009571075439 7.038829803466797 13.42381954193115 7.006706237792969 C 13.45754337310791 6.974581241607666 13.47794246673584 6.950966358184814 13.48789310455322 6.93771505355835 C 13.4907808303833 6.93390941619873 13.49703884124756 6.925012588500977 13.5053071975708 6.910969734191895 C 13.51357650756836 6.896927356719971 13.52385807037354 6.877742290496826 13.53479480743408 6.853364944458008 C 13.54572868347168 6.828988552093506 13.55732154846191 6.799420356750488 13.5682201385498 6.764602184295654 C 13.57911014556885 6.729791164398193 13.58930587768555 6.689733982086182 13.59744548797607 6.64438009262085 C 13.54827404022217 6.688611507415771 13.4991979598999 6.728005409240723 13.4511251449585 6.762229919433594 C 13.40304660797119 6.796453952789307 13.35597038269043 6.82550573348999 13.3108024597168 6.849054336547852 C 13.26563262939453 6.872603416442871 13.22237110137939 6.89064884185791 13.18191623687744 6.902854919433594 C 13.14146423339844 6.915058135986328 13.10382270812988 6.921427249908447 13.06990432739258 6.921627521514893 C 13.05765819549561 6.921701431274414 13.0458984375 6.920971393585205 13.03466510772705 6.919421195983887 C 13.02343082427979 6.917870998382568 13.01272487640381 6.915503978729248 13.00258922576904 6.912300109863281 C 12.99245262145996 6.909096240997314 12.98288059234619 6.905056476593018 12.97392845153809 6.900170803070068 C 12.96497344970703 6.895281314849854 12.95662975311279 6.889543533325195 12.94894027709961 6.882943630218506 C 12.91315841674805 6.852198600769043 12.89440250396729 6.8055100440979 12.89112663269043 6.747400283813477 C 12.88785362243652 6.689301013946533 12.90004825592041 6.619794368743896 12.92616939544678 6.543396472930908 C 12.9522876739502 6.467015743255615 12.99231719970703 6.38374662399292 13.04471492767334 6.298111915588379 C 13.09710502624512 6.212494373321533 13.16186237335205 6.124509334564209 13.23744201660156 6.038669586181641 C 13.35529041290283 5.904746055603027 13.47475147247314 5.746452331542969 13.5889778137207 5.570744514465332 C 13.70316982269287 5.395090103149414 13.81210994720459 5.202054977416992 13.90896701812744 4.998604297637939 C 14.00577831268311 4.795241355895996 14.09049606323242 4.581493854522705 14.1563024520874 4.364308834075928 C 14.22206974029541 4.147245407104492 14.26893329620361 3.92677116394043 14.29008865356445 3.709820508956909 L 13.48952484130859 4.947380065917969 C 13.43069171905518 5.038328170776367 13.36260986328125 5.125083923339844 13.28985977172852 5.204085826873779 C 13.21710872650146 5.283097267150879 13.13970470428467 5.354349136352539 13.06223964691162 5.414286136627197 C 12.98477172851562 5.474224090576172 12.90724849700928 5.522841930389404 12.83426284790039 5.556585788726807 C 12.76128196716309 5.590327262878418 12.69284820556641 5.609192848205566 12.63354778289795 5.609633922576904 C 12.57425975799561 5.610074996948242 12.5297212600708 5.592056751251221 12.49994850158691 5.55909538269043 C 12.47017955780029 5.526139736175537 12.45517349243164 5.478248596191406 12.45494174957275 5.418941974639893 C 12.45470333099365 5.359645366668701 12.46922874450684 5.288938522338867 12.49853515625 5.210337162017822 C 12.52783584594727 5.131750583648682 12.57190418243408 5.045270919799805 12.63075256347656 4.954410076141357 L 14.11462593078613 2.663283824920654 C 14.07297611236572 2.590859413146973 14.02389526367188 2.523132562637329 13.96685600280762 2.460870742797852 C 13.90983009338379 2.398629188537598 13.8448486328125 2.341849088668823 13.77137279510498 2.291292667388916 C 13.697922706604 2.240754842758179 13.61599063873291 2.196434497833252 13.5250415802002 2.15910005569458 C 13.43411922454834 2.12177848815918 13.33418369293213 2.09143853187561 13.22470378875732 2.068838596343994 L 12.19732475280762 3.652306079864502 C 12.13859558105469 3.742821931838989 12.07067489624023 3.829180717468262 11.99812793731689 3.907841444015503 C 11.92557621002197 3.986509323120117 11.84841346740723 4.057468414306641 11.77120971679688 4.11717700958252 C 11.69400405883789 4.176886558532715 11.61676406860352 4.225340843200684 11.5440788269043 4.258999347686768 C 11.47139549255371 4.292654037475586 11.40326595306396 4.311513900756836 11.34426784515381 4.312039375305176 C 11.2852783203125 4.312565326690674 11.24100399017334 4.294712543487549 11.21145248413086 4.261984825134277 C 11.18189907073975 4.229259967803955 11.16707134246826 4.181663990020752 11.16696262359619 4.122695922851562 C 11.16684722900391 4.063738346099854 11.18145179748535 3.993412494659424 11.21077251434326 3.915215969085693 C 11.24008464813232 3.837031602859497 11.28411102294922 3.75098180770874 11.34285354614258 3.660552263259888 L 12.39507484436035 2.040712594985962 C 12.25999069213867 2.055870532989502 12.12411594390869 2.079943895339966 11.98793983459473 2.112021923065186 C 11.85179233551025 2.144095420837402 11.71533679962158 2.184172391891479 11.57905292510986 2.231349229812622 C 11.44279193878174 2.278514623641968 11.3066987991333 2.332782030105591 11.17126560211182 2.393239736557007 C 11.03584098815918 2.453690052032471 10.90106773376465 2.520334243774414 10.76742744445801 2.592267274856567 L 9.212101936340332 4.982389450073242 C 9.153200149536133 5.072904586791992 9.085165023803711 5.159245014190674 9.012569427490234 5.237871646881104 C 8.939967155456543 5.316504001617432 8.862811088562012 5.387416839599609 8.785671234130859 5.447066783905029 C 8.708529472351074 5.506718158721924 8.631414413452148 5.555100440979004 8.558896064758301 5.588681221008301 C 8.486382484436035 5.622260570526123 8.418474197387695 5.641034126281738 8.359742164611816 5.641472816467285 C 8.301020622253418 5.641909599304199 8.257034301757812 5.623974323272705 8.227781295776367 5.591168403625488 C 8.198528289794922 5.55836820602417 8.184000015258789 5.510702133178711 8.184179306030273 5.451676368713379 C 8.184357643127441 5.392661094665527 8.199238777160645 5.322291374206543 8.228814125061035 5.24406099319458 C 8.258376121520996 5.165847778320312 8.302621841430664 5.079778671264648 8.361536979675293 4.989350318908691 L 9.211735725402832 3.684352874755859 L 9.201099395751953 3.693554162979126 C 9.083444595336914 3.794635534286499 8.966805458068848 3.899646520614624 8.851648330688477 4.008108615875244 C 8.736484527587891 4.116580963134766 8.622797012329102 4.228509426116943 8.511048316955566 4.343419075012207 C 8.399288177490234 4.458340644836426 8.28946590423584 4.576249122619629 8.182051658630371 4.696661472320557 C 8.07462215423584 4.817092895507812 7.969592094421387 4.940037250518799 7.867423534393311 5.065013885498047 C 7.777037620544434 5.176785945892334 7.695892810821533 5.282598495483398 7.623643398284912 5.381759166717529 C 7.551385879516602 5.480940341949463 7.488028526306152 5.573463439941406 7.433237075805664 5.65864372253418 C 7.378432750701904 5.743835926055908 7.332197666168213 5.821680545806885 7.294192314147949 5.891482353210449 C 7.256179332733154 5.961300849914551 7.226391315460205 6.023070812225342 7.204501628875732 6.07610034942627 C 7.172811508178711 6.152968406677246 7.129673004150391 6.23223876953125 7.078282833099365 6.310342311859131 C 7.026883602142334 6.388454914093018 6.967231273651123 6.465394973754883 6.902524471282959 6.537587642669678 C 6.837811470031738 6.609786987304688 6.768048286437988 6.677239418029785 6.696436882019043 6.736368656158447 C 6.62482213973999 6.795498847961426 6.551361083984375 6.846305370330811 6.479256153106689 6.885211944580078 C 6.454971313476562 6.898314476013184 6.431472301483154 6.909729480743408 6.408822059631348 6.919484615325928 C 6.386181354522705 6.929240226745605 6.364390850067139 6.937338829040527 6.343524932861328 6.943809986114502 C 6.322663307189941 6.950282096862793 6.302724838256836 6.955131053924561 6.283784866333008 6.958384037017822 C 6.264845848083496 6.961639404296875 6.246902465820312 6.963298320770264 6.230024814605713 6.963398933410645 C 6.196803569793701 6.963597774505615 6.16771125793457 6.957750797271729 6.143284797668457 6.946108818054199 C 6.118855953216553 6.934468269348145 6.09910249710083 6.917033672332764 6.084545612335205 6.89405345916748 C 6.069993495941162 6.871078968048096 6.060634613037109 6.842560291290283 6.057011604309082 6.808746814727783 C 6.053384780883789 6.774941921234131 6.055489540100098 6.735847473144531 6.063858032226562 6.691708087921143 C 6.013445377349854 6.737104892730713 5.971938133239746 6.777096748352051 5.937906742095947 6.811789512634277 C 5.90387487411499 6.846479415893555 5.877327442169189 6.875867366790771 5.856818199157715 6.900051593780518 C 5.836312770843506 6.924237251281738 5.821851253509521 6.943222522735596 5.812009334564209 6.957099437713623 C 5.802167415618896 6.970978260040283 5.796940326690674 6.979753017425537 5.794908046722412 6.983521461486816 C 5.787715911865234 6.996641159057617 5.777544975280762 7.019993782043457 5.769613265991211 7.051692962646484 C 5.76168155670166 7.083391189575195 5.75600004196167 7.123443126678467 5.757794857025146 7.169954299926758 C 5.759588241577148 7.216475009918213 5.768857479095459 7.269460201263428 5.790848731994629 7.327029705047607 C 5.812849998474121 7.384613513946533 5.847573280334473 7.446783065795898 5.900258541107178 7.511660099029541 C 5.961805820465088 7.587326049804688 6.040840625762939 7.657685279846191 6.135530948638916 7.722564220428467 C 6.230258941650391 7.787467479705811 6.340660572052002 7.846890449523926 6.464890956878662 7.900652885437012 C 6.589180946350098 7.954440593719482 6.727311611175537 8.002565383911133 6.877449512481689 8.044846534729004 C 7.027659893035889 8.08714771270752 7.189888000488281 8.123600006103516 7.362288951873779 8.154026985168457 C 7.571852684020996 7.846459865570068 7.809224605560303 7.555278301239014 8.059817314147949 7.291450500488281 C 8.310338973999023 7.027697563171387 8.574136734008789 6.791222095489502 8.836647987365723 6.592996597290039 C 9.099150657653809 6.394783020019531 9.360430717468262 6.234764575958252 9.605937957763672 6.123947143554688 C 9.851491928100586 6.013104915618896 10.08133029937744 5.951457977294922 10.28087711334229 5.950044631958008 Z"/></g><g className="c" transform="translate(8.113 19.265)"><path className="g" d="M.856,2.709a.973.973,0,0,0,.4-.1,2.415,2.415,0,0,0,.461-.287,3.784,3.784,0,0,0,.463-.428,4,4,0,0,0,.409-.526A2.821,2.821,0,0,0,2.866.838,1.3,1.3,0,0,0,2.96.407.434.434,0,0,0,2.875.115.333.333,0,0,0,2.61.007a.977.977,0,0,0-.4.1A2.415,2.415,0,0,0,1.749.4a3.782,3.782,0,0,0-.462.427,4,4,0,0,0-.408.524A2.832,2.832,0,0,0,.6,1.874a1.307,1.307,0,0,0-.1.432A.437.437,0,0,0,.592,2.6.331.331,0,0,0,.856,2.709Z"/><path className="h" d="M 0.8561564683914185 2.708670377731323 C 0.7378517985343933 2.70736289024353 0.6497599482536316 2.66824197769165 0.5917884111404419 2.598624467849731 C 0.5338221192359924 2.52902364730835 0.5059506297111511 2.428952217102051 0.508018434047699 2.305750370025635 C 0.5101007223129272 2.182581901550293 0.5420907735824585 2.036294937133789 0.6038703322410583 1.874191641807556 C 0.6656183004379272 1.712150812149048 0.7571269869804382 1.534308075904846 0.8782620429992676 1.347935795783997 C 0.9993569254875183 1.161625385284424 1.138606667518616 0.9844124913215637 1.286752343177795 0.8234487175941467 C 1.43486225605011 0.6625229120254517 1.591870903968811 0.5178321003913879 1.74851393699646 0.3965373933315277 C 1.905158162117004 0.2752476930618286 2.061460256576538 0.1773263812065125 2.208150625228882 0.1099816486239433 C 2.354857683181763 0.04262179136276245 2.491973638534546 0.005819563288241625 2.6102294921875 0.006761083845049143 C 2.728525161743164 0.007702857721596956 2.816786527633667 0.04632407054305077 2.875057458877563 0.1153753995895386 C 2.933364629745483 0.1844512373209 2.961679220199585 0.283998429775238 2.960095882415771 0.4067457020282745 C 2.958511829376221 0.5295336246490479 2.927006244659424 0.6755495667457581 2.865634679794312 0.8375216722488403 C 2.804239273071289 0.999563992023468 2.712987661361694 1.177562236785889 2.591941356658936 1.364238500595093 C 2.470855236053467 1.550977110862732 2.331435918807983 1.728691935539246 2.183005809783936 1.890166521072388 C 2.034547328948975 2.051671504974365 1.877088665962219 2.196891307830811 1.719953179359436 2.318610191345215 C 1.562818884849548 2.440311193466187 1.406039237976074 2.538498401641846 1.25894820690155 2.60591983795166 C 1.111873745918274 2.673334121704102 0.9745005965232849 2.709978342056274 0.8561564683914185 2.708670377731323 Z"/></g><g className="c" transform="translate(0 14.819)"><path className="g" d="M11.692.017l.349,1.744.856,0L15.515.028a6.193,6.193,0,0,1,1.564.711,3.963,3.963,0,0,1,1.173,1.12,2.582,2.582,0,0,1,.443,1.5,3.556,3.556,0,0,1-.63,1.838l-2.632,4.1L0,9.087,2.642,5.06a7.768,7.768,0,0,1,1.712-1.8A14.307,14.307,0,0,1,6.675,1.8,20.663,20.663,0,0,1,9.243.71,20.426,20.426,0,0,1,11.692.017Zm.62,3.094,2.5-1.662q.132.047.261.1t.255.112q.126.059.248.123t.24.133L11.971,7.872l.865.01,3.581-5.549q.074.061.145.125t.136.131q.066.067.127.136t.118.141L13.7,7.893,3.417,7.771,6.664,2.8q.146-.07.293-.137t.3-.132q.149-.065.3-.127l.3-.122L4.265,7.781l.85.01L8.969,1.882q.2-.067.405-.129t.4-.119q.2-.057.394-.108t.385-.1l.33,1.672Zm5.152,1.184a1.814,1.814,0,0,1-.028.279,1.691,1.691,0,0,1-.062.241,1.666,1.666,0,0,1-.085.2,1.715,1.715,0,0,1-.1.168L15.44,7.914l-.87-.01,2.777-4.314q.031.089.054.177t.037.177q.014.088.02.176t0,.175Zm-13.112-.1q.108-.085.225-.171t.243-.172q.126-.086.26-.172t.276-.172L2.57,7.761l-.845-.01L3.485,5.067c.032-.049.072-.1.121-.165s.107-.127.176-.2.15-.151.245-.236S4.228,4.29,4.352,4.193Z"/><path className="h" d="M 15.43214130401611 9.293451309204102 L -7.613636626047082e-06 9.086677551269531 L 2.641870975494385 5.059715270996094 C 3.070482969284058 4.406386375427246 3.661618947982788 3.805116415023804 4.354050159454346 3.260645389556885 C 5.046341896057129 2.716281652450562 5.840468883514404 2.228233814239502 6.675261974334717 1.801570177078247 C 7.51046895980835 1.374702334403992 8.386880874633789 1.009037613868713 9.243001937866211 0.7098932862281799 C 10.09995079040527 0.410469114780426 10.93686676025391 0.1776136159896851 11.69177436828613 0.01684522069990635 L 12.04109668731689 1.761244535446167 L 12.89740562438965 1.765443325042725 L 15.51498699188232 0.0280495285987854 C 16.06467056274414 0.1935942023992538 16.60441780090332 0.4324880242347717 17.07876586914062 0.7391149997711182 C 17.55409240722656 1.046373844146729 17.96381759643555 1.421681046485901 18.25192070007324 1.859283208847046 C 18.54061698913574 2.297794580459595 18.7071418762207 2.798793077468872 18.69506454467773 3.356257200241089 C 18.68296051025391 3.914714813232422 18.49162673950195 4.529601573944092 18.0645751953125 5.194552898406982 L 15.43214130401611 9.293451309204102 Z M 17.34773445129395 3.589263677597046 L 14.57046031951904 7.903207302093506 L 15.44024562835693 7.913508415222168 L 17.19346046447754 5.186933994293213 C 17.22570419311523 5.136786460876465 17.25810050964355 5.080843448638916 17.2887077331543 5.018878936767578 C 17.31931114196777 4.95693826675415 17.34812545776367 4.888995170593262 17.37321662902832 4.814866065979004 C 17.39830780029297 4.740743160247803 17.4196662902832 4.660446643829346 17.43536567687988 4.573763370513916 C 17.45105171203613 4.487116813659668 17.46109008789062 4.394093036651611 17.46353149414062 4.294509887695312 L 17.46309471130371 4.295190334320068 C 17.46455574035645 4.237058162689209 17.46329879760742 4.178628444671631 17.45928573608398 4.119973182678223 C 17.45527458190918 4.061336994171143 17.44850540161133 4.002490520477295 17.43894004821777 3.943527460098267 C 17.42937660217285 3.88457727432251 17.41702079772949 3.825511455535889 17.40182876586914 3.766422033309937 C 17.38664245605469 3.707362413406372 17.36862564086914 3.648273706436157 17.34773445129395 3.589263677597046 Z M 5.114407062530518 7.791258811950684 L 13.7023811340332 7.892935276031494 L 16.94189834594727 2.86704421043396 C 16.90437698364258 2.819156169891357 16.86518478393555 2.772107601165771 16.82440567016602 2.725929260253906 C 16.78363227844238 2.679754734039307 16.74126625061035 2.63444185256958 16.6973876953125 2.590006589889526 C 16.65352630615234 2.54557466506958 16.60815811157227 2.502011775970459 16.56136322021484 2.459326505661011 C 16.51458358764648 2.416659593582153 16.46637153625488 2.374868631362915 16.41682434082031 2.333970308303833 L 12.83600807189941 7.882674217224121 L 11.97132015228271 7.872441291809082 L 15.81928443908691 1.916917681694031 C 15.74100780487061 1.870757341384888 15.66107845306396 1.826282978057861 15.57970905303955 1.783593654632568 C 15.49837398529053 1.74090301990509 15.41560745239258 1.699980854988098 15.33162593841553 1.660903334617615 C 15.2476692199707 1.621838212013245 15.16250324249268 1.584608912467957 15.07634925842285 1.549299001693726 C 14.99022579193115 1.514007449150085 14.90310955047607 1.480618476867676 14.81522846221924 1.449215888977051 L 12.31172180175781 3.110795736312866 L 10.8839635848999 3.101608514785767 L 10.55360412597656 1.429861664772034 C 10.42675018310547 1.460131525993347 10.29816150665283 1.492360591888428 10.16815948486328 1.526465058326721 C 10.03817939758301 1.560570597648621 9.90677547454834 1.596550703048706 9.774266242980957 1.634352684020996 C 9.641779899597168 1.672148108482361 9.508181571960449 1.711748957633972 9.373790740966797 1.753087997436523 C 9.239422798156738 1.79441237449646 9.10426139831543 1.837489128112793 8.96861743927002 1.882227659225464 L 5.114407062530518 7.791258811950684 L 4.264779090881348 7.781196594238281 L 7.852847576141357 2.286605596542358 C 7.752468585968018 2.326268911361694 7.652265548706055 2.366867065429688 7.552353382110596 2.408330917358398 C 7.452451705932617 2.449791669845581 7.352840900421143 2.492141246795654 7.253632068634033 2.535312175750732 C 7.154430866241455 2.578486919403076 7.055638313293457 2.622498273849487 6.957356452941895 2.667300701141357 C 6.859082221984863 2.712100028991699 6.761322498321533 2.757706165313721 6.664186000823975 2.80405068397522 L 3.416803359985352 7.771153926849365 L 4.264779090881348 7.781196594238281 L 5.114407062530518 7.791258811950684 Z M 5.355589866638184 3.506043672561646 C 5.260827541351318 3.563440084457397 5.168733596801758 3.620945453643799 5.079389572143555 3.678437948226929 C 4.99005126953125 3.735945463180542 4.903461456298828 3.793440818786621 4.819721698760986 3.850825786590576 C 4.73597526550293 3.908226013183594 4.655066013336182 3.965516567230225 4.577088356018066 4.022591590881348 C 4.499106884002686 4.079675197601318 4.424055576324463 4.136543273925781 4.352010250091553 4.193105697631836 C 4.228457927703857 4.290259838104248 4.120561599731445 4.38112735748291 4.026195526123047 4.465836524963379 C 3.931816101074219 4.550565719604492 3.850971460342407 4.629153728485107 3.781519889831543 4.70176362991333 C 3.712067127227783 4.774387359619141 3.654016256332397 4.841026782989502 3.605242729187012 4.901861667633057 C 3.556464195251465 4.962700366973877 3.516960859298706 5.01771879196167 3.48461389541626 5.067085742950439 L 1.725774884223938 7.751134395599365 L 2.57047176361084 7.761138439178467 L 5.355589866638184 3.506043672561646 Z"/></g></g></g><g transform="translate(47.273 0.342)"><path className="d" d="M37.373,2.883,21.186,28.844A5.915,5.915,0,0,1,20.2,30.02a7.408,7.408,0,0,1-1.277.954,6.714,6.714,0,0,1-1.406.634,4.393,4.393,0,0,1-1.37.217L3.031,31.591A2.089,2.089,0,0,1,2,31.335a1.258,1.258,0,0,1-.555-.655,1.726,1.726,0,0,1-.043-.956,3.519,3.519,0,0,1,.5-1.158L18.189,3.152a5.745,5.745,0,0,1,.942-1.1,7.382,7.382,0,0,1,1.22-.908A6.819,6.819,0,0,1,21.7.518,4.508,4.508,0,0,1,23.013.276L36.049.053a2.333,2.333,0,0,1,1.072.2,1.27,1.27,0,0,1,.608.6,1.52,1.52,0,0,1,.1.905A3.12,3.12,0,0,1,37.373,2.883Z" transform="translate(0)"/><g transform="translate(4.244 2.169)"><path d="M15.075.135a.764.764,0,0,0-.291.074,1.688,1.688,0,0,0-.323.2,2.5,2.5,0,0,0-.588.638L.593,21.973a1.77,1.77,0,0,0-.181.364.82.82,0,0,0-.052.3.3.3,0,0,0,.075.2.271.271,0,0,0,.2.076.734.734,0,0,0,.294-.071,1.673,1.673,0,0,0,.329-.2,2.5,2.5,0,0,0,.325-.3,2.55,2.55,0,0,0,.281-.363l6.119-9.661,7.882-.011a.761.761,0,0,0,.3-.073,1.685,1.685,0,0,0,.33-.2,2.519,2.519,0,0,0,.6-.655L23.649.907a1.627,1.627,0,0,0,.17-.353.737.737,0,0,0,.042-.286.285.285,0,0,0-.084-.191A.288.288,0,0,0,23.571.01l-8.4.124h-.091ZM16.441,1.9l1.788-.023L17.016,3.8l1.8-.019,1.212-1.928,1.765-.023L20.578,3.765l-1.766.019-1.6,2.553,1.767-.014-1.611,2.57L15.6,8.9l-.986,1.569-1.8.006L13.8,8.912l-1.79.009-.987,1.562-1.784.006.988-1.559,1.783-.009,1.614-2.556-1.782.014,1.608-2.539,1.782-.019ZM15.228,3.822,13.621,6.366l1.79-.014L17.017,3.8l-1.789.019Zm.183,2.529L13.8,8.912,15.6,8.9l1.612-2.565Z" transform="translate(6.998)"/><path d="M7.184.024a11.5,11.5,0,0,0-1.57.39A9.055,9.055,0,0,0,4.209,1a6.407,6.407,0,0,0-1.167.779,4.347,4.347,0,0,0-.853.961,2.553,2.553,0,0,0-.453,1.336,1.614,1.614,0,0,0,.418,1.1A2.824,2.824,0,0,0,3.4,5.943a6.737,6.737,0,0,0,2.027.3,10.706,10.706,0,0,0,2.383-.241,11.047,11.047,0,0,0,2.206-.719A8.875,8.875,0,0,0,11.844,4.2,5.4,5.4,0,0,0,13.1,2.856a2.259,2.259,0,0,0,.37-.978,1.267,1.267,0,0,0-.182-.8,1.849,1.849,0,0,0-.664-.611A4.1,4.1,0,0,0,11.544.056L10.855.72a3.961,3.961,0,0,1,.824.288,1.767,1.767,0,0,1,.539.388.8.8,0,0,1,.215.466.849.849,0,0,1-.148.523,2.377,2.377,0,0,1-.8.713,6.346,6.346,0,0,1-1.312.575,10.4,10.4,0,0,1-1.644.378,11.327,11.327,0,0,1-1.794.124,8.2,8.2,0,0,1-1.6-.164A3.814,3.814,0,0,1,4,3.6a1.211,1.211,0,0,1-.558-.591A.789.789,0,0,1,3.558,2.3a2,2,0,0,1,.5-.513,4.409,4.409,0,0,1,.787-.452A7.63,7.63,0,0,1,5.856.962,10.432,10.432,0,0,1,7.024.691l.04-.167L7.1.358l.04-.167Z" transform="translate(0 20.153)"/></g></g><g transform="translate(66.565 0)"><path className="e" d="M38.1,2.945,22.033,29.476a5.8,5.8,0,0,1-.99,1.2,7.386,7.386,0,0,1-1.3.975,6.842,6.842,0,0,1-1.448.648,4.612,4.612,0,0,1-1.424.221l-13.7-.244a2.264,2.264,0,0,1-1.086-.262,1.352,1.352,0,0,1-.6-.67,1.741,1.741,0,0,1-.075-.977,3.443,3.443,0,0,1,.488-1.184L18.081,3.225A5.636,5.636,0,0,1,19.028,2.1a7.359,7.359,0,0,1,1.244-.927A6.944,6.944,0,0,1,21.655.536,4.722,4.722,0,0,1,23.022.288l13.6-.232a2.527,2.527,0,0,1,1.126.209A1.374,1.374,0,0,1,38.4.876a1.539,1.539,0,0,1,.133.924A3.047,3.047,0,0,1,38.1,2.945Z"/><g transform="translate(7.684 4.385)"><path d="M3.1.01A.5.5,0,0,1,3.46.14.532.532,0,0,1,3.6.487,1.351,1.351,0,0,1,3.531,1a2.887,2.887,0,0,1-.3.626,4.19,4.19,0,0,1-.474.625,4.147,4.147,0,0,1-.556.509,2.832,2.832,0,0,1-.57.341,1.288,1.288,0,0,1-.515.121.5.5,0,0,1-.358-.132A.536.536,0,0,1,.619,2.74a1.363,1.363,0,0,1,.076-.513,2.9,2.9,0,0,1,.3-.625A4.194,4.194,0,0,1,1.466.978,4.145,4.145,0,0,1,2.02.472a2.834,2.834,0,0,1,.568-.34A1.294,1.294,0,0,1,3.1.01Z" transform="translate(1.307 20.063)"/><path d="M3.116.01a.519.519,0,0,1,.367.131.542.542,0,0,1,.152.35,1.346,1.346,0,0,1-.068.517,2.859,2.859,0,0,1-.294.632,4.153,4.153,0,0,1-.474.631,4.128,4.128,0,0,1-.56.513,2.84,2.84,0,0,1-.576.344,1.31,1.31,0,0,1-.523.122.517.517,0,0,1-.366-.133.546.546,0,0,1-.15-.352,1.358,1.358,0,0,1,.07-.518,2.873,2.873,0,0,1,.3-.631A4.228,4.228,0,0,1,2.021.476,2.842,2.842,0,0,1,2.595.133,1.316,1.316,0,0,1,3.116.01Z" transform="translate(9.693 20.139)"/><path d="M13.561.821a1.05,1.05,0,0,0,.088-.258.472.472,0,0,0,0-.2A.227.227,0,0,0,13.562.23.274.274,0,0,0,13.4.184L11.1.213l-.994,1.6,1.826-.02L4.466,17.416a1.12,1.12,0,0,0-.092.267.512.512,0,0,0,0,.211.24.24,0,0,0,.085.139.271.271,0,0,0,.167.051l10.578.073,1.018-1.673-10.1-.052,1.57-3.3,10.554.016a.65.65,0,0,0,.229-.048,1.306,1.306,0,0,0,.254-.134,1.955,1.955,0,0,0,.256-.205,2.222,2.222,0,0,0,.236-.262l6.464-8.427-1.216.01L18.781,11.5l-10.306,0Z" transform="translate(0 0)"/><path d="M8.5,6.039l-.321-2.9L4.093,9.806l-1.173,0,4.09-6.663L3.127,6.072,3.011,4.929,9.493.044l.548,4.834Z" transform="translate(11.448 0.046)"/></g></g><g transform="translate(0.088 1.285)"><path className="f" d="M29.306,2.713,12.888,27.1a6.233,6.233,0,0,1-.964,1.1,7.471,7.471,0,0,1-1.2.9,6.371,6.371,0,0,1-1.292.6,3.828,3.828,0,0,1-1.227.2l-5.485-.1a1.7,1.7,0,0,1-.908-.241,1.058,1.058,0,0,1-.451-.619,1.711,1.711,0,0,1,.03-.9,3.723,3.723,0,0,1,.534-1.1L18.365,2.866a6.02,6.02,0,0,1,.926-1.048A7.437,7.437,0,0,1,20.451.957,6.52,6.52,0,0,1,21.7.369,4.012,4.012,0,0,1,22.9.141L28.372.047A1.85,1.85,0,0,1,29.3.241a1.025,1.025,0,0,1,.487.565,1.494,1.494,0,0,1,.012.852A3.346,3.346,0,0,1,29.306,2.713Z"/><path d="M1.073,7.512.11,8.925,6.4,5.268,7.768,9.127l.938-1.39L7.494,4.572l5.47-3.147L13.926,0,7.336,3.841,6.057.2,5.13,1.559,6.225,4.536Z" transform="translate(8.714 10.228)"/></g></svg>