<svg xmlns="http://www.w3.org/2000/svg" width="35.609" height="23.481" viewBox="0 0 35.609 23.481"><path d="M28.791,9.531C28.429,4.679,24.53,0,17.38,0,10.841,0,5.8,4.207,5.531,9.821A7.458,7.458,0,0,0,0,16.51c0,3.714,3.566,6.971,7.63,6.971h5.511a.371.371,0,1,0,0-.734H7.63c-3.613,0-6.783-2.915-6.783-6.237A6.8,6.8,0,0,1,7.63,10.273H8.9a.371.371,0,1,0,0-.734H7.63a8.193,8.193,0,0,0-1.237.1C6.726,5.246,10.586.734,17.38.734c7.281,0,10.6,4.945,10.6,9.539v1.1a.428.428,0,0,0,.848,0V10.267c2.56.243,5.935,2.62,5.935,6.244,0,2.807-3.129,6.237-6.783,6.237H21.62c-2.745,0-3.815-.926-3.815-3.3V9.38l3.457,2.987a.472.472,0,0,0,.6,0,.333.333,0,0,0,0-.519L18.08,8.582a.912.912,0,0,0-1.4,0L12.9,11.849a.333.333,0,0,0,0,.519.472.472,0,0,0,.6,0L16.957,9.38V19.446c0,2.791,1.438,4.036,4.663,4.036h6.359c4.109,0,7.63-3.833,7.63-6.971C35.609,12.719,32.028,9.754,28.791,9.531Z"/></svg>