<svg xmlns="http://www.w3.org/2000/svg" width="53" height="58" viewBox="0 0 53 58"><defs><style>.a{fill:#FBFAF6;}.b,.c{stroke:none;}.c{fill:#707070;}</style></defs><g class="a"><path class="b" d="M 41 57.5 L 12 57.5 C 8.931559562683105 57.5 6.045839786529541 56.26142883300781 3.874419927597046 54.01245880126953 C 1.698390007019043 51.75872039794922 0.5 48.76097106933594 0.5 45.57143020629883 L 0.5 12.42856979370117 C 0.5 9.239029884338379 1.698390007019043 6.241280078887939 3.874419927597046 3.987540006637573 C 6.045839786529541 1.738569974899292 8.931559562683105 0.5 12 0.5 L 41 0.5 C 44.06843948364258 0.5 46.95415878295898 1.738569974899292 49.12557983398438 3.987540006637573 C 51.30160903930664 6.241280078887939 52.5 9.239029884338379 52.5 12.42856979370117 L 52.5 45.57143020629883 C 52.5 48.76097106933594 51.30160903930664 51.75872039794922 49.12557983398438 54.01245880126953 C 46.95415878295898 56.26142883300781 44.06843948364258 57.5 41 57.5 Z"/><path class="c" d="M 12 1 C 9.068439483642578 1 6.310470581054688 2.184341430664062 4.234119415283203 4.3348388671875 C 2.148571014404297 6.494880676269531 1 9.369289398193359 1 12.42856979370117 L 1 45.57143020629883 C 1 48.63071060180664 2.148571014404297 51.50511932373047 4.234119415283203 53.6651611328125 C 6.310470581054688 55.81565856933594 9.068439483642578 57 12 57 L 41 57 C 43.93156051635742 57 46.68952941894531 55.81565856933594 48.7658805847168 53.6651611328125 C 50.8514289855957 51.50511932373047 52 48.63071060180664 52 45.57143020629883 L 52 12.42856979370117 C 52 9.369289398193359 50.8514289855957 6.494880676269531 48.7658805847168 4.3348388671875 C 46.68952941894531 2.184341430664062 43.93156051635742 1 41 1 L 12 1 M 12 0 L 41 0 C 47.62741851806641 0 53 5.564460754394531 53 12.42856979370117 L 53 45.57143020629883 C 53 52.43553924560547 47.62741851806641 58 41 58 L 12 58 C 5.372581481933594 58 0 52.43553924560547 0 45.57143020629883 L 0 12.42856979370117 C 0 5.564460754394531 5.372581481933594 0 12 0 Z"/></g></svg>