<svg xmlns="http://www.w3.org/2000/svg" width="55" height="56" viewBox="0 0 55 56"><defs><style>.a,.b,.d{fill:none;}.a{stroke:#707070;stroke-width:0.5px;}.c,.e{stroke:none;}.e{fill:#000;}</style></defs><g class="a"><rect class="c" width="55" height="56"/><rect class="d" x="0.25" y="0.25" width="54.5" height="55.5"/></g><g transform="translate(55.852 76.415) rotate(180)"><g transform="translate(20.508 30.682)"><g class="b" transform="translate(-20.508 -30.682)"><path class="c" d="M26.792,30.962a3.574,3.574,0,0,1,2.776,0l6.043,3.562c.663.39-.117.891-1.387.891H22.136c-1.27,0-2.049-.5-1.387-.891Z"/><path class="e" d="M 28.17972946166992 30.6820068359375 C 28.71508026123047 30.6820068359375 29.25043296813965 30.77547836303711 29.56749725341797 30.96242523193359 L 35.61040496826172 34.52394485473633 C 36.27299499511719 34.91424560546875 35.49334716796875 35.4149169921875 34.22345733642578 35.4149169921875 L 22.1359977722168 35.4149169921875 C 20.86610794067383 35.4149169921875 20.08727645874023 34.91424560546875 20.74904632568359 34.52394485473633 L 26.79196739196777 30.96242523193359 C 27.10902786254883 30.77547836303711 27.64437675476074 30.6820068359375 28.17972946166992 30.6820068359375 Z"/></g></g></g><g transform="translate(-0.508 -21.682)"><g transform="translate(20.508 30.682)"><g class="b" transform="translate(-20.508 -30.682)"><path class="c" d="M26.792,30.962a3.574,3.574,0,0,1,2.776,0l6.043,3.562c.663.39-.117.891-1.387.891H22.136c-1.27,0-2.049-.5-1.387-.891Z"/><path class="e" d="M 28.17972946166992 30.6820068359375 C 28.71508026123047 30.6820068359375 29.25043296813965 30.77547836303711 29.56749725341797 30.96242523193359 L 35.61040496826172 34.52394485473633 C 36.27299499511719 34.91424560546875 35.49334716796875 35.4149169921875 34.22345733642578 35.4149169921875 L 22.1359977722168 35.4149169921875 C 20.86610794067383 35.4149169921875 20.08727645874023 34.91424560546875 20.74904632568359 34.52394485473633 L 26.79196739196777 30.96242523193359 C 27.10902786254883 30.77547836303711 27.64437675476074 30.6820068359375 28.17972946166992 30.6820068359375 Z"/></g></g></g><g transform="translate(-12 2)"><path d="M45.5,17.928V33.354H33.928V22.585l4.657-4.657H45.5M45.5,16H37.785L32,21.785v11.57a1.934,1.934,0,0,0,1.928,1.928H45.5a1.934,1.934,0,0,0,1.928-1.928V17.928A1.934,1.934,0,0,0,45.5,16Zm-8.677,4.821h1.928v3.857H36.821Zm2.892,0h1.928v3.857H39.713Zm2.892,0h1.928v3.857H42.605Z"/></g></svg>