<svg xmlns="http://www.w3.org/2000/svg" width="55" height="56" viewBox="0 0 55 56"><defs><style>.a,.b,.d{fill:none;}.a{stroke:#707070;stroke-width:0.5px;}.c,.e{stroke:none;}.e{fill:#000;}</style></defs><g class="a"><path class="c" d="M0,0H43A12,12,0,0,1,55,12V56a0,0,0,0,1,0,0H0a0,0,0,0,1,0,0V0A0,0,0,0,1,0,0Z"/><path class="d" d="M.25.25H43A11.75,11.75,0,0,1,54.75,12V55.75a0,0,0,0,1,0,0H.25a0,0,0,0,1,0,0V.25A0,0,0,0,1,.25.25Z"/></g><g transform="translate(55.68 76.415) rotate(180)"><g transform="translate(20.508 30.682)"><g class="b" transform="translate(-20.508 -30.682)"><path class="c" d="M26.792,30.962a3.574,3.574,0,0,1,2.776,0l6.043,3.562c.663.39-.117.891-1.387.891H22.136c-1.27,0-2.049-.5-1.387-.891Z"/><path class="e" d="M 28.17972946166992 30.6820068359375 C 28.71508026123047 30.6820068359375 29.25043296813965 30.77547836303711 29.56749725341797 30.96242523193359 L 35.61040496826172 34.52394485473633 C 36.27299499511719 34.91424560546875 35.49334716796875 35.4149169921875 34.22345733642578 35.4149169921875 L 22.1359977722168 35.4149169921875 C 20.86610794067383 35.4149169921875 20.08727645874023 34.91424560546875 20.74904632568359 34.52394485473633 L 26.79196739196777 30.96242523193359 C 27.10902786254883 30.77547836303711 27.64437675476074 30.6820068359375 28.17972946166992 30.6820068359375 Z"/></g></g></g><g transform="translate(-0.68 -21.132)"><g transform="translate(20.508 30.682)"><g class="b" transform="translate(-20.508 -30.682)"><path class="c" d="M26.792,30.962a3.574,3.574,0,0,1,2.776,0l6.043,3.562c.663.39-.117.891-1.387.891H22.136c-1.27,0-2.049-.5-1.387-.891Z"/><path class="e" d="M 28.17972946166992 30.6820068359375 C 28.71508026123047 30.6820068359375 29.25043296813965 30.77547836303711 29.56749725341797 30.96242523193359 L 35.61040496826172 34.52394485473633 C 36.27299499511719 34.91424560546875 35.49334716796875 35.4149169921875 34.22345733642578 35.4149169921875 L 22.1359977722168 35.4149169921875 C 20.86610794067383 35.4149169921875 20.08727645874023 34.91424560546875 20.74904632568359 34.52394485473633 L 26.79196739196777 30.96242523193359 C 27.10902786254883 30.77547836303711 27.64437675476074 30.6820068359375 28.17972946166992 30.6820068359375 Z"/></g></g></g><g transform="translate(-0.141)"><path d="M48,108h2.967v1.483H48Z" transform="translate(-26.292 -78.875)"/><path d="M84,108h2.967v1.483H84Z" transform="translate(-57.842 -78.875)"/><path d="M48,84h2.967v1.483H48Z" transform="translate(-26.292 -57.842)"/><path d="M84,132h2.967v1.483H84Z" transform="translate(-57.842 -99.909)"/><path d="M120,84h2.967v1.483H120Z" transform="translate(-89.392 -57.842)"/><path d="M120,132h2.967v1.483H120Z" transform="translate(-89.392 -99.909)"/><path d="M35.8,18H19.483A1.485,1.485,0,0,0,18,19.483V35.8a1.485,1.485,0,0,0,1.483,1.483H35.8A1.485,1.485,0,0,0,37.283,35.8V19.483A1.485,1.485,0,0,0,35.8,18Zm0,1.483V22.45H19.483V19.483ZM19.483,35.8V23.933H35.8V35.8Z"/></g></svg>