<svg xmlns="http://www.w3.org/2000/svg" width="52" height="52" viewBox="0 0 52 52"><defs><style>.a{fill:#ffc107;stroke:#707070;}.b,.d{fill:none;}.b{stroke:#000;stroke-linecap:round;stroke-linejoin:round;stroke-width:4px;}.c{stroke:none;}</style></defs><g class="a" transform="translate(0 52) rotate(-90)"><rect class="c" width="52" height="52" rx="12"/><rect class="d" x="0.5" y="0.5" width="51" height="51" rx="11.5"/></g><g transform="translate(7 7)"><path class="b" d="M32,50.8V41.4A9.4,9.4,0,0,1,41.4,32h9.4" transform="translate(-32 -32)"/><path class="b" d="M128,32v.023" transform="translate(-99.807 -32)"/><path class="b" d="M160,32v.023" transform="translate(-122.409 -32)"/><path class="b" d="M160,64v.023" transform="translate(-122.409 -54.602)"/><path class="b" d="M160,96v.023" transform="translate(-122.409 -77.205)"/><path class="b" d="M32,128v.023" transform="translate(-32 -99.807)"/><path class="b" d="M160,128v.023" transform="translate(-122.409 -99.807)"/><path class="b" d="M32,160v.023" transform="translate(-32 -122.409)"/><path class="b" d="M64,160v.023" transform="translate(-54.602 -122.409)"/><path class="b" d="M96,160v.023" transform="translate(-77.205 -122.409)"/><path class="b" d="M128,160v.023" transform="translate(-99.807 -122.409)"/><path class="b" d="M160,160v.023" transform="translate(-122.409 -122.409)"/></g></svg>