<svg xmlns="http://www.w3.org/2000/svg" width="46.307" height="48.056" viewBox="0 0 46.307 48.056"><defs><style>.a{fill:#ed1c24;fill-rule:evenodd;}</style></defs><g transform="translate(-512.842 -484.397)"><path class="a" d="M-16.562-74.987c.14-.046.324.046.509.3l8.328,8.538a1.124,1.124,0,0,1,0,1.66l-8.328,8.669c-.184.255-.369.317-.509.239s-.228-.3-.228-.625V-74.431C-16.791-74.748-16.7-74.941-16.562-74.987Z" transform="translate(566.51 573.612)"/><path class="a" d="M-45.807-97.186h.59l.568.247,8.572,8.924c.369.509.243.9-.369.9H-40a1.118,1.118,0,0,0-1.1,1.15v6.624a1.155,1.155,0,0,1-1.231,1.15H-48.57a1.124,1.124,0,0,1-1.106-1.15v-6.624a1.12,1.12,0,0,0-1.106-1.15h-3.8c-.612,0-.737-.386-.369-.9l8.579-8.924Z" transform="translate(581.507 581.583)"/><path class="a" d="M-67.909-75.3c.155.077.251.3.251.625v18.6c0,.324-.1.517-.251.579s-.361,0-.612-.193l-8.454-8.924a1.124,1.124,0,0,1,0-1.66l8.454-8.793C-68.271-75.315-68.057-75.377-67.909-75.3Z" transform="translate(590.181 573.731)"/><path class="a" d="M-48.447-52.427H-42.2a1.155,1.155,0,0,1,1.231,1.15v7.01a1.156,1.156,0,0,0,1.1,1.274h3.309c.612,0,.855.378.369.764l-8.328,8.793a1.206,1.206,0,0,1-.862.386,1.19,1.19,0,0,1-.855-.386l-8.328-8.793c-.494-.386-.251-.764.361-.764h3.552a1.157,1.157,0,0,0,1.106-1.274v-7.01A1.124,1.124,0,0,1-48.447-52.427Z" transform="translate(581.383 565.502)"/></g></svg>