<svg xmlns="http://www.w3.org/2000/svg" width="131.82" height="98.865" viewBox="0 0 131.82 98.865"><path d="M55.615,24h5.859v83.9H55.615ZM40.983,24h8.779v83.9H40.983ZM35.13,24h2.926v83.9H35.13V24Zm-20.5,0h2.933v83.9H14.632V24Zm5.859,0h8.773v83.9H20.5V24Zm82.058,0h8.779v83.9h-8.773V24ZM84.984,24h8.779v83.9H84.984ZM96.69,24h2.933v83.9H96.69ZM84.984,113.888h32.2v8.977h-32.2ZM0,24H8.779v98.865H0Zm70.346,89.888h8.786v8.977H70.346ZM114.255,24h2.926v83.9h-2.926Zm8.786,0h8.779v98.865h-8.779ZM76.205,24h5.853v83.9H76.205V24ZM14.632,113.888h8.779v8.977H14.639v-8.977Zm14.632,0h35.13v8.977H29.264ZM67.426,24h2.926v83.9H67.426Z" transform="translate(0 -24)"/></svg>