<svg xmlns="http://www.w3.org/2000/svg" width="24.424" height="24.963" viewBox="0 0 24.424 24.963"><defs><style>.a{fill:none;stroke:#000;}</style></defs><g transform="translate(-25 -6.657)"><g transform="translate(25.561 7.157)"><path class="a" d="M24.962,15.782c0-.276-.012-.539-.036-.815l2.229-1.689a1.205,1.205,0,0,0,.312-1.558L25.225,7.85a1.183,1.183,0,0,0-1.5-.5l-2.576,1.09a9.09,9.09,0,0,0-1.4-.815L19.4,4.854A1.2,1.2,0,0,0,18.216,3.8H13.747a1.2,1.2,0,0,0-1.2,1.054L12.2,7.622a9.09,9.09,0,0,0-1.4.815L8.224,7.347a1.182,1.182,0,0,0-1.5.5L4.485,11.732A1.208,1.208,0,0,0,4.8,13.289l2.229,1.689a8.8,8.8,0,0,0,0,1.618L4.8,18.286a1.205,1.205,0,0,0-.312,1.558l2.241,3.87a1.182,1.182,0,0,0,1.5.5l2.576-1.09a9.09,9.09,0,0,0,1.4.815l.347,2.768a1.2,1.2,0,0,0,1.186,1.054H18.2a1.2,1.2,0,0,0,1.186-1.054l.347-2.768a9.09,9.09,0,0,0,1.4-.815l2.576,1.09a1.182,1.182,0,0,0,1.5-.5l2.241-3.87a1.208,1.208,0,0,0-.312-1.558L24.914,16.6a6.194,6.194,0,0,0,.048-.815Zm-8.938,4.194a4.194,4.194,0,1,1,4.194-4.194A4.2,4.2,0,0,1,16.024,19.975Z" transform="translate(-4.326 -3.8)"/></g></g></svg>