<svg xmlns="http://www.w3.org/2000/svg" width="103" height="38" viewBox="0 0 103 38"><defs><style>.a{fill:#a10000;}.b,.c{stroke:none;}.c{fill:#707070;}</style></defs><g class="a" transform="translate(0 38) rotate(-90)"><path class="b" d="M 37.5 102.5 L 0.5 102.5 L 0.5 12 C 0.5 8.928239822387695 1.696213364601135 6.040333271026611 3.868279933929443 3.868279933929443 C 6.040333271026611 1.696213364601135 8.928239822387695 0.5 12 0.5 L 37.5 0.5 L 37.5 102.5 Z"/><path class="c" d="M 12 1 C 9.061800003051758 1 6.299457550048828 2.144203186035156 4.221828460693359 4.221832275390625 C 2.144199371337891 6.299453735351562 1 9.061798095703125 1 12 L 1 102 L 37 102 L 37 1 L 12 1 M 12 0 L 38 0 L 38 103 L 0 103 L 0 12 C 0 5.372589111328125 5.372585296630859 0 12 0 Z"/></g></svg>