<svg xmlns="http://www.w3.org/2000/svg" width="41.591" height="41.614" viewBox="0 0 41.591 41.614"><defs><style>.a{fill:none;stroke:#000;stroke-linecap:round;stroke-linejoin:round;stroke-width:4px;}</style></defs><g transform="translate(2 2)"><path class="a" d="M32,50.8V41.4A9.4,9.4,0,0,1,41.4,32h9.4" transform="translate(-32 -32)"/><path class="a" d="M128,32v.023" transform="translate(-99.807 -32)"/><path class="a" d="M160,32v.023" transform="translate(-122.409 -32)"/><path class="a" d="M160,64v.023" transform="translate(-122.409 -54.602)"/><path class="a" d="M160,96v.023" transform="translate(-122.409 -77.205)"/><path class="a" d="M32,128v.023" transform="translate(-32 -99.807)"/><path class="a" d="M160,128v.023" transform="translate(-122.409 -99.807)"/><path class="a" d="M32,160v.023" transform="translate(-32 -122.409)"/><path class="a" d="M64,160v.023" transform="translate(-54.602 -122.409)"/><path class="a" d="M96,160v.023" transform="translate(-77.205 -122.409)"/><path class="a" d="M128,160v.023" transform="translate(-99.807 -122.409)"/><path class="a" d="M160,160v.023" transform="translate(-122.409 -122.409)"/></g></svg>