<svg xmlns="http://www.w3.org/2000/svg" width="41.591" height="41.614" viewBox="0 0 41.591 41.614"><defs><style>.a{fill:none;stroke:#000;stroke-linecap:round;stroke-linejoin:round;stroke-width:4px;}</style></defs><g transform="translate(2 2)"><path class="a" d="M0,18.8V9.4A9.4,9.4,0,0,1,9.4,0h9.4"/><path class="a" d="M0,0V.023" transform="translate(37.591 18.795)"/><path class="a" d="M0,0V.023" transform="translate(0 28.193)"/><path class="a" d="M0,0V.023" transform="translate(0 37.591)"/><path class="a" d="M0,0V.023" transform="translate(9.398 37.591)"/><path class="a" d="M0,0V.023" transform="translate(18.795 37.591)"/><path class="a" d="M0,18.8V9.4A9.4,9.4,0,0,1,9.4,0h9.4" transform="translate(37.591 37.591) rotate(180)"/><path class="a" d="M0,18.8V9.4A9.4,9.4,0,0,1,9.4,0h9.4" transform="translate(37.591 0.024) rotate(90)"/></g></svg>