<svg xmlns="http://www.w3.org/2000/svg" width="36.756" height="36.756" viewBox="0 0 36.756 36.756"><defs><style>.a{fill:none;stroke:#000;}</style></defs><g transform="translate(0.5 0.5)"><g transform="translate(0)"><path class="a" d="M8.939,1.117a1.117,1.117,0,1,0-2.235,0V2.235H4.469A4.469,4.469,0,0,0,0,6.7V8.939H35.756V6.7a4.469,4.469,0,0,0-4.469-4.469H29.051V1.117a1.117,1.117,0,0,0-2.235,0V2.235H8.939ZM35.756,31.286V11.174H0V31.286a4.469,4.469,0,0,0,4.469,4.469H31.286A4.469,4.469,0,0,0,35.756,31.286ZM19,19v3.352h3.352a1.117,1.117,0,0,1,0,2.235H19v3.352a1.117,1.117,0,1,1-2.235,0V24.582H13.408a1.117,1.117,0,0,1,0-2.235H16.76V19A1.117,1.117,0,0,1,19,19Z" transform="translate(0)"/></g></g></svg>