<svg xmlns="http://www.w3.org/2000/svg" xmlns:xlink="http://www.w3.org/1999/xlink" width="101" height="43" viewBox="0 0 101 43"><defs><style>.a{fill:#fff;stroke:#707070;}.b{clip-path:url(#a);}</style><clipPath id="a"><rect class="a" width="101" height="43" rx="12" transform="translate(43 0.424) rotate(90)"/></clipPath></defs><g transform="translate(0 43) rotate(-90)"><g class="b" transform="translate(0 -0.424)"><path d="M42.864,0H47.38V36.279H42.864ZM31.586,0h6.766V36.279H31.586V0ZM27.076,0h2.255V36.279H27.076V0Zm-15.8,0h2.261V36.279H11.277V0Zm4.516,0h6.761V36.279H15.8V0ZM79.037,0H85.8V36.279H79.042V0ZM65.5,0h6.766V36.279H65.5Zm9.022,0h2.261V36.279H74.521ZM65.5,38.867H90.315v3.882H65.5ZM0,0H6.766V42.749H0ZM54.217,38.867h6.771v3.882H54.217ZM88.059,0h2.255V36.279H88.059Zm6.771,0H101.6V42.749H94.831Zm-36.1,0h4.511V36.279H58.733V0ZM11.277,38.867h6.766v3.882H11.282V38.867Zm11.277,0H49.63v3.882H22.555ZM51.967,0h2.255V36.279H51.967Z" transform="translate(43) rotate(90)"/></g></g></svg>