<svg xmlns="http://www.w3.org/2000/svg" width="43.047" height="28" viewBox="0 0 43.047 28"><defs><style>.a{fill:#ffc107;}.b{fill:#292f33;}.c{fill:#f4f7f9;}.d{fill:#8899a6;}</style></defs><g transform="translate(0 28) rotate(-90)"><g transform="translate(28 0) rotate(90)"><path class="a" d="M5,0C2.361,0,0,1.636,0,4V24c0,2.364,2.361,4,5,4H39a3.677,3.677,0,0,0,4-4V4s.778-4-4-4Z" transform="translate(0 0)"/><path class="b" d="M0,0H43V6H0Z" transform="translate(0 5)"/><path class="c" d="M0,0H34V6H0Z" transform="translate(5 15)"/><path class="d" d="M16.348,4.127a2.914,2.914,0,0,1-3-2c-.653.044-1.134.507-2,1a5.5,5.5,0,0,1-3,1c-1.43,0-2.909-.582-3-2,0-.06.02,0,0,0a3.3,3.3,0,0,0-3,2c-.187.229-.687-.043-1,0s-.745.168-1,0c-.532-.35-.39-.523,0-1a5.83,5.83,0,0,1,5-3c2.314,0,2.964,1.451,3,2h0a6.155,6.155,0,0,0,2-1c1.148-.653,2.092-1.438,4-1a3.588,3.588,0,0,1,2,2c.016.081-.02-.039,0,0h0a6.323,6.323,0,0,0,3,0,13.091,13.091,0,0,1,4-1c4.048,0,5.826,1.8,6,2,.407.465.52.636,0,1a1.76,1.76,0,0,1-2,0c-.028-.029-1.125-1-4-1a11.505,11.505,0,0,0-3,1C19.143,4.551,17.617,4.127,16.348,4.127Z" transform="translate(6.652 15.873)"/></g></g></svg>