<svg xmlns="http://www.w3.org/2000/svg" width="27.111" height="37.86" viewBox="0 0 27.111 37.86"><defs><style>.a{fill-rule:evenodd;}</style></defs><g transform="translate(0 0)"><path class="a" d="M15.624,24.354a5.3,5.3,0,0,0,.554.024,4.215,4.215,0,0,1,2.293.611,3.617,3.617,0,0,1,1.378,1.63,5.863,5.863,0,0,1,.425,2.059,27.521,27.521,0,0,0,3.485.12,27.349,27.349,0,0,0,3.485-.12,5.868,5.868,0,0,1,.425-2.06,3.616,3.616,0,0,1,1.377-1.63,4.227,4.227,0,0,1,2.293-.61,5.38,5.38,0,0,0,.555-.023l.011-.076a11.327,11.327,0,0,0,.066-1.478,5.773,5.773,0,0,1,1.142-3.454c.086-.128.162-.243.222-.344.341-.584.847-1.651.847-4.729A7.17,7.17,0,0,0,31.111,8.22a12.638,12.638,0,0,0-7.352-2.164A12.646,12.646,0,0,0,16.407,8.22a7.172,7.172,0,0,0-3.071,6.055c0,3.077.506,4.144.847,4.729.06.1.136.215.222.343A5.766,5.766,0,0,1,15.546,22.8a11.308,11.308,0,0,0,.066,1.478l.011.076ZM13.651,22.8c0,2.842.317,3.473,2.527,3.473s2.211,1.9,2.211,3.158,2.212,1.263,5.37,1.263,5.37,0,5.37-1.263,0-3.158,2.211-3.158,2.526-.631,2.527-3.473a3.628,3.628,0,0,1,.764-2.3c.64-.982,1.447-2.22,1.447-6.228,0-13.487-24.639-13.487-24.639,0,0,4.008.807,5.247,1.447,6.228A3.628,3.628,0,0,1,13.651,22.8Z" transform="translate(-10.204 -4.16)"/><path d="M22.327,19.481a2.843,2.843,0,1,1-2.843-2.843A2.843,2.843,0,0,1,22.327,19.481Z" transform="translate(-10.666 -5.268)"/><path d="M32.728,19.478a2.843,2.843,0,1,1-2.845-2.841A2.843,2.843,0,0,1,32.728,19.478Z" transform="translate(-11.59 -5.268)"/><path class="a" d="M20.535,39.539,10.089,42.9l.58,1.8L23.64,40.531l12.977,4.151.578-1.805L26.742,39.534l10.447-3.359-.581-1.8L23.639,38.541,10.662,34.391,10.084,36.2l10.452,3.343Z" transform="translate(-10.084 -6.843)"/></g></svg>