<svg xmlns="http://www.w3.org/2000/svg" width="47.914" height="47.914" viewBox="0 0 47.914 47.914"><defs><style>.a{fill:#1877f2;}.b{fill:#fff;}</style></defs><g transform="translate(0 1365.33)"><g transform="translate(0 -1365.33)"><path class="a" d="M47.914-1341.373a23.957,23.957,0,0,0-23.957-23.957A23.957,23.957,0,0,0,0-1341.373a23.963,23.963,0,0,0,20.214,23.666v-16.741H14.131v-6.925h6.083v-5.278c0-6,3.577-9.321,9.049-9.321a36.842,36.842,0,0,1,5.363.468v5.9H31.6c-2.976,0-3.9,1.847-3.9,3.741v4.494h6.644l-1.062,6.925H27.7v16.741a23.963,23.963,0,0,0,20.214-23.666" transform="translate(0 1365.33)"/><path class="b" d="M421.817-1077.14l1.062-6.925h-6.644v-4.494c0-1.895.928-3.741,3.9-3.741h3.021v-5.9a36.834,36.834,0,0,0-5.363-.468c-5.472,0-9.049,3.317-9.049,9.321v5.278h-6.083v6.925h6.083v16.741a24.133,24.133,0,0,0,3.743.291,24.133,24.133,0,0,0,3.743-.291v-16.741h5.582" transform="translate(-388.535 1108.022)"/></g></g></svg>