<svg xmlns="http://www.w3.org/2000/svg" width="170.723" height="50" viewBox="0 0 170.723 50"><defs><style>.a{fill:#F2F0E7;}.b,.c{stroke:none;}.c{fill:#000;}</style></defs><g transform="translate(0)"><g class="a" transform="translate(0)"><path class="b" d="M 163.06494140625 49.49934768676758 L 0.4999999403953552 49.49934768676758 L 0.4999999403953552 31.31540107727051 C 0.6205047965049744 31.25127029418945 0.732624351978302 31.17175483703613 0.8354781866073608 31.07732582092285 L 7.976021766662598 24.56132698059082 C 8.290217399597168 24.27408790588379 8.463043212890625 23.88865280151367 8.463065147399902 23.4756965637207 C 8.46308708190918 23.06269645690918 8.290239334106445 22.67723846435547 7.976391315460205 22.39026069641113 L 0.8343260288238525 15.8729133605957 C 0.7317819595336914 15.77877807617188 0.6200077533721924 15.69945812225342 0.4999999403953552 15.6355447769165 L 0.4999999403953552 0.5 L 163.06494140625 0.5 L 163.06494140625 16.52284812927246 L 163.06494140625 16.74345588684082 L 163.2278900146484 16.89217376708984 L 170.0618438720703 23.12858772277832 C 170.166015625 23.22367477416992 170.2234344482422 23.34678268432617 170.2234954833984 23.47519493103027 C 170.2235412597656 23.60389137268066 170.166015625 23.7274341583252 170.0614776611328 23.82299995422363 L 163.2279205322266 30.0584774017334 L 163.06494140625 30.20719528198242 L 163.06494140625 30.42782592773438 L 163.06494140625 49.49934768676758 Z"/><path class="c" d="M 162.56494140625 48.99934768676758 L 162.56494140625 29.98656463623047 L 169.7003936767578 23.47561836242676 L 162.56494140625 16.96408653259277 L 162.56494140625 1 L 0.9999999403953552 1 L 0.9999999403953552 15.36175346374512 C 1.059142470359802 15.40573310852051 1.116302371025085 15.45303344726562 1.171369552612305 15.503586769104 L 8.313804626464844 22.02126121520996 C 8.726434707641602 22.3985652923584 8.96308708190918 22.92867469787598 8.963065147399902 23.4756965637207 C 8.963043212890625 24.02269554138184 8.726390838623047 24.55278205871582 8.313065528869629 24.93067359924316 L 1.173652172088623 31.44560813903809 C 1.117823243141174 31.49686813354492 1.05990207195282 31.54477310180664 0.9999999403953552 31.58925819396973 L 0.9999999403953552 48.99934768676758 L 162.56494140625 48.99934768676758 M 163.56494140625 50 L 163.56494140625 49.99934768676758 L -4.776663331540476e-08 49.99934768676758 L -4.776663331540476e-08 30.97439193725586 C 0.1870869100093842 30.92873954772949 0.3545868992805481 30.84006500244141 0.4973042905330658 30.70902252197266 L 7.638999938964844 24.1919994354248 C 8.071086883544922 23.79695701599121 8.071086883544922 23.15434837341309 7.638999938964844 22.7592601776123 L 0.4973042905330658 16.24225997924805 C 0.3545868992805481 16.11123847961426 0.1870869100093842 16.02189064025879 -4.776663331540476e-08 15.97689151763916 L -4.776663331540476e-08 3.552713678800501e-15 L 163.56494140625 3.552713678800501e-15 L 163.56494140625 16.52284812927246 L 170.3988952636719 22.7592601776123 C 170.8316955566406 23.15434837341309 170.8316955566406 23.79623985290527 170.3988952636719 24.1919994354248 L 163.56494140625 30.42782592773438 L 163.56494140625 50 Z"/></g></g></svg>