<svg xmlns="http://www.w3.org/2000/svg" width="134.304" height="107.844" viewBox="0 0 134.304 107.844"><defs><style>.a{fill:none;stroke:#000;stroke-width:2px;}</style></defs><g transform="translate(1 1)"><path class="a" d="M52.922,0h66.152A13.243,13.243,0,0,1,132.3,13.23V59.537a13.243,13.243,0,0,1-13.23,13.23H52.922a13.243,13.243,0,0,1-13.23-13.23V13.23A13.243,13.243,0,0,1,52.922,0ZM98.4,22.058a4.97,4.97,0,0,0-8.269,0L78.556,39.423l-3.576-4.486a4.946,4.946,0,0,0-7.732,0L54.017,51.475a4.961,4.961,0,0,0,3.866,8.062h56.229a4.961,4.961,0,0,0,4.135-7.711L98.4,22.058ZM69.46,19.846a6.615,6.615,0,1,0-6.615,6.615A6.615,6.615,0,0,0,69.46,19.846ZM13.23,26.461H33.076V86a6.608,6.608,0,0,0,6.615,6.615H66.152A6.608,6.608,0,0,0,72.767,86V79.383h33.076v13.23a13.243,13.243,0,0,1-13.23,13.23H13.23A13.243,13.243,0,0,1,0,92.613V39.691A13.243,13.243,0,0,1,13.23,26.461Zm1.654,13.23A3.317,3.317,0,0,0,11.577,43v3.308a3.317,3.317,0,0,0,3.308,3.308h3.308A3.317,3.317,0,0,0,21.5,46.307V43a3.317,3.317,0,0,0-3.308-3.308Zm0,21.5A3.317,3.317,0,0,0,11.577,64.5v3.308a3.317,3.317,0,0,0,3.308,3.308h3.308A3.317,3.317,0,0,0,21.5,67.806V64.5a3.317,3.317,0,0,0-3.308-3.308Zm0,21.5A3.317,3.317,0,0,0,11.577,86v3.308a3.317,3.317,0,0,0,3.308,3.308h3.308A3.317,3.317,0,0,0,21.5,89.305V86a3.317,3.317,0,0,0-3.308-3.308ZM84.344,86v3.308a3.317,3.317,0,0,0,3.308,3.308h3.308a3.317,3.317,0,0,0,3.308-3.308V86a3.317,3.317,0,0,0-3.308-3.308H87.652A3.317,3.317,0,0,0,84.344,86Z"/></g></svg>