<?xml version="1.0" encoding="UTF-8"?>
<svg xmlns="http://www.w3.org/2000/svg" version="1.1" xmlns:xlink="http://www.w3.org/1999/xlink" viewBox="0 0 43 101">
  <defs>
    <style>
      .cls-1 {
        fill: none;
      }

      .cls-2 {
        clip-path: url(#clippath);
      }
    </style>
    <clipPath id="clippath">
      <path class="cls-1" d="M-32.5,89V12C-32.5,5.4-23.1,0-11.5,0H21.9c11.6,0,21.1,5.4,21.1,12v77c.1,6.6-9.4,12-21,12H-11.3c-11.6,0-21.1-5.4-21.1-12h-.1Z"/>
    </clipPath>
  </defs>
  <!-- Generator: Adobe Illustrator 28.7.1, SVG Export Plug-In . SVG Version: 1.2.0 Build 142)  -->
  <g>
    <g id="_Шар_1" data-name="Шар_1">
      <g id="_Шар_1-2" data-name="_Шар_1">
        <g class="cls-2">
          <path d="M-32.5,58.6v-4.5H43.1v4.5H-32.5ZM-32.5,69.8v-6.8H50.3v6.8H-32.5ZM-32.5,74.3v-2.3H55.3v2.3H-32.5ZM-32.5,90.1v-2.3H50.3v2.3H-32.5ZM-32.5,85.6v-6.8H50.3v6.8s-82.8,0-82.8,0ZM-32.5,22.4v-6.8H43.1v6.8H-32.5ZM-32.5,35.9v-6.8H43.1v6.8H-32.5ZM-32.5,26.9v-2.3H43.1v2.3H-32.5ZM-32.5,101.4v-6.8H42.7v6.8H-32.5ZM-32.5,13.4v-2.3H43.1v2.3H-32.5ZM-32.5,6.6V-.2H42.7v6.8H-32.5ZM-32.5,42.7v-4.5H43.1v4.5H-32.5ZM-32.5,49.5v-2.3H43.1v2.3H-32.5Z"/>
        </g>
      </g>
    </g>
  </g>
</svg>