<svg xmlns="http://www.w3.org/2000/svg" width="34.384" height="34.401" viewBox="0 0 34.384 34.401"><defs><style>.a{fill:none;stroke:#000;}</style></defs><g transform="translate(0.5 0.5)"><path class="a" d="M27.858,4.16h-14c-6.079,0-9.7,3.624-9.7,9.7V27.841c0,6.1,3.624,9.72,9.7,9.72H27.841c6.079,0,9.7-3.624,9.7-9.7v-14C37.561,7.784,33.937,4.16,27.858,4.16ZM13.629,10.005a1.253,1.253,0,1,1,2.505,0v6.513a1.253,1.253,0,1,1-2.505,0Zm3.094,18.256a.946.946,0,0,0-.589.843v2.612a1.253,1.253,0,0,1-2.505,0V29.1a.947.947,0,0,0-.589-.843,4.559,4.559,0,1,1,3.683,0Zm11.368,3.455a1.253,1.253,0,0,1-2.505,0V25.2a1.253,1.253,0,0,1,2.505,0Zm-1.253-9.569A4.543,4.543,0,0,1,25,13.443a.946.946,0,0,0,.589-.843v-2.6a1.253,1.253,0,1,1,2.505,0v2.612a.947.947,0,0,0,.589.843,4.537,4.537,0,0,1-1.842,8.686Z" transform="translate(-4.16 -4.16)"/></g></svg>