<svg xmlns="http://www.w3.org/2000/svg" width="43.118" height="43.12" viewBox="0 0 43.118 43.12"><defs><style>.a{fill:#3a76f0;}</style></defs><g transform="translate(0 0)"><g transform="translate(0 0)"><path class="a" d="M16.386.631l.482,1.959a19.577,19.577,0,0,0-5.417,2.242L10.419,3.1A21.291,21.291,0,0,1,16.383.631Zm10.349,0-.48,1.957A19.579,19.579,0,0,1,31.672,4.83L32.718,3.1A21.444,21.444,0,0,0,26.735.631ZM3.1,10.414A21.409,21.409,0,0,0,.631,16.383l1.959.485a19.577,19.577,0,0,1,2.242-5.417L3.1,10.411ZM2.022,21.561A19.688,19.688,0,0,1,2.24,18.63l-1.995-.3a21.56,21.56,0,0,0,0,6.463l1.994-.3a19.571,19.571,0,0,1-.218-2.927ZM32.7,40.016l-1.035-1.725a19.485,19.485,0,0,1-5.409,2.24l.485,1.962A21.466,21.466,0,0,0,32.7,40.016Zm8.4-18.456a19.678,19.678,0,0,1-.221,2.927l1.994.3a21.468,21.468,0,0,0,0-6.463l-1.994.307a19.7,19.7,0,0,1,.221,2.927Zm1.391,5.169-1.962-.485a19.544,19.544,0,0,1-2.242,5.422l1.733,1.043a21.379,21.379,0,0,0,2.471-5.98Zm-18,14.149a19.393,19.393,0,0,1-5.856,0l-.3,2a21.533,21.533,0,0,0,6.457,0l-.3-2Zm12.8-7.729a19.482,19.482,0,0,1-4.142,4.134l1.2,1.63a21.749,21.749,0,0,0,4.568-4.552l-1.628-1.213ZM33.149,5.83a19.474,19.474,0,0,1,4.142,4.142l1.628-1.213A21.722,21.722,0,0,0,34.365,4.2L33.152,5.83ZM5.83,9.972A19.517,19.517,0,0,1,9.972,5.83L8.759,4.2A21.722,21.722,0,0,0,4.2,8.756L5.83,9.969Zm34.195.439-1.736,1.043a19.413,19.413,0,0,1,2.242,5.409l1.962-.485a21.374,21.374,0,0,0-2.469-5.967ZM18.631,2.24a19.55,19.55,0,0,1,5.854,0l.3-1.994a21.52,21.52,0,0,0-6.457,0l.3,1.994ZM6.865,39.455l-4.169.97.97-4.175L1.7,35.793.728,39.965A2.021,2.021,0,0,0,3.153,42.4l4.172-.962-.458-1.978ZM2.119,33.99l1.973.453.674-2.892a19.369,19.369,0,0,1-2.178-5.3l-1.959.485a21.56,21.56,0,0,0,1.984,5.126l-.5,2.129Zm9.433,4.374-2.892.674.458,1.97,2.129-.5A21.365,21.365,0,0,0,16.373,42.5l.485-1.962a19.4,19.4,0,0,1-5.288-2.186l-.019.013ZM21.561,4.043A17.509,17.509,0,0,0,6.738,30.877l-1.684,7.19,7.182-1.684a17.521,17.521,0,1,0,9.325-32.34" transform="translate(-0.002 -0.002)"/></g></g></svg>