<svg xmlns="http://www.w3.org/2000/svg" width="24.546" height="28.565" viewBox="0 0 24.546 28.565"><defs><style>.a{fill:#008249;}</style></defs><path class="a" d="M10,0H28.565a0,0,0,0,1,0,0V24.546a0,0,0,0,1,0,0H0a0,0,0,0,1,0,0V10A10,10,0,0,1,10,0Z" transform="translate(24.546) rotate(90)"/><g transform="translate(1.964 3.927)"><ellipse cx="1.376" cy="1.402" rx="1.376" ry="1.402" transform="translate(5.582 17.772)"/><ellipse cx="1.376" cy="1.402" rx="1.376" ry="1.402" transform="translate(15.801 17.772)"/><path d="M3.561,12.586A.719.719,0,0,0,2.86,12H0v1.458H2.274l2.746,13.99a.719.719,0,0,0,.7.586h12.87V26.576H6.306l-.572-2.915H18.591a.718.718,0,0,0,.7-.571l1.622-7.446H19.446L18.017,22.2H5.448Z" transform="translate(0 -12)"/><path d="M73.569,17.4,71.005,14.79v5.956h-1.43V14.79L67.011,17.4,66,16.373,70.29,12l4.29,4.373Z" transform="translate(-58.135 -12)"/></g></svg>