<svg xmlns="http://www.w3.org/2000/svg" width="24.546" height="28.565" viewBox="0 0 24.546 28.565"><defs><style>.a{fill:#fab416;}.b,.c{fill:none;stroke-linecap:square;}.b{fill-rule:evenodd;}.d,.e{stroke:none;}.e{fill:#000;}</style></defs><g transform="translate(0)"><rect class="a" width="28.565" height="24.546" transform="translate(24.546) rotate(90)"/><g transform="translate(1.964 2.946)"><g class="b" transform="translate(-48.01 -24)"><path class="d" d="M58.263,24a.594.594,0,0,1,.57.616v.042a5.414,5.414,0,0,1,3.6,1.863,4.494,4.494,0,0,1,1.018,2.174l.062.051a2.2,2.2,0,0,1,1,1.932,2.022,2.022,0,0,1-1.27,1.426q-.213.1-.433.182a5.046,5.046,0,0,1-2.18,4.539,4.268,4.268,0,0,1-4.732,0,5.046,5.046,0,0,1-2.18-4.539q-.22-.081-.433-.182a2.022,2.022,0,0,1-1.27-1.426,2.2,2.2,0,0,1,1-1.932l.072-.06q.022-.147.055-.292a4.824,4.824,0,0,1,.8-1.756,4.892,4.892,0,0,1,3.751-2.009v-.012A.594.594,0,0,1,58.263,24Zm4.363,6.426a.546.546,0,0,0,.656-.219.452.452,0,0,1,.106.273c-.007.049-.095.252-.607.5a8.432,8.432,0,0,1-2.527.609,1.992,1.992,0,1,0-3.983,0,8.432,8.432,0,0,1-2.527-.609c-.512-.245-.6-.448-.607-.5a.453.453,0,0,1,.106-.273.544.544,0,0,0,.73.185.638.638,0,0,0,.266-.758,1.835,1.835,0,0,1,.005-.95,3.553,3.553,0,0,1,.594-1.287l.006-.009v1.228a.571.571,0,1,0,1.139,0V26.367a4.024,4.024,0,0,1,1.709-.507v1.525a.571.571,0,1,0,1.139,0V25.9a4.6,4.6,0,0,1,1.709.572v2.148a.571.571,0,1,0,1.139,0V27.459a2.541,2.541,0,0,1,.6,2.18A.63.63,0,0,0,62.626,30.426ZM56.82,33.181a14.863,14.863,0,0,1-1.964-.268,3.407,3.407,0,0,0,6.814,0,14.87,14.87,0,0,1-1.964.268,1.892,1.892,0,0,1-2.886,0Zm2.3-1.487a.857.857,0,1,1-.854-.923A.891.891,0,0,1,59.117,31.694Z"/><path class="e" d="M 58.26261138916016 23.99999237060547 C 58.57719039916992 23.99999237060547 58.83222198486328 24.27558135986328 58.83222198486328 24.61553192138672 L 58.83222198486328 24.65739059448242 C 60.42597198486328 24.83713150024414 61.64208221435547 25.57762145996094 62.43383026123047 26.52001190185547 C 62.9783821105957 27.16818237304688 63.33893203735352 27.94068145751953 63.45228958129883 28.69411087036133 L 63.51381301879883 28.74520111083984 C 64.15403747558594 29.28133010864258 64.62397003173828 29.93134117126465 64.51232147216797 30.6767520904541 C 64.40467834472656 31.39694213867188 63.8026008605957 31.8352108001709 63.24209976196289 32.10296249389648 C 63.1003303527832 32.17049407958984 62.95590209960938 32.23128128051758 62.80921173095703 32.28517150878906 C 62.92325210571289 34.1192626953125 62.08248138427734 35.86930084228516 60.62872314453125 36.82378387451172 C 59.17495727539062 37.77827453613281 57.35026550292969 37.77827453613281 55.89649963378906 36.82378387451172 C 54.44274139404297 35.86930084228516 53.60197067260742 34.1192626953125 53.71601104736328 32.28517150878906 C 53.56933212280273 32.23128128051758 53.42489242553711 32.17049407958984 53.28311157226562 32.10296249389648 C 52.72262191772461 31.8352108001709 52.12055206298828 31.39694213867188 52.01289367675781 30.6767520904541 C 51.90125274658203 29.93134117126465 52.37117767333984 29.28133010864258 53.01140975952148 28.74520111083984 L 53.08376312255859 28.68487167358398 C 53.09846115112305 28.58687973022461 53.11670303344727 28.48955154418945 53.13844299316406 28.39310073852539 C 53.28829956054688 27.75285339355469 53.56224060058594 27.15427017211914 53.9421501159668 26.63697052001953 C 54.70542144775391 25.58563232421875 55.95457077026367 24.73618316650391 57.69300079345703 24.62784194946289 L 57.69300079345703 24.61553192138672 C 57.69300079345703 24.27558135986328 57.94802093505859 23.99999237060547 58.26261138916016 23.99999237060547 Z M 58.26261138916016 28.00101089477539 C 57.94802093505859 28.00101089477539 57.69300079345703 27.72542190551758 57.69300079345703 27.38545989990234 L 57.69300079345703 25.86077117919922 C 57.01916122436523 25.91248321533203 56.45241165161133 26.09960174560547 55.98419189453125 26.36736297607422 L 55.98419189453125 28.61655044555664 C 55.98419189453125 28.95650100708008 55.72916030883789 29.23208236694336 55.41458129882812 29.23208236694336 C 55.09999084472656 29.23208236694336 54.8449821472168 28.95650100708008 54.8449821472168 28.61655044555664 L 54.8449821472168 27.38854217529297 L 54.83871078491211 27.39716339111328 C 54.55911254882812 27.77617263793945 54.35684204101562 28.21480178833008 54.24518203735352 28.68424987792969 C 54.15063095092773 29.10404968261719 54.17169189453125 29.43460083007812 54.24005126953125 29.634033203125 C 54.33937072753906 29.92307090759277 54.22548294067383 30.24691200256348 53.97360229492188 30.39172172546387 C 53.72172546386719 30.53653526306152 53.40954208374023 30.4576244354248 53.24324035644531 30.20710182189941 C 53.13103103637695 30.37699127197266 53.1350212097168 30.46624183654785 53.13730239868164 30.48039245605469 C 53.14470291137695 30.52964210510254 53.23184967041016 30.7327709197998 53.74392318725586 30.97775077819824 C 54.3414421081543 31.26337242126465 55.24028015136719 31.47019195556641 56.27127075195312 31.5871410369873 C 56.32212066650391 30.43865203857422 57.19861221313477 29.53572082519531 58.26261138916016 29.53572082519531 C 59.32662200927734 29.53572082519531 60.20310211181641 30.43865203857422 60.25395202636719 31.5871410369873 C 61.28494262695312 31.47019195556641 62.18378067016602 31.26337242126465 62.78129196166992 30.97775077819824 C 63.29337310791016 30.7327709197998 63.38053131103516 30.52964210510254 63.38792037963867 30.48039245605469 C 63.39020156860352 30.46624183654785 63.39419174194336 30.37637138366699 63.281982421875 30.20710182189941 C 63.13318634033203 30.43045234680176 62.86526107788086 30.51992607116699 62.62580108642578 30.42623138427734 C 62.33018112182617 30.3105411529541 62.17721176147461 29.9578914642334 62.28403091430664 29.63833999633789 C 62.45035171508789 29.13975143432617 62.31593322753906 28.27554321289062 61.68025207519531 27.45872116088867 L 61.68025207519531 28.61655044555664 C 61.68025207519531 28.95650100708008 61.42523193359375 29.23208236694336 61.11064147949219 29.23208236694336 C 60.79605102539062 29.23208236694336 60.54103088378906 28.95650100708008 60.54103088378906 28.61655044555664 L 60.54103088378906 26.46892166137695 C 60.06713104248047 26.19316101074219 59.49866104125977 25.98696136474609 58.83222198486328 25.8964729309082 L 58.83222198486328 27.38545989990234 C 58.83222198486328 27.72542190551758 58.57719039916992 28.00101089477539 58.26261138916016 28.00101089477539 Z M 58.26261138916016 32.61756134033203 C 58.73449325561523 32.61756134033203 59.11701965332031 32.20418167114258 59.11701965332031 31.69425201416016 C 59.11701965332031 31.18432235717773 58.73449325561523 30.77094078063965 58.26261138916016 30.77094078063965 C 57.79072952270508 30.77094078063965 57.40821075439453 31.18432235717773 57.40821075439453 31.69425201416016 C 57.40821075439453 32.20418167114258 57.79072952270508 32.61756134033203 58.26261138916016 32.61756134033203 Z M 58.26037979125977 33.84865570068359 C 57.71582794189453 33.84865570068359 57.19509506225586 33.60726928710938 56.81980133056641 33.18078231811523 C 56.16065216064453 33.13542938232422 55.50472259521484 33.04600143432617 54.85580062866211 32.91302108764648 C 54.99752044677734 34.8327522277832 56.48049163818359 36.31257247924805 58.26261138916016 36.31257247924805 C 60.04473114013672 36.31257247924805 61.5277099609375 34.8327522277832 61.6694221496582 32.91302108764648 C 61.06565093994141 33.04106140136719 60.39692306518555 33.12969207763672 59.70542144775391 33.18078231811523 C 59.32962036132812 33.60784149169922 58.80824661254883 33.84889984130859 58.26261138916016 33.84865188598633 C 58.26187896728516 33.84865188598633 58.26111221313477 33.84865570068359 58.26037979125977 33.84865570068359 Z"/></g><g class="c" transform="translate(-78.886 -122.149)"><path class="d" d="M89.139,142.462A1.235,1.235,0,1,0,88,141.231,1.188,1.188,0,0,0,89.139,142.462Z"/><path class="e" d="M 89.13920593261719 142.4621429443359 C 88.51003265380859 142.4621429443359 87.99999237060547 141.9109497070312 87.99999237060547 141.2310485839844 C 87.99999237060547 140.5511322021484 88.51003265380859 139.9999847412109 89.13920593261719 139.9999847412109 C 89.76837921142578 139.9999847412109 90.27841949462891 140.5511322021484 90.27841949462891 141.2310485839844 C 90.27841949462891 141.9109497070312 89.76837921142578 142.4621429443359 89.13920593261719 142.4621429443359 Z"/></g><g class="b" transform="translate(-24 -99.812)"><path class="d" d="M31.709,113.6l1.974,1.6h1.139l1.974-1.6c3.472.6,7.709,2.271,7.709,4.678v3.693H24v-3.693C24,115.871,28.237,114.2,31.709,113.6Zm3.493,2.831,1.885-1.528c.571.113,1.153.255,1.722.422v5.415h1.139V115.7c.4.148.781.308,1.139.481v4.557H27.418v-4.557c.358-.172.74-.334,1.139-.481v5.038H29.7v-5.415c.569-.167,1.151-.309,1.722-.422l1.885,1.528Zm7.768,1.04a1.244,1.244,0,0,1,.4.806v2.462H42.227v-3.9a4.2,4.2,0,0,1,.743.637Zm-17.436,0a4.27,4.27,0,0,1,.743-.636v3.9H25.139v-2.462A1.242,1.242,0,0,1,25.535,117.472Z"/><path class="e" d="M 31.70904541015625 113.5999755859375 L 33.68330383300781 115.2003707885742 L 34.82251358032227 115.2003707885742 L 36.79677581787109 113.5999755859375 C 40.26852416992188 114.2007446289062 44.50582504272461 115.8713150024414 44.50582504272461 118.2780838012695 L 44.50582504272461 121.9713134765625 L 24.00000381469727 121.9713134765625 L 24.00000381469727 118.2780838012695 C 24.00000381469727 115.8713150024414 28.2372932434082 114.2007446289062 31.70904541015625 113.5999755859375 Z M 35.20244598388672 116.4314575195312 L 33.30337524414062 116.4314575195312 L 31.41797256469727 114.9030609130859 C 30.84666442871094 115.0163345336914 30.26509475708008 115.1585235595703 29.69606399536133 115.3253479003906 L 29.69606399536133 120.7402420043945 L 28.55684280395508 120.7402420043945 L 28.55684280395508 115.7020416259766 C 28.15812301635742 115.8497848510742 27.77591323852539 116.0110549926758 27.41763305664062 116.1834030151367 L 27.41763305664062 120.7402420043945 L 41.08818435668945 120.7402420043945 L 41.08818435668945 116.1834030151367 C 40.72990417480469 116.0104370117188 40.34769439697266 115.8497848510742 39.948974609375 115.7020416259766 L 39.948974609375 120.7402420043945 L 38.80976486206055 120.7402420043945 L 38.80976486206055 115.3253479003906 C 38.2407341003418 115.1585235595703 37.65915679931641 115.0163345336914 37.08784484863281 114.9030609130859 L 35.20244598388672 116.4314575195312 Z M 26.27842330932617 120.7402420043945 L 26.27842330932617 116.8352661132812 C 25.97140502929688 117.0482330322266 25.72305297851562 117.2624435424805 25.53508377075195 117.4717178344727 C 25.21325302124023 117.8312072753906 25.13921356201172 118.0965042114258 25.13921356201172 118.2780838012695 L 25.13921356201172 120.7402420043945 L 26.27842330932617 120.7402420043945 Z M 42.97073364257812 117.4723434448242 C 42.78334426879883 117.2624435424805 42.53498458862305 117.0482330322266 42.22739410400391 116.8352661132812 L 42.22739410400391 120.7402420043945 L 43.36661529541016 120.7402420043945 L 43.36661529541016 118.2780838012695 C 43.36661529541016 118.0965042114258 43.2919921875 117.8312072753906 42.97073364257812 117.4717178344727 L 42.97073364257812 117.4723434448242 Z"/></g></g></g></svg>