<svg xmlns="http://www.w3.org/2000/svg" width="15.344" height="4.733" viewBox="0 0 15.344 4.733"><defs><style>.a{fill:none;}.b,.c{stroke:none;}.c{fill:#000;}</style></defs><g transform="translate(35.852 35.415) rotate(180)"><g transform="translate(20.508 30.682)"><g class="a" transform="translate(-20.508 -30.682)"><path class="b" d="M26.792,30.962a3.574,3.574,0,0,1,2.776,0l6.043,3.562c.663.39-.117.891-1.387.891H22.136c-1.27,0-2.049-.5-1.387-.891Z"/><path class="c" d="M 28.17972946166992 30.6820068359375 C 28.71508026123047 30.6820068359375 29.25043296813965 30.77547836303711 29.56749725341797 30.96242523193359 L 35.61040496826172 34.52394485473633 C 36.27299499511719 34.91424560546875 35.49334716796875 35.4149169921875 34.22345733642578 35.4149169921875 L 22.1359977722168 35.4149169921875 C 20.86610794067383 35.4149169921875 20.08727645874023 34.91424560546875 20.74904632568359 34.52394485473633 L 26.79196739196777 30.96242523193359 C 27.10902786254883 30.77547836303711 27.64437675476074 30.6820068359375 28.17972946166992 30.6820068359375 Z"/></g></g></g></svg>