<svg xmlns="http://www.w3.org/2000/svg" width="26.402" height="26.604" viewBox="0 0 26.402 26.604"><defs><style>.a{fill:#00e676;}.b{fill:#fff;}</style></defs><path class="a" d="M8.492,24.26l.432.216a11.28,11.28,0,0,0,5.827,1.582A11.5,11.5,0,1,0,3.313,14.625a11.788,11.788,0,0,0,1.727,6.04l.288.431L4.176,25.338,8.492,24.26Z" transform="translate(-1.514 -1.395)"/><path class="b" d="M22.589,3.883A12.954,12.954,0,0,0,13.309,0,13.137,13.137,0,0,0,.144,13.23,13.877,13.877,0,0,0,1.87,19.773L0,26.6l6.978-1.8a12.85,12.85,0,0,0,6.259,1.582A13.23,13.23,0,0,0,26.4,13.158a13.046,13.046,0,0,0-3.813-9.276Zm-9.28,20.277a10.692,10.692,0,0,1-5.539-1.51l-.432-.216L3.165,23.512l1.079-4.1-.288-.431a10.918,10.918,0,0,1,18.561-11.5,10.861,10.861,0,0,1-3.525,15.028,10.493,10.493,0,0,1-5.683,1.654Zm6.331-7.981-.791-.36s-1.151-.5-1.87-.863c-.072,0-.144-.072-.216-.072a1.04,1.04,0,0,0-.5.144s-.072.072-1.079,1.222a.4.4,0,0,1-.36.216h-.072a.546.546,0,0,1-.288-.144l-.36-.144a7,7,0,0,1-2.086-1.366c-.144-.144-.36-.288-.5-.431a8.029,8.029,0,0,1-1.367-1.726l-.072-.144c-.072-.072-.072-.144-.144-.288a.538.538,0,0,1,.072-.36s.288-.36.5-.575c.144-.144.216-.36.36-.5a.885.885,0,0,0,.144-.719A27.98,27.98,0,0,0,9.856,7.334a.833.833,0,0,0-.5-.36H8.561c-.144,0-.288.072-.432.072l-.072.072c-.144.072-.288.216-.432.288-.144.144-.216.288-.36.431a3.665,3.665,0,0,0-.791,2.229,4.263,4.263,0,0,0,.36,1.654l.072.216A11.977,11.977,0,0,0,9.568,15.6l.288.288a4.349,4.349,0,0,1,.575.575,12.856,12.856,0,0,0,5.18,2.732c.216.072.5.072.719.144h.719a2.669,2.669,0,0,0,1.079-.288c.216-.144.36-.144.5-.288l.144-.144c.144-.144.288-.216.432-.359a1.906,1.906,0,0,0,.36-.431,4.123,4.123,0,0,0,.288-1.007v-.5a.89.89,0,0,0-.216-.144Z" transform="translate(0 0)"/></svg>