<svg xmlns="http://www.w3.org/2000/svg" width="33" height="33" viewBox="0 0 33 33"><path d="M28.17,9.39H42.313v4.552H28.17Z" transform="translate(-9.313 -4.838)"/><path d="M28.17,34.43H42.313v4.552H28.17Z" transform="translate(-9.313 -11.671)"/><path d="M12.559,3.13H7.844V7.682H3.13v4.552H7.844v4.552h4.714V12.233h4.714V7.682H12.559Z" transform="translate(-3.13 -3.13)"/><path d="M17.273,31.356l-3.3-3.186L10.2,31.811,6.43,28.17l-3.3,3.186L6.9,35,3.13,38.639l3.3,3.186L10.2,38.184l3.771,3.641,3.3-3.186L13.5,35Z" transform="translate(-3.13 -9.963)"/><path d="M39.144,44.531a2.359,2.359,0,1,1-2.357-2.276A2.318,2.318,0,0,1,39.144,44.531Z" transform="translate(-10.859 -13.807)"/><path d="M39.144,28.881A2.359,2.359,0,1,1,36.787,26.6,2.318,2.318,0,0,1,39.144,28.881Z" transform="translate(-10.859 -9.536)"/></svg>