<svg xmlns="http://www.w3.org/2000/svg" width="405.647" height="46.831" viewBox="0 0 405.647 46.831"><defs><style>.a{fill:#161614;}.b{fill:#F2F0E7;}.c,.d{stroke:none;}.d{fill:#707070;}</style></defs><path class="a" d="M24.008,0a24.011,24.011,0,0,0-7.59,46.789c1.2.222,1.64-.521,1.64-1.155,0-.572-.022-2.464-.033-4.47-6.679,1.452-8.088-2.833-8.088-2.833-1.092-2.775-2.666-3.513-2.666-3.513-2.178-1.49.164-1.46.164-1.46a5.046,5.046,0,0,1,3.68,2.474c2.141,3.67,5.616,2.609,6.986,2a5.113,5.113,0,0,1,1.524-3.21c-5.333-.607-10.938-2.666-10.938-11.865a9.291,9.291,0,0,1,2.474-6.444,8.627,8.627,0,0,1,.233-6.353s2.016-.645,6.6,2.461a22.772,22.772,0,0,1,12.024,0c4.582-3.106,6.6-2.461,6.6-2.461a8.616,8.616,0,0,1,.235,6.353,9.273,9.273,0,0,1,2.471,6.444c0,9.221-5.616,11.251-10.962,11.846a5.739,5.739,0,0,1,1.628,4.446c0,3.212-.028,5.8-.028,6.588,0,.639.432,1.388,1.649,1.152A24.012,24.012,0,0,0,24.008,0ZM8.992,34.2c-.053.119-.241.155-.411.073s-.272-.241-.215-.36.24-.157.413-.075S9.052,34.08,8.992,34.2Zm1.181,1.054c-.115.106-.338.057-.49-.111a.367.367,0,0,1-.07-.5c.118-.106.335-.056.493.111S10.292,35.146,10.173,35.254Zm.81,1.348c-.147.1-.388.006-.536-.207s-.147-.469,0-.572.386-.01.537.2S11.133,36.5,10.983,36.6Zm1.37,1.561c-.132.145-.412.106-.617-.092s-.268-.468-.136-.614.415-.1.622.092S12.493,38.02,12.353,38.163Zm1.771.527c-.058.188-.328.273-.6.194s-.449-.3-.394-.493.328-.278.6-.193S14.18,38.5,14.124,38.691Zm2.015.224c.007.2-.224.362-.509.366s-.519-.154-.522-.349.225-.363.512-.367S16.139,38.717,16.139,38.914Zm1.98-.076c.034.193-.164.392-.448.445s-.537-.068-.572-.26.167-.4.446-.448S18.083,38.642,18.119,38.838Z"/><g transform="translate(369.647 5)"><g class="b"><path class="c" d="M 18 35.5 C 13.32557964324951 35.5 8.930950164794922 33.67967987060547 5.625629901885986 30.37437057495117 C 2.320319890975952 27.06904983520508 0.5 22.67441940307617 0.5 18 C 0.5 13.32557964324951 2.320319890975952 8.930950164794922 5.625629901885986 5.625629901885986 C 8.930950164794922 2.320319890975952 13.32557964324951 0.5 18 0.5 C 22.67441940307617 0.5 27.06904983520508 2.320319890975952 30.37437057495117 5.625629901885986 C 33.67967987060547 8.930950164794922 35.5 13.32557964324951 35.5 18 C 35.5 22.67441940307617 33.67967987060547 27.06904983520508 30.37437057495117 30.37437057495117 C 27.06904983520508 33.67967987060547 22.67441940307617 35.5 18 35.5 Z"/><path class="d" d="M 18 1 C 13.45914077758789 1 9.190059661865234 2.768310546875 5.979190826416016 5.979190826416016 C 2.768310546875 9.190059661865234 1 13.45914077758789 1 18 C 1 22.54085922241211 2.768310546875 26.80994033813477 5.979190826416016 30.02080917358398 C 9.190059661865234 33.231689453125 13.45914077758789 35 18 35 C 22.54085922241211 35 26.80994033813477 33.231689453125 30.02080917358398 30.02080917358398 C 33.231689453125 26.80994033813477 35 22.54085922241211 35 18 C 35 13.45914077758789 33.231689453125 9.190059661865234 30.02080917358398 5.979190826416016 C 26.80994033813477 2.768310546875 22.54085922241211 1 18 1 M 18 0 C 27.94112014770508 0 36 8.058879852294922 36 18 C 36 27.94112014770508 27.94112014770508 36 18 36 C 8.058879852294922 36 0 27.94112014770508 0 18 C 0 8.058879852294922 8.058879852294922 0 18 0 Z"/></g><g transform="translate(-22.002 -22.005)"><path d="M52.33,38.978H41.03v-11.3a1.027,1.027,0,1,0-2.055,0v11.3h-11.3a1.027,1.027,0,0,0-1.027,1.027.935.935,0,0,0,1.027.966h11.3V52.333a1.027,1.027,0,1,0,2.055,0v-11.3h11.3a1.027,1.027,0,0,0,0-2.055Z" transform="translate(0)"/></g></g></svg>