<svg xmlns="http://www.w3.org/2000/svg" xmlns:xlink="http://www.w3.org/1999/xlink" width="405.647" height="47.929" viewBox="0 0 405.647 47.929"><defs><style>.a{fill:url(#a);}.b{fill:url(#b);}.c{fill:url(#c);}.d{fill:#F2F0E7;}.e,.f{stroke:none;}.f{fill:#707070;}</style><radialGradient id="a" cx="-0.167" cy="1.618" r="4.136" gradientTransform="matrix(0.985, -0.166, 0.101, 0.599, -0.777, 3.896)" gradientUnits="objectBoundingBox"><stop offset="0" stop-color="#fed576"/><stop offset="0.263" stop-color="#f47133"/><stop offset="0.609" stop-color="#bc3081"/><stop offset="1" stop-color="#4c63d2"/></radialGradient><radialGradient id="b" cx="-4.485" cy="7.335" r="17.238" gradientTransform="matrix(0.993, -0.166, 0.101, 0.599, -3.46, 15.867)" xlink:href="#a"/><radialGradient id="c" cx="0.159" cy="1.073" r="2.117" gradientTransform="matrix(0.984, -0.166, 0.101, 0.599, -0.417, 2.133)" xlink:href="#a"/></defs><g transform="translate(0)"><g transform="translate(-0.002 -0.173)"><g transform="translate(0.002 0.173)"><path class="a" d="M78.691-120.444a12.279,12.279,0,0,0-1.251.064,12.227,12.227,0,0,0-1.216.187q-.6.123-1.175.3l-1.127.414-1.073.518-1.012.616-.946.708-.873.793-.794.872-.708.945-.617,1.012-.518,1.072q-.234.55-.414,1.126t-.3,1.174a12.2,12.2,0,0,0-.187,1.215,12.216,12.216,0,0,0-.064,1.25,12.3,12.3,0,0,0,.064,1.25,12.149,12.149,0,0,0,.187,1.215,12.036,12.036,0,0,0,.3,1.174q.18.575.414,1.126l.518,1.072.617,1.011.708.945.794.872.873.793.946.708,1.012.616,1.073.518,1.127.414,1.175.3a12.18,12.18,0,0,0,1.216.187,12.309,12.309,0,0,0,1.251.064,12.318,12.318,0,0,0,1.251-.064,12.184,12.184,0,0,0,1.216-.187l1.175-.3,1.127-.414,1.073-.518,1.013-.616.946-.708.873-.793.794-.872.708-.945.617-1.011L90-103.411l.414-1.126q.18-.575.3-1.174l.187-1.215a12.26,12.26,0,0,0,.064-1.25,12.26,12.26,0,0,0-.064-1.25,12.145,12.145,0,0,0-.187-1.215,12.05,12.05,0,0,0-.3-1.174L90-112.941l-.518-1.072-.617-1.012-.708-.945-.794-.872-.873-.793-.946-.708-1.013-.616-1.073-.518-1.127-.414-1.175-.3-1.216-.187a12.3,12.3,0,0,0-1.251-.064Zm0,4.234a8.225,8.225,0,0,1,.826.041l.8.121.773.2.74.269.7.337.661.4.618.461.57.517.518.569.461.618.4.662.337.7q.152.361.269.739a7.894,7.894,0,0,1,.2.772c.053.262.092.529.121.8l.041.825a8.218,8.218,0,0,1-.041.826,8.081,8.081,0,0,1-.121.8q-.08.393-.2.772l-.269.739-.337.7-.4.662-.461.618-.518.569-.57.517-.618.461-.661.4-.7.337-.74.269-.773.2-.8.121q-.412.041-.826.041a8.284,8.284,0,0,1-.828-.041l-.8-.121q-.394-.08-.773-.2l-.74-.269-.7-.337-.661-.4-.618-.461-.57-.517-.518-.569-.461-.618-.4-.662-.337-.7-.269-.739-.2-.772-.121-.8a8.248,8.248,0,0,1-.041-.826,8.259,8.259,0,0,1,.041-.827,8.036,8.036,0,0,1,.121-.8q.079-.391.2-.772l.269-.739.337-.7.4-.662.461-.618.518-.569.57-.517.618-.461.661-.4.7-.337q.363-.153.74-.269l.773-.2c.263-.053.53-.094.8-.121a8.273,8.273,0,0,1,.826-.041Z" transform="translate(-54.662 132.176)"/><path class="b" d="M157.835-134.4a2.9,2.9,0,0,0-.291.015,2.9,2.9,0,0,0-.29.044,2.912,2.912,0,0,0-.283.073,2.909,2.909,0,0,0-.275.1,2.922,2.922,0,0,0-.263.128,2.918,2.918,0,0,0-.249.154,2.921,2.921,0,0,0-.233.178,2.928,2.928,0,0,0-.214.2q-.1.106-.193.221t-.17.239q-.079.124-.145.255t-.12.269q-.053.137-.092.279t-.064.287q-.025.145-.035.292-.007.1-.007.208,0,.147.015.294t.044.291q.029.144.072.285t.1.276q.057.136.127.265t.153.251q.083.121.177.234t.2.215q.1.1.22.194a2.921,2.921,0,0,0,.238.171,2.914,2.914,0,0,0,.254.146,2.917,2.917,0,0,0,.267.12,2.915,2.915,0,0,0,.277.093,2.912,2.912,0,0,0,.285.064,2.91,2.91,0,0,0,.29.036q.1.007.207.007a2.9,2.9,0,0,0,.292-.015,2.914,2.914,0,0,0,.289-.044,2.912,2.912,0,0,0,.283-.073,2.912,2.912,0,0,0,.275-.1,2.921,2.921,0,0,0,.263-.128,2.926,2.926,0,0,0,.249-.154,2.926,2.926,0,0,0,.233-.178,2.931,2.931,0,0,0,.214-.2,2.932,2.932,0,0,0,.193-.221q.091-.115.17-.239t.145-.255q.066-.131.12-.269t.092-.279q.039-.142.064-.287t.035-.292q.007-.1.007-.208,0-.147-.015-.294t-.044-.291q-.029-.144-.072-.285t-.1-.276q-.057-.136-.127-.265t-.153-.251q-.083-.122-.177-.234t-.2-.215q-.1-.1-.22-.194t-.238-.171a2.923,2.923,0,0,0-.254-.146q-.13-.067-.267-.12a2.911,2.911,0,0,0-.277-.093,2.9,2.9,0,0,0-.285-.064,2.911,2.911,0,0,0-.29-.035q-.1-.007-.207-.007Z" transform="translate(-121.028 142.64)"/><path class="c" d="M41.129-167.355c-1.336,0-2.527,0-3.6.018l-2.87.077c-.85.037-1.6.085-2.276.147-.337.031-.655.066-.957.1s-.573.078-.858.126-.529.1-.776.15-.483.113-.711.175-.443.129-.662.2-.424.149-.63.231c-.413.164-.816.347-1.231.553-.319.158-.614.319-.895.489a9.7,9.7,0,0,0-.806.545q-.4.3-.773.643c-.259.236-.523.495-.8.785-.345.362-.645.7-.911,1.031-.133.166-.258.329-.375.494s-.227.328-.333.5-.2.338-.3.514-.187.36-.273.544c-.175.376-.338.781-.5,1.233q-.181.5-.325,1.015c-.1.35-.184.716-.261,1.112s-.145.821-.2,1.292q-.1.774-.153,1.552c-.043.57-.079,1.2-.108,1.9l-.069,2.322-.037,2.83-.011,3.421.032,4.974.1,3.769.076,1.472.095,1.22q.046.493.114.984c.042.29.086.545.134.765q.146.671.345,1.328.191.629.435,1.24t.526,1.152q.286.555.618,1.066a11.725,11.725,0,0,0,.711.982,11.641,11.641,0,0,0,.8.9,11.85,11.85,0,0,0,.9.817q.479.393,1,.737c.319.213.634.408.952.588s.638.342.968.49.667.281,1.02.4.721.226,1.109.321.8.177,1.235.25.9.134,1.4.188,1.028.1,1.6.134,1.179.066,1.834.09c1.011.037,2.542.058,4.307.066l5.714-.012,5.411-.076,2.057-.058,1.34-.069c.288-.023.569-.051.841-.084s.54-.07.8-.112.516-.089.767-.142.494-.109.739-.173.481-.132.718-.206.471-.155.7-.241.466-.179.7-.277.462-.2.694-.315c.356-.171.642-.314.894-.454a6.2,6.2,0,0,0,.682-.434,7.928,7.928,0,0,0,.674-.565c.246-.227.525-.5.87-.845.3-.3.559-.567.78-.807s.407-.456.57-.664a7.059,7.059,0,0,0,.434-.616c.13-.208.25-.423.373-.663.184-.36.348-.693.494-1.015s.272-.625.39-.946.216-.641.3-.968.162-.693.226-1.083.119-.815.167-1.289.088-1,.123-1.587l.094-1.976.081-2.458.058-2.738.022-2.863-.051-5.623-.069-2.519-.094-2.162-.117-1.686c-.042-.469-.088-.839-.137-1.088q-.081-.414-.18-.824t-.213-.793q-.113-.384-.246-.761t-.277-.73c-.1-.238-.2-.47-.311-.7s-.224-.449-.344-.666-.245-.428-.376-.635-.267-.407-.409-.6-.288-.386-.441-.571-.31-.365-.474-.54-.332-.344-.507-.508-.354-.323-.539-.476-.377-.3-.572-.444-.4-.281-.6-.413-.421-.26-.637-.381-.443-.239-.669-.349c-.376-.183-.723-.345-1.064-.488s-.677-.269-1.024-.379a10.9,10.9,0,0,0-1.113-.286c-.4-.081-.836-.149-1.33-.207s-1.045-.1-1.675-.143-1.339-.069-2.149-.094l-2.751-.062-3.482-.041-4.459-.027Zm2.316,4.231,6.43.037,2.426.047c.668.019,1.178.041,1.477.066.389.033.76.074,1.114.123s.679.105,1.015.175.631.145.926.231.577.184.847.292a8.413,8.413,0,0,1,.777.355,7.918,7.918,0,0,1,.718.424,8.089,8.089,0,0,1,.669.5q.324.266.63.572a8.455,8.455,0,0,1,.6.66,7.214,7.214,0,0,1,.507.7,7.131,7.131,0,0,1,.422.771,8.136,8.136,0,0,1,.345.861c.1.3.194.627.275.973q.127.549.213,1.107c.062.394.114.814.159,1.263s.082.929.112,1.442c.024.411.046.955.064,1.6l.045,2.187.034,5.356-.039,5.351-.047,2.18L63.1-134.27c-.045.743-.092,1.367-.149,1.91-.028.272-.059.523-.093.759s-.07.445-.114.665q-.06.3-.139.6t-.171.563q-.1.28-.208.553-.118.289-.25.572-.117.253-.247.492t-.273.465q-.143.225-.3.438t-.327.411q-.17.2-.355.385t-.383.359q-.2.173-.411.333t-.441.307q-.228.147-.47.282t-.5.257q-.262.124-.531.233t-.561.208a12.645,12.645,0,0,1-1.217.345q-.668.154-1.346.252c-.174.025-.573.049-1.146.071l-2.181.061-6.182.08-6.471.01-2.541-.027-1.65-.051-1.217-.086c-.378-.032-.729-.067-1.058-.107s-.636-.085-.924-.135q-.41-.071-.815-.169-.369-.09-.729-.209c-.232-.077-.453-.162-.668-.255s-.425-.2-.632-.306-.412-.232-.62-.364c-.156-.1-.308-.2-.453-.307s-.286-.213-.421-.324-.265-.226-.391-.344-.245-.24-.361-.366-.226-.255-.331-.389-.207-.273-.3-.415-.19-.292-.276-.443-.171-.31-.25-.472-.156-.334-.225-.5-.138-.353-.2-.537a11.928,11.928,0,0,1-.333-1.184c-.1-.42-.178-.866-.248-1.341s-.126-.979-.17-1.515c-.033-.395-.059-1.009-.079-1.784l-.042-2.757.015-7.029.121-6.717.092-2.366.052-.782a4.475,4.475,0,0,1,.056-.457c.063-.306.127-.59.193-.856q.092-.377.206-.748c.072-.234.147-.452.228-.659s.165-.4.26-.591.193-.367.3-.542.226-.345.354-.513.266-.335.416-.5.312-.339.488-.515q.307-.309.639-.591a8.042,8.042,0,0,1,.652-.5,6.78,6.78,0,0,1,.687-.417,7.281,7.281,0,0,1,.743-.342c.259-.1.531-.194.82-.277s.609-.158.918-.217c.325-.064.67-.119,1.038-.168s.76-.09,1.179-.127c.292-.025.8-.048,1.459-.067l2.414-.048,6.42-.039Z" transform="translate(-19.429 167.355)"/></g></g><g transform="translate(369.647 6)"><g class="d"><path class="e" d="M 18 35.5 C 13.32557964324951 35.5 8.930950164794922 33.67967987060547 5.625629901885986 30.37437057495117 C 2.320319890975952 27.06904983520508 0.5 22.67441940307617 0.5 18 C 0.5 13.32557964324951 2.320319890975952 8.930950164794922 5.625629901885986 5.625629901885986 C 8.930950164794922 2.320319890975952 13.32557964324951 0.5 18 0.5 C 22.67441940307617 0.5 27.06904983520508 2.320319890975952 30.37437057495117 5.625629901885986 C 33.67967987060547 8.930950164794922 35.5 13.32557964324951 35.5 18 C 35.5 22.67441940307617 33.67967987060547 27.06904983520508 30.37437057495117 30.37437057495117 C 27.06904983520508 33.67967987060547 22.67441940307617 35.5 18 35.5 Z"/><path class="f" d="M 18 1 C 13.45914077758789 1 9.190059661865234 2.768310546875 5.979190826416016 5.979190826416016 C 2.768310546875 9.190059661865234 1 13.45914077758789 1 18 C 1 22.54085922241211 2.768310546875 26.80994033813477 5.979190826416016 30.02080917358398 C 9.190059661865234 33.231689453125 13.45914077758789 35 18 35 C 22.54085922241211 35 26.80994033813477 33.231689453125 30.02080917358398 30.02080917358398 C 33.231689453125 26.80994033813477 35 22.54085922241211 35 18 C 35 13.45914077758789 33.231689453125 9.190059661865234 30.02080917358398 5.979190826416016 C 26.80994033813477 2.768310546875 22.54085922241211 1 18 1 M 18 0 C 27.94112014770508 0 36 8.058879852294922 36 18 C 36 27.94112014770508 27.94112014770508 36 18 36 C 8.058879852294922 36 0 27.94112014770508 0 18 C 0 8.058879852294922 8.058879852294922 0 18 0 Z"/></g><g transform="translate(-22.002 -22.005)"><path d="M52.33,38.978H41.03v-11.3a1.027,1.027,0,1,0-2.055,0v11.3h-11.3a1.027,1.027,0,0,0-1.027,1.027.935.935,0,0,0,1.027.966h11.3V52.333a1.027,1.027,0,1,0,2.055,0v-11.3h11.3a1.027,1.027,0,0,0,0-2.055Z" transform="translate(0)"/></g></g></g></svg>