<svg xmlns="http://www.w3.org/2000/svg" width="56" height="56" viewBox="0 0 56 56"><defs><style>.a{fill:#F2F0E7;stroke:#707070;stroke-width:0.5px;}.b,.d{fill:none;}.b{stroke:#000;}.c{stroke:none;}</style></defs><g class="a"><rect class="c" width="56" height="56"/><rect class="d" x="0.25" y="0.25" width="55.5" height="55.5"/></g><g transform="translate(5 10)"><path class="b" d="M37.474,7.026H67.961C68.985,6.954,69.795,5.4,69.8,3.516S68.988.075,67.964,0H37.474C36.45.072,35.64,1.622,35.64,3.511s.808,3.441,1.831,3.516Z" transform="translate(-25.447 0)"/><path class="b" d="M67.381,35.3H37.005l-.053,0c-1.049,0-1.9,1.574-1.9,3.516s.85,3.516,1.9,3.516l.056,0H67.381c1.02-.072,1.827-1.622,1.827-3.511s-.8-3.441-1.825-3.516Z" transform="translate(-24.86 -21.241)"/><path class="b" d="M67.955,70.616H37.467c-1.023.072-1.833,1.622-1.834,3.511s.808,3.441,1.831,3.516h30.49c1.023-.072,1.833-1.622,1.834-3.51s-.808-3.441-1.831-3.516Z" transform="translate(-25.44 -42.496)"/><path class="b" d="M3.512,0H3.506a3.516,3.516,0,1,0,.005,0Z" transform="translate(0.007 0.002)"/><path class="b" d="M3.512,35.3H3.506a3.516,3.516,0,1,0,.005,0Z" transform="translate(0.007 -21.247)"/><path class="b" d="M3.512,70.616H3.506a3.516,3.516,0,1,0,.005,0Z" transform="translate(0.007 -42.501)"/></g></svg>