<svg xmlns="http://www.w3.org/2000/svg" width="52" height="52" viewBox="0 0 52 52"><defs><style>.a{fill:#ffc107;stroke:#707070;}.b,.d{fill:none;}.b{stroke:#000;stroke-linecap:round;stroke-linejoin:round;stroke-width:4px;}.c{stroke:none;}</style></defs><g class="a" transform="translate(0 52) rotate(-90)"><rect class="c" width="52" height="52" rx="12"/><rect class="d" x="0.5" y="0.5" width="51" height="51" rx="11.5"/></g><g transform="translate(7 44.591) rotate(-90)"><path class="b" d="M0,18.8V9.4A9.4,9.4,0,0,1,9.4,0h9.4"/><path class="b" d="M0,0V.023" transform="translate(28.193)"/><path class="b" d="M0,0V.023" transform="translate(37.591)"/><path class="b" d="M0,0V.023" transform="translate(37.591 9.398)"/><path class="b" d="M0,0V.023" transform="translate(37.591 18.795)"/><path class="b" d="M0,0V.023" transform="translate(0 28.193)"/><path class="b" d="M0,0V.023" transform="translate(37.591 28.193)"/><path class="b" d="M0,0V.023" transform="translate(0 37.591)"/><path class="b" d="M0,0V.023" transform="translate(9.398 37.591)"/><path class="b" d="M0,0V.023" transform="translate(18.795 37.591)"/><path class="b" d="M0,0V.023" transform="translate(28.193 37.591)"/><path class="b" d="M0,0V.023" transform="translate(37.591 37.591)"/></g></svg>