<svg xmlns="http://www.w3.org/2000/svg" width="44.48" height="31.674" viewBox="0 0 44.48 31.674"><defs><style>.a{fill:none;stroke:#000;}</style></defs><g transform="translate(0.5 0.5)"><path class="a" d="M9.781,10H43.649c3.2,0,4.806,1.508,4.806,4.575V36.1c0,3.042-1.61,4.575-4.806,4.575H9.781c-3.2,0-4.806-1.534-4.806-4.575V14.575C4.975,11.508,6.585,10,9.781,10ZM26.7,31.983,43.931,17.847a2.02,2.02,0,0,0,.332-2.735,2.116,2.116,0,0,0-2.991-.435L26.7,24.544,12.158,14.678a2.116,2.116,0,0,0-2.991.435A2.02,2.02,0,0,0,9.5,17.847Z" transform="translate(-4.975 -10)"/></g></svg>