<svg xmlns="http://www.w3.org/2000/svg" width="26.617" height="26.604" viewBox="0 0 26.617 26.604"><path d="M10.116.39l.3,1.209A12.088,12.088,0,0,0,7.07,2.982L6.433,1.913A13.147,13.147,0,0,1,10.114.39ZM16.5.39l-.3,1.207a12.09,12.09,0,0,1,3.344,1.383L20.2,1.911A13.241,13.241,0,0,0,16.5.39ZM1.914,6.426A13.205,13.205,0,0,0,.39,10.109l1.209.3A12.075,12.075,0,0,1,2.984,7.066l-1.07-.642ZM1.249,13.3a12.141,12.141,0,0,1,.135-1.808L.152,11.308a13.3,13.3,0,0,0,0,3.987l1.231-.186A12.069,12.069,0,0,1,1.249,13.3ZM20.188,24.69l-.639-1.064a12.031,12.031,0,0,1-3.339,1.382l.3,1.211a13.255,13.255,0,0,0,3.678-1.528ZM25.373,13.3a12.135,12.135,0,0,1-.136,1.806l1.231.186a13.239,13.239,0,0,0,0-3.987l-1.231.19a12.152,12.152,0,0,1,.136,1.806Zm.858,3.189-1.211-.3a12.055,12.055,0,0,1-1.384,3.346l1.07.643a13.187,13.187,0,0,0,1.526-3.69Zm-11.113,8.73a11.977,11.977,0,0,1-3.615,0l-.186,1.234a13.3,13.3,0,0,0,3.986,0l-.186-1.232Zm7.9-4.769A12.023,12.023,0,0,1,20.464,23l.742,1.006a13.422,13.422,0,0,0,2.82-2.808ZM20.464,3.6a12.018,12.018,0,0,1,2.557,2.556l1-.748a13.406,13.406,0,0,0-2.812-2.812l-.749,1ZM3.6,6.153A12.045,12.045,0,0,1,6.156,3.6l-.749-1A13.406,13.406,0,0,0,2.595,5.4l1,.748Zm21.108.271-1.071.643A11.974,11.974,0,0,1,25.02,10.4l1.211-.3a13.184,13.184,0,0,0-1.524-3.681ZM11.5,1.383a12.074,12.074,0,0,1,3.613,0L15.3.152a13.291,13.291,0,0,0-3.986,0l.186,1.23ZM4.238,24.344l-2.574.6.6-2.576-1.213-.283-.6,2.574a1.247,1.247,0,0,0,1.5,1.5l2.575-.594-.283-1.22Zm-2.93-3.372,1.218.279.416-1.784A11.947,11.947,0,0,1,1.6,16.2l-1.209.3a13.3,13.3,0,0,0,1.224,3.163l-.306,1.314Zm5.823,2.7-1.785.416L5.629,25.3,6.943,25a13.192,13.192,0,0,0,3.164,1.225l.3-1.211a11.977,11.977,0,0,1-3.264-1.349l-.012.008ZM13.31,2.5A10.8,10.8,0,0,0,4.16,19.051L3.12,23.488l4.434-1.039A10.812,10.812,0,1,0,13.31,2.5" transform="translate(-0.002 -0.002)"/></svg>