<svg xmlns="http://www.w3.org/2000/svg" width="28.533" height="25.131" viewBox="0 0 28.533 25.131"><defs><style>.a{fill:none;stroke:#000;stroke-width:0.7px;}</style></defs><g transform="translate(21.49 2.989) rotate(60)"><path class="a" d="M-1.273,8.375l-1.059,6.97a7.791,7.791,0,0,0,.843,5.417,4.116,4.116,0,0,0,3.874,2.072A8.371,8.371,0,0,0,8.162,19.8a12.341,12.341,0,0,0,3.266-6.667l.367-2.417a1.928,1.928,0,0,0-.327-1.551,1.214,1.214,0,0,0-1.26-.451L9.481,13.5a8.965,8.965,0,0,1-2.3,4.74A6.238,6.238,0,0,1,3.1,20.518,3.261,3.261,0,0,1,.261,18.883a5.558,5.558,0,0,1-.647-3.9l.692-4.553A2.005,2.005,0,0,0-.013,8.826,1.214,1.214,0,0,0-1.273,8.375ZM8.846,11.154l.547-3.6q.179-1.18-.794-1a1.42,1.42,0,0,0-1.153,1.36l-.547,3.6q-.188,1.237.785,1.057A1.464,1.464,0,0,0,8.846,11.154Zm-2.787-.634.547-3.6q.179-1.18-.794-1a1.42,1.42,0,0,0-1.153,1.36l-.547,3.6q-.179,1.18.794,1A1.42,1.42,0,0,0,6.059,10.521ZM4.733.275q.179-1.18-.794-1A1.42,1.42,0,0,0,2.787.634L1.146,11.426l1.947-.359Z" transform="translate(0 0)"/></g></svg>