<svg xmlns="http://www.w3.org/2000/svg" width="31.629" height="36.884" viewBox="0 0 31.629 36.884"><defs><style>.a{fill:none;stroke:#000;stroke-width:1.2px;}</style></defs><g transform="translate(0.6 0.6)"><path class="a" d="M24.054,22.135c-.221-.072-1.614-.7-.743-3.348H23.3A14.762,14.762,0,0,0,27.3,8.982C27.3,3.286,23.516.3,19.113.3s-8.172,2.985-8.172,8.682a14.721,14.721,0,0,0,4.01,9.83c.89,2.336-.7,3.2-1.035,3.324C9.307,23.8,3.9,26.842,3.9,29.842v1.125c0,4.087,7.925,5.016,15.259,5.016s15.17-.929,15.17-5.016V29.842c0-3.09-5.435-6.105-10.273-7.707Z" transform="translate(-3.898 -0.3)"/></g></svg>