<svg xmlns="http://www.w3.org/2000/svg" width="50.378" height="27.475" viewBox="0 0 50.378 27.475"><g transform="translate(49.728 0.65) rotate(90)"><g transform="translate(-0.65 -0.65)"><path d="M4.8-.65H21.375a5.456,5.456,0,0,1,5.45,5.45V44.278a5.456,5.456,0,0,1-5.45,5.45H4.8a5.456,5.456,0,0,1-5.45-5.45V4.8A5.456,5.456,0,0,1,4.8-.65ZM21.375,48.428a4.155,4.155,0,0,0,4.15-4.15V4.8A4.155,4.155,0,0,0,21.375.65H4.8A4.155,4.155,0,0,0,.65,4.8V44.278a4.155,4.155,0,0,0,4.15,4.15Z" transform="translate(0.65 0.65)"/><path d="M11.451,3.1H4.908A2.289,2.289,0,0,1,2.622.818.168.168,0,0,0,2.454.65H0A.65.65,0,0,1-.65,0,.65.65,0,0,1,0-.65H2.454A1.47,1.47,0,0,1,3.922.818a.987.987,0,0,0,.986.986h6.544a.987.987,0,0,0,.986-.986A1.468,1.468,0,0,1,13.905-.65h2.454a.65.65,0,0,1,.65.65.65.65,0,0,1-.65.65H13.905a.168.168,0,0,0-.168.168A2.289,2.289,0,0,1,11.451,3.1Z" transform="translate(5.558 0.65)"/></g></g></svg>