<svg xmlns="http://www.w3.org/2000/svg" width="27.814" height="27.815" viewBox="0 0 27.814 27.815"><defs><style>.a{fill:#3a76f0;}</style></defs><g transform="translate(0 0)"><path class="a" d="M10.571.408l.311,1.264A12.628,12.628,0,0,0,7.388,3.118L6.722,2A13.734,13.734,0,0,1,10.569.408Zm6.676,0L16.937,1.67a12.63,12.63,0,0,1,3.494,1.446L21.106,2A13.833,13.833,0,0,0,17.246.408ZM2,6.718A13.81,13.81,0,0,0,.408,10.569l1.264.313A12.628,12.628,0,0,1,3.118,7.388L2,6.717Zm-.7,7.19a12.7,12.7,0,0,1,.141-1.891l-1.287-.2a13.908,13.908,0,0,0,0,4.169L1.446,15.8A12.625,12.625,0,0,1,1.3,13.909ZM21.1,25.814,20.428,24.7a12.569,12.569,0,0,1-3.489,1.445l.313,1.266a13.847,13.847,0,0,0,3.844-1.6Zm5.419-11.9a12.694,12.694,0,0,1-.143,1.888l1.286.195a13.848,13.848,0,0,0,0-4.169l-1.286.2a12.711,12.711,0,0,1,.143,1.888Zm.9,3.334-1.266-.313a12.607,12.607,0,0,1-1.446,3.5l1.118.673a13.791,13.791,0,0,0,1.594-3.858ZM15.8,26.37a12.509,12.509,0,0,1-3.778,0l-.195,1.29a13.89,13.89,0,0,0,4.165,0L15.8,26.372Zm8.258-4.986a12.567,12.567,0,0,1-2.672,2.667l.775,1.052a14.029,14.029,0,0,0,2.947-2.936l-1.05-.782ZM21.384,3.761a12.562,12.562,0,0,1,2.672,2.672l1.05-.782a14.012,14.012,0,0,0-2.938-2.94l-.782,1.05ZM3.761,6.433A12.59,12.59,0,0,1,6.433,3.761l-.782-1.05a14.012,14.012,0,0,0-2.94,2.938l1.05.782Zm22.058.283-1.12.673a12.522,12.522,0,0,1,1.446,3.489l1.266-.313a13.788,13.788,0,0,0-1.592-3.849Zm-13.8-5.271a12.611,12.611,0,0,1,3.776,0L15.99.159a13.882,13.882,0,0,0-4.165,0l.195,1.286ZM4.429,25.452l-2.689.626.626-2.693-1.267-.3L.47,25.781a1.3,1.3,0,0,0,1.565,1.568l2.691-.621-.3-1.276ZM1.367,21.926l1.273.292.435-1.865a12.494,12.494,0,0,1-1.4-3.42l-1.264.313a13.908,13.908,0,0,0,1.28,3.307l-.32,1.373Zm6.085,2.822-1.865.435.3,1.271,1.373-.32a13.781,13.781,0,0,0,3.307,1.281l.313-1.266a12.512,12.512,0,0,1-3.411-1.41l-.012.009ZM13.909,2.609a11.295,11.295,0,0,0-9.562,17.31L3.261,24.557,7.894,23.47A11.3,11.3,0,1,0,13.909,2.609" transform="translate(-0.002 -0.002)"/></g></svg>