<svg xmlns="http://www.w3.org/2000/svg" width="24.546" height="28.745" viewBox="0 0 24.546 28.745"><defs><style>.a{fill:#b7b7b7;}</style></defs><rect class="a" width="28.745" height="24.546" transform="translate(24.546) rotate(90)"/><g transform="translate(3.377 2.954)"><path d="M54.72,40.286H68.558V36.48H54.72Zm.988-2.855H67.57v1.9H55.708Z" transform="translate(-52.743 -34.577)"/><path d="M58.375,24.32H44.537a1.939,1.939,0,0,0-1.977,1.9V45.255a1.939,1.939,0,0,0,1.977,1.9H58.375a1.939,1.939,0,0,0,1.977-1.9V26.223A1.939,1.939,0,0,0,58.375,24.32Zm.988,20.935a.973.973,0,0,1-.988.952H44.537a.973.973,0,0,1-.988-.952V26.223a.973.973,0,0,1,.988-.952H58.375a.973.973,0,0,1,.988.952Z" transform="translate(-42.56 -24.32)"/><path d="M55.708,75.815V72.96H54.72v3.806h3.954v-.952H55.708Z" transform="translate(-52.743 -65.347)"/><path d="M55.708,106.215V103.36H54.72v3.806h3.954v-.952H55.708Z" transform="translate(-52.743 -90.99)"/><path d="M55.708,136.615V133.76H54.72v3.806h3.954v-.952H55.708Z" transform="translate(-52.743 -116.632)"/><path d="M86.108,75.815V72.96H85.12v3.806h3.954v-.952H86.108Z" transform="translate(-78.201 -65.347)"/><path d="M116.508,75.815V72.96h-.988v3.806h3.954v-.952h-2.965Z" transform="translate(-103.659 -65.347)"/><path d="M86.108,106.215V103.36H85.12v3.806h3.954v-.952H86.108Z" transform="translate(-78.201 -90.99)"/><path d="M86.108,136.615V133.76H85.12v3.806h3.954v-.952H86.108Z" transform="translate(-78.201 -116.632)"/><path d="M116.508,110.973V103.36h-.988v8.564h3.954v-.952h-2.965Z" transform="translate(-103.659 -90.99)"/></g></svg>