<svg xmlns="http://www.w3.org/2000/svg" width="142.446" height="159.444" viewBox="0 0 142.446 159.444"><g transform="translate(-31.448 -47.45)"><g transform="translate(31.448 47.45)"><path d="M170.6,76.24c-2.272-.5-4.535-1.064-6.813-1.537-2.445-.507-4.711.286-7.128.689a18.944,18.944,0,0,1-6.571-.312c-2.48-.41-4.952-.76-7.42-1.243l-3.507-.69c-.514-.1-1.889-.669-2.372-.353-.563.368-.284,2.11-.3,2.725a17.454,17.454,0,0,1-.048,3.286c-.358,1.573-3.24,1.588-4.652,1.841-.745.133-.823.264-1.192-.278-.35-.514.028-2.25.04-2.818.055-2.327.154-4.656.165-6.984.012-2.6-1.847-2.5-4.056-2.826-1.191-.177-2.381-.35-3.571-.535-1.269-.2-1.492-.24-1.63-1.53-.194-1.8.085-3.359-1.533-4.46-1.727-1.176-2.352-3.479-3.179-5.389-1.024-2.364-1.71-4.969-2.844-7.269-.85-1.725-2.622-.974-4.283-.738-4.767.679-9.534,1.409-14.275,2.254-1.352.241-5.807.35-6.5,1.747-.37.743.312,2,.541,2.742.337,1.091.677,2.182,1.055,3.259.838,2.389,2.016,4.606,3.023,6.922a4.465,4.465,0,0,1,.286,3.011c-.136.886-.135,2.945-.654,3.6-.614.771-1.846.574-2.757.719-1.22.194-2.435.433-3.651.651q-3.432.619-6.862,1.257-3.684.685-7.365,1.386c-1.229.234-4.35.318-5.082,1.533-.409.678-.088,2.364-.068,3.118.029,1.157.045,2.316.065,3.474q.062,3.594.125,7.188c.047,2.532.5,5.4.166,7.906-.26,1.965-2.533,2.613-4.1,3.513q-6.285,3.614-12.61,7.155-6.747,3.778-13.505,7.537c-1.216.673-2.443,1.328-3.665,1.988-.591.32-2.212.82-2.4,1.509-.2.741.643,1.536.952,2.146.5.992.741,2.1,1.192,3.1.8,1.77,2.343,1.953,4.09,2.495,2.158.669,4.3,1.385,6.437,2.107s4.076,1.9,6.237,2.594c.886.284,1.779.543,2.658.846s.65.357,1.228.971a9.189,9.189,0,0,1,.9.812c.288.393.336.935.69,1.283a7.036,7.036,0,0,0,2.892,1.039c1.957.493,4.19-1.2,5.935-2.034.852-.408,2.56-1.711,3.464-1.648.7.051.394,1.6.41,2.236q.086,3.412.173,6.823c.256,10.15.417,20.3.591,30.451.044,2.521-.025,5.077.125,7.594.059.983.165.958.764,1.536.208.2.579-.011.787.324.17.273-.161.8-.139,1.117.044.6.892,1.7.59,2.271-.225.428-1.305.4-1.359,1-.087.982,4.611,2.246,5.35,2.531q14.288,5.51,28.6,10.959c4.715,1.786,9.419,3.6,14.13,5.4a8.715,8.715,0,0,0,6.749-.044c2.239-.77,4.49-1.5,6.734-2.259,9.431-3.177,18.881-6.3,28.244-9.68,2.508-.9,5.012-1.827,7.549-2.646,1.023-.33,5.4-.907,4.53-2.419-.5-.866-2.223-.535-2.666-1.372a5.483,5.483,0,0,1,.139-1.967c.573-1.613,2.641-.946,3.379-2.168.478-.792.156-2.485.178-3.416.031-1.211.065-2.421.095-3.632.059-2.415.1-4.831.137-7.247q.124-7.62.209-15.239c.213-20.206.4-40.416.4-60.623h.044c0-4.732.017-9.468-.139-14.2-.08-2.405-.944-2.6-3.155-3.09Zm-23.951-.522c.622-1.208,4.608.173,5.557.573a31.181,31.181,0,0,1-4.55.847c-.735.023-1.565-.333-1.007-1.418Zm-9.5-2.317c.481-.413,2.545.334,3.158.449,1.189.224,2.376.459,3.567.674,1.277.229,1.658.217,1.578,1.57-.073,1.237-.228,1.536-1.409,1.847-1.279.338-2.612.542-3.908.8-.567.115-2.325.81-2.858.553-.634-.305-.3-2.465-.3-3.045H137c0-.6-.3-2.465.148-2.853Zm2.293,6c5.513-1.225,11.065-2.278,16.6-3.384,2.61-.522,5.2-1.308,7.863-.792,2.407.466,4.844,1.05,7.216,1.666.007.056.013.112.021.168-10.612,2.1-21.194,4.357-31.769,6.635-5.252,1.132-10.544,2.131-15.768,3.386a13.039,13.039,0,0,1-6.912.116c-2.449-.621-4.92-1.165-7.36-1.825a24.351,24.351,0,0,1,3.338-.8,13.677,13.677,0,0,1,3.933.318,4.3,4.3,0,0,0,3.163-.738,8.375,8.375,0,0,1,3.382-1.253q8.161-1.688,16.291-3.492ZM119.794,197.178c-1.689.551-1.581-2.17-1.58-2.921q.008-5.828-.04-11.657c-.065-7.887-.168-15.775-.229-23.662q-.044-5.87.051-11.736c.013-.827-.382-3.973.509-4.165,1.167-.25,1.41.814,1.442,1.614.34,8.559.009,17.2.009,25.762h.246v23.554c0,.776.41,2.941-.409,3.208Zm1.02,8.191a1.947,1.947,0,0,1-1.333-1.913c.055-.412-.023-1.418.314-1.717s.586.033.97-.141c.209.657-.04,1.036-.1,1.725s.252,1.381.149,2.046Zm-3.38-9.006c-.727.095-2.247-.874-2.913-1.132a15.589,15.589,0,0,1-3.13-1.321c1.44-.939,2.929-1.167,4.126-2.567,1.016-1.188,1.3-2.813,2.222-3.978.6,1.06.184,3.375.184,4.579,0,.911.481,4.293-.489,4.42ZM72.371,141.4c.326,3.74.26,7.537.352,11.289A217.985,217.985,0,0,0,73.972,175.2a43.1,43.1,0,0,1-1.683-5.268,29.893,29.893,0,0,1-.373-5.907c-.068-4.287-.244-8.571-.365-12.857-.109-3.905,0-7.861-.374-11.718C71,137.687,70.8,135.97,70.5,134.2c-.133-.77-.248-1.044.321-1.561a14.715,14.715,0,0,1,3.083-1.5c-.7,1.665-1.677,3.331-1.793,5.157a33.883,33.883,0,0,0,.258,5.09Zm-.642,29.332.214-.044a30.282,30.282,0,0,0,2.148,5.864c1.051,1.889,2.656,3.208,3.92,4.912-1.577-.35-5.839-1.156-6.3-2.792-.655-2.305-.161-5.587.021-7.942Zm2.828,4.379c-1.482-5.819-.983-12.329-1.153-18.292-.177-6.2-.8-12.548-.561-18.739a10.052,10.052,0,0,1,.816-3.8c.562-1.235,1.281-1.276,2.543-1.385,2.572-.222,5.655,1.212,8.122,1.9,5.939,1.65,11.834,3.446,17.746,5.186,2.837.835,6.6,1.219,9.023,3.01a15.938,15.938,0,0,1,4.817,6.786,23.686,23.686,0,0,1,1.477,9.442c.011,3.593,0,7.187,0,10.782h.264c0,3.2.037,6.4.029,9.605-.007,2.762.306,5.832-.723,8.453a8.415,8.415,0,0,1-4.88,5.048c-2.653.887-5.168-.647-7.642-1.574q-9.024-3.376-18.052-6.739c-2.517-.938-5.8-1.622-7.753-3.536-1.825-1.789-3.426-3.608-4.072-6.141ZM51.884,122.352c-.165-.525-1.133-2.389-.979-2.987.237-.92,2.475-1.652,3.2-2.055q4.693-2.617,9.386-5.233c3.407-1.9,6.813-3.8,10.235-5.671,1.765-.964,3.533-1.922,5.3-2.889.713-.39,4.439-2.008,3.162-2.82.025-.057.052-.115.077-.172q4.967,1.221,9.934,2.44,2.325.571,4.65,1.137a13.729,13.729,0,0,1,3.624,1c-.938.729-2.321.388-3.43.6a15.3,15.3,0,0,0-4.278,2.1q-4.677,2.651-9.355,5.3c-6.152,3.482-12.264,7.062-18.506,10.377-1.41.749-2.832,1.478-4.254,2.2a10.245,10.245,0,0,1-4.595,1.022c-.776.041-2.143.4-2.765-.221-.822-.826-1.056-3.051-1.4-4.142Zm1.213,5.423c-.465.907-7.154-1.548-7.979-1.891-1.458-.606-1.378-1.967-1.731-3.419-.365-1.5-.745-2.987-1.108-4.483,1.223-.241,2.72.511,3.918.839a22.679,22.679,0,0,0,2.66.659c.454.067,1.047-.056,1.444.25.862.663,1.108,2.773,1.446,3.781C52.016,124.313,53.475,127.039,53.1,127.775Zm3.81-.753c2,0,3.725,4.824,1.051,4.6-.987-.084-1.105-1.26-1.41-2.1C56.1,128.284,55.2,127.195,56.908,127.023Zm2.014.511c.333-1.172,3.306-2.05,4.339-2.6,7.079-3.769,14.034-7.79,21.012-11.744,3.825-2.168,7.606-4.64,11.571-6.541,1.657-.794,3.648-.575,5.421-1.185a49.617,49.617,0,0,1,5.435-1.794c.448.926,1.364,1.753.776,2.571-.41.571-1.731.994-2.337,1.339l-2.865,1.625q-5.25,2.981-10.51,5.947Q81.2,121.1,70.593,126.983c-1.713.954-3.424,1.911-5.141,2.86-.864.477-3.956,2.645-4.884,2.258-.522-.217-1.787-4.065-1.646-4.566Zm46.949-24.188c-1.377.336-2.628,1.18-4.082,1.22a17.721,17.721,0,0,1-4.33-.888q-2.459-.585-4.913-1.188c-3.111-.759-6.384-2.008-9.586-2.2-.968-.057-3.087.253-3.775-.463-.714-.746-.385-2.876-.436-3.841,0-.575-.382-2.991.156-3.36.511-.352,3.821,1,4.531,1.189C86.7,94.668,90,95.4,93.28,96.175c2.989.7,5.977,1.408,8.957,2.151a25.414,25.414,0,0,1,4.67,1.157c1.289.626.979,1.7.984,3.057.008,1.741-.635.469-2.019.806ZM77.908,90.5A9.973,9.973,0,0,1,78,87.016a6.076,6.076,0,0,1,.221,2.744h.149q0,2.7,0,5.393a31.6,31.6,0,0,1,.079,4.7c-1.121-1.331-.547-4.2-.527-5.811.015-1.183.012-2.364-.015-3.547ZM76.22,79.3c.007-1.955-.353-2.583,1.827-1.941s4.4,1.176,6.627,1.665q3.085.675,6.173,1.329c1.006.214,3.91.292,4.514,1.3.317.529.075,1.843.075,2.412,0,1.008.309,2.537-.008,3.47-.237.7.007.571-.778.6a14.982,14.982,0,0,1-3.418-.808c-4.711-1.115-9.491-1.946-14.191-3.087-.025.063-.051.125-.077.188,3.806,1.489,8.263,1.881,12.245,2.86,4.273,1.051,8.536,2.139,12.807,3.191a16.354,16.354,0,0,1,2.935.721c.625.3.546.38.82.95.164.34.819,1.484.715,1.642-.509.778-1.429-.372-1.721-.578-1.438-1.018-3.76-1.141-5.485-1.545-2.211-.518-4.418-1.052-6.627-1.576-4.349-1.03-8.7-1.973-13.014-3.151-4.028-1.1-3.435-4.157-3.424-7.637ZM96.5,81.545c1.3-.249,3.515.643,4.8.882,1.076.2,3.436.182,4.233.891.675.6.241,2.975.241,3.829h.023c0,.59.4,3.264-.1,3.624-.53.38-3.731-.822-4.452-.994q-1.38-.33-2.764-.657a7.1,7.1,0,0,1-2.074-.487c-1-.723-.547-2.545-.546-3.72,0-1.031-.478-3.154.639-3.367ZM85.2,90.531c2.816.713,5.638,1.4,8.455,2.11,2.684.673,5.39,1.263,8.061,1.994,1.307.358,2.608.739,3.929,1.04,1.594.362,2.167.224,2.167,1.988.009.6.2,1.251-.346,1.508-.417.2-2.216-.545-2.65-.65q-4.655-1.125-9.31-2.242-4.631-1.113-9.262-2.222c-.916-.218-6.762-1.06-6.841-1.923-.032-.354,2.091-2.2,2.373-2.307.883-.336,2.52.473,3.427.7Zm-1.638-1.468c.24-.812,2.766.17,3.328.3,1.12.256,2.923.16,2.909,1.661C88.889,91.39,83.181,90.364,83.564,89.063Zm6.713,1.629c1.128-.31,2.339.513,3.483.6.944.073,1.241-.394,1.525.93-.991.38-4.594-.519-5.008-1.532Zm6.61,1.3c1.183.1,2.015.71.555,1.26C96.489,92.922,94.776,91.809,96.887,91.991Zm2.24.883c.236-.883,2.658-.507,2.483.6C101.747,94.662,98.9,93.717,99.127,92.874Zm6.962,2.371c-1.394-.456-2.024-.673-2.748-1.9.771.293,1.629,1.2,2.379,1.253a5.213,5.213,0,0,1,1.023-.4,1.063,1.063,0,0,1,1.116.494c-.056,1.252-.811.863-1.77.55Zm1.954-11.258c.747-.657,3.38-.8,4.41-1.042,1.538-.357,3.077-.706,4.626-1.011,1.6-.314,3.214-.6,4.82-.9,1.289-.24,3.228-.29,4.239-1.18a26.492,26.492,0,0,0-4.7,1.016q-2.417.543-4.844,1.056c-3.1.663-6.188,1.14-9.328,1.573l-.036-.209c2.519-.541,4.515-1.056,6.073-3.256.6-.842,1.253-2.559,2.311-2.853,1.24-.345,3.375.479,4.588.739,1.5.321,2.993.674,4.488,1.016,1.056.241,1.855,0,2.139,1.035.384,1.4.084,1.62-1.187,1.877a34.194,34.194,0,0,0-4.724.972c-1.125.406-1.593,1.34-2.857,1.351a38.142,38.142,0,0,0-4.3-.205,31.232,31.232,0,0,0-4.238.831c-.816.212-2.758.318-1.474-.81Zm11.832,30.1q0,6.757,0,13.513c.005,3.46.024,6.922.036,10.382,0,.758-.035.8-.747.6-3.243-.92-6.481-1.859-9.727-2.773a.831.831,0,0,1-.71-.94c.021-1.2-.013-2.395-.005-3.591,0-.238-.117-.651.418-.491.055.016.241-.165.234-.245-.008-.121-.127-.332-.208-.337-.625-.039-.529-.494-.531-.879-.024-3.284-.033-6.569-.064-9.853-.025-2.662-.08-5.324-.1-7.986,0-.28-.224-.768.422-.71.039,0,.144-.181.131-.264-.019-.108-.14-.292-.193-.285-.6.087-.446-.352-.45-.645-.012-.842.007-1.685,0-2.528q-.032-7.452-.073-14.9c-.012-1.842-.068-3.683-.088-5.523-.009-.864.085-.959.906-.791,1.149.236,2.291.515,3.431.8,2.154.526,4.3,1.079,6.458,1.59a.742.742,0,0,1,.65.839c.036,3.061.111,6.121.123,9.183.021,5.282.005,10.563.005,15.845h.08ZM108.115,126.9c.024,1.93.2,3.916.088,5.843-.085,1.461-.721.9-2.063.565-3.829-.967-7.662-1.9-11.467-2.965-1.867-.521-3.732-1.056-5.6-1.593s-4.163-.894-5.806-1.938c1.813-1.426,4.349-2.315,6.408-3.351q3.334-1.678,6.683-3.326c2.067-1.019,4.117-2.114,6.227-3.041a19.623,19.623,0,0,0,2.8-1.34c.912-.585,1.569-1.43,2.436-2.047a8.133,8.133,0,0,1,.257,1.385c0,3.936-.02,7.871.027,11.807Zm-24.436.679c2.212.647,4.406,1.363,6.623,1.991q7.36,2.086,14.741,4.1a17.675,17.675,0,0,0,2.283.385c.631.085.984.373.864,1.255a1.121,1.121,0,0,1-.444.04c-2.6-.737-5.2-1.493-7.8-2.236q-7.929-2.266-15.86-4.526c-.213-.061-.421-.14-.634-.2-.352-.1-.679-.269-.463-.678.071-.133.481-.192.69-.131Zm3.061,2.259c4.125,1.121,8.222,2.333,12.325,3.527,4.074,1.185,8.155,2.344,12.235,3.508,1.986.567,3.973,1.127,5.956,1.7a8.081,8.081,0,0,1,2.328.669c.539.453.354,1.253.354,1.9h-.013c0,.4.218,1.493-.193,1.729-.491.282-2.256-.623-2.809-.791q-2.817-.855-5.639-1.7c-3.965-1.181-7.942-2.325-11.915-3.479-3.821-1.109-7.622-2.267-11.425-3.439-3.572-1.1-7.741-1.77-11.06-3.475,1.115-.9,2.672-1.977,4.135-1.739a57.838,57.838,0,0,1,5.72,1.585Zm30.789,22.571c-1.212-1.881-1.676-4.211-2.813-6.159a12.708,12.708,0,0,0-1.777-2.379c-.555-.581-1.929-1.26-2.172-2.01-.314-.963.214-.856.97-.711,1.205.233,2.412.682,3.588,1.034.978.292,2.018.32,2.348,1.367.356,1.129.019,2.943.019,4.119h-.036A22.15,22.15,0,0,1,117.528,152.406ZM76.9,130.487c2.107.686,4.193,1.444,6.314,2.084,4.839,1.46,9.695,2.864,14.544,4.291q5.712,1.682,11.418,3.376c.377.112.872.144.886.725.005.661-.2.787-.831.6-3.23-.959-6.464-1.9-9.695-2.85q-10.718-3.159-21.435-6.32a2.188,2.188,0,0,0-.775-.171c-.808.08-1.038-.406-1.116-1.057-.027-.226-.084-.543.033-.667s.45-.08.657-.013ZM130,69.066c.654.373.277,2.114.265,2.758-.024,1.336.376,3.568-.081,4.807-.385,1.044-1.58.8-2.621.916a26.625,26.625,0,0,1-4.126.575c-.486-.023-3.3-.288-3.531-.832-.2-.479,1.006-1.919,1.07-2.609.052-.557-.121-1.917-.747-1.189-.408.474.421,2.238-.4,2.391-.4.075-.324-2.547-1.36-2.377-1.329.217.214,1.024.373,1.209a4.631,4.631,0,0,1,.483,2.27c-.242.385-.747.113-1.171.064-1.545-.18-3.063-.313-4.595-.6-3.239-.61-6.512-1.2-9.712-2l.016-.144c5.949-1.167,11.868-2.468,17.813-3.665q2.182-.44,4.367-.863c.758-.148,3.288-1.095,3.96-.711Zm-6.94-1.295c2.088.313,4.274.373,6.324.89-5.245.98-10.421,2.274-15.647,3.346-2.527.518-5.062.984-7.588,1.508-2.432.5-4.414.8-6.787-.2C107.244,71.73,115.2,70.473,123,68.486l-.028-.189c-.5.12-1.517.625-1.5-.174.019-.879,1.034-.43,1.581-.349Zm-2.275-3.065c.124.6.2,1.215.294,1.823-.088,2.106-.093,2.083-2.119,2.477-4.632.9-9.259,1.835-13.89,2.742-2.239.438-4.483.848-6.727,1.264a1.409,1.409,0,0,1-.657.015c-.137-.045-.332-.3-.3-.408a5.389,5.389,0,0,0-.314-3.448c-.113-.278-.149-.365.244-.436,3.925-.694,7.842-1.429,11.763-2.144,3.1-.565,6.195-1.105,9.287-1.682a7.165,7.165,0,0,0,1.707-.525c.449-.21.634-.067.713.322Zm-30.749-12.6c.158-1.12,1.846-.967,2.881-1.149,6.421-1.131,12.911-2.352,19.391-3.077,1.624-.321,2.874,5.265,3.368,6.476a74.528,74.528,0,0,0,3.813,8.023c.43.775.924,1.2.24,1.754-.759.618-2.892.651-3.85.832-2.926.557-5.859,1.084-8.79,1.616-2.85.517-5.7,1.073-8.555,1.538-1.161.189-1.389.249-1.98-.738-.743-1.239-1.356-2.587-1.991-3.884a80.363,80.363,0,0,1-3.312-7.693c-.333-.912-1.349-2.734-1.213-3.7Zm3.311,21.1c.5-.4.04-.025.105-.734a14.345,14.345,0,0,1,.5-2.556c.318-1.111,1.942-1.763,1.546-2.969-.232-.71-1.064-1.438-1.424-2.148q-.6-1.189-1.156-2.4-1.175-2.567-2.128-5.228c-.569-1.593-1.554-3.553-1.369-5.26.951,1.448,1.283,3.537,1.906,5.166.745,1.945,1.574,3.86,2.461,5.744.9,1.911,5.2,8.288,2.642,10,.051-.69.6-1.951-.23-2.395-.606-.326-1.529.854-1.745.119-.966.566-.506,1.855.278,2.317,1.493.88,4.03.946,5.7,1.288,4.021.824,8.026,1.722,12.042,2.571.394.084,1.669.113,1.889.535.19.365-.9,1.545-1.109,1.845a7.113,7.113,0,0,1-3.564,3.059c-3.705,1.317-7.725.1-11.421-.868,1.019-1.073,2.816-1.026,4.052-1.791-1.783-.951-3.857-1.163-5.808-1.649-1.026-.256-1.14-.236-1.168-1.293-.016-.655.42-1.923-.334-2.293-1.644-.8-.737,2.158-1.225,2.685-.859.928-3.274.23-4.329,1.128.967,1,2.949,1.169,4.263,1.5,1.177.292,3.443.376,4.036,1.5-1.225.454-3.263-.344-4.511-.615q-2.681-.583-5.359-1.177c-3.559-.79-7.1-1.629-10.646-2.487,0-.071,0-.143,0-.213,3.817-.734,7.612-1.544,11.408-2.384.923-.2,1.846-.413,2.77-.613a7.225,7.225,0,0,0,1.923-.38ZM93.214,78.9l.382-.248a18.68,18.68,0,0,1,4.723,1.265c-1.143.566-3.994-.337-5.105-1.019Zm-23.2-2.513c3.816-.842,7.676-1.505,11.517-2.222,1.838-.342,3.675-.693,5.517-1.008,1.875-.321,3.917-.9,5.791-.53-2.015,1.018-4.524,1.223-6.731,1.685-2.289.479-4.582.95-6.868,1.441-.894.192-1.793.384-2.669.645-.224.067-.792.125-.938.4-.129.244.266.565.162.73-.449.713-4.931-.718-5.788-.9Zm-2.028.806c.633-.858,1.953-.205,2.826,0a19.673,19.673,0,0,1,4.135,1c1.151.59.754,1.97.754,3.174h.033a7.629,7.629,0,0,0,.33,3.5c.575,1.173,1.267,1.5,1.345,2.88.165,2.909.047,5.868.052,8.782,0,1.217.244,1.237-.7,1.209-1.256-.036-2.384-.85-3.717-.76a6.786,6.786,0,0,0-3.2,1.45c-1.292.816-1.522,1.028-1.617-.593C67.9,92.2,68,86.5,67.912,80.852c-.012-.749-.4-3.015.071-3.656ZM33,122.614c-.189-.4-.946-1.39-.919-1.851.031-.542.04-.277.289-.645.542-.8,2.957-1.578,3.813-2.038,2.624-1.405,5.229-2.842,7.835-4.279q7.514-4.141,14.913-8.475,3.748-2.182,7.49-4.377l3.744-2.191c1-.582,2.1-1.4,3.324-1.2.016-.067.031-.132.047-.2a18.4,18.4,0,0,1,2.846.82c.934.444.7.879,1.261,1.62.88,1.168,3.022.768,4.235,1.41-1.229,1.153-3.149,1.875-4.623,2.693l-5.085,2.824q-5.142,2.857-10.286,5.712c-3.392,1.883-6.762,3.822-10.184,5.652a5.334,5.334,0,0,1-4.688.475c-1.791-.481-3.589-1.151-5.418-1.464-.005.875.962,2.476.461,3.208-.514.751-2.644,1.347-3.444,1.741-1.231.606-2.452,1.249-3.709,1.8-1.392.611-1.289.039-1.9-1.244Zm9.717,6.7c-1.8-.591-3.6-1.176-5.409-1.719-.978-.293-3.8-.634-3.343-2.345.288-1.088,3.017-1.871,3.926-2.325.726-.364,3.864-2.487,4.554-2.067a2.639,2.639,0,0,1,.4,1.533c-.112.519-.483.685-.9.963-1.424.952-3.034,1.648-4.41,2.669.039.061.077.121.115.182a34.64,34.64,0,0,1,4.65-2.52c.923-.314.851-.135,1.109.819.487,1.8,1.568,1.8,3.264,2.311a24.884,24.884,0,0,1,5.073,1.658c-.794.812-2.637,2.268-3.795,2.383-1.558.155-3.757-1.054-5.236-1.541Zm12.625,3.918c-.32.827-3.359-.53-4.262-.8-.438-.132-2.254-.394-2.475-.747-.309-.494-.28-.292.5-.8,1.414-.926,2.9-1.79,4.362-2.633a7.538,7.538,0,0,1,.959,2.325c.158.457,1.077,2.235.915,2.657Zm10,1.637c-2.616,1.261-6.037,3.7-8.938,1.545-.282-.209-1.031-1.112-.987-1.524.063-.594.84-.682,1.456-.9a60.921,60.921,0,0,0,6.044-2.192c7.624-3.673,14.922-8.25,22.3-12.388q6.8-3.814,13.593-7.646,3.119-1.76,6.22-3.553c.448-.26,2.357-1.709,2.746-1.544.433.184.14,2.729.14,3.109h0c0,1.582.305,2.946-.951,4.142a20.7,20.7,0,0,1-5.507,3.251c-3.909,1.847-7.794,3.719-11.655,5.664q-12.175,6.135-24.464,12.038Zm4.318,28.781c-.089-5.321-.161-10.643-.281-15.963-.059-2.63-.132-5.26-.2-7.89-.047-1.8-.874-5.085.386-6.464,1.2,1.388,1.108,4.959,1.185,6.761.121,2.824.177,5.651.241,8.476q.194,8.473.475,16.94c.084,2.609-.153,5.156-.17,7.76-.009,1.408-.037,2.82-.02,4.227.008.633.372,1.971-.776,1.63-1.361-.4-.653-5.626-.653-6.777v-8.7h-.189Zm.41,18.2a4.832,4.832,0,0,1-.172-2.118c.321-.522.694-.186,1.276.009,1.959.659,3.9,1.373,5.838,2.092q11.082,4.11,22.157,8.236,6.169,2.3,12.342,4.576,3.3,1.213,6.6,2.423c1.673.615,2.1.6,2.1,2.423.1,1.653-.1,1.624-1.588,1.056-1.911-.727-3.818-1.466-5.727-2.2-3.58-1.373-7.159-2.75-10.747-4.1-7.291-2.745-14.568-5.527-21.855-8.28-1.789-.675-3.579-1.348-5.363-2.035-1.169-.449-4.166-1.034-4.857-2.084Zm4.944,5.14-.613.2a3.944,3.944,0,0,1-1.9-3.508,6.884,6.884,0,0,1,1.841.6,1.875,1.875,0,0,1,.384,1.12c.784-.678.911-.493,1.982,0q-.629.543-1.257,1.085l-.7-.851a4.668,4.668,0,0,0,.256,1.351Zm-3.748-2.766c.152-.377.168-.569.517-.786a8.066,8.066,0,0,1,.892,3.083C71.845,186.246,71.608,184.991,71.272,184.224Zm50.092,22.5c-8.816-2.7-17.4-6.39-26-9.705-4.211-1.622-8.4-3.316-12.608-4.939q-3.226-1.243-6.458-2.472L73.381,188.5c-.589-.222-2.227-.571-2.52-1.307s3.045.3,3.014.289a2.9,2.9,0,0,0,2.272-.113c.691-.333,1.026-.922,1.85-.91a3.784,3.784,0,0,1-.6-.89c1.946.233,3.989,1.361,5.818,2.06l6.489,2.481q6.491,2.481,12.98,4.965c4.225,1.616,8.437,3.27,12.693,4.8.7.253,2.387.546,2.853,1.184.356.487.132,1.486.264,2.09.47,2.138,1.958,2.416,3.7,3.214a1.8,1.8,0,0,1-.836.354Zm2.772-.9a2.8,2.8,0,0,1-2.841-.593c-1.155-1.336-.26-3.9,1.442-4.08-.562,1.237-1.594,2.553-.21,3.752,1.489,1.288,2.571-.984,2.511-2.293l.232.024c-.088,1.144.025,2.634-1.135,3.191Zm-.352-1.181c-.936.669-1.405-.767-1.737-1.4.459-.609,2.234-2.461,2.573-.515.091.521-.473,1.532-1.091,1.441-.774-.113-.218-1.52-.131-1.878-1.288.975-.972,1.794.385,2.353Zm47.808-15.123c-1.371,1.093-3.848,1.436-5.523,2.03-2,.711-4,1.43-6,2.143-3.9,1.392-7.822,2.725-11.742,4.064-3.972,1.357-7.937,2.738-11.91,4.093q-3,1.023-6.009,2.014c-1.709.562-3.565,1.461-5.359,1.558a9.161,9.161,0,0,0,.625-2.063,13.23,13.23,0,0,1,.123-2.5c.432-1.6,2.685-1.817,4.1-2.3q5.947-2.028,11.888-4.072,5.848-2,11.7-3.972c2.006-.675,4.014-1.34,6.015-2.032.888-.308,1.755-.711,2.654-.98,1.237-.37.434.068.968.4l-.186.1c.908,1.8,2.535,3.6,4.662,2.134.521-.36.974-1.426,1.564-1.6.631-.184,1.986.649,2.433.983Zm-4.088-.653c.59-.8-.326-1.5-.145-2.348a3.515,3.515,0,0,1,.944.824,8.406,8.406,0,0,0-.467-1.521c.669-.278.878-.573,1.263.075-.361,1.509-.737,4.319-2.857,4.186a1.9,1.9,0,0,1-.923-3.482c.334-.217,1.281-.654,1.508-.305.125.193-.774,1.672-.751,2.056.049.851.776,1.4,1.43.514Zm4.877-5.812a.921.921,0,0,1-.5.594c-2.379.85-4.771,1.661-7.158,2.488-2.848.986-5.69,1.988-8.541,2.961-3.944,1.345-7.9,2.664-11.843,4q-6.361,2.162-12.714,4.343c-1.718.59-3.423,1.219-5.142,1.8-1.679.571-3.375,1.1-5.054,1.669-.481.164-.726.107-.7-.456.013-.332,0-.666,0-1,.011-1.861-.24-1.386,1.442-1.933q6.293-2.042,12.58-4.106c5.727-1.887,11.455-3.772,17.171-5.694,5.358-1.8,10.7-3.655,16.05-5.482,1.259-.43,2.527-.834,3.78-1.275.507-.178.718-.009.711.49a10.03,10.03,0,0,1-.079,1.59Zm.679-53.436q-.058,9.851-.133,19.7c-.039,4.393-.105,8.785-.164,13.178-.076,5.634-.169,11.269-.217,16.9-.005.685-.238.918-.87,1.129-7.3,2.448-14.571,4.965-21.868,7.409-7.927,2.656-15.873,5.257-23.814,7.874q-2.148.707-4.314,1.36c-.836.254-.931.18-.936-.685q-.024-5.058-.033-10.118-.008-8.053,0-16.108h-.237q0-13.112-.009-26.222a.635.635,0,0,1,.551-.737c6.769-1.9,13.525-3.834,20.3-5.71,7.245-2.006,14.509-3.941,21.758-5.934,3.078-.846,6.139-1.758,9.206-2.646.737-.213.787-.2.782.6Zm-.117-1.488c-.354.5-1.307.633-2.022.834-4.5,1.263-9.015,2.5-13.523,3.745q-10.638,2.945-21.275,5.9-7.528,2.094-15.048,4.221c-.49.139-.653.02-.626-.474.023-.421.005-.843.005-1.264.019-1.8.011-1.823,1.762-2.3q10.169-2.769,20.346-5.506,9.438-2.543,18.881-5.068c3.6-.967,7.189-1.945,10.786-2.909.8-.214.851-.174.85.623,0,.751.225,1.687-.135,2.2Zm.33-13.951c-.031,3.2-.088,6.39-.1,9.586,0,.625-.164.89-.83,1.063-4.892,1.277-9.763,2.633-14.648,3.937-7.412,1.979-14.834,3.922-22.245,5.907-4.542,1.216-9.073,2.476-13.6,3.729-1.412.39-1.4.41-1.405-1.022-.02-4.594-.052-9.187-.067-13.78-.011-3.372,0-6.745,0-10.117h-.064q0-11.885,0-23.769c0-1.42-.013-1.437,1.4-1.741q8.912-1.914,17.827-3.81c6.743-1.445,13.483-2.911,20.23-4.343,3.946-.838,7.9-1.626,11.856-2.437,1.268-.261,1.548-.108,1.576,1.189.113,5.1.242,10.2.246,15.3C173.445,100.64,173.339,107.408,173.274,114.176ZM74.737,185.4q.016.118.028.236c-.04-.049-.081-.1-.125-.152.033-.031.065-.056.1-.084ZM134.579,93.3c0-1.442.3-3.563-1.625-3.78-1.625-.184-3.708.741-5.277,1.127-2,.491-2.982.562-2.958,2.792.021,2.067.18,4.142.274,6.208.063,1.377-.365,3.892,1.6,3.9,1.79.007,4.112-.862,5.863-1.292a2.632,2.632,0,0,0,2.375-2.776c.043-2.036-.182-4.138-.266-6.175h.013Zm-.526,7.6c-.655,1.109-3.058,1.184-4.193,1.453-1.268.3-3.753,1.614-4.2-.127-.414-1.628-.15-3.792-.238-5.47-.065-1.233-.637-3.511-.095-4.652.534-1.121,2.756-1.131,3.825-1.363,1.03-.224,3.557-1.269,4.476-.5,1.032.86.412,4.39.412,5.594h.188C134.232,97.142,134.731,99.747,134.053,100.894Zm31.917,42.561c-2.624-3.177-6.274-3.777-10.1-2.88-4.961,1.165-9.892,2.48-14.806,3.825-2.278.623-4.271,1.191-5.927,2.99a11.58,11.58,0,0,0-2.8,5.277,33,33,0,0,0-.289,7.217q0,4.048,0,8.1h.23q0,4.505.025,9.01c.013,2.624-.257,5.4,1.03,7.8,2.754,5.129,8.23,2.81,12.461,1.353,4.927-1.7,9.879-3.346,14.775-5.126,4.155-1.512,6.946-4.711,7.253-9.233.352-5.165.023-10.425.092-15.6.056-4.234.96-9.207-1.95-12.73ZM132.6,159.17c0-2.389-.35-5.339.549-7.609.82-2.068,3.513-2.295,5.393-2.866,5.774-1.757,11.609-3.27,17.418-4.9,2.789-.78,4.821-1.165,6.229,1.819,1.208,2.561.642,5.931.642,8.672h-.144c0,4.251,1.148,10.041-3.183,12.643-1.931,1.16-4.452,1.565-6.586,2.228-2.091.65-4.8,2.107-7.035,1.871-1.719-.18-2.445-1.568-2.666-3.138-.093-.666-.469-2.634-.053-3.268.565-.863,2.93-.308,3.808-.338,4.956-.174,3.6-6.817,3.677-10.113.052-2.211.217-4.331-1.711-5.875-1.739-1.393-3.591-.244-4.768,1.305-1.28,1.683-1.464,3.671-1.532,5.708-.055,1.63.7,5.086-.968,5.866a62.408,62.408,0,0,1-6.541,2.039c-.911.3-2.1,1.153-2.523.246-.452-.97-.005-3.246-.008-4.291Zm34.694,5.9a1.358,1.358,0,0,1-.523.887,27.869,27.869,0,0,1-8.948,3.96c-2.271.682-4.527,1.416-6.791,2.124-4.082,1.279-8.159,2.573-12.249,3.825-2.094.641-3.792-.065-5.149-2.014a3.818,3.818,0,0,1-.834-2.637c.083-.856.017-1.727.017-2.592h-.076c0-1.129.017-2.26-.008-3.39a.841.841,0,0,1,.629-.954q4.257-1.3,8.513-2.608c.542-.165.7.067.7.6q.018,2.727.1,5.453a4.423,4.423,0,0,0,1.421,3.063,2.66,2.66,0,0,0,2.854.739c3.913-1.227,7.865-2.34,11.742-3.672a6.682,6.682,0,0,0,4.484-5.776c.079-.526.218-.775.751-.884.911-.186,1.81-.438,2.705-.691.485-.137.7-.031.7.511-.021,1.353.021,2.708-.037,4.058ZM143.275,157.4c.425-.248,1.658.642,2.264.507,1.542-.344.731-3.944.906-5.182a2.68,2.68,0,0,1,2.712-2.457c1.057.068.975.5.995,1.466.021,1.072,0,2.146,0,3.218h-.071c0,1.143.039,2.295,0,3.438-.033,1,0,1.137-.95,1.312-1.347.246-2.383.22-3.026,1.653-.562,1.252-.384,2.77-2.385,2.409-1.281-.23-.631-3.228-.637-4.4,0-.473-.238-1.713.19-1.963Zm2.613-1.486c-.031,1.091-.242,1.949-1.573,1.425-1.068-.42-1.1-1.429-1.1-2.437-.068-2.365.851-5.611,3.326-6.529.758-.281,2.523-.169,2.662.946.088.7-1.219.6-1.853.986-1.933,1.169-1.406,3.7-1.46,5.609Zm4.258,5.659a3.38,3.38,0,0,1-2.151,2.13c-2.46.594-1.653-3.2.328-3.525l.008.044C149.468,160.156,150.53,160.141,150.146,161.576Zm14.177,16.743a14.37,14.37,0,0,1-5.529,2.748c-2.669.9-5.322,1.843-7.978,2.782-2.532.9-5.061,1.807-7.614,2.644-2.242.734-4.644,1.693-6.908.535-4.583-2.34-3.434-9.054-3.434-13.243.955.994,1.857,2.2,3.218,2.653,1.461.485,2.878-.141,4.27-.567,3.009-.922,6.005-1.881,9.01-2.814,3.155-.982,6.313-1.958,9.458-2.974a30.837,30.837,0,0,0,4.666-1.664c1.279-.659,2.436-1.513,3.733-2.144C167.688,170.35,167.54,175.326,164.323,178.319Zm3.043-19.151c-.332,1.184-1.616,1.072-2.718,1.345-1.645.406-1.328-.166-1.323-1.729.005-1.588,0-3.175,0-4.763h.044c0-2.943.606-6.528-.995-9.181-2.114-3.5-5.019-1.914-8.216-1.02-3.458.966-6.946,1.813-10.409,2.757-1.624.442-3.255.87-4.864,1.363-1.5.459-3.059,1.365-4.61,1.562,1.048-2.416,3.537-3.717,5.939-4.353,3.03-.8,6.072-1.562,9.106-2.349,4.552-1.183,9.613-3.585,14.063-.924,4.841,2.894,4.036,8.039,4,12.93-.008,1.319.336,3.1-.017,4.363Zm-85.642-60.5c-.107,2.168-2.039.669-2.094-.725C79.545,95.741,81.761,96.974,81.724,98.663Zm4.2-13.8c.554.754,1.188.6,1.994.589.776-.008.84.281,1.034-.611-.581-1.509-1.083-4.414-2.709-2.195-.6-.727-.317-1.743-1.042-2.3-.59.851-.132,1.5.158,2.355C85.587,83.38,85.477,84.259,85.92,84.862Zm1.18-2.08c.466-.1,1.885,2.393.129,2.363C85.891,85.122,86.165,82.979,87.1,82.782Zm2.465.013c.139-1.465,4.379-.338,4.287,1.2C94,85.082,89.41,84.449,89.566,82.8Zm4.547-27.822c1.473,3.733,2.974,7.457,4.444,11.192.158.4.356.47.753.4,2.766-.507,5.537-.995,8.306-1.485,2.989-.53,5.98-1.052,8.969-1.588.722-.129.838-.325.555-1-.454-1.084-.962-2.146-1.414-3.23-1.307-3.131-2.592-6.27-3.9-9.4a4.151,4.151,0,0,0-.549-.766l-.149.109c-.177.017-.354.028-.53.055-1.8.268-3.589.542-5.385.806q-5.852.855-11.7,1.7c-.35.051-.47.158-.34.515.326.9.6,1.811.95,2.7Zm.067-2.83c2.523-.348,5.04-.733,7.56-1.108,2.89-.432,5.78-.866,8.936-1.339.365-.1.657.221.886.767,1.638,3.9,3.3,7.8,4.951,11.7.336.791.274.878-.566,1.028-2.856.511-5.706,1.05-8.563,1.554-2.617.462-5.241.883-7.858,1.345-.486.085-.554-.228-.678-.537q-1.912-4.787-3.824-9.572c-.418-1.05-.812-2.11-1.217-3.165-.143-.37-.141-.6.374-.673Zm29.44,20.835c.21.29.421.579.625.862C123.33,75.933,122.512,74.139,123.619,72.978Zm4.747,19.941c-1.855.9-1.862,2.717-2.028,4.522.12.7.072,2.279.86,2.614.7.3,2.5-.437,3.169-.686,2.048-.763,2.432-2.889,1.971-4.895-.437-1.9-2.319-2.355-3.97-1.554Zm.79,6.289c-2.111.453-2.195-.017-2.331-2,.152-1.422.181-3.087,1.672-3.8,1.729-.828,2.729,1.039,2.872,2.536C131.533,97.68,130.837,98.847,129.156,99.208ZM97.823,58.229C98.575,60,99.28,61.8,100.03,63.575a2.562,2.562,0,0,0,.482.606c.35-.035.507-.04.659-.068,2.439-.457,4.875-.93,7.316-1.372q2.809-.507,5.631-.946c.5-.077.374-.336.261-.609-.314-.758-.63-1.514-.97-2.262q-1.516-3.326-3.055-6.643c-.18-.389-.374-.7-.95-.6-4.191.713-8.391,1.389-12.586,2.075-.769.125-.868.294-.547,1.016.513,1.155,1.06,2.293,1.553,3.456Zm-.582-3.981q5.478-.879,10.945-1.818c1.626-.278,1.648-.313,2.328,1.175,1.05,2.3,2.044,4.62,3.094,6.916.261.571.073.733-.465.83q-4.969.9-9.933,1.835c-.718.135-1.43.294-2.307.475a2.711,2.711,0,0,1-.543-.633c-.617-1.422-1.181-2.868-1.791-4.294q-.811-1.894-1.685-3.76c-.212-.45-.212-.638.357-.729Z" transform="translate(-31.448 -47.45)"/></g></g></svg>