<svg xmlns="http://www.w3.org/2000/svg" width="26.403" height="27.815" viewBox="0 0 26.403 27.815"><defs><style>.a{fill:#fff;}.b{fill:#7c529e;}</style></defs><path class="a" d="M7.69,22.884,3.779,18.81,2.15,12.944,3.779,6.426l3.1-3.585,2.607-.978,3.259-.815,5.214.815,5.214.978,2.607,3.585.815,3.748v4.4l-.815,4.237L23.17,21.092l-4.237,1.792H12.742l-2.118,2.933L9.483,26.958H7.69Z" transform="translate(-1.246 0.023)"/><path class="b" d="M13.773,0C11.54.032,6.741.4,4.056,2.861c-2,1.979-2.694,4.9-2.776,8.521S1.131,21.755,7.655,23.6v2.807s-.041,1.123.7,1.354c.915.289,1.435-.575,2.3-1.5l1.621-1.833a25.212,25.212,0,0,0,8.277-.611c.906-.289,6.008-.941,6.842-7.711.855-6.991-.416-11.4-2.712-13.388h-.014c-.693-.638-3.477-2.667-9.7-2.69,0,0-.462-.031-1.2-.018Zm.077,1.966c.634,0,1.019.023,1.019.023,5.266.014,7.779,1.6,8.372,2.132,1.933,1.657,2.93,5.628,2.2,11.465-.693,5.659-4.831,6.017-5.6,6.262a23.417,23.417,0,0,1-7.131.6S9.887,25.864,9,26.742a.461.461,0,0,1-.408.176c-.15-.037-.195-.222-.186-.476l.027-4.659c-5.533-1.53-5.207-7.3-5.148-10.319s.634-5.483,2.318-7.154c2.268-2.051,6.343-2.327,8.24-2.341Zm.417,3.015a.346.346,0,1,0,0,.693,6.531,6.531,0,0,1,4.673,1.843,6.736,6.736,0,0,1,1.9,5.03.349.349,0,0,0,.349.349v-.014a.348.348,0,0,0,.349-.344,7.488,7.488,0,0,0-2.1-5.519,7.15,7.15,0,0,0-5.171-2.038Zm-4.582.8a1.088,1.088,0,0,0-.711.14H8.955A5.456,5.456,0,0,0,7.628,7.013a2.093,2.093,0,0,0-.535,1.1,1.481,1.481,0,0,0,.055.629l.023.014a15.67,15.67,0,0,0,1.394,3.011,17.713,17.713,0,0,0,2.69,3.676l.031.045.05.037.031.037.037.031a17.969,17.969,0,0,0,3.686,2.7,17.092,17.092,0,0,0,3.016,1.39v.009a1.562,1.562,0,0,0,.462.072,2.132,2.132,0,0,0,1.277-.548,5.271,5.271,0,0,0,1.078-1.331v-.009a.984.984,0,0,0-.209-1.3,16.054,16.054,0,0,0-2.491-1.788,1.137,1.137,0,0,0-1.44.2l-.521.656a.945.945,0,0,1-.752.281l-.014.009a6.8,6.8,0,0,1-4.582-4.587.922.922,0,0,1,.289-.752l.652-.525a1.154,1.154,0,0,0,.195-1.449,15.641,15.641,0,0,0-1.784-2.491.991.991,0,0,0-.584-.349Zm5.184,1.033a.349.349,0,0,0,0,.7,4.369,4.369,0,0,1,3.07,1.331,4.051,4.051,0,0,1,1.041,2.979.35.35,0,0,0,.349.344l.014.018a.351.351,0,0,0,.349-.349,4.818,4.818,0,0,0-1.241-3.469,5.047,5.047,0,0,0-3.536-1.553Zm.571,1.874a.356.356,0,0,0-.023.711,1.682,1.682,0,0,1,1.775,1.829.346.346,0,0,0,.344.34h.014a.35.35,0,0,0,.335-.371A2.372,2.372,0,0,0,15.453,8.69h-.014Z" transform="translate(-1.266 -0.001)"/></svg>