<svg xmlns="http://www.w3.org/2000/svg" width="42.77" height="43.12" viewBox="0 0 42.77 43.12"><defs><style>.a{fill:#00e676;}.b{fill:#fff;}</style></defs><g transform="translate(0 0)"><path class="a" d="M11.7,37.427l.7.35a18.265,18.265,0,0,0,9.44,2.564A18.624,18.624,0,0,0,35.012,8.526a18.542,18.542,0,0,0-31.7,13.286A19.113,19.113,0,0,0,6.11,31.6l.466.7L4.712,39.176,11.7,37.427Z" transform="translate(-0.4 -0.368)"/><path class="b" d="M36.593,6.293A20.98,20.98,0,0,0,21.56,0,21.288,21.288,0,0,0,.233,21.443a22.5,22.5,0,0,0,2.8,10.605L0,43.12l11.3-2.914A20.808,20.808,0,0,0,21.443,42.77,21.437,21.437,0,0,0,42.77,21.327,21.151,21.151,0,0,0,36.594,6.293ZM21.56,39.157a17.314,17.314,0,0,1-8.974-2.447l-.7-.35L5.128,38.109l1.748-6.643-.466-.7a17.69,17.69,0,1,1,24.357,5.71,16.991,16.991,0,0,1-9.207,2.68ZM31.815,26.222l-1.282-.583s-1.864-.816-3.03-1.4c-.117,0-.233-.117-.35-.117a1.683,1.683,0,0,0-.816.233s-.116.116-1.748,1.981a.641.641,0,0,1-.583.35h-.117a.885.885,0,0,1-.466-.233l-.583-.233a11.333,11.333,0,0,1-3.38-2.214c-.233-.233-.583-.466-.816-.7a13.012,13.012,0,0,1-2.214-2.8l-.117-.233c-.116-.117-.116-.233-.233-.466a.873.873,0,0,1,.117-.583s.466-.583.816-.932c.233-.233.35-.583.583-.816a1.435,1.435,0,0,0,.233-1.165,45.363,45.363,0,0,0-1.864-4.428,1.349,1.349,0,0,0-.816-.583H13.868c-.233,0-.466.117-.7.117l-.117.116c-.233.117-.466.35-.7.466-.233.233-.35.466-.583.7a5.943,5.943,0,0,0-1.282,3.613A6.913,6.913,0,0,0,11.071,19l.117.35A19.412,19.412,0,0,0,15.5,25.289l.466.466a7.047,7.047,0,0,1,.932.932,20.823,20.823,0,0,0,8.391,4.429c.35.116.816.116,1.165.233H27.62a4.322,4.322,0,0,0,1.748-.466c.35-.233.583-.233.816-.466l.233-.233c.233-.233.466-.35.7-.583a3.089,3.089,0,0,0,.583-.7,6.685,6.685,0,0,0,.466-1.631v-.816a1.441,1.441,0,0,0-.35-.233Z" transform="translate(0 0)"/></g></svg>