<svg width="317" height="343" viewBox="0 0 317 343" fill="none" xmlns="http://www.w3.org/2000/svg">
<g clip-path="url(#clip0_7_173)">
<path d="M10.0573 291.627L58.5328 4.3665L306.42 51.3861L257.945 338.646L10.0573 291.627Z" fill="#F075AA" stroke="#211E1F" stroke-width="1.73"/>
<g clip-path="url(#clip1_7_173)">
<rect x="0.502031" y="0.719218" width="207.799" height="194.527" transform="matrix(0.982482 0.186358 -0.163804 0.986493 77.2077 22.7861)" fill="white" stroke="white" stroke-width="1.22644"/>
<path d="M120.562 168.642L143.083 234.2L45.7024 215.511L57.0751 146.776L96.5103 99.4397L120.561 168.64L120.562 168.642Z" fill="#F075AA" stroke="#211E1F" stroke-width="1.22644"/>
<path d="M54.7731 217.208L126.749 121.182L163.116 237.709L54.7731 217.208Z" fill="#F075AA" stroke="#211E1F" stroke-width="1.22644"/>
</g>
<rect x="0.409339" y="0.586426" width="208.026" height="194.753" transform="matrix(0.982482 0.186358 -0.163804 0.986493 77.1843 22.8011)" stroke="#211E1F"/>
<path d="M247.527 116.308C244.793 132.774 228.349 143.52 210.698 140.172C193.047 136.824 181.067 120.686 183.801 104.22C186.535 87.7548 202.979 77.0088 220.63 80.3568C238.281 83.7048 250.261 99.8425 247.527 116.308Z" fill="#F075AA" stroke="#211E1F" stroke-width="1.73"/>
<path d="M98.5774 286.068L100.436 286.386L100.988 283.17C109.226 284.472 114.601 281.236 115.588 275.482L115.594 275.446C116.617 269.478 112.514 264.874 104.395 263.298L104.91 260.296L103.052 259.977L102.537 262.979C94.298 261.677 88.9172 264.948 87.9366 270.667L87.9304 270.702C86.9069 276.671 90.9627 281.34 99.129 282.851L98.5774 286.068ZM113.664 275.115C112.836 279.94 108.549 282.627 101.24 281.484L104.072 264.972C111.487 266.354 114.455 270.505 113.67 275.08L113.664 275.115ZM89.8604 271.033C90.6756 266.28 94.9035 263.51 102.284 264.665L99.4528 281.177C92.0014 279.789 89.0514 275.751 89.8543 271.069L89.8604 271.033ZM130.64 291.456C138.217 292.755 144.298 287.543 145.475 280.681L145.487 280.61C146.658 273.783 142.726 266.891 135.148 265.591C127.571 264.292 121.49 269.504 120.313 276.366L120.301 276.438C119.13 283.264 123.062 290.156 130.64 291.456ZM130.999 289.788C124.816 288.728 121.183 282.88 122.243 276.697L122.255 276.626C123.316 270.442 128.606 266.199 134.789 267.259C140.972 268.319 144.605 274.167 143.545 280.35L143.533 280.421C142.472 286.605 137.182 290.848 130.999 289.788ZM154.617 295.126L156.475 295.445L160.471 272.142L169.192 273.637L169.486 271.921L150.186 268.612L149.892 270.327L158.613 271.823L154.617 295.126ZM180.237 299.961C187.814 301.26 193.896 296.049 195.072 289.186L195.085 289.115C196.255 282.288 192.323 275.396 184.746 274.097C177.169 272.797 171.088 278.009 169.911 284.871L169.898 284.943C168.728 291.769 172.66 298.662 180.237 299.961ZM180.597 298.293C174.413 297.233 170.78 291.386 171.841 285.202L171.853 285.131C172.913 278.948 178.203 274.704 184.386 275.764C190.57 276.825 194.203 282.672 193.142 288.855L193.13 288.927C192.07 295.11 186.78 299.354 180.597 298.293Z" fill="#211E1F"/>
</g>
<defs>
<clipPath id="clip0_7_173">
<rect width="316.199" height="342.549" fill="white"/>
</clipPath>
<clipPath id="clip1_7_173">
<rect width="209.026" height="195.753" transform="matrix(0.982482 0.186358 -0.163804 0.986493 77.0811 22.8694)" fill="white"/>
</clipPath>
</defs>
</svg>
