<svg width="681" height="532" viewBox="0 0 681 532" fill="none" xmlns="http://www.w3.org/2000/svg">
<path d="M84.4661 4.45672L612.939 5.27577V195.5H550.935V333.046H10.7078L6.40823 83.7494C5.65599 40.1327 40.8431 4.38911 84.4661 4.45672Z" fill="#FAB416"/>
<path d="M612.939 5.27577L84.4661 4.45672C40.8431 4.38911 5.65599 40.1327 6.40823 83.7494L10.7078 333.046H550.935V195.5M612.939 5.27577L550.935 115.233L550.935 195.5M612.939 5.27577V195.5H550.935" stroke="#211E1F" stroke-width="1.73234"/>
<path d="M673.724 100.352C673.724 126.725 666.82 150.562 655.702 167.778C644.579 185.003 629.315 195.505 612.586 195.505C595.851 195.505 580.409 185.085 569.111 167.948C557.818 150.821 550.739 127.075 550.739 100.707C550.739 74.3378 557.818 50.4138 569.113 33.1075C580.415 15.7903 595.856 5.19991 612.586 5.19991C629.315 5.19991 644.579 15.7017 655.702 32.9268C666.82 50.1431 673.724 73.9793 673.724 100.352Z" fill="#FAB416" stroke="#211E1F" stroke-width="1.73234"/>
<path d="M636.899 99.9987C636.899 110.619 634.118 120.194 629.666 127.088C625.209 133.99 619.155 138.107 612.598 138.107C606.04 138.107 599.986 133.99 595.529 127.088C591.077 120.194 588.296 110.619 588.296 99.9987C588.296 89.3779 591.077 79.8028 595.529 72.9095C599.986 66.0073 606.04 61.8905 612.598 61.8905C619.155 61.8905 625.209 66.0073 629.666 72.9095C634.118 79.8028 636.899 89.3779 636.899 99.9987Z" fill="white" stroke="#211E1F" stroke-width="1.73234"/>
<path d="M107.771 104H139.755V78.6161H137.869V102.259H124.706V78.6161H122.82V102.259H109.657V78.6161H107.771V104ZM168.397 104V78.6161H166.62L149.178 100.7V78.6161H147.292V104H148.706L166.511 81.4446V104H168.397ZM175.941 104H177.827V94.5354H184.68C190.011 94.5354 194.58 91.8157 194.58 86.4489V86.3763C194.58 81.4809 190.736 78.6161 185.152 78.6161H175.941V104ZM177.827 92.7948V80.3567H185.007C189.539 80.3567 192.694 82.46 192.694 86.4851V86.5576C192.694 90.3652 189.503 92.7948 184.789 92.7948H177.827ZM211.767 104.435C219.455 104.435 224.568 98.2705 224.568 91.3081V91.2355C224.568 84.3094 219.528 78.181 211.84 78.181C204.152 78.181 199.039 84.3456 199.039 91.3081V91.3806C199.039 98.3068 204.08 104.435 211.767 104.435ZM211.84 102.731C205.566 102.731 200.997 97.5815 200.997 91.3081V91.2355C200.997 84.9621 205.494 79.8853 211.767 79.8853C218.041 79.8853 222.61 85.0346 222.61 91.3081V91.3806C222.61 97.654 218.113 102.731 211.84 102.731ZM230.972 104H232.858V91.8157H237.935L249.539 104H252.15L239.53 90.8366L251.642 78.6161H249.104L237.862 90.0751H232.858V78.6161H230.972V104ZM266.87 104.435C274.557 104.435 279.67 98.2705 279.67 91.3081V91.2355C279.67 84.3094 274.63 78.181 266.942 78.181C259.254 78.181 254.141 84.3456 254.141 91.3081V91.3806C254.141 98.3068 259.182 104.435 266.87 104.435ZM266.942 102.731C260.669 102.731 256.1 97.5815 256.1 91.3081V91.2355C256.1 84.9621 260.596 79.8853 266.87 79.8853C273.143 79.8853 277.712 85.0346 277.712 91.3081V91.3806C277.712 97.654 273.216 102.731 266.942 102.731ZM297.57 104.544H299.456V101.28C307.796 101.172 312.546 97.0738 312.546 91.2355V91.1993C312.546 85.1434 307.723 81.2996 299.456 81.1182V78.0722H297.57V81.1182C289.23 81.227 284.479 85.361 284.479 91.163V91.1993C284.479 97.2551 289.266 101.172 297.57 101.28V104.544ZM310.588 91.1993C310.588 96.0947 306.817 99.4672 299.419 99.576V82.8226C306.962 82.9314 310.588 86.5214 310.588 91.163V91.1993ZM286.437 91.1993C286.437 86.3763 290.136 82.9314 297.606 82.8226V99.576C290.027 99.4672 286.437 95.9859 286.437 91.2355V91.1993ZM330.081 104.435C337.769 104.435 342.882 98.2705 342.882 91.3081V91.2355C342.882 84.3094 337.842 78.181 330.154 78.181C322.466 78.181 317.353 84.3456 317.353 91.3081V91.3806C317.353 98.3068 322.394 104.435 330.081 104.435ZM330.154 102.731C323.881 102.731 319.311 97.5815 319.311 91.3081V91.2355C319.311 84.9621 323.808 79.8853 330.081 79.8853C336.355 79.8853 340.924 85.0346 340.924 91.3081V91.3806C340.924 97.654 336.427 102.731 330.154 102.731ZM349.286 104H351.172V94.5354H358.026C363.356 94.5354 367.926 91.8157 367.926 86.4489V86.3763C367.926 81.4809 364.082 78.6161 358.497 78.6161H349.286V104ZM351.172 92.7948V80.3567H358.352C362.885 80.3567 366.04 82.46 366.04 86.4851V86.5576C366.04 90.3652 362.849 92.7948 358.135 92.7948H351.172ZM373.509 104H375.322V81.9523L385.367 96.5661H385.512L395.557 81.9523V104H397.442V78.6161H395.665L385.476 93.6289L375.286 78.6161H373.509V104ZM402.815 104H404.773L408.001 96.8925H422.977L426.204 104H428.271L416.45 78.4348H414.637L402.815 104ZM408.798 95.1882L415.507 80.5018L422.179 95.1882H408.798ZM437.412 104H439.298V80.3567H448.146V78.6161H428.564V80.3567H437.412V104Z" fill="black"/>
</svg>
